<?xml version="1.0" encoding="utf-8"?>
<svg version="1.1" id="Layer_1" xmlns="http://www.w3.org/2000/svg" xmlns:xlink="http://www.w3.org/1999/xlink" x="0px" y="0px" viewBox="0 0 192 192" style="enable-background:new 0 0 192 192;" xml:space="preserve">
	<style type="text/css">
		.st0{fill:#FF3A23;}
	</style>
	<g transform="translate(0.000000,192.000000) scale(0.100000,-0.100000)">
		<path d="M385,1671c-49-30-77-67-91-121c-36-138,80-267,222-245c54,8,82-7,154-79l54-56l-37-38l-37-38l25-98c24-88,25-102,14-154
		c-13-66-46-136-97-207c-58-80-184-233-261-317c-39-43-74-89-77-104c-10-41,2-110,24-142c60-83,202-82,257,2c9,14,30,76,47,138
		c74,277,126,399,250,585c85,128,152,197,273,279c186,126,302,178,553,248c90,24,174,52,188,61c84,55,85,197,2,257
		c-33,23-101,34-143,24c-15-4-57-35-93-69c-88-83-233-203-313-259c-87-62-154-94-222-107c-51-9-69-7-153,15l-97,26l-41-41l-42-41
		l-49,51c-77,78-108,93-180,91c-74-3-109,9-153,51c-64,62-66,160-5,228c53,59,128,71,204,33c25-12,39-10,39,7c0,4-18,14-40,23
		C505,1696,423,1695,385,1671z" />
		<path class="st0" d="M1290,885c-274-77-355-421-145-614c78-71,145-94,255-89c107,6,164,31,241,108c71,70,99,139,99,245
		c0,101-27,170-96,244C1551,879,1416,920,1290,885z M1389,536l203-203l-22-21c-76-71-212-88-312-39c-135,66-200,223-149,359
		c21,54,55,108,69,108C1182,740,1277,648,1389,536z" />
	</g>
</svg>
