<?xml version="1.0" encoding="utf-8"?>
<!-- Generator: Adobe Illustrator 24.2.0, SVG Export Plug-In . SVG Version: 6.00 Build 0)  -->
<svg version="1.1" id="Слой_1" xmlns="http://www.w3.org/2000/svg" xmlns:xlink="http://www.w3.org/1999/xlink" x="0px" y="0px"
	 viewBox="0 0 200 200" style="enable-background:new 0 0 200 200;" xml:space="preserve">
<style type="text/css">
	.st0{fill:#CB007B;}
	.st1{fill:#FFFFFF;}
</style>
<circle class="st0" cx="100.3" cy="100" r="100"/>
<path class="st1" d="M142.6,62.9C142.6,62.9,142.6,62.9,142.6,62.9c-0.6-0.3-1.1-0.5-1.7-0.8c0,0-0.1,0-0.1-0.1
	c-0.5-0.2-1.1-0.4-1.6-0.6c-0.1,0-0.2-0.1-0.3-0.1c-0.5-0.2-1-0.3-1.5-0.5c-0.1,0-0.3-0.1-0.4-0.1c-0.5-0.1-1-0.3-1.4-0.4
	c-0.2,0-0.3-0.1-0.5-0.1c-0.5-0.1-0.9-0.2-1.4-0.3c-0.2,0-0.4-0.1-0.5-0.1c-0.4-0.1-0.9-0.1-1.4-0.2c-0.2,0-0.4-0.1-0.6-0.1
	c-0.5-0.1-0.9-0.1-1.4-0.1c-0.2,0-0.4,0-0.6,0c-0.7,0-1.3-0.1-2-0.1c-0.7,0-1.3,0-2,0.1c-0.2,0-0.4,0-0.6,0c-0.5,0-0.9,0.1-1.4,0.1
	c-0.2,0-0.4,0.1-0.6,0.1c-0.5,0.1-0.9,0.1-1.4,0.2c-0.2,0-0.4,0.1-0.5,0.1c-0.5,0.1-0.9,0.2-1.4,0.3c-0.2,0-0.3,0.1-0.5,0.1
	c-0.5,0.1-1,0.2-1.4,0.4c-0.1,0-0.3,0.1-0.4,0.1c-0.5,0.1-1,0.3-1.5,0.5c-0.1,0-0.2,0.1-0.3,0.1c-0.5,0.2-1.1,0.4-1.6,0.6
	c0,0-0.1,0-0.1,0.1c-0.6,0.2-1.2,0.5-1.7,0.8c0,0,0,0,0,0c-4.3,2-8.2,4.9-11.4,8.3C93.6,64,84.1,59.5,73.5,59.5
	c-20.2,0-36.6,16.4-36.6,36.6v44.5h10.7h8.8h6.7V87.9h24.8v52.6h2.7h0h19.5h0h2.7V87.9h25v52.6h6.4h9.1h10.4V96.1
	C163.8,81.4,155.1,68.7,142.6,62.9z"/>
</svg>
