<svg width="381" height="172" viewBox="0 0 381 172" fill="none" xmlns="http://www.w3.org/2000/svg">
<path d="M68.6888 168.315V134.705H0.329427V106.678L72.7904 0.607089H99.6784V106.564H120.414V134.705H99.6784V168.315H68.6888ZM68.6888 106.564V49.484L30.2936 106.564H68.6888ZM189.913 0.607089C206.091 0.607089 218.738 6.37966 227.852 17.9248C238.714 31.5967 244.145 54.2692 244.145 85.9424C244.145 117.54 238.676 140.25 227.738 154.074C218.7 165.467 206.091 171.164 189.913 171.164C173.658 171.164 160.556 164.935 150.606 152.479C140.656 139.946 135.681 117.654 135.681 85.6006C135.681 54.1553 141.15 31.5207 152.087 17.6969C161.126 6.3037 173.734 0.607089 189.913 0.607089ZM189.913 27.1533C186.039 27.1533 182.583 28.4066 179.545 30.9131C176.507 33.3436 174.152 37.749 172.481 44.1292C170.278 52.4083 169.177 66.346 169.177 85.9424C169.177 105.539 170.164 119.021 172.139 126.388C174.114 133.68 176.583 138.541 179.545 140.972C182.583 143.402 186.039 144.618 189.913 144.618C193.786 144.618 197.242 143.402 200.281 140.972C203.319 138.465 205.673 134.022 207.344 127.642C209.547 119.438 210.648 105.539 210.648 85.9424C210.648 66.346 209.661 52.902 207.686 45.6103C205.711 38.2427 203.205 33.3436 200.167 30.9131C197.204 28.4066 193.786 27.1533 189.913 27.1533ZM328.454 168.315V134.705H260.095V106.678L332.556 0.607089H359.444V106.564H380.18V134.705H359.444V168.315H328.454ZM328.454 106.564V49.484L290.059 106.564H328.454Z" fill="#F3F2F0"/>
</svg>
