<svg width="43" height="37" viewBox="0 0 43 37" fill="none" xmlns="http://www.w3.org/2000/svg">
<path d="M33.1968 15.5911C32.109 14.4911 30.9846 13.4277 29.8112 12.4133C29.5301 12.1811 28.9924 12.12 28.6012 12.1811C26.7312 12.4622 25.0079 11.5088 24.5068 9.85885C23.9935 8.17218 24.7879 6.35107 26.4379 5.6544C27.599 5.16551 28.7357 5.29996 29.8235 5.9844C30.6912 6.5344 31.6323 6.96218 32.5001 7.49996C33.3435 8.02551 34.1379 8.63662 34.9446 9.21107C34.969 9.13773 34.9935 9.05218 35.0179 8.96662C35.0179 8.9544 35.0179 8.9544 35.0301 8.94218C35.4823 7.09662 34.6512 4.85996 33.1723 3.3444C33.1357 3.30774 33.099 3.27107 33.0746 3.24662C33.0623 3.2344 33.0379 3.20996 33.0257 3.19773C31.2168 1.48662 28.6135 1.19329 26.2179 1.4744C26.1812 1.4744 26.1446 1.48662 26.1079 1.48662C25.839 1.52329 25.5824 1.55996 25.3135 1.59662C24.4212 1.79218 23.529 1.97551 22.649 2.21996C21.1946 2.62329 19.8012 3.14885 18.4935 3.80885C16.9779 4.59107 15.5724 5.56885 14.3257 6.71773C14.2768 6.76662 14.2279 6.80329 14.179 6.85218C14.1179 6.91329 14.0568 6.9744 13.9957 7.02329C13.8612 7.15773 13.7268 7.27996 13.6046 7.42662C10.3779 10.7877 7.04124 14.0388 3.75346 17.3266C2.54346 18.5366 1.33346 19.7466 0.966797 21.5066C0.966797 22.1911 0.966797 22.8755 0.966797 23.56C1.32124 25.0877 2.31124 26.1877 3.3868 27.2511C5.70902 29.5488 7.99457 31.8833 10.3412 34.1444C12.3212 36.0511 15.719 36.1122 17.6746 34.1933C22.0379 29.9155 26.4012 25.6377 30.5935 21.2011C31.8157 19.9055 32.5001 18.0844 33.3801 16.4711C33.4657 16.2755 33.3801 15.7744 33.1968 15.5911Z" stroke="#AB064E" stroke-width="1.3" stroke-miterlimit="10" stroke-linecap="round" stroke-linejoin="round"/>
<path d="M41.9472 23.9145C41.0061 19.38 38.6717 15.5667 35.6894 12.12C35.6528 12.0834 35.6283 12.0467 35.5917 12.01C35.4694 11.8756 35.3472 11.7411 35.225 11.6067C35.0172 11.3867 34.8094 11.1667 34.5894 10.9467L34.5772 10.9345C34.0517 10.4089 33.4894 9.90782 32.8906 9.45559C32.7072 9.32115 32.5239 9.19893 32.3406 9.0767C31.8272 8.73448 31.2772 8.42893 30.7028 8.18448C29.7861 7.78115 28.7472 7.58559 27.745 7.48782C27.0239 7.41448 26.5228 8.03782 26.4983 8.74671C26.4617 9.43115 26.8772 10.03 27.5861 10.0667C29.4561 10.1767 30.8494 11.1789 32.145 12.3645C35.335 15.2978 37.5961 18.83 38.9161 22.9611C39.2094 23.8778 39.3317 24.8678 39.3317 25.8334C39.3317 27.2756 38.5128 27.7523 37.3394 26.9334C36.2761 26.2 35.335 25.2345 34.4917 24.2567C33.7339 23.3645 33.1839 22.3011 32.4994 21.2623C32.1206 21.7389 31.8272 22.2523 31.3994 22.6189C30.715 23.2178 30.825 23.7311 31.2894 24.4156C32.4994 26.2245 33.795 27.9234 35.6528 29.1334C37.9628 30.6367 41.275 30.2089 41.9717 26.8723C41.9839 26.8234 41.9961 26.7745 41.9961 26.7256C42.1794 25.7356 41.9594 23.9634 41.9472 23.9145Z" stroke="#AB064E" stroke-width="1.3" stroke-miterlimit="10" stroke-linecap="round" stroke-linejoin="round"/>
<path d="M11.6855 17.3755C11.6855 16.5567 11.8689 15.9578 12.2233 15.5667C12.5778 15.1756 13.0667 14.98 13.6778 14.98C14.3133 14.98 14.8022 15.1756 15.1689 15.5667C15.5355 15.9578 15.7067 16.5689 15.7067 17.3878C15.7067 18.2067 15.5233 18.8055 15.1689 19.1967C14.8144 19.5878 14.3255 19.7833 13.7144 19.7833C13.0789 19.7833 12.59 19.5878 12.2233 19.1967C11.8689 18.8055 11.6855 18.2067 11.6855 17.3755ZM13.0544 17.3633C13.0544 17.9622 13.1278 18.3533 13.2622 18.5611C13.36 18.7078 13.5067 18.7811 13.69 18.7811C13.8733 18.7811 14.02 18.7078 14.13 18.5611C14.2644 18.3533 14.3255 17.9622 14.3255 17.3633C14.3255 16.7767 14.2644 16.3733 14.13 16.1778C14.0322 16.0189 13.8855 15.9455 13.69 15.9455C13.5067 15.9455 13.36 16.0189 13.2622 16.1656C13.1155 16.3733 13.0544 16.7767 13.0544 17.3633ZM15.01 24.5867H13.7144L18.5667 14.9678H19.8255L15.01 24.5867ZM17.8333 22.1911C17.8333 21.3722 18.0167 20.7733 18.3711 20.3822C18.7255 19.9911 19.2144 19.7955 19.8378 19.7955C20.4611 19.7955 20.95 19.9911 21.3167 20.3822C21.6711 20.7733 21.8544 21.3844 21.8544 22.1911C21.8544 23.01 21.6711 23.6211 21.3167 24.0122C20.9622 24.4033 20.4733 24.5989 19.8622 24.5989C19.2267 24.5989 18.7378 24.4033 18.3711 24.0122C18.0167 23.6211 17.8333 23.0222 17.8333 22.1911ZM19.2022 22.1911C19.2022 22.7778 19.2755 23.1811 19.41 23.3767C19.5078 23.5355 19.6544 23.6089 19.8378 23.6089C20.0211 23.6089 20.1678 23.5355 20.2655 23.3889C20.4 23.1811 20.4733 22.79 20.4733 22.1911C20.4733 21.5922 20.4122 21.2011 20.2778 20.9933C20.18 20.8467 20.0333 20.7733 19.8378 20.7733C19.6422 20.7733 19.5078 20.8467 19.41 20.9933C19.2633 21.2011 19.2022 21.6044 19.2022 22.1911Z" fill="#AB064E"/>
</svg>
