<?xml version="1.0" encoding="utf-8"?>
<!-- Generator: Adobe Illustrator 25.3.1, SVG Export Plug-In . SVG Version: 6.00 Build 0)  -->
<svg version="1.1" id="Слой_1" xmlns="http://www.w3.org/2000/svg" xmlns:xlink="http://www.w3.org/1999/xlink" x="0px" y="0px"
	 viewBox="0 0 24 24" style="enable-background:new 0 0 24 24;" xml:space="preserve">
<style type="text/css">
	.st0{fill:none;stroke:#FFFFFF;stroke-width:2;stroke-linecap:round;stroke-linejoin:round;}
	.st1{fill:#FFFFFF;stroke:#FFFFFF;stroke-width:2;stroke-linecap:round;stroke-linejoin:round;}
</style>
<path class="st0" d="M18.5,9.3c0-1.7-0.7-3.2-1.8-4.4c-1.2-1.2-2.8-1.8-4.4-1.8S9,3.7,7.9,4.9S6,7.6,6,9.3c0,7.3-3.1,9.3-3.1,9.3
	h18.7C21.6,18.6,18.5,16.5,18.5,9.3z"/>
<path class="st0" d="M14.9,19.7c-0.3,0.6-0.6,1.2-1.1,1.5c-0.5,0.4-1,0.6-1.5,0.6s-1-0.2-1.5-0.6s-0.8-0.9-1.1-1.5"/>
<path class="st1" d="M1.6,9.3c0-2.3,0.7-4.5,2.1-6.2"/>
<path class="st1" d="M22.4,9.3c0-2.2-0.7-4.4-2.1-6.2"/>
</svg>
