<svg width="30" height="30" viewBox="0 0 30 30" fill="none" xmlns="http://www.w3.org/2000/svg">
<path d="M27.9999 7.32274C27.998 7.17177 27.9999 7.32594 27.9999 7.32274V7.32274Z" fill="#AB064E"/>
<path d="M27.9995 7.32259C27.9977 7.17161 27.9502 7.02658 27.8721 6.90948L27.8707 6.90735C27.8702 6.90664 27.8697 6.90588 27.8692 6.90516L24.8252 2.33922C24.6839 2.12726 24.4461 2 24.1914 2C23.5736 2 6.69483 2 5.80859 2C5.55393 2 5.31607 2.12726 5.17479 2.33922L2.13076 6.90521C2.04606 7.02963 2 7.18167 2 7.33203V27.2383C2 27.659 2.34105 28 2.76172 28H27.2383C27.659 28 28 27.659 28 27.2383V7.33203C28 7.32888 27.9995 7.32579 27.9995 7.32259ZM18.8086 3.52344H23.7837L25.815 6.57031H18.8086V3.52344ZM12.7148 3.52344H17.2852V6.57031H12.7148V3.52344ZM12.7148 8.09375H17.2852V12.2441L15.3406 11.2718C15.1262 11.1646 14.8738 11.1646 14.6594 11.2718L12.7148 12.2441V8.09375ZM6.21627 3.52344H11.1914V6.57031H4.18502L6.21627 3.52344ZM26.4766 26.4766H3.52344V8.09375H11.1914V13.4766C11.1914 13.7406 11.3281 13.9857 11.5527 14.1245C11.7772 14.2633 12.0576 14.276 12.2938 14.1579L15 12.8048L17.7062 14.1579C17.9428 14.2762 18.2232 14.2631 18.4473 14.1245C18.6719 13.9857 18.8086 13.7406 18.8086 13.4766V8.09375H26.4766V26.4766Z" fill="#AB064E"/>
<path d="M14.0151 17.5082L12.4918 15.9849C12.1899 15.6832 11.7066 15.6928 11.4144 15.9849L9.89108 17.5082C9.5936 17.8057 9.5936 18.288 9.89108 18.5854C10.1885 18.8829 10.6708 18.8829 10.9682 18.5854L11.1913 18.3622V21.0937C11.1913 21.5143 11.5324 21.8554 11.953 21.8554C12.3737 21.8554 12.7148 21.5143 12.7148 21.0937V18.3623L12.9379 18.5854C13.2353 18.8829 13.7177 18.8829 14.0151 18.5854C14.3126 18.288 14.3126 17.8057 14.0151 17.5082Z" fill="#AB064E"/>
<path d="M20.11 17.5083L18.5866 15.9849C18.2888 15.6874 17.8057 15.6885 17.5091 15.9849L15.9858 17.5083C15.6883 17.8058 15.6883 18.288 15.9858 18.5855C16.2832 18.883 16.7656 18.883 17.063 18.5855L17.2862 18.3624V21.0937C17.2862 21.5144 17.6272 21.8555 18.0479 21.8555C18.4686 21.8555 18.8096 21.5144 18.8096 21.0937V18.3624L19.0327 18.5855C19.3302 18.883 19.8125 18.883 20.11 18.5855C20.4074 18.288 20.4074 17.8058 20.11 17.5083Z" fill="#AB064E"/>
<path d="M19.5703 23.4297H10.4297C10.009 23.4297 9.66797 23.7707 9.66797 24.1914C9.66797 24.6121 10.009 24.9531 10.4297 24.9531H19.5703C19.991 24.9531 20.332 24.6121 20.332 24.1914C20.332 23.7707 19.991 23.4297 19.5703 23.4297Z" fill="#AB064E"/>
</svg>
