<svg width="21" height="19" viewBox="0 0 21 19" fill="none" xmlns="http://www.w3.org/2000/svg">
<path d="M18.43 15.38H7.19L3.15 1H0" stroke="white" stroke-width="1.3849" stroke-linejoin="round"/>
<path d="M6.52109 3.01953H20.0011L18.6511 11.5595H6.12109" stroke="white" stroke-width="1.3849" stroke-linejoin="round"/>
<path d="M7.58906 18.9804H6.78906C6.50906 18.9804 6.28906 18.7604 6.28906 18.4804V17.6904C6.28906 17.4104 6.50906 17.1904 6.78906 17.1904H7.57906C7.85906 17.1904 8.07906 17.4104 8.07906 17.6904V18.4804C8.08906 18.7504 7.86906 18.9804 7.58906 18.9804Z" fill="white"/>
<path d="M17.9189 18.9804H17.1289C16.8489 18.9804 16.6289 18.7604 16.6289 18.4804V17.6904C16.6289 17.4104 16.8489 17.1904 17.1289 17.1904H17.9189C18.1989 17.1904 18.4189 17.4104 18.4189 17.6904V18.4804C18.4289 18.7504 18.1989 18.9804 17.9189 18.9804Z" fill="white"/>
</svg>
