<svg width="143" height="133" viewBox="0 0 143 133" fill="none" xmlns="http://www.w3.org/2000/svg">
<path fill-rule="evenodd" clip-rule="evenodd" d="M94.575 24.585C94.3947 24.5858 94.2203 24.5217 94.0835 24.4044C93.9467 24.2871 93.8567 24.1244 93.83 23.9462C93.8033 23.768 93.8416 23.5861 93.938 23.4338C94.0344 23.2816 94.1824 23.1691 94.355 23.117L99.98 21.4C100.17 21.3419 100.376 21.3618 100.551 21.4553C100.727 21.5488 100.858 21.7082 100.916 21.8985C100.975 22.0888 100.955 22.2944 100.861 22.47C100.768 22.6456 100.608 22.7769 100.418 22.835L94.794 24.552C94.7228 24.5743 94.6486 24.5854 94.574 24.585H94.575ZM91.656 23.18C91.4949 23.18 91.3381 23.1282 91.2088 23.0322C91.0795 22.9362 90.9846 22.8012 90.938 22.647L89.3 17.227C89.2715 17.1327 89.2618 17.0338 89.2716 16.9357C89.2813 16.8377 89.3103 16.7426 89.3568 16.6558C89.4033 16.5689 89.4665 16.4921 89.5427 16.4297C89.6189 16.3673 89.7067 16.3205 89.801 16.292C89.8953 16.2635 89.9942 16.2539 90.0922 16.2636C90.1903 16.2734 90.2854 16.3024 90.3722 16.3489C90.459 16.3954 90.5359 16.4586 90.5983 16.5348C90.6607 16.611 90.7075 16.6987 90.736 16.793L92.374 22.213C92.4078 22.3251 92.415 22.4435 92.3949 22.5588C92.3748 22.6741 92.328 22.7831 92.2582 22.8771C92.1884 22.9711 92.0976 23.0475 91.993 23.1001C91.8884 23.1526 91.773 23.18 91.656 23.18ZM85.003 27.777C84.824 27.7767 84.6511 27.7124 84.5154 27.5957C84.3798 27.4791 84.2903 27.3177 84.2631 27.1409C84.2359 26.964 84.2729 26.7833 84.3673 26.6313C84.4617 26.4793 84.6074 26.366 84.778 26.312L90.028 24.662C90.1229 24.6286 90.2236 24.6146 90.324 24.6208C90.4244 24.6271 90.5226 24.6535 90.6126 24.6985C90.7026 24.7435 90.7827 24.8062 90.848 24.8827C90.9133 24.9593 90.9625 25.0482 90.9927 25.1442C91.0229 25.2402 91.0335 25.3413 91.0238 25.4415C91.0141 25.5417 90.9844 25.6389 90.9364 25.7273C90.8883 25.8157 90.823 25.8936 90.7442 25.9563C90.6655 26.0189 90.5749 26.0651 90.478 26.092L85.228 27.742C85.1553 27.7654 85.0793 27.7772 85.003 27.777ZM94.83 33.07C94.6688 33.07 94.5119 33.018 94.3826 32.9218C94.2533 32.8256 94.1584 32.6904 94.112 32.536L92.442 26.98C92.3847 26.7891 92.4056 26.5832 92.5001 26.4076C92.5946 26.2321 92.755 26.1013 92.946 26.044C93.1369 25.9867 93.3428 26.0077 93.5183 26.1022C93.6939 26.1967 93.8247 26.3571 93.882 26.548L95.55 32.104C95.5837 32.2162 95.5907 32.3347 95.5704 32.45C95.5501 32.5653 95.5031 32.6743 95.4331 32.7682C95.3631 32.8621 95.2721 32.9383 95.1674 32.9907C95.0626 33.0431 94.9471 33.0703 94.83 33.07Z" fill="#FF0000"/>
<path fill-rule="evenodd" clip-rule="evenodd" d="M126.766 14.865C126.644 14.865 126.524 14.8354 126.416 14.7787C126.309 14.722 126.216 14.6398 126.147 14.5394C126.078 14.4389 126.035 14.3232 126.021 14.2022C126.007 14.0813 126.022 13.9586 126.066 13.845L127.279 10.697C127.351 10.5114 127.493 10.3617 127.675 10.2811C127.857 10.2005 128.063 10.1954 128.249 10.267C128.435 10.3386 128.584 10.481 128.665 10.6629C128.746 10.8449 128.751 11.0514 128.679 11.237L127.465 14.385C127.41 14.5262 127.314 14.6476 127.189 14.7332C127.064 14.8188 126.917 14.8648 126.765 14.865H126.766ZM131.207 18.98C131.115 18.9802 131.023 18.9633 130.937 18.93L127.787 17.72C127.694 17.6858 127.608 17.6333 127.535 17.5657C127.462 17.498 127.403 17.4165 127.362 17.326C127.321 17.2354 127.298 17.1375 127.295 17.0381C127.292 16.9386 127.309 16.8396 127.345 16.7467C127.381 16.6539 127.434 16.569 127.503 16.4972C127.572 16.4253 127.654 16.3678 127.746 16.3281C127.837 16.2884 127.935 16.2672 128.035 16.2658C128.134 16.2645 128.233 16.2829 128.325 16.32L131.475 17.53C131.638 17.5928 131.775 17.7109 131.86 17.8636C131.946 18.0163 131.975 18.1942 131.943 18.3663C131.912 18.5385 131.82 18.694 131.686 18.8061C131.552 18.9182 131.382 18.9797 131.207 18.98ZM123.945 22.217C123.824 22.2169 123.704 22.1873 123.596 22.1307C123.489 22.074 123.396 21.9921 123.328 21.892C123.259 21.7918 123.215 21.6764 123.201 21.5557C123.186 21.4349 123.202 21.3125 123.245 21.199L124.45 18.047C124.483 17.9518 124.534 17.8641 124.602 17.7893C124.669 17.7144 124.751 17.6539 124.842 17.6112C124.933 17.5686 125.032 17.5448 125.133 17.5412C125.233 17.5376 125.334 17.5543 125.428 17.5903C125.522 17.6263 125.607 17.6809 125.68 17.7507C125.752 17.8206 125.81 17.9044 125.849 17.997C125.889 18.0896 125.909 18.1893 125.909 18.2899C125.909 18.3906 125.889 18.4903 125.85 18.583L124.645 21.735C124.591 21.8769 124.495 21.999 124.37 22.0851C124.245 22.1712 124.097 22.2172 123.945 22.217ZM123.856 16.156C123.764 16.156 123.672 16.1391 123.586 16.106L120.436 14.894C120.25 14.8224 120.101 14.68 120.02 14.4981C119.94 14.3161 119.934 14.1097 120.006 13.924C120.078 13.7384 120.22 13.5887 120.402 13.5081C120.584 13.4275 120.79 13.4224 120.976 13.494L124.126 14.706C124.29 14.7689 124.426 14.8871 124.511 15.04C124.597 15.193 124.626 15.371 124.594 15.5433C124.562 15.7156 124.471 15.8712 124.336 15.9831C124.201 16.095 124.031 16.1562 123.856 16.156Z" fill="#88D2F3"/>
<path fill-rule="evenodd" clip-rule="evenodd" d="M19.9751 24.6C19.8478 24.5999 19.7226 24.5674 19.6114 24.5056C19.5001 24.4438 19.4064 24.3547 19.3391 24.2466C19.2717 24.1386 19.233 24.0152 19.2266 23.8881C19.2201 23.761 19.2461 23.6343 19.3021 23.52L20.0671 21.962C20.1546 21.7834 20.3095 21.6468 20.4977 21.5824C20.6859 21.518 20.892 21.531 21.0706 21.6185C21.2492 21.706 21.3857 21.8609 21.4502 22.0491C21.5146 22.2373 21.5016 22.4434 21.4141 22.622L20.6491 24.18C20.5872 24.3062 20.4912 24.4125 20.3718 24.4868C20.2525 24.561 20.1147 24.6003 19.9741 24.6H19.9751ZM22.5651 28.37C22.4508 28.3707 22.3379 28.345 22.2351 28.295L20.6751 27.532C20.5866 27.4887 20.5076 27.4283 20.4425 27.3544C20.3773 27.2806 20.3274 27.1946 20.2955 27.1014C20.2636 27.0082 20.2504 26.9096 20.2566 26.8114C20.2628 26.7131 20.2883 26.6169 20.3316 26.5285C20.3749 26.44 20.4353 26.361 20.5091 26.2959C20.583 26.2307 20.669 26.1808 20.7622 26.1489C20.8554 26.117 20.9539 26.1038 21.0522 26.11C21.1505 26.1162 21.2466 26.1417 21.3351 26.185L22.8951 26.948C23.047 27.0227 23.1692 27.1466 23.2417 27.2996C23.3143 27.4525 23.3329 27.6255 23.2947 27.7904C23.2564 27.9553 23.1635 28.1025 23.0311 28.2079C22.8986 28.3133 22.7344 28.3708 22.5651 28.371V28.37ZM17.1671 30.343C17.0397 30.3431 16.9144 30.3107 16.803 30.249C16.6916 30.1872 16.5978 30.0981 16.5303 29.9901C16.4629 29.882 16.4241 29.7586 16.4176 29.6314C16.4111 29.5041 16.437 29.3774 16.4931 29.263L17.3231 27.563C17.4141 27.391 17.5683 27.2612 17.7532 27.2008C17.9381 27.1404 18.1393 27.1542 18.3142 27.2394C18.4891 27.3245 18.6241 27.4742 18.6907 27.657C18.7573 27.8398 18.7503 28.0413 18.6711 28.219L17.8411 29.919C17.7797 30.0458 17.6838 30.1527 17.5644 30.2275C17.445 30.3023 17.307 30.342 17.1661 30.342L17.1671 30.343ZM16.9631 25.63C16.8485 25.6301 16.7355 25.6034 16.6331 25.552L14.9581 24.732C14.8696 24.6887 14.7906 24.6283 14.7255 24.5544C14.6603 24.4806 14.6104 24.3946 14.5785 24.3014C14.5466 24.2082 14.5334 24.1096 14.5396 24.0114C14.5458 23.9131 14.5713 23.8169 14.6146 23.7285C14.6579 23.64 14.7183 23.561 14.7921 23.4959C14.866 23.4307 14.952 23.3808 15.0452 23.3489C15.1384 23.317 15.2369 23.3038 15.3352 23.31C15.4335 23.3162 15.5296 23.3417 15.6181 23.385L17.2931 24.205C17.4456 24.2794 17.5683 24.4033 17.6412 24.5565C17.7142 24.7097 17.7331 24.883 17.6948 25.0483C17.6565 25.2136 17.5632 25.361 17.4304 25.4665C17.2975 25.5719 17.1327 25.6292 16.9631 25.629V25.63Z" fill="#FF0000"/>
<path fill-rule="evenodd" clip-rule="evenodd" d="M11.757 77.274C10.9235 77.273 10.1244 76.9414 9.53506 76.352C8.94568 75.7626 8.6141 74.9635 8.61304 74.13C8.61383 73.2964 8.94533 72.4972 9.53477 71.9078C10.1242 71.3183 10.9234 70.9868 11.757 70.986C12.5905 70.9871 13.3894 71.3187 13.9787 71.9081C14.5679 72.4975 14.8992 73.2966 14.9 74.13C14.8992 74.9634 14.5679 75.7625 13.9787 76.3519C13.3894 76.9413 12.5905 77.273 11.757 77.274ZM11.757 71.987C11.1887 71.9878 10.6438 72.214 10.2419 72.6159C9.83997 73.0178 9.61383 73.5626 9.61304 74.131C9.61304 75.314 10.573 76.276 11.757 76.276C12.3257 76.2752 12.8707 76.0488 13.2725 75.6464C13.6744 75.244 13.9 74.6987 13.9 74.13C13.899 73.562 13.6729 73.0175 13.2712 72.6159C12.8695 72.2142 12.3251 71.9881 11.757 71.987Z" fill="#88D2F3"/>
<path fill-rule="evenodd" clip-rule="evenodd" d="M137.598 52.144C136.765 52.143 135.966 51.8114 135.376 51.222C134.787 50.6326 134.455 49.8335 134.454 49C134.455 48.1664 134.786 47.3672 135.376 46.7778C135.965 46.1883 136.765 45.8568 137.598 45.856C138.432 45.8568 139.231 46.1883 139.82 46.7778C140.41 47.3672 140.741 48.1664 140.742 49C140.741 49.8335 140.409 50.6326 139.82 51.222C139.231 51.8114 138.432 52.143 137.598 52.144ZM137.598 46.856C136.416 46.856 135.454 47.816 135.454 49C135.454 50.182 136.416 51.144 137.598 51.144C138.166 51.1432 138.711 50.9171 139.113 50.5152C139.515 50.1133 139.741 49.5684 139.742 49C139.741 48.4317 139.515 47.887 139.113 47.4851C138.711 47.0833 138.166 46.8571 137.598 46.856Z" fill="#FF0000"/>
<path fill-rule="evenodd" clip-rule="evenodd" d="M90.7319 5.31402C90.1136 5.31349 89.5207 5.06763 89.0835 4.63041C88.6463 4.19319 88.4004 3.60035 88.3999 2.98202C88.4004 2.3637 88.6463 1.77086 89.0835 1.33364C89.5207 0.896416 90.1136 0.650554 90.7319 0.650024C91.3502 0.650554 91.9431 0.896416 92.3803 1.33364C92.8175 1.77086 93.0634 2.3637 93.0639 2.98202C93.0634 3.60035 92.8175 4.19319 92.3803 4.63041C91.9431 5.06763 91.3502 5.31349 90.7319 5.31402ZM90.7319 1.65002C89.9979 1.65002 89.3999 2.24802 89.3999 2.98202C89.3999 3.71602 89.9979 4.31402 90.7319 4.31402C91.4659 4.31402 92.0639 3.71602 92.0639 2.98202C92.0639 2.24802 91.4669 1.65002 90.7319 1.65002Z" fill="#FFCC00"/>
<path fill-rule="evenodd" clip-rule="evenodd" d="M67.677 33.044C67.0586 33.0435 66.4658 32.7976 66.0286 32.3604C65.5914 31.9232 65.3455 31.3303 65.345 30.712C65.3455 30.0937 65.5914 29.5008 66.0286 29.0636C66.4658 28.6264 67.0586 28.3805 67.677 28.38C68.2954 28.3805 68.8883 28.6264 69.3257 29.0636C69.7631 29.5007 70.0092 30.0936 70.01 30.712C70.0092 31.3304 69.7631 31.9233 69.3257 32.3605C68.8883 32.7976 68.2954 33.0435 67.677 33.044ZM67.677 29.38C66.943 29.38 66.345 29.978 66.345 30.712C66.345 31.446 66.943 32.044 67.677 32.044C68.412 32.044 69.01 31.446 69.01 30.712C69.01 29.978 68.412 29.38 67.677 29.38Z" fill="#88D2F3"/>
<path fill-rule="evenodd" clip-rule="evenodd" d="M114.277 36.525C113.531 36.5242 112.815 36.2274 112.287 35.6996C111.76 35.1719 111.463 34.4564 111.462 33.71C111.463 32.9637 111.76 32.2481 112.287 31.7204C112.815 31.1926 113.531 30.8958 114.277 30.895C115.023 30.8958 115.739 31.1926 116.267 31.7204C116.794 32.2481 117.091 32.9637 117.092 33.71C117.091 34.4564 116.794 35.1719 116.267 35.6996C115.739 36.2274 115.023 36.5242 114.277 36.525ZM114.277 31.893C113.81 31.9149 113.368 32.1161 113.045 32.4546C112.722 32.7931 112.542 33.2431 112.542 33.711C112.542 34.1789 112.722 34.6289 113.045 34.9674C113.368 35.306 113.81 35.5071 114.277 35.529C114.746 35.5099 115.19 35.31 115.516 34.9711C115.841 34.6321 116.023 34.1804 116.023 33.7105C116.023 33.2406 115.841 32.7889 115.516 32.45C115.19 32.111 114.746 31.9111 114.277 31.892V31.893Z" fill="#FFCC00"/>
<path fill-rule="evenodd" clip-rule="evenodd" d="M25.0821 41.155C19.2591 40.153 19.3651 47.779 19.6571 52.905L63.6151 52.653L62.2201 41.07L25.0821 41.155Z" fill="#212121"/>
<path fill-rule="evenodd" clip-rule="evenodd" d="M31.9651 54.592V61.497H39.3121V53.277L31.9651 54.592Z" fill="#FFCC00"/>
<path fill-rule="evenodd" clip-rule="evenodd" d="M72.0871 54.903C72.0751 47.303 69.3901 41.179 64.0571 41.07H24.2061C24.2061 41.07 31.7701 41.07 31.9991 55.736C32.0051 56.163 72.0891 55.278 72.0891 54.903H72.0871Z" fill="#FFCC00"/>
<path fill-rule="evenodd" clip-rule="evenodd" d="M61.114 122.366L69.976 119.246L77.391 132.153L61.114 122.366Z" fill="#187CBE"/>
<path fill-rule="evenodd" clip-rule="evenodd" d="M32.4021 119.266L73.4541 112.016L73.1201 55.471H33.7141L32.4021 119.266Z" fill="#212121"/>
<path fill-rule="evenodd" clip-rule="evenodd" d="M0.838135 109.704L55.3911 100.727L60.7251 105.903L31.0121 127.057L0.838135 109.704Z" fill="#187CBE"/>
<path fill-rule="evenodd" clip-rule="evenodd" d="M34.4541 116.913L75.7881 109.663L75.6631 54.903L34.4531 54.953L34.4541 116.913Z" fill="white"/>
<path fill-rule="evenodd" clip-rule="evenodd" d="M31.41 127.45L84.483 118.365L78.893 59.951L36.403 59.971L31.41 127.45ZM27.117 59.95L36.403 59.97L31.41 127.45L25.91 121.368L20.26 119.274L27.117 59.95Z" fill="#FF0000"/>
<path fill-rule="evenodd" clip-rule="evenodd" d="M36.4029 59.95H32.1599L25.9099 121.368L31.0099 127.058L36.4029 59.95Z" fill="#B4281E"/>
<mask id="mask0" mask-type="alpha" maskUnits="userSpaceOnUse" x="29" y="58" width="46" height="70">
<path d="M29.5581 127.913L74.0781 120.09L73.8921 58.913L29.5601 61.953L29.5581 127.913Z" fill="white"/>
</mask>
<g mask="url(#mask0)">
<path fill-rule="evenodd" clip-rule="evenodd" d="M73.0981 64.458L69.0681 65.458L60.7241 125.153L87.9221 119.051L73.0981 64.458Z" fill="#212121"/>
</g>
<path fill-rule="evenodd" clip-rule="evenodd" d="M84.1761 66.556C84.0443 66.556 83.9179 66.504 83.8243 66.4114C83.7306 66.3187 83.6774 66.1928 83.6761 66.061C83.5421 51.881 87.5961 43.218 94.5191 42.891C97.6971 42.741 100.079 43.474 101.809 45.136C104.931 48.136 106.169 54.199 106.083 66.06C106.082 66.1918 106.028 66.3177 105.935 66.4104C105.841 66.503 105.715 66.555 105.583 66.555H105.579C105.513 66.5545 105.448 66.5411 105.388 66.5154C105.328 66.4898 105.273 66.4526 105.227 66.4058C105.181 66.359 105.144 66.3035 105.12 66.2427C105.095 66.1818 105.083 66.1167 105.083 66.051C105.167 54.496 104.018 48.646 101.115 45.857C99.5721 44.377 97.4911 43.749 94.5651 43.889C88.3371 44.184 84.5481 52.679 84.6751 66.053C84.6757 66.1188 84.6634 66.184 84.6388 66.245C84.6143 66.306 84.5779 66.3615 84.5318 66.4084C84.4857 66.4553 84.4309 66.4927 84.3703 66.5184C84.3098 66.544 84.2448 66.5575 84.1791 66.558H84.1751L84.1761 66.556Z" fill="#FFA200"/>
<path fill-rule="evenodd" clip-rule="evenodd" d="M73.098 64.653L82.383 64.673L77.391 132.153L71.891 126.07L66.241 123.975L73.098 64.653Z" fill="#FFCC00"/>
<path fill-rule="evenodd" clip-rule="evenodd" d="M124.875 64.6531L115.642 64.6571C115.612 53.8671 114.347 48.1971 111.349 45.2931C109.619 43.6181 107.247 42.8631 104.079 42.9861C97.5021 43.2411 93.4161 51.5121 93.2471 64.6661L82.3831 64.6721L77.3911 132.152L130.464 123.066L124.874 64.6531H124.875ZM104.12 43.9861C107.04 43.8731 109.11 44.5161 110.653 46.0121C113.401 48.6751 114.61 54.2981 114.643 64.6581L94.2461 64.6681C94.4061 52.1061 98.1281 44.2181 104.119 43.9861H104.12Z" fill="#FFCC00"/>
<path fill-rule="evenodd" clip-rule="evenodd" d="M91.0801 95.505L97.4801 94.408L98.8551 98.138L115.653 95.21V103.042L101.255 110.796L95.2381 97.212L91.0811 97.932L91.0801 95.505ZM101.084 114.958C101.084 116.003 100.24 117.01 99.1981 117.206C98.1541 117.402 97.3081 116.712 97.3081 115.664C97.3081 114.616 98.1541 113.609 99.1981 113.414C100.24 113.221 101.084 113.912 101.084 114.958ZM112.797 112.77C112.797 113.806 111.967 114.802 110.943 114.995C109.917 115.188 109.083 114.502 109.083 113.463C109.083 112.423 109.917 111.427 110.943 111.236C111.968 111.046 112.797 111.733 112.797 112.769V112.77Z" fill="white"/>
<path fill-rule="evenodd" clip-rule="evenodd" d="M43.105 90.283L49.503 89.187L50.879 92.917L67.676 89.987V97.82L53.279 105.574L47.261 91.991L43.104 92.711L43.105 90.283ZM53.108 109.736C53.108 110.781 52.264 111.788 51.222 111.984C50.178 112.18 49.332 111.49 49.332 110.442C49.332 109.394 50.178 108.387 51.222 108.192C52.265 108 53.108 108.692 53.108 109.736ZM64.822 107.548C64.822 108.585 63.992 109.581 62.968 109.774C61.942 109.967 61.108 109.281 61.108 108.242C61.108 107.202 61.942 106.206 62.968 106.015C63.992 105.825 64.822 106.511 64.822 107.548Z" fill="white"/>
<path fill-rule="evenodd" clip-rule="evenodd" d="M67.677 89.988L65.591 90.352L64.287 99.646L67.677 97.82V89.988ZM63.396 105.99L62.864 109.783C62.899 109.778 62.932 109.781 62.968 109.773C63.992 109.581 64.822 108.585 64.822 107.548C64.822 106.661 64.212 106.036 63.396 105.991V105.99Z" fill="#187CBE"/>
<path d="M47.367 69.369C48.2551 69.369 48.975 68.6491 48.975 67.761C48.975 66.8729 48.2551 66.153 47.367 66.153C46.479 66.153 45.759 66.8729 45.759 67.761C45.759 68.6491 46.479 69.369 47.367 69.369Z" fill="#212121"/>
<path fill-rule="evenodd" clip-rule="evenodd" d="M59.8201 87.0481C59.6601 87.0481 59.5001 87.0451 59.3401 87.0401C56.0101 86.9351 50.0861 85.6071 47.8301 77.8981C47.8117 77.835 47.8059 77.769 47.813 77.7037C47.8202 77.6384 47.8401 77.5752 47.8717 77.5176C47.9032 77.4601 47.9458 77.4093 47.997 77.3682C48.0482 77.3271 48.107 77.2964 48.1701 77.2781C48.2331 77.2597 48.2991 77.2539 48.3644 77.261C48.4297 77.2682 48.4929 77.2881 48.5505 77.3197C48.608 77.3512 48.6588 77.3938 48.6999 77.445C48.7411 77.4962 48.7717 77.555 48.7901 77.6181C50.8701 84.7211 56.3121 85.9441 59.3721 86.0401C63.7121 86.1721 67.5321 84.3461 68.0041 83.0461C68.025 82.9826 68.0585 82.9239 68.1025 82.8736C68.1465 82.8233 68.2001 82.7823 68.2603 82.7531C68.3204 82.7238 68.3858 82.707 68.4525 82.7034C68.5193 82.6999 68.5861 82.7098 68.6489 82.7326C68.7118 82.7553 68.7695 82.7904 68.8185 82.8358C68.8676 82.8812 68.907 82.936 68.9346 82.997C68.9621 83.0579 68.9771 83.1237 68.9787 83.1905C68.9804 83.2574 68.9686 83.3239 68.9441 83.3861C68.3111 85.1331 64.2471 87.0481 59.8201 87.0481Z" fill="#212121"/>
<path fill-rule="evenodd" clip-rule="evenodd" d="M48.3099 78.258C48.202 78.2581 48.0969 78.2233 48.0104 78.1588C47.9239 78.0943 47.8606 78.0035 47.8299 77.9C46.8869 74.7345 46.3342 71.4656 46.1839 68.166C46.1777 68.0337 46.2242 67.9043 46.3132 67.8063C46.4023 67.7082 46.5266 67.6495 46.6589 67.643C46.9289 67.607 47.1689 67.841 47.1819 68.118C47.3297 71.3382 47.8694 74.5284 48.7889 77.618C48.8106 77.6925 48.8147 77.7711 48.8008 77.8475C48.787 77.9238 48.7555 77.9959 48.7089 78.058C48.6623 78.1201 48.6019 78.1705 48.5325 78.2052C48.4631 78.2399 48.3865 78.258 48.3089 78.258H48.3099Z" fill="#212121"/>
<path fill-rule="evenodd" clip-rule="evenodd" d="M60.087 86.306C56.924 86.306 53.747 85.184 51.67 83.058C48.25 79.558 47.393 73.852 47.027 69.271C47.0164 69.1388 47.0587 69.0078 47.1447 68.9068C47.2307 68.8058 47.3533 68.7431 47.4855 68.7325C47.6177 68.7219 47.7487 68.7642 47.8497 68.8502C47.9507 68.9362 48.0134 69.0588 48.024 69.191C48.348 73.261 49.154 79.053 52.384 82.361C55.609 85.663 61.747 86.306 65.791 83.771C65.8465 83.7333 65.9091 83.7071 65.975 83.6941C66.0409 83.681 66.1087 83.6814 66.1744 83.6952C66.2402 83.7089 66.3025 83.7358 66.3576 83.7741C66.4127 83.8125 66.4595 83.8615 66.4953 83.9184C66.531 83.9752 66.555 84.0387 66.5657 84.105C66.5763 84.1713 66.5736 84.2391 66.5575 84.3043C66.5414 84.3695 66.5123 84.4308 66.4721 84.4845C66.4318 84.5382 66.3811 84.5833 66.323 84.617C64.508 85.757 62.301 86.307 60.088 86.307L60.087 86.306Z" fill="#FF0000"/>
<path fill-rule="evenodd" clip-rule="evenodd" d="M65.944 13.813L62.847 15.857L62.777 19.567L59.875 17.254L56.325 18.332L57.628 14.858L55.505 11.815L59.212 11.981L61.45 9.02301L62.438 12.599L65.944 13.813ZM6.45202 49.062L4.44602 50.107L4.17002 52.351L2.55602 50.767L0.336023 51.197L1.34602 49.174L0.249023 47.194L2.48502 47.529L4.02802 45.876L4.40102 48.106L6.45202 49.062ZM142.407 78.295L141.057 79.779L141.515 81.729L139.687 80.905L137.972 81.945L138.192 79.951L136.674 78.641L138.637 78.233L139.415 76.383L140.409 78.126L142.407 78.295Z" fill="#FFCC00"/>
<path fill-rule="evenodd" clip-rule="evenodd" d="M82.3831 64.653H78.1401L71.8901 126.07L76.9921 131.758L82.3831 64.653Z" fill="#FFA200"/>
<path fill-rule="evenodd" clip-rule="evenodd" d="M68.4641 51.06H35.2201C35.2601 51.382 35.2941 51.715 35.3251 52.06H68.6451C68.6451 52.06 68.6451 51.497 68.4651 51.06H68.4641ZM67.7721 48.455H34.7521C34.8301 48.775 34.9021 49.108 34.9691 49.455H68.0801C68.0801 49.455 68.0101 48.872 67.7701 48.455H67.7721ZM42.3961 45.85H33.9031C34.0361 46.163 34.1631 46.497 34.2861 46.85H42.8861C42.7761 46.35 42.3961 45.85 42.3961 45.85Z" fill="#212121"/>
<path fill-rule="evenodd" clip-rule="evenodd" d="M48.0869 69.368C48.0869 68.356 47.5689 68.001 47.0469 67.9C46.7589 67.846 46.3419 67.918 45.9509 68.505C46.2209 69.015 46.7509 69.368 47.3689 69.368C47.6289 69.368 47.8709 69.478 48.0889 69.368H48.0869Z" fill="#FF0000"/>
<path fill-rule="evenodd" clip-rule="evenodd" d="M45.792 68.08C45.916 68.696 46.479 69.84 47.089 69.98C46.885 68.078 46.439 68.078 45.977 68.087C45.92 68.089 45.857 68.077 45.791 68.079L45.792 68.08Z" fill="#212121"/>
</svg>
