<svg width="18" height="17" viewBox="0 0 18 17" fill="none" xmlns="http://www.w3.org/2000/svg">
	<path d="M15.7689 13.3037H6.15185L2.69518 1H0" stroke="white" stroke-width="1.3849" stroke-linejoin="round" />
	<path d="M5.57857 2.72827H17.1122L15.9572 10.0352H5.23633" stroke="white" stroke-width="1.3849" stroke-linejoin="round" />
	<path d="M6.49438 16.3838H5.80989C5.57031 16.3838 5.38208 16.1956 5.38208 15.956V15.2801C5.38208 15.0405 5.57031 14.8523 5.80989 14.8523H6.48582C6.72539 14.8523 6.91363 15.0405 6.91363 15.2801V15.956C6.92218 16.187 6.73395 16.3838 6.49438 16.3838Z" fill="#E5E5E5" />
	<path d="M15.3324 16.3838H14.6564C14.4169 16.3838 14.2286 16.1956 14.2286 15.956V15.2801C14.2286 15.0405 14.4169 14.8523 14.6564 14.8523H15.3324C15.572 14.8523 15.7602 15.0405 15.7602 15.2801V15.956C15.7687 16.187 15.572 16.3838 15.3324 16.3838Z" fill="#E5E5E5" />
</svg>
