<svg width="30" height="30" viewBox="0 0 30 30" fill="none" xmlns="http://www.w3.org/2000/svg">
<path d="M3.45923 29H24.0066V19.1016H29L28.0139 12.4154C27.5529 9.64717 25.1035 7.61733 22.2993 7.61733H20.1015L17.4488 6.28998V5.7814C18.403 5.44277 19.0883 4.53036 19.0883 3.46103C19.0883 2.10396 17.9852 1 16.6291 1C15.2732 1 14.1701 2.10396 14.1701 3.46103H15.8094C15.8094 3.00867 16.1771 2.64054 16.6291 2.64054C17.0811 2.64054 17.4488 3.00867 17.4488 3.46103C17.4488 3.91317 17.0811 4.2813 16.6291 4.2813H15.8094V6.28976L13.1569 7.61712H10.9589C8.15851 7.61712 5.76059 9.64439 5.29916 12.4154L4.31287 19.1016H9.25183V20.7968H3.45923C2.10315 20.7968 1 21.9008 1 23.2579C1 23.8877 1.23798 24.4627 1.62827 24.8984C1.23798 25.3341 1 25.9092 1 26.5392C1 27.896 2.10315 29 3.45923 29V29ZM3.45923 27.3595C3.0072 27.3595 2.63934 26.9913 2.63934 26.5392C2.63934 26.0868 3.0072 25.7187 3.45923 25.7187H14.9897C15.4418 25.7187 15.8094 26.0868 15.8094 26.5392C15.8094 26.9913 15.4418 27.3595 14.9897 27.3595C14.558 27.3595 4.18512 27.3595 3.45923 27.3595V27.3595ZM24.0066 17.461V15.8203H26.8591L27.1009 17.461H24.0066ZM19.0405 8.92054C18.8155 10.0472 17.8198 10.8984 16.6291 10.8984C15.4384 10.8984 14.4429 10.0469 14.2179 8.92054L16.6291 7.71396L19.0405 8.92054ZM6.21198 17.461L6.45401 15.8203H9.25183V17.461H6.21198ZM9.25183 12.5392V14.1797H6.69604L6.91736 12.6779C7.25104 10.6958 8.94977 9.25788 10.9591 9.25788H12.613C12.9939 11.1276 14.6499 12.5392 16.6293 12.5392C18.6085 12.5392 20.2645 11.1276 20.6454 9.25788H22.2993C24.3073 9.25788 26.0672 10.7276 26.3957 12.6779L26.617 14.1797H24.0066V12.5392H22.3672V27.3595H17.3078C17.3988 27.1027 17.4488 26.8267 17.4488 26.5392C17.4488 25.9092 17.211 25.3341 16.8207 24.8984C17.211 24.4627 17.4488 23.8877 17.4488 23.2579C17.4488 21.9008 16.3456 20.7968 14.9897 20.7968H10.8912V12.5392H9.25183ZM3.45923 22.4376H14.9897C15.4418 22.4376 15.8094 22.8055 15.8094 23.2579C15.8094 23.7102 15.4418 24.0782 14.9897 24.0782H3.45923C3.0072 24.0782 2.63934 23.7102 2.63934 23.2579C2.63934 22.8055 3.0072 22.4376 3.45923 22.4376V22.4376Z" fill="#AB064E"/>
</svg>
