<svg width="150" height="150" viewBox="0 0 150 150" fill="none" xmlns="http://www.w3.org/2000/svg">
<path d="M131.451 38.0991L95.9921 2.55268C95.0034 1.56161 93.6688 1 92.2682 1H22.2727C19.3562 1 17 3.36205 17 6.28571V143.714C17 146.638 19.3562 149 22.2727 149H127.727C130.644 149 133 146.638 133 143.714V41.8487C133 40.4446 132.44 39.0902 131.451 38.0991ZM89.8295 13.1902L120.84 44.2768H89.8295V13.1902ZM121.136 137.107H28.8636V12.8929H78.625V48.5714C78.625 50.4114 79.3541 52.1759 80.652 53.477C81.9498 54.778 83.71 55.5089 85.5455 55.5089H121.136V137.107Z" fill="white"/>
<path d="M75.3574 86.0273L65.1719 68.9663C64.8093 68.3665 64.1665 68 63.4743 68H57.1454C56.7663 68 56.4037 68.1 56.0906 68.3166C55.1676 68.8997 54.8874 70.1326 55.4807 71.0823L69.045 92.8084L55.2995 114.934C55.1127 115.238 55.0095 115.586 55.0006 115.944C54.9917 116.301 55.0774 116.654 55.2488 116.967C55.4202 117.279 55.6712 117.54 55.9756 117.721C56.2801 117.903 56.627 117.999 56.9806 118H62.6667C63.3589 118 63.9852 117.633 64.3478 117.05L74.6817 100.139L84.9496 117.034C85.3122 117.633 85.955 117.983 86.6307 117.983H92.8113C93.1904 117.983 93.5529 117.867 93.8826 117.667C94.8055 117.067 95.0692 115.834 94.4759 114.901L80.6315 93.1749L94.6902 71.099C94.8805 70.7964 94.9871 70.4478 94.9989 70.0894C95.0107 69.7311 94.9273 69.3761 94.7573 69.0614C94.5874 68.7467 94.3371 68.4838 94.0325 68.3C93.7279 68.1163 93.3802 68.0185 93.0255 68.0167H87.1417C86.4494 68.0167 85.8067 68.3832 85.4441 68.983L75.3574 86.0273V86.0273Z" fill="white"/>
</svg>
