<svg width="22" height="13" viewBox="0 0 22 13" fill="none" xmlns="http://www.w3.org/2000/svg">
    <g clip-path="url(#clip0)">
        <path d="M0.746094 6.4999C0.746094 6.4999 10.0221 18.9208 20.2641 6.4999C10.0221 -5.92101 0.746094 6.4999 0.746094 6.4999Z" stroke="#8C8C8C" stroke-width="1.294" stroke-linejoin="round" />
        <path
            d="M10.727 4.06226C10.3489 4.06226 9.99605 4.14665 9.67344 4.29062C9.95572 4.43458 10.1473 4.72748 10.1473 5.06009C10.1473 5.54163 9.75409 5.92885 9.26514 5.92885C8.92237 5.92885 8.63001 5.74021 8.48383 5.4622C8.3326 5.77496 8.25195 6.12743 8.25195 6.49976C8.25195 7.8451 9.36091 8.93726 10.727 8.93726C12.093 8.93726 13.202 7.8451 13.202 6.49976C13.202 5.15441 12.093 4.06226 10.727 4.06226Z"
            fill="#8C8C8C" />
        <path
            d="M6.60156 6.5C6.60156 8.7429 8.44916 10.5625 10.7266 10.5625C13.004 10.5625 14.8516 8.7429 14.8516 6.5C14.8516 4.2571 13.004 2.4375 10.7266 2.4375C8.44916 2.4375 6.60156 4.2571 6.60156 6.5Z"
            stroke="#8C8C8C" stroke-width="1.294" stroke-linejoin="round" />
    </g>
    <defs>
        <clipPath id="clip0">
            <rect width="21" height="13" fill="white" transform="translate(0.00195312)" />
        </clipPath>
    </defs>
</svg>