<?xml version="1.0" encoding="utf-8"?>
<!-- Generator: Adobe Illustrator 25.3.1, SVG Export Plug-In . SVG Version: 6.00 Build 0)  -->
<svg version="1.1" id="Capa_1" xmlns="http://www.w3.org/2000/svg" xmlns:xlink="http://www.w3.org/1999/xlink" x="0px" y="0px"
	 viewBox="0 0 512 512" style="enable-background:new 0 0 512 512;" xml:space="preserve">
<style type="text/css">
	.st0{fill:#de0c86;}
</style>
<g>
	<g>
		<path class="st0" d="M471.7,82.5C446.5,57,411.8,43,374,43c-52.9,0-93.7,25.5-118,73.7C231.7,68.4,190.9,43,138,43
			c-37.8,0-72.5,14-97.7,39.5C13.9,109.2,0,145.8,0,188.2c0,51,32.4,107,96.2,166.6c57.9,54,121.3,92,133.5,99
			c5.1,2.9,16.3,9.4,16.3,9.4l10,5.8l10-5.8c0,0,11.2-6.5,16.3-9.4c12.1-7.1,75.6-45,133.5-99c63.9-59.6,96.2-115.7,96.2-166.6
			C512,145.8,498.1,109.2,471.7,82.5z M388.5,325.6c-54.8,51.1-114.8,87-126.3,93.7c-1.6,0.9-3.9,2.2-6.2,3.6
			c-2.3-1.3-4.6-2.6-6.2-3.6c-11.5-6.7-71.5-42.6-126.3-93.7C68.9,274.6,40,227.1,40,188.2C40,126.2,80.3,83,138,83
			c37.5,0,64.3,16.6,81.8,50.8c14.1,27.4,16.2,55.9,16.2,56.2l0.8-0.1H276c0-0.3,2.2-28.1,15.7-55.1C308.9,100.4,336.6,83,374,83
			c57.7,0,98,43.3,98,105.3C472,227.1,443.1,274.6,388.5,325.6z"/>
	</g>
</g>
</svg>
