<svg width="16" height="14" viewBox="0 0 16 14" fill="none" xmlns="http://www.w3.org/2000/svg">
	<path d="M15 4.65233C15 2.63619 13.3839 1 11.3926 1C9.83096 1 8.5054 2.005 8.00303 3.41446C7.4946 2.005 6.16904 1 4.60744 1C2.61608 1 1 2.63619 1 4.65233C1 5.09355 1.08474 5.51638 1.22395 5.91471H1.2179C1.2179 5.91471 1.23606 5.96986 1.27843 6.06178C1.27843 6.06791 1.28448 6.07404 1.28448 6.08017C1.60527 6.8523 3.20925 10.2411 7.66407 13.1336H7.67618C7.76697 13.201 7.87592 13.25 7.99697 13.25C8.11803 13.25 8.22698 13.201 8.31777 13.1336H8.32987C12.7786 10.2411 14.3826 6.8523 14.7095 6.08017C14.7095 6.07404 14.7155 6.06791 14.7155 6.06178C14.7518 5.96986 14.776 5.91471 14.776 5.91471H14.77C14.9153 5.52251 15 5.09968 15 4.65233Z" stroke="#DF2B2B" stroke-width="1.2" stroke-linejoin="round" />
</svg>
