<svg width="19" height="18" viewBox="0 0 19 18" fill="none" xmlns="http://www.w3.org/2000/svg">
    <path d="M17.9861 5.94001C17.9861 3.47128 16.0253 1.46777 13.6092 1.46777C11.7145 1.46777 10.1063 2.69839 9.49673 4.42425C8.87986 2.69839 7.27157 1.46777 5.37688 1.46777C2.96078 1.46777 1 3.47128 1 5.94001C1 6.48028 1.10281 6.99804 1.27172 7.48578H1.26438C1.26438 7.48578 1.28641 7.55332 1.33781 7.66587C1.33781 7.67338 1.34516 7.68088 1.34516 7.68838C1.73438 8.63386 3.68047 12.7834 9.08548 16.3252H9.10017C9.21032 16.4077 9.34251 16.4678 9.48939 16.4678C9.63626 16.4678 9.76845 16.4077 9.87861 16.3252H9.89329C15.291 12.7834 17.2371 8.63386 17.6336 7.68838C17.6336 7.68088 17.641 7.67338 17.641 7.66587C17.685 7.55332 17.7144 7.48578 17.7144 7.48578H17.7071C17.8833 7.00554 17.9861 6.48778 17.9861 5.94001Z" stroke="#fff" stroke-width="1.7" stroke-linejoin="round"></path>
</svg>