<svg width="16" height="16" viewBox="0 0 16 16" fill="none" xmlns="http://www.w3.org/2000/svg">
	<g clip-path="url(#clip0)">
		<path d="M7.9111 1.15991C4.1015 1.15991 1.0127 4.24871 1.0127 8.05831C1.0127 9.46151 1.4319 10.7663 2.1511 11.8551L1.2679 15.1303L4.79669 14.2151C5.73269 14.6895 6.7911 14.9575 7.9119 14.9575C11.7231 14.9575 14.8103 11.8695 14.8103 8.05831C14.8095 4.24951 11.7215 1.15991 7.9111 1.15991Z" stroke="#E7B4CA" stroke-width="1.3849" />
		<path d="M7.80788 5.80301C8.27887 5.80301 8.66068 5.4212 8.66068 4.95021C8.66068 4.47922 8.27887 4.09741 7.80788 4.09741C7.33689 4.09741 6.95508 4.47922 6.95508 4.95021C6.95508 5.4212 7.33689 5.80301 7.80788 5.80301Z" fill="#E7B4CA" />
		<path d="M8.73904 11.0886C8.62864 11.0678 8.54064 10.9838 8.51424 10.875V7.42377V7.04217V6.50537H6.81184V7.42377H7.11184C7.22624 7.44217 7.31664 7.52857 7.34464 7.63977V10.8758C7.31744 10.9846 7.22944 11.0678 7.11904 11.0894H6.77344V12.0086H9.11424V11.0894H8.73904V11.0886Z" fill="#E7B4CA" />
	</g>
	<defs>
		<clipPath id="clip0">
			<rect width="16" height="16" fill="white" />
		</clipPath>
	</defs>
</svg>
