<svg width="14" height="20" viewBox="0 0 14 20" fill="none" xmlns="http://www.w3.org/2000/svg">
<path d="M6.84502 11.479C8.94315 11.479 10.644 9.77814 10.644 7.68001C10.644 5.58188 8.94315 3.88101 6.84502 3.88101C4.74689 3.88101 3.04602 5.58188 3.04602 7.68001C3.04602 9.77814 4.74689 11.479 6.84502 11.479Z" stroke="#878787" stroke-width="0.9059"/>
<path d="M6.84501 1.5C3.43201 1.5 0.665009 4.266 0.665009 7.68C0.665009 7.776 0.668009 7.871 0.673009 7.967C0.675009 8.002 0.677008 8.037 0.679008 8.071C0.684008 8.132 0.688009 8.19 0.693009 8.249C0.697009 8.292 0.702009 8.335 0.707009 8.38C0.713009 8.425 0.719009 8.47 0.724009 8.517C0.730009 8.566 0.737008 8.617 0.745008 8.668C0.749008 8.689 0.753009 8.711 0.757009 8.734C0.795009 8.955 0.845008 9.172 0.906008 9.384C0.907008 9.389 0.909009 9.395 0.910009 9.4C0.931009 9.476 0.956009 9.55 0.979009 9.625L0.969009 9.639C0.969009 9.639 1.94601 12.668 6.75501 18.457H6.75701C6.77701 18.482 6.81001 18.5 6.84501 18.5C6.88101 18.5 6.91201 18.482 6.93401 18.457H6.93601C11.745 12.668 12.721 9.639 12.721 9.639L12.71 9.625C12.734 9.551 12.758 9.477 12.78 9.4C12.782 9.394 12.782 9.388 12.784 9.384C12.846 9.171 12.894 8.954 12.932 8.734C12.937 8.711 12.941 8.689 12.945 8.668C12.953 8.617 12.96 8.566 12.966 8.516C12.972 8.469 12.979 8.424 12.984 8.379C12.989 8.334 12.993 8.291 12.997 8.248C13.003 8.189 13.007 8.131 13.011 8.07C13.014 8.037 13.017 8.002 13.017 7.966C13.023 7.87 13.026 7.775 13.026 7.679C13.025 4.266 10.258 1.5 6.84501 1.5Z" stroke="#878787" stroke-width="1.2545"/>
</svg>
