<svg width="20" height="20" viewBox="0 0 20 20" fill="none" xmlns="http://www.w3.org/2000/svg">
<path d="M9.84392 11.4789C11.9421 11.4789 13.6429 9.77799 13.6429 7.67986C13.6429 5.58173 11.9421 3.88086 9.84392 3.88086C7.74579 3.88086 6.04492 5.58173 6.04492 7.67986C6.04492 9.77799 7.74579 11.4789 9.84392 11.4789Z" stroke="white" stroke-width="0.9059"/>
<path d="M9.84406 1.5C6.43106 1.5 3.66406 4.266 3.66406 7.68C3.66406 7.776 3.66706 7.871 3.67206 7.967C3.67406 8.002 3.67606 8.037 3.67806 8.071C3.68306 8.132 3.68706 8.19 3.69206 8.249C3.69606 8.292 3.70106 8.335 3.70606 8.38C3.71206 8.425 3.71806 8.47 3.72306 8.517C3.72906 8.566 3.73606 8.617 3.74406 8.668C3.74806 8.689 3.75206 8.711 3.75606 8.734C3.79406 8.955 3.84406 9.172 3.90506 9.384C3.90606 9.389 3.90806 9.395 3.90906 9.4C3.93006 9.476 3.95506 9.55 3.97806 9.625L3.96806 9.639C3.96806 9.639 4.94506 12.668 9.75406 18.457H9.75606C9.77606 18.482 9.80906 18.5 9.84406 18.5C9.88006 18.5 9.91106 18.482 9.93306 18.457H9.93506C14.7441 12.668 15.7201 9.639 15.7201 9.639L15.7091 9.625C15.7331 9.551 15.7571 9.477 15.7791 9.4C15.7811 9.394 15.7811 9.388 15.7831 9.384C15.8451 9.171 15.8931 8.954 15.9311 8.734C15.9361 8.711 15.9401 8.689 15.9441 8.668C15.9521 8.617 15.9591 8.566 15.9651 8.516C15.9711 8.469 15.9781 8.424 15.9831 8.379C15.9881 8.334 15.9921 8.291 15.9961 8.248C16.0021 8.189 16.0061 8.131 16.0101 8.07C16.0131 8.037 16.0161 8.002 16.0161 7.966C16.0221 7.87 16.0251 7.775 16.0251 7.679C16.0241 4.266 13.2571 1.5 9.84406 1.5Z" stroke="white" stroke-width="1.2545"/>
</svg>
