<svg width="37" height="37" viewBox="0 0 37 37" fill="none" xmlns="http://www.w3.org/2000/svg">
<path d="M35.7224 19.0936C36.1032 18.5814 36.0901 18.3844 35.6961 17.8854C35.2627 17.3338 34.8425 16.7823 34.396 16.2438C34.2647 16.0862 34.2384 15.9418 34.3172 15.7448C34.6586 14.8649 34.9738 13.9718 35.3153 13.0657C35.0789 12.9081 34.8556 12.7505 34.6324 12.606C34.0808 12.2252 33.503 11.8575 32.9645 11.4635C32.8332 11.3716 32.715 11.1483 32.7019 10.9907C32.6887 10.1502 32.7019 9.32286 32.7281 8.48237C32.7413 8.16718 32.6231 8.00959 32.3735 8.02272L32.019 7.91766C32.0058 7.99646 32.0058 7.95706 31.9927 7.90453C31.3361 7.72067 30.7057 7.53681 30.0753 7.36609C29.8389 7.30042 29.7076 7.20849 29.6419 6.95897C29.4318 6.15788 29.2086 5.36991 28.9984 4.58195C28.9459 4.37183 28.854 4.26676 28.6307 4.2799C27.8296 4.3193 27.0285 4.3193 26.2274 4.35869C25.8991 4.37183 25.689 4.2799 25.5051 4.00411C25.0586 3.32121 24.5858 2.66457 24.1525 1.98167C23.9949 1.73215 23.8373 1.71902 23.5877 1.81095C22.8129 2.113 22.025 2.38879 21.2501 2.69084C21.0663 2.7565 20.9349 2.73024 20.7905 2.61204C20.2258 2.16553 19.6611 1.71902 19.0832 1.28564C18.5842 0.904788 18.4266 0.904788 17.9275 1.28564C17.3628 1.71902 16.7981 2.1524 16.2466 2.59891C16.0758 2.74337 15.9314 2.76963 15.7212 2.69084C14.9595 2.38879 14.1847 2.113 13.4099 1.82408C13.1604 1.73215 13.0028 1.73215 12.8452 1.98167C12.3855 2.67771 11.8996 3.36061 11.44 4.05664C11.2955 4.25363 11.1511 4.35869 10.8753 4.34556C10.061 4.30616 9.24681 4.30616 8.44572 4.2799C8.18306 4.26676 8.06487 4.35869 7.9992 4.62135C7.80221 5.40931 7.56582 6.18414 7.3557 6.97211C7.29004 7.19536 7.17184 7.31356 6.94858 7.37922C6.14749 7.60248 5.34639 7.83887 4.5453 8.06212C4.37457 8.11465 4.26951 8.18032 4.26951 8.37731C4.28264 9.16527 4.25638 9.96637 4.30891 10.7412C4.33517 11.1483 4.20385 11.3847 3.88866 11.5817C3.23202 12.0019 2.60165 12.4485 1.94502 12.8818C1.74803 13.0132 1.6955 13.1314 1.78743 13.3546C2.10261 14.1688 2.40466 14.9831 2.69358 15.7973C2.73298 15.9155 2.69358 16.1125 2.61479 16.2175C2.18141 16.7954 1.72176 17.347 1.27525 17.9248C0.8944 18.4107 0.907533 18.6208 1.28838 19.1067C1.72176 19.6715 2.15514 20.223 2.60165 20.7877C2.73298 20.9453 2.75925 21.0767 2.68045 21.2868C2.339 22.1667 2.02381 23.0597 1.6955 23.9527C2.49659 24.5043 3.29769 25.0427 4.07252 25.6074C4.20385 25.6994 4.32204 25.8964 4.32204 26.0408C4.32204 26.9207 4.29577 27.8006 4.26951 28.6805C4.25638 28.8644 4.32204 28.9432 4.49277 28.9957C5.30699 29.2189 6.12122 29.4553 6.93545 29.6655C7.15871 29.718 7.26377 29.823 7.3163 30.0332C7.53956 30.8343 7.78908 31.6354 7.9992 32.4365C8.06487 32.686 8.19619 32.7516 8.43258 32.7385C9.16802 32.7122 9.90345 32.7385 10.6257 32.686C11.0985 32.6466 11.3743 32.8173 11.6107 33.1982C12.0572 33.9073 12.5431 34.6034 13.029 35.3125C13.8827 34.9973 14.7232 34.7084 15.5505 34.3801C15.8657 34.2488 16.089 34.275 16.3516 34.4983C16.8769 34.9448 17.4285 35.3519 17.9801 35.7722C18.4135 36.1005 18.571 36.1005 19.0176 35.7722C19.5035 35.4045 19.9894 35.0499 20.4359 34.6428C20.8167 34.2882 21.1451 34.2619 21.6178 34.472C22.3664 34.8003 23.1544 35.0499 23.9292 35.3257C24.4414 34.5771 24.9404 33.8679 25.4263 33.1456C25.6233 32.8567 25.8203 32.6991 26.2012 32.7254C26.9629 32.7779 27.7377 32.7385 28.4994 32.7648C28.8014 32.7779 28.9196 32.6597 28.9984 32.3839C29.2086 31.596 29.4187 30.8211 29.6682 30.0463C29.7076 29.9018 29.8783 29.7574 30.0228 29.7049C30.8239 29.4553 31.625 29.2321 32.4261 29.0088C32.6231 28.9563 32.7019 28.8775 32.7019 28.6542C32.6887 27.84 32.7019 27.0258 32.6625 26.2115C32.6493 25.8832 32.7413 25.6731 33.0039 25.5024C33.6737 25.0559 34.3434 24.5831 35.0132 24.1366C35.2102 24.0052 35.2496 23.8871 35.1708 23.6638C34.8688 22.8758 34.593 22.0747 34.2778 21.2868C34.199 21.0898 34.2384 20.9585 34.3697 20.8009C34.8556 20.223 35.3021 19.6714 35.7224 19.0936Z" stroke="#AB064E" stroke-width="0.859597" stroke-miterlimit="10" stroke-linecap="round" stroke-linejoin="round"/>
<path d="M27.4234 15.4566C27.1056 15.4566 26.7756 15.4566 26.4578 15.4566C26.2989 15.4566 26.2011 15.53 26.1767 15.6888C26.0667 16.2633 25.9445 16.8255 25.8345 17.4C25.6878 18.1822 25.5411 18.9766 25.3945 19.7833C25.3211 19.3555 25.2478 18.9522 25.1745 18.5488C25.0034 17.6077 24.82 16.6788 24.6611 15.7377C24.6245 15.5177 24.5267 15.4444 24.3067 15.4444C23.9889 15.4566 23.6834 15.4688 23.3656 15.4444C23.1578 15.4322 23.0845 15.5055 23.0478 15.7011C22.9989 16.0311 22.9256 16.3488 22.8645 16.6666C22.7178 17.4244 22.5589 18.17 22.4122 18.9277C22.3511 19.2211 22.3022 19.5266 22.2411 19.82C22.1189 19.3311 22.0334 18.8422 21.9478 18.3533C21.7889 17.4733 21.63 16.6055 21.4711 15.7255C21.4467 15.6033 21.4467 15.4444 21.2634 15.4444C20.8356 15.4322 20.3956 15.4444 19.9434 15.4444C19.9556 15.5422 19.9678 15.6155 19.98 15.7011C20.2 16.6422 20.42 17.5711 20.64 18.5122C20.86 19.4533 21.0922 20.3944 21.3122 21.3355C21.3489 21.4944 21.4222 21.5433 21.5811 21.5311C21.8989 21.5188 22.2045 21.5311 22.5222 21.5311C22.95 21.5311 22.8767 21.5922 22.9745 21.1644C23.0845 20.6633 23.1945 20.15 23.3167 19.6L23.3534 19.4533C23.5 18.7444 23.6467 18.0233 23.7811 17.3144C24.0256 18.6466 24.2822 19.9666 24.5267 21.2988C24.5634 21.47 24.6367 21.5188 24.8078 21.5188C25.1745 21.5188 25.5411 21.5433 25.92 21.5311C25.9934 21.5311 26.1034 21.4455 26.1278 21.3722C26.2867 20.7977 26.4456 20.2233 26.5922 19.6488C26.7511 19.0011 26.91 18.3655 27.0811 17.7177C27.2522 17.0211 27.4356 16.3366 27.6189 15.6522C27.6434 15.5177 27.57 15.4444 27.4234 15.4566Z" fill="#AB064E"/>
<path d="M13.3061 15.4684C13.245 15.4684 13.135 15.5784 13.135 15.6395C13.135 16.434 13.135 17.2284 13.1473 18.0229C13.1473 18.524 13.1473 19.0129 13.1473 19.3184C12.5239 18.194 11.8273 16.9106 11.1061 15.6273C11.0573 15.5418 10.9228 15.4684 10.825 15.4562C10.4706 15.4318 10.1039 15.444 9.73726 15.444C9.39503 15.444 9.38281 15.4562 9.38281 15.7984C9.38281 16.7884 9.38281 17.7906 9.38281 18.7806C9.38281 19.6118 9.38281 20.4551 9.39504 21.2862C9.39504 21.3718 9.46837 21.5184 9.51726 21.5184C9.90837 21.5429 10.2995 21.5306 10.6784 21.5306C10.6784 20.0884 10.6784 18.6584 10.6784 17.314C11.375 18.6095 12.1084 19.954 12.8539 21.3106C12.9028 21.3962 13.0128 21.5184 13.1106 21.5184C13.5384 21.5429 13.9784 21.5306 14.4184 21.5306C14.4184 19.514 14.4184 17.4851 14.4184 15.4562C14.015 15.4684 13.6606 15.4562 13.3061 15.4684Z" fill="#AB064E"/>
<path d="M16.9607 18.9889C17.694 18.9889 18.4151 18.9889 19.1362 18.9889C19.1362 18.5978 19.1362 18.2311 19.1362 17.8522C18.4029 17.8522 17.694 17.8522 16.9607 17.8522C16.9607 17.4367 16.9607 17.0578 16.9607 16.63C17.6818 16.63 18.3785 16.63 19.0751 16.63C19.2585 16.63 19.3196 16.5689 19.3074 16.3978C19.2951 16.2022 19.3074 15.9944 19.3074 15.7989C19.3074 15.4567 19.3074 15.4567 18.9774 15.4567C18.0362 15.4567 17.0829 15.4567 16.1418 15.4567C15.9585 15.4567 15.7751 15.4567 15.5918 15.4567C15.5918 17.51 15.5918 19.5267 15.5918 21.5433C16.8629 21.5433 18.1218 21.5433 19.3929 21.5433C19.3929 21.14 19.3929 20.7611 19.3929 20.3578C18.574 20.3578 17.7674 20.3578 16.9729 20.3578C16.9607 19.8811 16.9607 19.4411 16.9607 18.9889Z" fill="#AB064E"/>
</svg>
