<?xml version="1.0" encoding="utf-8"?>
<!-- Generator: Adobe Illustrator 25.3.1, SVG Export Plug-In . SVG Version: 6.00 Build 0)  -->
<svg version="1.1" id="Слой_1" xmlns="http://www.w3.org/2000/svg" xmlns:xlink="http://www.w3.org/1999/xlink" x="0px" y="0px"
	 viewBox="0 0 24 24" style="enable-background:new 0 0 24 24;" xml:space="preserve">
<style type="text/css">
	.st0{fill:#FFFFFF;}
</style>
<g>
	<g>
		<g>
			<path class="st0" d="M20.9,23.7H3.7c-2,0-3.5-1.6-3.5-3.6V0.4h18.4v9.9h-1.3V1.7H1.5v18.4c0,1.3,0.9,2.3,2.2,2.3h17.1L20.9,23.7
				L20.9,23.7z"/>
		</g>
		<g>
			<path class="st0" d="M20.5,23.7c-1.8,0-3.2-1.7-3.2-3.9V8.4h6.3v11.4C23.7,22,22.3,23.7,20.5,23.7z M18.7,9.6v10.1
				c0,1.4,0.8,2.6,1.8,2.6s1.8-1.1,1.8-2.6V9.6H18.7z"/>
		</g>
		<g>
			<path class="st0" d="M14.7,8.6H3.4V4.4h11.3C14.7,4.4,14.7,8.6,14.7,8.6z M4.6,7.4h8.7V5.6H4.6V7.4z"/>
		</g>
		<g>
			<rect x="3.4" y="10.1" class="st0" width="5.1" height="1.3"/>
		</g>
		<g>
			<rect x="9.6" y="10.1" class="st0" width="5.1" height="1.3"/>
		</g>
		<g>
			<rect x="3.4" y="13.1" class="st0" width="5.1" height="1.3"/>
		</g>
		<g>
			<rect x="9.6" y="13.1" class="st0" width="5.1" height="1.3"/>
		</g>
		<g>
			<rect x="3.4" y="17" class="st0" width="5.1" height="1.3"/>
		</g>
	</g>
</g>
</svg>
