<?xml version="1.0" encoding="utf-8"?>
<!-- Generator: Adobe Illustrator 25.3.1, SVG Export Plug-In . SVG Version: 6.00 Build 0)  -->
<svg version="1.1" id="Capa_1" xmlns="http://www.w3.org/2000/svg" xmlns:xlink="http://www.w3.org/1999/xlink" x="0px" y="0px"
	 viewBox="0 0 512 512" style="enable-background:new 0 0 512 512;" xml:space="preserve" fill="#fff">
<g>
	<g>
		<path d="M476.9,141.3l-0.4-0.7c-0.5-1.1-1.1-2.1-1.8-3.1L403.5,14.4C398.4,5.5,388.8,0,378.6,0H133.4c-10.3,0-19.8,5.5-25,14.4
			L36.1,140c-0.7,1.1-1.1,2.3-1.5,3.5c-1,2.8-1.6,5.7-1.6,8.8v324.4c0,19.5,15.8,35.3,35.3,35.3h375.3c19.5,0,35.3-15.8,35.3-35.3
			V151.2c0-0.4,0-0.9,0-1.3C479.1,147,478.5,144,476.9,141.3z M271.5,30h106.4l56,96.9H271.5V30z M134.1,30h107.4v96.9H78.3
			L134.1,30z M448.9,476.7c0,2.9-2.4,5.3-5.3,5.3H68.3c-2.9,0-5.3-2.4-5.3-5.3V156.9h385.9V476.7z"/>
	</g>
</g>
<g>
	<path d="M312.7,256h-70.8v28.3h70.8c15.6,0,28.3,12.7,28.3,28.3c0,15.6-12.7,28.3-28.3,28.3H191l32.5-32.5l-20-20l-56.7,56.7
		c-5.5,5.5-5.5,14.5,0,20l56.7,56.7l20-20L191,369.3h121.6c31.3,0,56.7-25.4,56.7-56.7S343.9,256,312.7,256z"/>
</g>
</svg>
