<svg width="42" height="14" viewBox="0 0 42 14" fill="none" xmlns="http://www.w3.org/2000/svg">
<path d="M14.626 12.863L16.749 0.399994H20.146L18.021 12.863H14.626Z" fill="#565655"/>
<path d="M30.341 0.70699C29.668 0.45499 28.613 0.18399 27.296 0.18399C23.941 0.18399 21.575 1.87299 21.556 4.29499C21.536 6.08799 23.244 7.08799 24.533 7.68399C25.855 8.29299 26.299 8.68399 26.293 9.22899C26.285 10.065 25.238 10.446 24.262 10.446C22.902 10.446 22.18 10.257 21.065 9.79399L20.627 9.59299L20.149 12.384C20.944 12.732 22.411 13.034 23.934 13.048C27.504 13.048 29.823 11.378 29.848 8.79199C29.862 7.37199 28.956 6.29399 26.996 5.40299C25.808 4.82899 25.082 4.44199 25.09 3.85999C25.09 3.34199 25.705 2.78799 27.035 2.78799C28.145 2.76999 28.95 3.01299 29.578 3.26699L29.882 3.41199L30.341 0.70699Z" fill="#565655"/>
<path d="M39.052 0.411987H36.427C35.614 0.411987 35.005 0.634987 34.65 1.44699L29.604 12.865H33.171C33.171 12.865 33.754 11.332 33.886 10.994C34.276 10.994 37.74 11 38.236 11C38.338 11.436 38.65 12.865 38.65 12.865H41.8L39.052 0.411987ZM34.863 8.44499C35.143 7.72599 36.216 4.96099 36.216 4.96099C36.196 4.99399 36.495 4.23999 36.667 3.77199L36.896 4.84599C36.896 4.84599 37.548 7.82099 37.683 8.44599H34.863V8.44499Z" fill="#565655"/>
<path d="M11.776 0.410004L8.451 8.908L8.097 7.181C7.478 5.191 5.548 3.031 3.392 1.952L6.433 12.85L10.027 12.846L15.374 0.410004H11.776Z" fill="#565655"/>
<path d="M5.36499 0.399994H-0.113006L-0.156006 0.659994C4.10599 1.69099 6.92499 4.18499 8.09599 7.18099L6.90499 1.45499C6.69999 0.665994 6.10399 0.429994 5.36499 0.399994Z" fill="#B1B2B3"/>
</svg>
