<svg width="32" height="20" viewBox="0 0 32 20" fill="none" xmlns="http://www.w3.org/2000/svg">
<path d="M12.167 10.033C12.167 7.01299 13.579 4.32399 15.774 2.58599C14.155 1.30299 12.108 0.53299 9.88098 0.53299C4.63298 0.53299 0.380981 4.78699 0.380981 10.033C0.380981 15.281 4.63298 19.533 9.88098 19.533C12.108 19.533 14.154 18.767 15.774 17.482C13.579 15.742 12.167 13.055 12.167 10.033Z" fill="#868786"/>
<path d="M12.167 10.033C12.167 13.054 13.579 15.742 15.774 17.482C17.971 15.742 19.381 13.054 19.381 10.033C19.381 7.013 17.971 4.324 15.774 2.586C13.579 4.324 12.167 7.014 12.167 10.033Z" fill="#B1B2B3"/>
<path d="M21.667 0.53299C19.44 0.53299 17.394 1.30299 15.774 2.58599C17.971 4.32399 19.381 7.01399 19.381 10.033C19.381 13.054 17.971 15.742 15.774 17.482C17.393 18.767 19.44 19.533 21.667 19.533C26.915 19.533 31.167 15.281 31.167 10.033C31.167 4.78699 26.915 0.53299 21.667 0.53299Z" fill="#D9DADA"/>
</svg>
