<svg width="145" height="20" viewBox="0 0 145 20" fill="none" xmlns="http://www.w3.org/2000/svg">
<path d="M122.814 5.39642L119.667 11.6557H119.352V4.03223H114.877V16.9359H118.671C119.667 16.9359 120.576 16.4063 120.996 15.5717L124.143 9.31247H124.457V16.9359H128.933V4.03223H125.139C124.143 4.03223 123.234 4.56186 122.814 5.39642Z" fill="#6E6E6E"/>
<path d="M106.032 5.71741L104.161 11.6557H103.846L101.976 5.71741C101.661 4.72235 100.665 4.03223 99.5283 4.03223H95.0527V16.9359H99.5283V9.31247H99.8429L102.395 16.9359H105.595L108.147 9.31247H108.462V16.9359H112.937V4.03223H108.479C107.343 4.03223 106.346 4.72235 106.032 5.71741Z" fill="#6E6E6E"/>
<path d="M130.857 9.89014V16.9358H135.315V12.8272H140.123C142.204 12.8272 143.987 11.6074 144.634 9.89014H130.857Z" fill="#6E6E6E"/>
<path d="M140.122 4.03223H130.209C130.803 7.03346 133.671 9.31247 137.115 9.31247H144.807C144.877 9.02358 144.894 8.7347 144.894 8.42976C144.912 6.0063 142.761 4.03223 140.122 4.03223Z" fill="#B1B2B3"/>
<path d="M15.627 16.8629L17.75 4.3999H21.147L19.022 16.8629H15.627Z" fill="#565655"/>
<path d="M31.3424 4.70708C30.6694 4.45508 29.6144 4.18408 28.2974 4.18408C24.9424 4.18408 22.5764 5.87308 22.5574 8.29508C22.5374 10.0881 24.2454 11.0881 25.5344 11.6841C26.8564 12.2931 27.3004 12.6841 27.2944 13.2291C27.2864 14.0651 26.2394 14.4461 25.2634 14.4461C23.9034 14.4461 23.1814 14.2571 22.0664 13.7941L21.6284 13.5931L21.1504 16.3841C21.9454 16.7321 23.4124 17.0341 24.9354 17.0481C28.5054 17.0481 30.8244 15.3781 30.8494 12.7921C30.8634 11.3721 29.9574 10.2941 27.9974 9.40308C26.8094 8.82908 26.0834 8.44208 26.0914 7.86008C26.0914 7.34208 26.7064 6.78808 28.0364 6.78808C29.1464 6.77008 29.9514 7.01308 30.5794 7.26708L30.8834 7.41208L31.3424 4.70708Z" fill="#565655"/>
<path d="M40.0535 4.41211H37.4285C36.6155 4.41211 36.0065 4.63511 35.6515 5.44711L30.6055 16.8651H34.1725C34.1725 16.8651 34.7555 15.3321 34.8875 14.9941C35.2775 14.9941 38.7415 15.0001 39.2375 15.0001C39.3395 15.4361 39.6515 16.8651 39.6515 16.8651H42.8015L40.0535 4.41211ZM35.8645 12.4451C36.1445 11.7261 37.2175 8.96111 37.2175 8.96111C37.1975 8.99411 37.4965 8.24011 37.6685 7.77211L37.8975 8.84611C37.8975 8.84611 38.5495 11.8211 38.6845 12.4461H35.8645V12.4451Z" fill="#565655"/>
<path d="M12.7766 4.41016L9.45158 12.9082L9.09758 11.1812C8.47858 9.19116 6.54858 7.03116 4.39258 5.95216L7.43358 16.8502L11.0276 16.8462L16.3746 4.41016H12.7766Z" fill="#565655"/>
<path d="M6.36475 4.3999H0.88675L0.84375 4.6599C5.10575 5.6909 7.92475 8.1849 9.09575 11.1809L7.90475 5.4549C7.69975 4.6659 7.10375 4.4299 6.36475 4.3999Z" fill="#B1B2B3"/>
<path d="M65.1669 10.0332C65.1669 7.0132 66.5789 4.3242 68.7739 2.5862C67.1549 1.3032 65.1079 0.533203 62.8809 0.533203C57.6329 0.533203 53.3809 4.7872 53.3809 10.0332C53.3809 15.2812 57.6329 19.5332 62.8809 19.5332C65.1079 19.5332 67.1539 18.7672 68.7739 17.4822C66.5789 15.7422 65.1669 13.0552 65.1669 10.0332Z" fill="#868786"/>
<path d="M65.166 10.0334C65.166 13.0544 66.578 15.7424 68.773 17.4824C70.97 15.7424 72.38 13.0544 72.38 10.0334C72.38 7.01343 70.97 4.32443 68.773 2.58643C66.578 4.32443 65.166 7.01443 65.166 10.0334Z" fill="#B1B2B3"/>
<path d="M74.6664 0.533203C72.4394 0.533203 70.3934 1.3032 68.7734 2.5862C70.9704 4.3242 72.3804 7.0142 72.3804 10.0332C72.3804 13.0542 70.9704 15.7422 68.7734 17.4822C70.3924 18.7672 72.4394 19.5332 74.6664 19.5332C79.9144 19.5332 84.1664 15.2812 84.1664 10.0332C84.1664 4.7872 79.9144 0.533203 74.6664 0.533203Z" fill="#D9DADA"/>
</svg>
