<svg width="50" height="13" viewBox="0 0 50 13" fill="none" xmlns="http://www.w3.org/2000/svg">
<path d="M27.8147 1.3963L24.6678 7.65556H24.3531V0.0321045H19.8776V12.9358H23.6713C24.6678 12.9358 25.5769 12.4062 25.9965 11.5716L29.1433 5.31235H29.458V12.9358H33.9335V0.0321045H30.1398C29.1433 0.0321045 28.2342 0.561734 27.8147 1.3963Z" fill="#6E6E6E"/>
<path d="M11.0314 1.71729L9.16076 7.65556H8.84607L6.97544 1.71729C6.66076 0.722228 5.66425 0.0321045 4.52789 0.0321045H0.0523682V12.9358H4.52789V5.31235H4.84258L7.39502 12.9358H10.5943L13.1468 5.31235H13.4615V12.9358H17.937V0.0321045H13.4789C12.3426 0.0321045 11.3461 0.722228 11.0314 1.71729Z" fill="#6E6E6E"/>
<path d="M35.8566 5.89014V12.9358H40.3147V8.82717H45.1224C47.2028 8.82717 48.986 7.60742 49.6329 5.89014H35.8566Z" fill="#6E6E6E"/>
<path d="M45.1223 0.0321045H35.2097C35.8042 3.03334 38.6713 5.31235 42.1153 5.31235H49.8077C49.8776 5.02346 49.8951 4.73457 49.8951 4.42964C49.9125 2.00618 47.7622 0.0321045 45.1223 0.0321045Z" fill="#B1B2B3"/>
</svg>
