<?xml version="1.0" encoding="iso-8859-1"?>
<!-- Generator: Adobe Illustrator 19.0.0, SVG Export Plug-In . SVG Version: 6.00 Build 0)  -->
<svg version="1.1" id="Capa_1" xmlns="http://www.w3.org/2000/svg" xmlns:xlink="http://www.w3.org/1999/xlink" x="0px" y="0px"
	 viewBox="0 0 512 512" style="enable-background:new 0 0 512 512;" xml:space="preserve" fill="#fff">
<g>
	<g>
		<path d="M39.263,0v512h314.412l119.063-119.062V0H39.263z M362.576,460.145v-58.308h58.308L362.576,460.145z M442.363,371.465
			h-110.16v110.162H69.636V30.373h372.727V371.465z"/>
	</g>
</g>
<g>
	<g>
		<path d="M303.556,153.276c5.928-8.983,9.39-19.73,9.39-31.275c0-31.4-25.546-56.947-56.947-56.947
			c-31.401,0-56.947,25.547-56.947,56.947c0,11.545,3.462,22.292,9.39,31.275c-25.069,9.889-42.862,34.336-42.862,62.876v55.035
			h180.837v-55.035h0.001C346.418,187.612,328.625,163.165,303.556,153.276z M255.999,95.426c14.654,0,26.574,11.921,26.574,26.574
			c0,14.653-11.92,26.574-26.574,26.574c-14.654,0-26.574-11.921-26.574-26.574C229.425,107.348,241.347,95.426,255.999,95.426z
			 M316.046,240.813L316.046,240.813H195.954v-24.662c0-20.515,16.689-37.204,37.204-37.204h45.684
			c20.515,0,37.204,16.69,37.204,37.204V240.813z"/>
	</g>
</g>
<g>
	<g>
		<rect x="167.456" y="307.333" width="179.939" height="30.373"/>
	</g>
</g>
<g>
	<g>
		<rect x="167.456" y="371.46" width="128.011" height="30.373"/>
	</g>
</g>
</svg>
