<svg width="21" height="19" viewBox="0 0 21 19" fill="none" xmlns="http://www.w3.org/2000/svg">
<path d="M17.6934 8.20508C18.4267 8.91997 18.4267 10.0817 17.6934 10.7966" stroke="white" stroke-miterlimit="10"/>
<path d="M19.252 6.68555C20.902 8.29406 20.902 10.7962 19.252 12.4047" stroke="white" stroke-miterlimit="10"/>
<path d="M4.30977 10.7956C3.57643 10.0807 3.57643 8.919 4.30977 8.2041" stroke="white" stroke-miterlimit="10"/>
<path d="M2.65938 12.3149C1.00937 10.7063 1.00937 8.20421 2.65938 6.5957" stroke="white" stroke-miterlimit="10"/>
<path d="M14.576 18.1242H7.33438C6.69271 18.1242 6.23438 17.6774 6.23438 17.0519V2.03914C6.23438 1.41361 6.69271 0.966797 7.33438 0.966797H14.576C15.2177 0.966797 15.676 1.41361 15.676 2.03914V17.0519C15.676 17.5881 15.2177 18.1242 14.576 18.1242Z" stroke="white" stroke-width="1.25" stroke-miterlimit="10"/>
<path d="M6.23438 15.4434H15.676" stroke="white" stroke-width="0.5" stroke-miterlimit="10"/>
<path d="M10.084 16.873H11.9173" stroke="white" stroke-width="0.75" stroke-miterlimit="10"/>
</svg>
