<svg width="12" height="12" viewBox="0 0 12 12" fill="none" xmlns="http://www.w3.org/2000/svg">
<g clip-path="url(#clip0_2727_11)">
<path d="M7.05341 2.10062L6.27527 1.32248C6.06891 1.11606 5.78901 1.00006 5.49713 1H2.10062C1.80872 1 1.52877 1.11596 1.32236 1.32236C1.11596 1.52877 1 1.80872 1 2.10062V5.49713C1.00006 5.78901 1.11606 6.06891 1.32248 6.27527L2.10062 7.05341M9.80496 4.85217L10.6778 5.72496C10.8841 5.93136 11 6.21126 11 6.5031C11 6.79495 10.8841 7.07484 10.6778 7.28124L7.28124 10.6778C7.07484 10.8841 6.79495 11 6.5031 11C6.21126 11 5.93136 10.8841 5.72496 10.6778L4.85217 9.80496M3.20124 3.20124H3.20179M10.9056 1L1 10.9056" stroke="#3D3D3C" stroke-width="1.5" stroke-linecap="round" stroke-linejoin="round"/>
</g>
<defs>
<clipPath id="clip0_2727_11">
<rect width="12" height="12" fill="white"/>
</clipPath>
</defs>
</svg>
