<svg width="23" height="18" viewBox="0 0 23 18" fill="none" xmlns="http://www.w3.org/2000/svg">
<path d="M14.3386 10.162L13.9786 10.302L12.8086 10.762L15.3686 11.982C16.1186 12.302 15.7086 13.272 15.7086 13.272L15.7286 13.262C15.6886 13.352 15.6486 13.452 15.6186 13.542C15.3386 14.362 15.4486 15.262 15.9286 16.052C16.3886 16.822 17.1386 17.412 18.0486 17.722C18.4786 17.872 18.9186 17.942 19.3586 17.942C19.8386 17.942 20.3086 17.852 20.7486 17.682C21.6086 17.332 22.2386 16.692 22.5186 15.872C23.0786 14.202 21.9886 12.332 20.0886 11.692C19.8486 11.612 19.6186 11.552 19.3786 11.522L19.3986 11.512C19.3486 11.512 19.2986 11.512 19.2486 11.502C19.0886 11.482 18.9286 11.472 18.7686 11.472C16.4986 11.302 15.4686 10.582 15.4686 10.582C15.0586 10.362 14.7286 10.062 14.4686 9.75195C14.4586 9.78195 14.4586 9.79195 14.4486 9.79195L14.3386 10.162ZM16.6486 13.892C16.9286 13.062 17.7886 12.562 18.7686 12.562C19.0786 12.562 19.4086 12.612 19.7286 12.722C21.0586 13.172 21.8386 14.422 21.4686 15.512C21.2986 16.022 20.8886 16.432 20.3286 16.652C19.7386 16.892 19.0486 16.902 18.3886 16.672C17.7286 16.452 17.1886 16.022 16.8586 15.482C16.5586 14.972 16.4786 14.402 16.6486 13.892Z" fill="black"/>
<path d="M3.12172 4.24276C1.42172 3.58276 0.0117188 4.62276 0.0117188 4.62276L8.18172 8.53276L10.8517 7.25276L3.12172 4.24276Z" fill="black"/>
<path d="M22.52 2.07198C22.24 1.25198 21.61 0.601979 20.75 0.261979C19.92 -0.0680211 18.96 -0.088021 18.05 0.211979C17.14 0.521979 16.39 1.11198 15.93 1.88198C15.45 2.68198 15.34 3.57198 15.62 4.39198C15.65 4.49198 15.69 4.58198 15.73 4.67198H15.71C15.71 4.67198 16.12 5.64198 15.37 5.96198L0 13.312C0 13.312 1.41 14.352 3.11 13.692L13.7 9.56198C13.7 9.56198 14.14 8.06198 15.46 7.35198C15.46 7.35198 16.5 6.64198 18.76 6.46198C18.77 6.46198 18.77 6.46198 18.78 6.46198C18.94 6.46198 19.1 6.45198 19.26 6.43198C19.31 6.43198 19.35 6.43198 19.4 6.42198L19.38 6.41198C19.62 6.37198 19.85 6.32198 20.09 6.24198C21 5.93198 21.75 5.34198 22.21 4.57198C22.68 3.79198 22.79 2.90198 22.52 2.07198ZM11.67 9.58198C11.38 9.58198 11.14 9.34198 11.14 9.05198C11.14 8.76198 11.38 8.52198 11.67 8.52198C11.96 8.52198 12.2 8.76198 12.2 9.05198C12.2 9.34198 11.96 9.58198 11.67 9.58198ZM21.26 4.02198C20.93 4.57198 20.39 4.99198 19.73 5.22198C18.4 5.67198 17.02 5.14198 16.65 4.05198C16.48 3.54198 16.55 2.97198 16.86 2.45198C17.19 1.90198 17.73 1.48198 18.39 1.26198C18.71 1.15198 19.03 1.10198 19.35 1.10198C19.69 1.10198 20.02 1.16198 20.33 1.28198C20.89 1.50198 21.3 1.91198 21.47 2.42198C21.65 2.94198 21.57 3.51198 21.26 4.02198Z" fill="black"/>
</svg>
