<svg width="30" height="30" viewBox="0 0 30 30" fill="none" xmlns="http://www.w3.org/2000/svg">
<path d="M21.3487 16.1118H17.2884C16.1771 16.1118 15.2734 17.0155 15.2734 18.1267V21.2407C15.2734 22.3519 16.1771 23.2556 17.2884 23.2556H21.3487C22.46 23.2556 23.3636 22.3519 23.3636 21.2407V18.1267C23.3636 17.0155 22.46 16.1118 21.3487 16.1118ZM21.8982 21.2407C21.8982 21.546 21.6479 21.7902 21.3487 21.7902H17.2884C16.9831 21.7902 16.7388 21.5399 16.7388 21.2407V18.1267C16.7388 17.8214 16.9892 17.5772 17.2884 17.5772H21.3487C21.654 17.5772 21.8982 17.8275 21.8982 18.1267V21.2407Z" fill="#AB064E"/>
<path d="M29.9999 10.4514C29.9999 10.3232 29.9694 10.2011 29.9022 10.0912L25.4572 2.27577C25.329 2.04986 25.0848 1.90332 24.8222 1.90332H5.28977C5.02722 1.90332 4.78299 2.04375 4.65477 2.27577L0.215857 10.0912C0.154799 10.2011 0.118164 10.3232 0.118164 10.4514C0.118164 12.2038 1.17447 13.7058 2.6826 14.3714V27.2607C2.6826 27.6637 3.01231 27.9934 3.41529 27.9934H7.46344C7.46954 27.9934 7.47565 27.9934 7.48175 27.9934H13.1601C13.1663 27.9934 13.1724 27.9934 13.1785 27.9934H26.6967C27.0997 27.9934 27.4294 27.6637 27.4294 27.2607V14.4629C27.4294 14.4324 27.4294 14.408 27.4233 14.3836C28.9375 13.718 29.9999 12.2099 29.9999 10.4514ZM5.71718 3.37482H24.3948L27.869 9.48672H2.24909L5.71718 3.37482ZM21.3847 10.946C21.1526 12.2649 19.9986 13.2662 18.6126 13.2662C17.2266 13.2662 16.0726 12.2649 15.8406 10.946H21.3847ZM14.2836 10.946C14.0516 12.2649 12.8976 13.2662 11.5116 13.2662C10.1256 13.2662 8.97157 12.2649 8.73344 10.946H14.2836ZM1.6324 10.946H7.18257C6.95055 12.2649 5.79045 13.2662 4.40443 13.2662C3.01842 13.2723 1.86442 12.2649 1.6324 10.946ZM12.4274 26.528H8.21445V18.621C8.21445 18.047 8.67849 17.5769 9.25854 17.5769H11.3895C11.9634 17.5769 12.4336 18.0409 12.4336 18.621V26.528H12.4274ZM25.964 26.528H13.8928V18.621C13.8928 17.2411 12.7694 16.1115 11.3834 16.1115H9.25244C7.87253 16.1115 6.74295 17.235 6.74295 18.621V26.5341H4.14799V14.7316C4.23347 14.7377 4.31895 14.7377 4.40443 14.7377C5.88204 14.7377 7.18868 13.9867 7.95801 12.8449C8.72734 13.9867 10.034 14.7377 11.5116 14.7377C12.9892 14.7377 14.2897 13.9867 15.0652 12.8449C15.8345 13.9867 17.1411 14.7377 18.6126 14.7377C20.0902 14.7377 21.3908 13.9867 22.1601 12.8449C22.9294 13.9867 24.2361 14.7377 25.7137 14.7377C25.7991 14.7377 25.8785 14.7316 25.964 14.7316V26.528ZM25.7137 13.2723C24.3276 13.2723 23.1736 12.271 22.9416 10.9521H28.4918C28.2537 12.2649 27.0997 13.2723 25.7137 13.2723Z" fill="#AB064E"/>
</svg>
