<svg width="18" height="10" viewBox="0 0 18 10" fill="none" xmlns="http://www.w3.org/2000/svg">
<path d="M8.80445 9.95418H9.88125C9.88125 9.95418 10.2037 9.91691 10.3732 9.74652C10.5262 9.58678 10.5208 9.2886 10.5208 9.2886C10.5208 9.2886 10.4989 7.88288 11.1712 7.67522C11.8326 7.47288 12.6798 9.03301 13.5763 9.6347C14.254 10.0873 14.7733 9.99146 14.7733 9.99146L17.1783 9.95951C17.1783 9.95951 18.4355 9.88496 17.8397 8.9212C17.7905 8.84133 17.4899 8.20769 16.0524 6.90847C14.5437 5.54535 14.746 5.76899 16.5607 3.41016C17.6648 1.97249 18.1076 1.09925 17.9709 0.721196C17.8397 0.364443 17.0253 0.460287 17.0253 0.460287L14.3196 0.476261C14.3196 0.476261 14.1174 0.449638 13.9698 0.534832C13.8222 0.620027 13.7293 0.81704 13.7293 0.81704C13.7293 0.81704 13.303 1.9299 12.729 2.87236C11.5265 4.86379 11.04 4.97029 10.8433 4.84782C10.3841 4.56029 10.4989 3.68704 10.4989 3.06938C10.4989 1.13652 10.7995 0.332495 9.91404 0.124833C9.61888 0.0556117 9.40571 0.00768966 8.6514 0.00236499C7.68392 -0.00828436 6.86948 0.00768965 6.40488 0.226001C6.09878 0.375092 5.85828 0.699897 6.00586 0.721196C6.18624 0.742495 6.59072 0.82769 6.80389 1.1099C7.08266 1.4773 7.07173 2.30262 7.07173 2.30262C7.07173 2.30262 7.23024 4.57626 6.70004 4.85847C6.33382 5.05016 5.83641 4.65613 4.75961 2.85107C4.21301 1.91925 3.7976 0.891586 3.7976 0.891586C3.7976 0.891586 3.71561 0.699897 3.57349 0.598729C3.39858 0.476261 3.15808 0.433664 3.15808 0.433664L0.589058 0.449638C0.589058 0.449638 0.200973 0.460287 0.0588568 0.625352C-0.0668611 0.769118 0.0479248 1.07262 0.0479248 1.07262C0.0479248 1.07262 2.06488 5.65717 4.3442 7.9734C6.43221 10.0926 8.80445 9.95418 8.80445 9.95418Z" fill="#8D8E8E"/>
</svg>
