<svg xmlns="http://www.w3.org/2000/svg" viewBox="0 0 15 15" width="15" height="15" fill="#8D8E8E">
	<path d="M7.5,1.4h3a2.8,2.8,0,0,1,1.4.3,2.6,2.6,0,0,1,.9.5,2.6,2.6,0,0,1,.5.9,2.8,2.8,0,0,1,.3,1.4v6a2.8,2.8,0,0,1-.3,1.4,2.6,2.6,0,0,1-.5.9,1.6,1.6,0,0,1-.9.5,2.8,2.8,0,0,1-1.4.3h-6c-.8,0-1.2-.1-1.4-.3a1.6,1.6,0,0,1-.9-.5,1.6,1.6,0,0,1-.5-.9,2.8,2.8,0,0,1-.3-1.4c0-.8-.1-1-.1-3s.1-2.2.1-3,.1-1.2.3-1.4a1.6,1.6,0,0,1,.5-.9,2.6,2.6,0,0,1,.9-.5,2.8,2.8,0,0,1,1.4-.3ZM7.5,0H4.4L2.6.4a2.8,2.8,0,0,0-1.3.9A2.8,2.8,0,0,0,.4,2.6,6.9,6.9,0,0,0,0,4.4v6.2a6.9,6.9,0,0,0,.4,1.8,2.8,2.8,0,0,0,.9,1.3,2.8,2.8,0,0,0,1.3.9l1.8.4h6.2l1.8-.4a2.8,2.8,0,0,0,1.3-.9,2.8,2.8,0,0,0,.9-1.3,6.9,6.9,0,0,0,.4-1.8V4.4a6.9,6.9,0,0,0-.4-1.8,2.8,2.8,0,0,0-.9-1.3A2.8,2.8,0,0,0,12.4.4L10.6,0Z" />
	<path d="M7.5,3.6A4,4,0,0,0,3.6,7.5a4,4,0,0,0,3.9,3.9,4,4,0,0,0,3.9-3.9A4,4,0,0,0,7.5,3.6Zm0,6.4A2.5,2.5,0,1,1,10,7.5,2.5,2.5,0,0,1,7.5,10Z" />
	<path d="M11.5,4.4a.9.9,0,1,0-.9-.9A.9.9,0,0,0,11.5,4.4Z" />
</svg>
