<svg width="102" height="14" viewBox="0 0 102 14" fill="none" xmlns="http://www.w3.org/2000/svg">
<g clip-path="url(#clip0)">
<path d="M7.38813 1.77227L8.85502 5.2762L8.97402 5.56046L9.28145 5.5819L13.1038 5.84843L10.1961 8.29722L9.95753 8.49811L10.033 8.8007L10.9399 12.4357L7.65546 10.38L7.39019 10.2139L7.12492 10.38L3.85807 12.4246L4.80505 8.80626L4.88569 8.49815L4.64055 8.29482L1.69748 5.85369L5.46672 5.61104L5.77499 5.5912L5.89519 5.30663L7.38813 1.77227Z" stroke="#FF9900"/>
</g>
<g clip-path="url(#clip1)">
<path d="M29.1655 1.77227L30.6324 5.2762L30.7514 5.56046L31.0588 5.5819L34.8811 5.84843L31.9734 8.29722L31.7349 8.49811L31.8104 8.8007L32.7173 12.4357L29.4328 10.38L29.1675 10.2139L28.9023 10.38L25.6354 12.4246L26.5824 8.80626L26.663 8.49815L26.4179 8.29482L23.4748 5.85369L27.2441 5.61104L27.5523 5.5912L27.6725 5.30663L29.1655 1.77227Z" stroke="#FF9900"/>
</g>
<g clip-path="url(#clip2)">
<path d="M50.9428 1.77227L52.4097 5.2762L52.5287 5.56046L52.8361 5.5819L56.6584 5.84843L53.7508 8.29722L53.5122 8.49811L53.5877 8.8007L54.4946 12.4357L51.2101 10.38L50.9449 10.2139L50.6796 10.38L47.4128 12.4246L48.3597 8.80626L48.4404 8.49815L48.1952 8.29482L45.2522 5.85369L49.0214 5.61104L49.3297 5.5912L49.4499 5.30663L50.9428 1.77227Z" stroke="#FF9900"/>
</g>
<g clip-path="url(#clip3)">
<path d="M72.7202 1.77227L74.187 5.2762L74.3061 5.56046L74.6135 5.5819L78.4358 5.84843L75.5281 8.29722L75.2896 8.49811L75.3651 8.8007L76.272 12.4357L72.9875 10.38L72.7222 10.2139L72.457 10.38L69.1901 12.4246L70.1371 8.80626L70.2177 8.49815L69.9726 8.29482L67.0295 5.85369L70.7988 5.61104L71.107 5.5912L71.2272 5.30663L72.7202 1.77227Z" stroke="#FF9900"/>
</g>
<g clip-path="url(#clip4)">
<path d="M94.4975 1.77227L95.9644 5.2762L96.0834 5.56046L96.3908 5.5819L100.213 5.84843L97.3054 8.29722L97.0669 8.49811L97.1424 8.8007L98.0493 12.4357L94.7648 10.38L94.4996 10.2139L94.2343 10.38L90.9674 12.4246L91.9144 8.80626L91.9951 8.49815L91.7499 8.29482L88.8069 5.85369L92.5761 5.61104L92.8844 5.5912L93.0046 5.30663L94.4975 1.77227Z" stroke="#FF9900"/>
</g>
<defs>
<clipPath id="clip0">
<rect width="14.7778" height="14" fill="white"/>
</clipPath>
<clipPath id="clip1">
<rect width="14.7778" height="14" fill="white" transform="translate(21.7773)"/>
</clipPath>
<clipPath id="clip2">
<rect width="14.7778" height="14" fill="white" transform="translate(43.5547)"/>
</clipPath>
<clipPath id="clip3">
<rect width="14.7778" height="14" fill="white" transform="translate(65.332)"/>
</clipPath>
<clipPath id="clip4">
<rect width="14.7778" height="14" fill="white" transform="translate(87.1094)"/>
</clipPath>
</defs>
</svg>
