<?xml version="1.0" encoding="utf-8"?>
<!-- Generator: Adobe Illustrator 25.3.1, SVG Export Plug-In . SVG Version: 6.00 Build 0)  -->
<svg version="1.1" id="Слой_1" xmlns="http://www.w3.org/2000/svg" xmlns:xlink="http://www.w3.org/1999/xlink" x="0px" y="0px"
	 viewBox="0 0 60 60" style="enable-background:new 0 0 60 60;" xml:space="preserve" fill="#d70981">
<path d="M6.8,51c1,1.5,2.6,2.5,4.4,2.5h37.6c1.8,0,3.5-0.9,4.4-2.5c1-1.5,1-3.4,0.2-5.1L34.6,8.3C33.8,6.5,32,5.4,30,5.4
	c-2,0-3.8,1.1-4.6,2.9L6.6,45.9C5.7,47.5,5.8,49.4,6.8,51z M8.3,46.8L27.1,9.2c0.6-1.1,1.6-1.8,2.9-1.8c1.2,0,2.3,0.7,2.9,1.8
	l18.8,37.6c0.5,1,0.4,2.2-0.1,3.1c-0.6,0.9-1.6,1.5-2.7,1.5H11.2c-1.1,0-2.1-0.6-2.7-1.5C7.9,49,7.8,47.8,8.3,46.8z"/>
<path d="M28.3,38.1h3.4c0.5,0,0.9-0.4,1-0.9L34.1,22c0-0.3-0.1-0.6-0.3-0.8s-0.5-0.3-0.7-0.3h-6.1c-0.3,0-0.5,0.1-0.7,0.3
	s-0.3,0.5-0.3,0.8l1.4,15.2C27.3,37.7,27.8,38.1,28.3,38.1z M32,22.9l-1.2,13.2h-1.6L28,22.9H32z"/>
<path d="M30,40.4c-2,0-3.7,1.6-3.7,3.7c0,2,1.6,3.7,3.7,3.7c2,0,3.7-1.6,3.7-3.7C33.7,42,32,40.4,30,40.4z M30,45.7
	c-0.9,0-1.7-0.7-1.7-1.7c0-0.9,0.7-1.7,1.7-1.7c0.9,0,1.7,0.7,1.7,1.7C31.7,44.9,30.9,45.7,30,45.7z"/>
</svg>
