<svg width="33" height="24" viewBox="0 0 33 24" fill="none" xmlns="http://www.w3.org/2000/svg">
	<path d="M23.3521 9V5.06406L12.1681 1.16406L0.996094 5.06406V18.0121L12.1681 21.8041L17.7601 19.9081" stroke="#B2B2B2" stroke-width="1.6" />
	<path d="M23.3521 5.06348L12.1801 8.89148L0.996094 5.06348" stroke="#B2B2B2" />
	<path d="M12.168 21.4326V8.89258" stroke="#B2B2B2" />
	<path d="M6.74414 2.9043L17.6161 6.8763" stroke="#B2B2B2" />
	<path d="M30.2442 15.9596C30.2442 19.7659 27.1585 22.8516 23.3522 22.8516C19.5458 22.8516 16.4602 19.7659 16.4602 15.9596C16.4602 12.1532 19.5458 9.06758 23.3522 9.06758C27.1585 9.06758 30.2442 12.1532 30.2442 15.9596Z" stroke="#B2B2B2" stroke-width="1.6" />
	<path d="M17.5996 15.9862L19.2861 14.3545L20.9397 15.9862H17.5996Z" fill="#B2B2B2" />
	<path d="M28.9553 16.085L27.2688 17.7167L25.6152 16.085H28.9553Z" fill="#B2B2B2" />
	<path d="M26.3497 18.5812C25.616 19.4573 24.5099 20.0158 23.2834 20.0158C21.0713 20.0158 19.2754 18.2198 19.2754 16.0077C19.2754 15.7668 19.2973 15.5259 19.3411 15.2959" stroke="#B2B2B2" stroke-width="1.82516" stroke-miterlimit="10" />
	<path d="M20.1855 13.4565C20.9193 12.5694 22.0363 12 23.2737 12C25.4858 12 27.2818 13.796 27.2818 16.008C27.2818 16.249 27.2599 16.4899 27.2161 16.7199" stroke="#B2B2B2" stroke-width="1.82516" stroke-miterlimit="10" />
</svg>
