<svg width="120" height="120" viewBox="0 0 120 120" fill="none" xmlns="http://www.w3.org/2000/svg">
<g clip-path="url(#clip0_529_2)">
<path d="M120 120H60H0V0H120V120Z" fill="#CA027B"/>
<path d="M100.5 54.0004C96 43.8754 87.75 36.3754 77.625 32.2504C67.5 28.5004 56.25 28.8754 46.5 33.0004C45 33.7504 40.5 35.6254 33.75 39.3754L0 60.3754V81.3754L42.375 54.7504C48.75 51.0004 52.875 49.5004 52.875 49.5004L53.25 49.1254C64.875 43.8754 78.75 49.1254 84 60.7504C89.25 72.3754 84 86.2504 72.375 91.5004C66.75 94.1254 60.375 94.1254 54.375 92.2504C48.75 90.0004 44.25 85.8754 41.625 80.6254L26.625 90.0004L27.75 92.2504C32.625 100.125 39.75 106.5 48.375 109.5C58.5 113.25 69.75 112.875 79.875 108.375C100.875 99.0004 109.875 74.6254 100.5 54.0004Z" fill="white"/>
</g>
<defs>
<clipPath id="clip0_529_2">
<rect width="120" height="120" fill="white"/>
</clipPath>
</defs>
</svg>
