<?xml version="1.0" standalone="no"?>
<!DOCTYPE svg PUBLIC "-//W3C//DTD SVG 20010904//EN"
 "http://www.w3.org/TR/2001/REC-SVG-20010904/DTD/svg10.dtd">
<svg version="1.0" xmlns="http://www.w3.org/2000/svg"
 width="500.000000pt" height="500.000000pt" viewBox="0 0 500.000000 500.000000"
 preserveAspectRatio="xMidYMid meet">
<metadata>
Created by potrace 1.14, written by Peter Selinger 2001-2017
</metadata>
<g transform="translate(0.000000,500.000000) scale(0.100000,-0.100000)"
fill="#000000" stroke="none">
<path d="M2260 4990 c-588 -61 -1110 -309 -1526 -724 -388 -389 -626 -862
-711 -1416 -24 -161 -24 -539 0 -700 85 -554 323 -1027 711 -1416 389 -388
862 -626 1416 -711 161 -24 539 -24 700 0 554 85 1027 323 1416 711 388 389
626 862 711 1416 24 161 24 539 0 700 -85 554 -323 1027 -711 1416 -386 385
-864 627 -1406 709 -124 19 -477 28 -600 15z m-274 -1491 c153 -27 297 -94
428 -200 l86 -69 86 69 c136 110 278 176 438 201 95 16 289 8 376 -15 162 -43
358 -164 463 -287 113 -133 195 -317 216 -488 7 -51 11 -312 11 -652 l0 -568
-245 0 -245 0 0 570 c0 383 -4 586 -11 622 -28 129 -114 240 -234 299 -67 33
-74 34 -185 34 -104 0 -120 -3 -173 -27 -78 -37 -170 -126 -207 -202 -17 -34
-34 -92 -40 -131 -5 -39 -10 -311 -10 -617 l0 -548 -240 0 -240 0 0 553 c0
582 -4 645 -45 735 -34 75 -124 166 -204 205 -62 30 -71 32 -181 32 -109 0
-119 -2 -182 -32 -119 -56 -209 -171 -237 -301 -7 -36 -11 -239 -11 -622 l0
-570 -245 0 -245 0 0 568 c0 340 4 601 11 652 42 343 274 629 609 754 116 43
322 59 456 35z"/>
</g>
</svg>
