<svg width="38" height="38" viewBox="0 0 38 38" fill="none" xmlns="http://www.w3.org/2000/svg">
	<path d="M8.99995 1.92334C7.09995 1.92334 5.69995 3.31278 5.69995 5.09919V6.68712C5.69995 8.37429 7.09995 9.86298 8.99995 9.86298C10.8999 9.86298 12.2999 8.47354 12.2999 6.68712V5.09919C12.1999 3.31278 10.7999 1.92334 8.99995 1.92334Z" stroke="#AB064E" stroke-width="2" stroke-miterlimit="10" />
	<path d="M17 16.4132C17 14.0313 13.4 12.0464 9 12.0464C4.6 12.0464 1 14.0313 1 16.4132V23.7573C1.1 25.1467 2.4 26.4369 4.3 27.1316" stroke="#AB064E" stroke-width="2" stroke-miterlimit="10" />
	<path d="M13.8 27.1313C15.7 26.3373 16.9 25.1464 17 23.7569V21.375H28.6" stroke="#AB064E" stroke-width="2" stroke-miterlimit="10" />
	<path d="M4.40002 17.7031V37.5521" stroke="#AB064E" stroke-width="2" stroke-miterlimit="10" />
	<path d="M13.7 26.2383V37.5521" stroke="#AB064E" stroke-width="2" stroke-miterlimit="10" />
	<path d="M9 26.2383V37.5521" stroke="#AB064E" stroke-width="2" stroke-miterlimit="10" />
	<path d="M26 18.5967L28.8 21.3755L26 24.1543" stroke="#AB064E" stroke-width="1.5" stroke-miterlimit="10" />
	<path d="M28.5 1.92334C30.3 1.92334 31.7999 3.31278 31.7999 5.09919V6.68712C31.7999 8.47354 30.3 9.86298 28.5 9.86298C26.7 9.86298 25.2 8.47354 25.2 6.68712V5.09919C25.2 3.31278 26.7 1.92334 28.5 1.92334Z" stroke="#AB064E" stroke-width="2" stroke-miterlimit="10" />
	<path d="M8.90002 18.3981H20.5V16.4132C20.5 14.0313 24.1 12.0464 28.5 12.0464C32.9 12.0464 36.5 14.0313 36.5 16.4132V23.7573C36.4 25.1467 35.1 26.4369 33.2 27.1316" stroke="#AB064E" stroke-width="2" stroke-miterlimit="10" />
	<path d="M20.5 23.7573C20.6 25.1468 21.8 26.3377 23.7 27.1317" stroke="#AB064E" stroke-width="2" stroke-miterlimit="10" />
	<path d="M33.1 17.7031V37.5521" stroke="#AB064E" stroke-width="2" stroke-miterlimit="10" />
	<path d="M23.7 26.2383V37.5521" stroke="#AB064E" stroke-width="2" stroke-miterlimit="10" />
	<path d="M28.4 26.2383V37.5521" stroke="#AB064E" stroke-width="2" stroke-miterlimit="10" />
	<path d="M11.4 15.6191L8.59998 18.3979L11.4 21.1768" stroke="#AB064E" stroke-width="1.5" stroke-miterlimit="10" />
</svg>
