<svg width="42" height="35" viewBox="0 0 42 35" fill="none" xmlns="http://www.w3.org/2000/svg">
<g clip-path="url(#clip0)">
<path d="M10.5259 29.2067H4.51213C2.97261 29.2067 3.16505 27.5109 3.16505 27.5109V10.8353C3.16505 10.8353 3.26127 9.28076 4.75268 9.28076H12.0173" stroke="#AB064E" stroke-width="2" stroke-miterlimit="10" stroke-linecap="round"/>
<path d="M29.9347 9.23291H37.1993C38.6907 9.23291 38.7869 10.7874 38.7869 10.7874V27.4631C38.7869 27.4631 38.9794 29.1589 37.4398 29.1589H31.4261" stroke="#AB064E" stroke-width="2" stroke-miterlimit="10" stroke-linecap="round"/>
<path d="M29.2028 6.17116L27.8557 3.39188C27.8557 3.39188 27.6152 2.68529 26.4124 2.63818H22.0825H22.0344H19.6289H19.5808H15.2509C14.0963 2.63818 13.8076 3.39188 13.8076 3.39188L12.5087 6.17116" stroke="#AB064E" stroke-width="2" stroke-miterlimit="10" stroke-linecap="round"/>
<path d="M5.82129 5.98291H8.85222" stroke="#AB064E" stroke-width="2" stroke-miterlimit="10" stroke-linecap="round"/>
<path d="M7.31283 14.1322C7.92395 14.1322 8.41936 13.6471 8.41936 13.0488C8.41936 12.4504 7.92395 11.9653 7.31283 11.9653C6.70171 11.9653 6.2063 12.4504 6.2063 13.0488C6.2063 13.6471 6.70171 14.1322 7.31283 14.1322Z" fill="#AB064E"/>
<path d="M20.9768 15.0005L22.8445 18.6372L27.0001 19.2209L23.9651 22.0046L24.7122 26.0005L20.9768 24.1148L17.2881 26.0005L17.9884 22.0046L15.0001 19.2209L19.1558 18.6372L20.9768 15.0005Z" stroke="#AB064E" stroke-width="1.4" stroke-miterlimit="10"/>
<path d="M31.4545 20.8108C31.4545 26.5192 26.7824 31.1622 21 31.1622C15.2175 31.1622 10.5454 26.5192 10.5454 20.8108C10.5454 15.1024 15.2175 10.4595 21 10.4595C26.7824 10.4595 31.4545 15.1024 31.4545 20.8108Z" stroke="#AB064E" stroke-width="2"/>
</g>
<defs>
<clipPath id="clip0">
<rect width="42" height="35" fill="white"/>
</clipPath>
</defs>
</svg>
