<svg width="37" height="31" viewBox="0 0 37 31" fill="none" xmlns="http://www.w3.org/2000/svg">
<path d="M18.2102 23.1567C19.3328 23.1567 20.2429 22.2467 20.2429 21.124C20.2429 20.0014 19.3328 19.0913 18.2102 19.0913C17.0876 19.0913 16.1775 20.0014 16.1775 21.124C16.1775 22.2467 17.0876 23.1567 18.2102 23.1567Z" stroke="#AB064E" stroke-width="2" stroke-miterlimit="10"/>
<path d="M15.0259 24.2409L16.5843 22.6147" stroke="#AB064E" stroke-width="2" stroke-miterlimit="10"/>
<path d="M19.6332 19.6332L26.0023 13.1963" stroke="#AB064E" stroke-width="2" stroke-miterlimit="10"/>
<path d="M25.6635 15.7034C26.7476 17.2618 27.4251 19.159 27.4251 21.1917" stroke="#AB064E" stroke-width="2" stroke-miterlimit="10"/>
<path d="M8.72424 21.1915C8.72424 16.042 12.9252 11.8411 18.0747 11.8411C19.9719 11.8411 21.8013 12.4509 23.292 13.3995" stroke="#AB064E" stroke-width="2" stroke-miterlimit="10"/>
<path d="M33.6589 30H2.8972C1.88084 30 1 29.1869 1 28.1028V2.8972C1 1.88084 1.81308 1 2.8972 1H33.7266C34.743 1 35.6238 1.81308 35.6238 2.8972V28.1706C35.5561 29.1869 34.743 30 33.6589 30Z" stroke="#AB064E" stroke-width="2" stroke-miterlimit="10"/>
<path d="M4.99764 2.35522H3.30371V4.04915H4.99764V2.35522Z" fill="#AB064E"/>
<path d="M8.11446 2.35522H6.42053V4.04915H8.11446V2.35522Z" fill="#AB064E"/>
<path d="M11.2991 2.35522H9.60522V4.04915H11.2991V2.35522Z" fill="#AB064E"/>
<path d="M1 5.33667H35.5561" stroke="#AB064E" stroke-width="2" stroke-miterlimit="10"/>
</svg>
