<svg width="40" height="35" viewBox="0 0 40 35" fill="none" xmlns="http://www.w3.org/2000/svg">
<path d="M19.6698 1.84277L10.1826 5.15747V16.1623L19.6698 19.3852L29.1671 16.1623V5.15747L19.6698 1.84277Z" stroke="#AB064E" stroke-width="1.6"/>
<path d="M29.1666 5.15723L19.6795 8.41073L10.1821 5.15723" stroke="#AB064E" stroke-width="1.2"/>
<path d="M19.6689 19.0692V8.41113" stroke="#AB064E" stroke-width="1.2"/>
<path d="M15.063 3.32129L24.2954 6.69718" stroke="#AB064E" stroke-width="1.2"/>
<path d="M29.4637 16.3003L19.9766 19.615V30.6198L29.4637 33.8427L38.9611 30.6198V19.615L29.4637 16.3003Z" stroke="#AB064E" stroke-width="1.6"/>
<path d="M38.9611 19.6143L29.4739 22.8678L19.9766 19.6143" stroke="#AB064E" stroke-width="1.2"/>
<path d="M29.4634 33.5267V22.8687" stroke="#AB064E" stroke-width="1.2"/>
<path d="M24.8579 17.7783L34.0903 21.1542" stroke="#AB064E" stroke-width="1.2"/>
<path d="M10.4872 16.3003L1 19.615V30.6198L10.4872 33.8427L19.9845 30.6198V19.615L10.4872 16.3003Z" stroke="#AB064E" stroke-width="1.6"/>
<path d="M19.9845 19.6143L10.4973 22.8678L1 19.6143" stroke="#AB064E" stroke-width="1.2"/>
<path d="M10.4868 33.5267V22.8687" stroke="#AB064E" stroke-width="1.2"/>
<path d="M5.88086 17.7783L15.1133 21.1542" stroke="#AB064E" stroke-width="1.2"/>
</svg>
