<svg width="45" height="38" viewBox="0 0 45 38" fill="none" xmlns="http://www.w3.org/2000/svg">
<path d="M5.06932 18.8818C6.60832 18.8818 7.85593 17.6342 7.85593 16.0952C7.85593 14.5562 6.60832 13.3086 5.06932 13.3086C3.53032 13.3086 2.28271 14.5562 2.28271 16.0952C2.28271 17.6342 3.53032 18.8818 5.06932 18.8818Z" stroke="#AB064E" stroke-width="1.87352" stroke-miterlimit="10" stroke-linejoin="round"/>
<path d="M9.24835 23.451V21.6118C9.24835 20.107 7.40919 18.8252 5.12418 18.8252C2.83916 18.8252 1 20.0513 1 21.6118V23.451" stroke="#AB064E" stroke-width="1.87352" stroke-miterlimit="10" stroke-linejoin="round"/>
<path d="M39.1211 18.8818C40.6601 18.8818 41.9077 17.6342 41.9077 16.0952C41.9077 14.5562 40.6601 13.3086 39.1211 13.3086C37.5821 13.3086 36.3345 14.5562 36.3345 16.0952C36.3345 17.6342 37.5821 18.8818 39.1211 18.8818Z" stroke="#AB064E" stroke-width="1.87352" stroke-miterlimit="10" stroke-linejoin="round"/>
<path d="M43.3001 23.451V21.6118C43.3001 20.107 41.461 18.8252 39.1759 18.8252C36.8909 18.8252 35.0518 20.0513 35.0518 21.6118V23.451" stroke="#AB064E" stroke-width="1.87352" stroke-miterlimit="10" stroke-linejoin="round"/>
<path d="M36.8352 5.05859V9.68436H32.2095" stroke="#AB064E" stroke-width="2" stroke-miterlimit="10" stroke-linecap="round" stroke-linejoin="round"/>
<path d="M7.40967 9.68494C10.4749 4.66905 15.8252 1.38086 22.1229 1.38086C28.4207 1.38086 33.771 4.66905 36.8362 9.68494" stroke="#AB064E" stroke-width="2" stroke-miterlimit="10" stroke-linecap="round" stroke-linejoin="round"/>
<path d="M7.40967 32.7029V28.0771H11.9797" stroke="#AB064E" stroke-width="2" stroke-miterlimit="10" stroke-linecap="round" stroke-linejoin="round"/>
<path d="M36.8362 28.0771C33.771 33.0373 28.3649 36.3812 22.1229 36.3812C15.8252 36.3812 10.4749 33.093 7.40967 28.0771" stroke="#AB064E" stroke-width="2" stroke-miterlimit="10" stroke-linecap="round" stroke-linejoin="round"/>
<path d="M29.4796 18.8804C29.4796 18.546 29.4239 18.2116 29.4239 17.8772L31.2073 16.2052L28.978 12.3597L26.6373 13.0842C26.08 12.6941 25.5226 12.304 24.8538 12.0811L24.2965 9.68457H19.8937L19.3364 12.0811C18.7233 12.3597 18.1103 12.6941 17.5529 13.0842L15.2122 12.3597L12.9829 16.2052L14.7663 17.8772C14.7106 18.2116 14.7106 18.546 14.7106 18.8804C14.7106 19.2148 14.7663 19.5492 14.7663 19.8835L12.9829 21.5555L15.2122 25.401L17.5529 24.6765C18.1103 25.0666 18.6676 25.4568 19.3364 25.6797L19.8937 28.0762H24.2965L24.8538 25.6797C25.4669 25.401 26.08 25.0666 26.6373 24.6765L28.978 25.401L31.2073 21.5555L29.4239 19.8835C29.4239 19.5492 29.4796 19.2148 29.4796 18.8804Z" stroke="#AB064E" stroke-width="1.87352" stroke-miterlimit="10" stroke-linejoin="round"/>
<path d="M22.123 21.6665C23.662 21.6665 24.9096 20.4189 24.9096 18.8799C24.9096 17.3409 23.662 16.0933 22.123 16.0933C20.584 16.0933 19.3364 17.3409 19.3364 18.8799C19.3364 20.4189 20.584 21.6665 22.123 21.6665Z" stroke="#AB064E" stroke-width="1.87352" stroke-miterlimit="10" stroke-linejoin="round"/>
</svg>
