<svg width="32" height="39" viewBox="0 0 32 39" fill="none" xmlns="http://www.w3.org/2000/svg">
<path d="M22.1004 27.8261V37.9996L15.8397 34.6737L9.5791 37.9996V27.8261" stroke="#AB064E" stroke-width="2" stroke-miterlimit="10" stroke-linejoin="round"/>
<path d="M16.2104 2L18.3814 3.74004L21.1445 2.77335L22.7234 5.28675H25.4866L26.0787 7.99348L28.6444 9.15351L28.2497 11.8602L30.4207 13.7936L29.0392 16.1137L30.4207 18.6271L28.2497 20.5605L28.6444 23.2672L26.0787 24.2339L25.4866 26.9406L22.7234 27.134L21.1445 29.454L18.3814 28.6807L16.2104 30.4207L14.0393 28.6807L11.2762 29.454L9.69728 27.134L6.93415 26.9406L6.34205 24.2339L3.7763 23.2672L4.17103 20.5605L2 18.6271L3.38156 16.1137L2 13.7936L4.17103 11.8602L3.7763 9.15351L6.34205 7.99348L6.93415 5.28675H9.69728L11.2762 2.77335L14.0393 3.74004L16.2104 2Z" stroke="#AB064E" stroke-width="2" stroke-miterlimit="10"/>
<path d="M16.2105 24.7366C20.9194 24.7366 24.7368 20.9193 24.7368 16.2104C24.7368 11.5015 20.9194 7.6842 16.2105 7.6842C11.5016 7.6842 7.68433 11.5015 7.68433 16.2104C7.68433 20.9193 11.5016 24.7366 16.2105 24.7366Z" stroke="#AB064E" stroke-width="1.6" stroke-miterlimit="10"/>
</svg>
