<svg width="38" height="36" viewBox="0 0 38 36" fill="none" xmlns="http://www.w3.org/2000/svg">
<path d="M35.2096 12.9707C35.1317 12.9707 35.0538 12.9821 34.976 12.9993L32.1243 13.7316C31.6091 13.8632 31.3095 14.3667 31.4473 14.8587C31.5132 15.0933 31.675 15.2936 31.8966 15.4137C32.1183 15.5339 32.3819 15.5682 32.6275 15.5053L35.4552 14.7786C35.9705 14.647 36.27 14.1436 36.1322 13.6515C36.0184 13.2453 35.635 12.9707 35.2096 12.9707Z" fill="#AB064E"/>
<path d="M31.591 28.6137L29.5062 26.6227C29.3205 26.4453 29.0688 26.3538 28.8232 26.3538C28.5776 26.3538 28.332 26.4453 28.1402 26.6227C27.7628 26.9831 27.7628 27.5667 28.1402 27.9271L30.2131 29.9068C30.5905 30.2615 31.2016 30.2615 31.5791 29.9068C31.9385 29.552 31.9445 28.9742 31.591 28.6137Z" fill="#AB064E"/>
<path d="M28.1402 9.38927C28.32 9.56091 28.5656 9.65818 28.8232 9.65818C29.0808 9.65818 29.3265 9.56091 29.5062 9.38927L31.5791 7.40966C31.7648 7.23802 31.8666 7.00344 31.8666 6.75742C31.8666 6.5114 31.7648 6.28254 31.585 6.10518C31.3993 5.92782 31.1537 5.83627 30.9021 5.83627C30.6624 5.83627 30.4168 5.92209 30.2311 6.08802L28.1402 8.09051C27.7628 8.44524 27.7628 9.03454 28.1402 9.38927Z" fill="#AB064E"/>
<path d="M37.9772 17.9996C37.9772 17.4904 37.5459 17.0784 37.0127 17.0784H29.494L29.4761 16.9011C29.3622 15.8941 29.0867 14.9214 28.6673 14.006L28.5894 13.8401L35.1016 10.2471C35.5629 9.98959 35.7186 9.42889 35.455 8.99406C35.3232 8.78237 35.1195 8.62789 34.8679 8.56496C34.6163 8.50202 34.3587 8.53063 34.143 8.6565L27.6309 12.2495L27.517 12.1065C26.888 11.2941 26.1391 10.5846 25.2944 9.98959L25.1446 9.88088L28.9069 3.66171C29.0327 3.45001 29.0687 3.20399 29.0028 2.96941C28.9369 2.72911 28.7751 2.53459 28.5535 2.40872C28.0982 2.15697 27.5051 2.31145 27.2415 2.74628L23.4791 8.96546L23.3054 8.89108C22.3469 8.49058 21.3284 8.22739 20.274 8.11869L20.0883 8.10152V0.921148C20.0883 0.411942 19.6569 0 19.1237 0C18.5905 0 18.1592 0.411942 18.1592 0.921148V9.96098C20.5136 9.70352 22.8741 10.4015 24.6773 11.8948C26.5345 13.4339 27.5949 15.6595 27.5949 18.0053C27.5949 19.6531 27.0797 21.2379 26.1032 22.5881C25.1985 23.8411 23.9524 24.8195 22.4966 25.426L27.2295 33.2586C27.3553 33.4703 27.565 33.6247 27.8166 33.6877C28.0622 33.7506 28.3198 33.7163 28.5415 33.5961C28.7632 33.476 28.9249 33.2815 28.9908 33.0412C29.0567 32.8009 29.0268 32.5548 28.895 32.3432L25.1326 26.124L25.2824 26.0153C26.1271 25.4202 26.87 24.7051 27.5051 23.8926L27.6189 23.7496L34.131 27.3426C34.5864 27.5944 35.1795 27.4456 35.4431 27.0108C35.7067 26.5702 35.5509 26.0038 35.0896 25.7521L28.5774 22.159L28.6553 21.9931C29.0747 21.0777 29.3503 20.105 29.4641 19.0981L29.4821 18.9207H37.0067C37.5459 18.9207 37.9772 18.5088 37.9772 17.9996Z" fill="#AB064E"/>
<path d="M35.479 21.2432L32.6333 20.5109C32.5494 20.488 32.4655 20.4765 32.3816 20.4765C31.9563 20.4765 31.5669 20.7454 31.4531 21.1574C31.3872 21.392 31.4231 21.6437 31.5489 21.8554C31.6747 22.0671 31.8844 22.2216 32.13 22.2845L34.9637 23.0054C35.2094 23.0683 35.467 23.034 35.6887 22.9139C35.9103 22.7937 36.0721 22.5935 36.138 22.3589C36.2758 21.8783 35.9822 21.3805 35.479 21.2432Z" fill="#AB064E"/>
<path d="M23.6768 1.75579C23.5929 1.73291 23.509 1.72147 23.4252 1.72147C23.0118 1.72147 22.6224 1.98465 22.5026 2.37943L21.7357 5.0971C21.5979 5.58914 21.9035 6.09263 22.4127 6.22422C22.6583 6.28715 22.9219 6.25283 23.1436 6.13268C23.3653 6.01253 23.527 5.81228 23.5929 5.5777L24.3478 2.87719C24.4137 2.64261 24.3837 2.39659 24.2579 2.1849C24.1381 1.97321 23.9284 1.81873 23.6768 1.75579Z" fill="#AB064E"/>
<path d="M23.3293 32.4757L20.0822 29.861V26.0506C17.7218 26.308 15.3613 25.61 13.5641 24.1167C11.7128 22.5834 10.6465 20.352 10.6465 18.0063C10.6465 16.3585 11.1617 14.7737 12.1382 13.4234C13.0428 12.1647 14.289 11.1863 15.7448 10.5799L13.7498 7.27861L15.1816 3.46815C15.2715 3.23929 15.2595 2.99327 15.1457 2.77014C15.0378 2.547 14.8401 2.37536 14.6005 2.29526C14.0972 2.12362 13.5461 2.37536 13.3723 2.85024L12.4857 5.20174L11.0059 2.7587C10.7423 2.32387 10.1492 2.16939 9.68791 2.42113C9.2326 2.67287 9.07683 3.23929 9.33444 3.67412L10.8142 6.11716L8.24409 5.67662C7.99247 5.63085 7.73486 5.68806 7.52518 5.82537C7.31549 5.96841 7.17171 6.17438 7.12977 6.41468C7.03392 6.91244 7.38738 7.39304 7.9086 7.47886L12.0843 8.19404L13.1087 9.88758L12.959 9.99628C11.7308 10.8602 10.7423 11.9416 10.0054 13.2117L9.91556 13.3662L8.02842 12.6224L6.74036 8.76046C6.57861 8.27986 6.03343 8.01095 5.53019 8.16543C5.02695 8.31991 4.74538 8.84056 4.90713 9.32116L5.70393 11.7013L2.97206 10.6199C2.48679 10.4254 1.91765 10.6542 1.71396 11.1177C1.51027 11.5811 1.74991 12.1189 2.23517 12.3192L4.96105 13.4005L2.63657 14.5505C2.16927 14.7794 1.98355 15.3401 2.22319 15.7921C2.33702 16.0095 2.54071 16.1697 2.78634 16.2441C3.03197 16.3184 3.29557 16.2956 3.52323 16.1869L7.29153 14.3331L9.17868 15.0769L9.12476 15.2485C8.84918 16.1582 8.71138 17.0908 8.71138 18.0177C8.71138 18.5155 8.75332 19.019 8.8312 19.5167L8.86116 19.6941L6.88415 20.1976L3.39742 17.8747C3.18773 17.7374 2.93611 17.6859 2.6785 17.7259C2.42688 17.7717 2.20522 17.9033 2.06143 18.1035C1.91765 18.3038 1.86373 18.5498 1.90567 18.7901C1.9536 19.0304 2.09139 19.2421 2.30107 19.3794L4.45182 20.804L1.59414 21.5364C1.34851 21.5993 1.13883 21.7538 1.01302 21.9655C0.887209 22.1772 0.851264 22.4289 0.917165 22.6635C0.983065 22.8981 1.14482 23.0983 1.36649 23.2185C1.58815 23.3386 1.85175 23.3729 2.09738 23.31L4.95506 22.5834L3.84074 24.8434C3.61309 25.3011 3.82277 25.8446 4.30205 26.062C4.5297 26.165 4.79331 26.1764 5.03294 26.0906C5.27857 26.0048 5.47028 25.8389 5.57812 25.6157L7.38139 21.9483L9.35242 21.4448L9.41832 21.6108C9.96349 22.9438 10.8202 24.1682 11.9105 25.158L12.0483 25.2839L10.8022 26.8344L6.56663 27.0232C6.03942 27.0461 5.62605 27.4809 5.65001 27.9844C5.67398 28.4879 6.12929 28.8827 6.65649 28.8598L9.26854 28.7396L7.47126 30.9881C7.31549 31.1827 7.24959 31.423 7.28554 31.669C7.32148 31.915 7.44729 32.1324 7.65099 32.2755C7.85468 32.4242 8.10031 32.4872 8.35792 32.4586C8.61553 32.4242 8.84318 32.3041 8.99895 32.1095L10.8022 29.8668L11.3594 32.3098C11.4732 32.8018 11.9884 33.1165 12.5037 33.0078C13.0189 32.8991 13.3484 32.4071 13.2405 31.9093L12.3359 27.9501L13.582 26.3996L13.7438 26.4911C15.0438 27.2406 16.4697 27.7041 17.9794 27.8643L18.1651 27.8814V29.8381L14.924 32.4643C14.7263 32.6188 14.6065 32.8419 14.5885 33.0879C14.5645 33.3339 14.6484 33.5742 14.8102 33.763C14.9779 33.9518 15.2056 34.0663 15.4692 34.0834C15.7268 34.1063 15.9784 34.0262 16.1701 33.8717L18.1711 32.2583V35.079C18.1711 35.5882 18.6024 36.0001 19.1356 36.0001C19.6688 36.0001 20.1002 35.5882 20.1002 35.079V32.2697L22.1011 33.8832C22.5085 34.2093 23.1136 34.1578 23.4611 33.7745C23.7846 33.3854 23.7367 32.8018 23.3293 32.4757Z" fill="#AB064E"/>
</svg>
