<svg width="40" height="35" viewBox="0 0 40 35" fill="none" xmlns="http://www.w3.org/2000/svg">
<path d="M30.1862 1.84751L29.1268 1H20.0161C19.3804 1 18.5329 1 18.1092 1.63563L1.79454 17.7384C0.735153 18.7978 0.735153 20.4928 1.79454 21.5522L13.4478 33.2055C14.5072 34.2648 16.2022 34.2648 17.2616 33.2055L33.5762 16.8909C34 16.4671 34.4238 15.6196 34.4238 14.984V5.87319L33.1525 4.8138" stroke="#AB064E" stroke-width="2" stroke-miterlimit="10"/>
<path d="M27.644 4.38843L31.0341 7.77848" stroke="#AB064E" stroke-width="1.8" stroke-miterlimit="10"/>
<path d="M28.9136 5.87238C29.7611 3.96548 31.668 2.69421 33.7868 2.69421C36.7531 2.69421 39.0837 5.02487 39.0837 7.99116C39.0837 10.1099 38.0243 11.805 36.3293 12.6525C35.4818 13.0762 34.6343 13.2881 33.7868 13.2881" stroke="#AB064E" stroke-width="1.8" stroke-miterlimit="10"/>
<path d="M15.3542 16.2554H13.8711C13.0236 16.2554 12.3879 15.6197 12.3879 14.7722V13.5009C12.3879 12.6534 13.0236 12.0178 13.8711 12.0178H15.3542C16.2017 12.0178 16.8374 12.6534 16.8374 13.5009V14.9841C16.6255 15.6197 15.9899 16.2554 15.3542 16.2554Z" stroke="#AB064E" stroke-width="1.8" stroke-miterlimit="10"/>
<path d="M22.771 22.1879H21.2878C20.4403 22.1879 19.8047 21.5523 19.8047 20.7048V19.2216C19.8047 18.3741 20.4403 17.7385 21.2878 17.7385H22.771C23.6185 17.7385 24.2541 18.3741 24.2541 19.2216V20.7048C24.2541 21.5523 23.6185 22.1879 22.771 22.1879Z" stroke="#AB064E" stroke-width="1.8" stroke-miterlimit="10"/>
<path d="M14.9312 23.0349L21.7113 11.1698" stroke="#AB064E" stroke-width="1.8" stroke-miterlimit="10"/>
</svg>
