<svg width="40" height="35" viewBox="0 0 40 35" fill="none" xmlns="http://www.w3.org/2000/svg">
<path d="M19.6703 1.84277L10.1831 5.15747V16.1623L19.6703 19.3852L29.1676 16.1623V5.15747L19.6703 1.84277Z" stroke="#AB064E" stroke-width="1.6"/>
<path d="M29.1669 5.15707L19.6797 8.41058L10.1824 5.15707" stroke="#AB064E" stroke-width="1.2"/>
<path d="M19.6689 19.0694V8.41135" stroke="#AB064E" stroke-width="1.2"/>
<path d="M15.0635 3.3212L24.2959 6.69709" stroke="#AB064E" stroke-width="1.2"/>
<path d="M29.464 16.3004L19.9768 19.6151V30.6199L29.464 33.8428L38.9613 30.6199V19.6151L29.464 16.3004Z" stroke="#AB064E" stroke-width="1.6"/>
<path d="M38.9616 19.6142L29.4744 22.8677L19.9771 19.6142" stroke="#AB064E" stroke-width="1.2"/>
<path d="M29.4636 33.5266V22.8685" stroke="#AB064E" stroke-width="1.2"/>
<path d="M24.8579 17.7784L34.0903 21.1542" stroke="#AB064E" stroke-width="1.2"/>
<path d="M10.4872 16.3004L1 19.6151V30.6199L10.4872 33.8428L19.9845 30.6199V19.6151L10.4872 16.3004Z" stroke="#AB064E" stroke-width="1.6"/>
<path d="M19.9845 19.6142L10.4973 22.8677L1 19.6142" stroke="#AB064E" stroke-width="1.2"/>
<path d="M10.4866 33.5266V22.8685" stroke="#AB064E" stroke-width="1.2"/>
<path d="M5.8811 17.7784L15.1135 21.1542" stroke="#AB064E" stroke-width="1.2"/>
</svg>
