<svg width="39" height="35" viewBox="0 0 39 35" fill="none" xmlns="http://www.w3.org/2000/svg">
<path d="M0 29.1712H4.82876L8.04653 25.1437H11.2685L14.4863 28.3657H19.315L25.7548 21.926H31.389L33.8013 17.9027H38.6301" stroke="#AB064E" stroke-width="2" stroke-miterlimit="10"/>
<path d="M38.6301 33.9993H0" stroke="#AB064E" stroke-width="2" stroke-miterlimit="10"/>
<path d="M22.5332 21.926V9.8562H16.0977V17.0972" stroke="#AB064E" stroke-width="1.74915" stroke-miterlimit="10"/>
<path d="M22.5327 33.9999V28.3657" stroke="#AB064E" stroke-width="1.74915" stroke-miterlimit="10"/>
<path d="M28.9724 24.3424V33.9999" stroke="#AB064E" stroke-width="1.74915" stroke-miterlimit="10"/>
<path d="M22.5327 13.0742H28.9725V19.514" stroke="#AB064E" stroke-width="1.74915" stroke-miterlimit="10"/>
<path d="M16.0977 30.7776V33.9996" stroke="#AB064E" stroke-width="1.74915" stroke-miterlimit="10"/>
<path d="M9.65723 17.0975H16.097V25.9496" stroke="#AB064E" stroke-width="1.74915" stroke-miterlimit="10"/>
<path d="M3.21777 34.0002V31.5837" stroke="#AB064E" stroke-width="1.74915" stroke-miterlimit="10"/>
<path d="M9.65723 27.5605V34.0002" stroke="#AB064E" stroke-width="1.74915" stroke-miterlimit="10"/>
<path d="M3.21777 26.7547V13.8795H9.65751V22.7315" stroke="#AB064E" stroke-width="1.74915" stroke-miterlimit="10"/>
<path d="M35.4121 20.3147V33.9997" stroke="#AB064E" stroke-width="1.74915" stroke-miterlimit="10"/>
<path d="M35.4122 15.4863V1H28.9724V13.074" stroke="#AB064E" stroke-width="1.74915" stroke-miterlimit="10"/>
</svg>
