<svg width="41" height="36" viewBox="0 0 41 36" fill="none" xmlns="http://www.w3.org/2000/svg">
<path d="M20.6137 22.8596H9.28174V34.1916H20.6137V22.8596Z" stroke="#AB064E" stroke-width="1.71433" stroke-miterlimit="10"/>
<path d="M31.9506 22.8596H20.6187V34.1916H31.9506V22.8596Z" stroke="#AB064E" stroke-width="1.71433" stroke-miterlimit="10"/>
<path d="M26.2821 11.5226H14.9502V22.8545H26.2821V11.5226Z" stroke="#AB064E" stroke-width="1.71433" stroke-miterlimit="10"/>
<path d="M5.23633 13.1404V34.9996" stroke="#AB064E" stroke-width="2.4" stroke-miterlimit="10"/>
<path d="M36 13.1404V34.9996" stroke="#AB064E" stroke-width="2.4" stroke-miterlimit="10"/>
<path d="M20.6184 1C13.0667 1 6.33294 4.94828 2 10.7137L5.23644 13.1411C8.81332 7.79563 13.9067 5.04555 20.6184 5.04555C27.33 5.04555 32.419 7.79563 36.0003 13.1411L39.2367 10.7137C34.9038 4.94828 28.17 1 20.6184 1Z" stroke="#AB064E" stroke-width="1.71433" stroke-miterlimit="10"/>
<path d="M22.2364 11.5226H19V14.759H22.2364V11.5226Z" stroke="#AB064E" stroke-width="1.71433" stroke-miterlimit="10"/>
<path d="M22.2364 11.5226H19V14.759H22.2364V11.5226Z" stroke="#AB064E" stroke-width="1.71433" stroke-miterlimit="10"/>
<path d="M16.569 22.8596H13.3325V26.0961H16.569V22.8596Z" stroke="#AB064E" stroke-width="1.71433" stroke-miterlimit="10"/>
<path d="M27.9005 22.8596H24.6641V26.0961H27.9005V22.8596Z" stroke="#AB064E" stroke-width="1.71433" stroke-miterlimit="10"/>
</svg>
