<svg width="35" height="41" viewBox="0 0 35 41" fill="none" xmlns="http://www.w3.org/2000/svg">
	<g clip-path="url(#clip0)">
		<path d="M20.0485 36.103H15.8576C15.6473 36.103 15.4456 36.187 15.297 36.3365C15.1483 36.486 15.0647 36.6888 15.0647 36.9002C15.063 37.1234 15.1428 37.3394 15.2889 37.5074C15.435 37.6753 15.6374 37.7835 15.8576 37.8114H20.0485C20.2687 37.7835 20.4711 37.6753 20.6173 37.5074C20.7634 37.3394 20.8432 37.1234 20.8414 36.9002C20.8414 36.6888 20.7579 36.486 20.6092 36.3365C20.4605 36.187 20.2588 36.103 20.0485 36.103Z" fill="#AB054E" />
		<path d="M34.2072 13.0972C32.7252 13.02 31.269 13.5081 30.1295 14.4638L29.7897 14.6916V2.16383C29.8061 1.87533 29.7617 1.58661 29.6594 1.31658C29.557 1.04656 29.3991 0.801343 29.1959 0.597013C28.9926 0.392684 28.7488 0.233861 28.4802 0.130961C28.2117 0.0280619 27.9245 -0.0165889 27.6376 -6.23165e-05H8.04211C7.76456 -0.000493328 7.48985 0.0560585 7.2348 0.166129C6.97976 0.276199 6.74974 0.437469 6.55886 0.640059C6.36798 0.842649 6.22025 1.08229 6.12471 1.34431C6.02918 1.60632 5.98785 1.88519 6.00327 2.16383V4.32772H5.89001C5.57336 4.00055 5.19472 3.7405 4.77645 3.56294C4.35818 3.38537 3.90876 3.29389 3.45473 3.29389C3.00071 3.29389 2.55128 3.38537 2.13301 3.56294C1.71474 3.7405 1.3361 4.00055 1.01945 4.32772C0.396839 4.96639 0.0480957 5.82506 0.0480957 6.71938C0.0480957 7.6137 0.396839 8.47238 1.01945 9.11105L4.53078 12.6416C3.66579 12.9302 2.94066 13.5358 2.49985 14.3378C2.05903 15.1399 1.93489 16.0794 2.15214 16.9694L3.05829 18.4499L5.09713 20.3861C4.63926 20.4279 4.1946 20.5627 3.79007 20.7824C3.38554 21.002 3.02954 21.3019 2.74363 21.6639C2.45772 22.0259 2.24784 22.4425 2.1267 22.8884C2.00557 23.3344 1.97569 23.8004 2.03887 24.2583C2.14249 25.0366 2.50121 25.7579 3.05829 26.3083L4.41751 27.6749C3.97444 27.7167 3.54442 27.8485 3.15356 28.0624C2.76269 28.2763 2.41913 28.5679 2.14372 28.9193C1.86832 29.2708 1.66681 29.6749 1.55143 30.107C1.43605 30.5392 1.40921 30.9904 1.47253 31.4333C1.5848 32.1864 1.89795 32.8948 2.37868 33.4833L6.00327 37.0138V38.9499C6.00327 39.4936 6.21808 40.0151 6.60043 40.3995C6.98279 40.784 7.50138 40.9999 8.04211 40.9999H23.7864C23.8906 40.9999 23.9937 40.9793 24.0899 40.9393C24.1861 40.8992 24.2735 40.8405 24.3471 40.7664C24.4207 40.6924 24.4791 40.6045 24.519 40.5078C24.5588 40.4111 24.5793 40.3074 24.5793 40.2027V32.3444C24.579 31.6531 24.7434 30.9719 25.0587 30.3576C25.374 29.7434 25.8311 29.214 26.3916 28.8138L29.4499 26.4222C29.5678 26.3552 29.6631 26.2545 29.7236 26.1327C29.7842 26.011 29.8072 25.8738 29.7897 25.7388V19.2472C29.7897 15.9444 31.8285 15.0333 33.4143 14.8055V40.2027C33.4143 40.4142 33.4978 40.6169 33.6465 40.7664C33.7952 40.9159 33.9969 40.9999 34.2072 40.9999C34.4174 40.9999 34.6191 40.9159 34.7678 40.7664C34.9165 40.6169 35 40.4142 35 40.2027V14.0083C35.0018 13.7851 34.922 13.5691 34.7759 13.4012C34.6297 13.2332 34.4274 13.125 34.2072 13.0972ZM8.04211 1.59438H27.6376C27.7878 1.59438 27.9318 1.65438 28.038 1.76117C28.1443 1.86796 28.2039 2.0128 28.2039 2.16383V4.55549H7.58903V2.16383C7.58636 2.03061 7.63024 1.90066 7.71302 1.79662C7.79581 1.69257 7.91226 1.621 8.04211 1.59438ZM1.5858 6.60549C1.59904 6.25533 1.71242 5.91643 1.91234 5.62941C2.11227 5.34238 2.39026 5.1194 2.71301 4.98719C3.03576 4.85498 3.38958 4.81914 3.73208 4.88397C4.07457 4.9488 4.39121 5.11155 4.64405 5.35272L6.00327 6.60549V11.7305L2.15214 7.97216C1.79074 7.61004 1.58705 7.1185 1.5858 6.60549ZM4.19098 14.6916C4.54627 14.3635 5.01113 14.1814 5.49357 14.1814C5.976 14.1814 6.44086 14.3635 6.79615 14.6916L10.4207 18.4499C10.6545 18.5938 10.8527 18.7891 11.0005 19.0211C11.1483 19.2531 11.2419 19.5159 11.2742 19.7895C11.3064 20.0631 11.2766 20.3405 11.1868 20.6009C11.0971 20.8612 10.9497 21.0977 10.756 21.2925C10.5622 21.4874 10.327 21.6355 10.0681 21.7257C9.80913 21.816 9.53322 21.846 9.26108 21.8136C8.98895 21.7811 8.72767 21.6871 8.49692 21.5384C8.26616 21.3898 8.07193 21.1905 7.92884 20.9555L4.19098 17.1972C3.87232 16.8587 3.69474 16.4104 3.69474 15.9444C3.69474 15.4784 3.87232 15.03 4.19098 14.6916V14.6916ZM11.6667 17.1972L10.7606 16.2861C11.0725 14.5282 12.0353 12.9544 13.455 11.8816C14.8748 10.8089 16.646 10.3168 18.4121 10.5045C20.1782 10.6921 21.808 11.5457 22.9734 12.8931C24.1387 14.2406 24.753 15.982 24.6926 17.7666C24.4922 19.6308 23.5739 21.3421 22.1344 22.534C20.6948 23.726 18.8484 24.3041 16.9903 24.1444C15.0806 23.888 13.3394 22.9108 12.1198 21.411C12.4907 20.7489 12.6464 19.9866 12.5651 19.2311C12.4839 18.4755 12.1698 17.7644 11.6667 17.1972V17.1972ZM4.19098 22.5499C4.54627 22.2218 5.01113 22.0397 5.49357 22.0397C5.976 22.0397 6.44086 22.2218 6.79615 22.5499L10.4207 26.3083C10.6545 26.4521 10.8527 26.6474 11.0005 26.8795C11.1483 27.1115 11.2419 27.3742 11.2742 27.6478C11.3064 27.9214 11.2766 28.1989 11.1868 28.4592C11.0971 28.7196 10.9497 28.956 10.756 29.1509C10.5622 29.3457 10.327 29.4938 10.0681 29.5841C9.80913 29.6743 9.53322 29.7044 9.26108 29.6719C8.98895 29.6395 8.72767 29.5454 8.49692 29.3968C8.26616 29.2481 8.07193 29.0488 7.92884 28.8138L4.19098 25.1694C3.86462 24.8121 3.68353 24.3447 3.68353 23.8597C3.68353 23.3746 3.86462 22.9072 4.19098 22.5499V22.5499ZM3.62463 29.8388C3.77303 29.6493 3.96227 29.4961 4.17809 29.3908C4.39391 29.2854 4.63068 29.2307 4.87059 29.2307C5.11049 29.2307 5.34727 29.2854 5.56309 29.3908C5.77891 29.4961 5.96814 29.6493 6.11654 29.8388L9.85441 33.4833C10.1999 33.8306 10.394 34.3018 10.394 34.793C10.394 35.2842 10.1999 35.7554 9.85441 36.1027C9.50894 36.4501 9.04038 36.6452 8.55182 36.6452C8.06325 36.6452 7.5947 36.4501 7.24923 36.1027L3.62463 32.3444C3.43614 32.1952 3.28377 32.0049 3.17901 31.7879C3.07424 31.5709 3.01981 31.3328 3.01981 31.0916C3.01981 30.8504 3.07424 30.6123 3.17901 30.3953C3.28377 30.1783 3.43614 29.988 3.62463 29.8388V29.8388ZM7.58903 38.9499V38.0388L8.49518 38.2666C9.42645 38.2666 10.3196 37.8946 10.9781 37.2325C11.6366 36.5704 12.0065 35.6724 12.0065 34.7361V34.5083H22.9936V39.4055H8.04211C7.98261 39.4055 7.92369 39.3937 7.86872 39.3708C7.81376 39.3479 7.76381 39.3144 7.72174 39.2721C7.67967 39.2298 7.64629 39.1795 7.62352 39.1243C7.60075 39.069 7.58903 39.0098 7.58903 38.9499V38.9499ZM25.3722 27.4472C24.6147 28.0123 24.0033 28.7521 23.5893 29.6043C23.1754 30.4565 22.9711 31.3962 22.9936 32.3444V32.7999H11.3269L10.9871 32.3444L9.62787 30.9777C10.0757 30.9217 10.508 30.7766 10.8995 30.5508C11.291 30.325 11.6338 30.0231 11.908 29.6626C12.1822 29.3021 12.3821 28.8903 12.4963 28.4513C12.6105 28.0123 12.6365 27.5548 12.5729 27.1055C12.4577 26.3874 12.1436 25.7164 11.6667 25.1694L9.62787 23.1194C10.1216 23.0484 10.5893 22.8524 10.9871 22.5499C11.7016 23.4497 12.5874 24.197 13.5928 24.7482C14.5981 25.2995 15.7027 25.6435 16.8419 25.7602C17.9811 25.8768 19.1319 25.7638 20.2272 25.4277C21.3224 25.0916 22.3399 24.5391 23.2201 23.8027C24.9845 22.3174 26.0936 20.1912 26.3058 17.8873C26.518 15.5834 25.816 13.2885 24.3528 11.5027C22.8956 9.73597 20.8003 8.62348 18.5275 8.40991C16.2547 8.19633 13.9905 8.89916 12.233 10.3638C10.765 11.5017 9.72631 13.1085 9.28806 14.9194L7.58903 13.2111V6.26383H28.2039V25.3972L25.3722 27.4472Z" fill="#AB054E" />
		<path d="M21.1812 14.1224C21.132 13.948 21.0458 13.7864 20.9285 13.6488C20.8111 13.5111 20.6655 13.4007 20.5016 13.3252C20.2075 13.0859 19.8559 12.9287 19.4822 12.8696H15.0647V16.9696H14.0453V17.9946H15.0647V18.4502H14.0453V19.3613H15.0647V21.2974H16.0841V19.3613H18.4628V18.3363H16.0841V17.8807H18.2362C18.6846 17.9498 19.1428 17.9138 19.575 17.7755C20.0073 17.6372 20.4019 17.4004 20.7281 17.0835C21.179 16.5864 21.4224 15.9339 21.4077 15.2613C21.4555 15.0664 21.4599 14.8633 21.4208 14.6665C21.3816 14.4696 21.2998 14.2839 21.1812 14.1224V14.1224ZM19.9353 16.4002C19.4606 16.7008 18.9104 16.8588 18.3495 16.8557H16.1974V13.7807H19.3689C19.5126 13.7875 19.6518 13.8335 19.7715 13.9138C19.8913 13.994 19.987 14.1055 20.0485 14.2363C20.1627 14.3577 20.2516 14.5009 20.31 14.6573C20.3684 14.8138 20.395 14.9804 20.3883 15.1474C20.4002 15.3761 20.3662 15.6048 20.2883 15.8201C20.2105 16.0353 20.0904 16.2326 19.9353 16.4002V16.4002Z" fill="#AB054E" />
	</g>
	<defs>
		<clipPath id="clip0">
			<rect width="35" height="41" fill="white" />
		</clipPath>
	</defs>
</svg>
