<svg width="18" height="18" viewBox="0 0 18 18" fill="none" xmlns="http://www.w3.org/2000/svg">
<g clip-path="url(#clip0_2818_27)">
<path d="M16.1163 0.498047H1.88371C0.845051 0.498047 0 1.3431 0 2.38179V12.4283C0 13.467 0.845051 14.312 1.88371 14.312H5.80968L9 17.5023L12.1903 14.312H16.1163C17.155 14.312 18 13.467 18 12.4282V2.38172C18 1.34306 17.155 0.498047 16.1163 0.498047ZM16.7442 12.4283C16.7442 12.7745 16.4625 13.0562 16.1163 13.0562H11.6702L9 15.7264L6.32985 13.0562H1.88371C1.53749 13.0562 1.25582 12.7745 1.25582 12.4283V2.38179C1.25582 2.03557 1.53749 1.7539 1.88371 1.7539H16.1163C16.4625 1.7539 16.7441 2.03557 16.7441 2.38179V12.4283H16.7442Z" fill="#AB064E"/>
<path d="M13.1852 4.26562H3.13867V5.52144H13.1852V4.26562Z" fill="#AB064E"/>
<path d="M11.5108 9.28809H3.13867V10.5439H11.5108V9.28809Z" fill="#AB064E"/>
<path d="M14.8596 6.77637H3.13867V8.03218H14.8596V6.77637Z" fill="#AB064E"/>
</g>
<defs>
<clipPath id="clip0_2818_27">
<rect width="18" height="18" fill="white"/>
</clipPath>
</defs>
</svg>
