<svg width="28" height="19" viewBox="0 0 28 19" fill="none" xmlns="http://www.w3.org/2000/svg">
<path d="M9.95898 4.88965H5.15891L2.76887 8.89965H1.80885C1.80885 8.89965 1.01884 8.97965 0.99884 9.78965V14.5096C0.99884 14.5096 0.998839 15.1396 1.78885 15.1696H3.30888" stroke="#AB064E" stroke-width="1.2055" stroke-linejoin="round"/>
<path d="M5.99941 7.42969L4.67939 9.40969H8.68945" stroke="#AB064E" stroke-width="1.2055" stroke-linejoin="round"/>
<path d="M19.5195 1.00977H9.94938V15.1698" stroke="#AB064E" stroke-width="1.2055" stroke-linejoin="round"/>
<path d="M7.8196 15.1699H18.2598" stroke="#AB064E" stroke-width="1.2055" stroke-linejoin="round"/>
<path d="M22.9787 15.1699H25.7188" stroke="#AB064E" stroke-width="1.2055" stroke-linejoin="round"/>
<path d="M22.9785 4.35938H14.5984" stroke="#AB064E" stroke-width="1.2055" stroke-linejoin="round"/>
<path d="M27.5195 7.79004H17.8994" stroke="#AB064E" stroke-width="1.2055" stroke-linejoin="round"/>
<path d="M20.6482 18.27C19.2619 18.27 18.1381 17.1462 18.1381 15.76C18.1381 14.3738 19.2619 13.25 20.6482 13.25C22.0344 13.25 23.1582 14.3738 23.1582 15.76C23.1582 17.1462 22.0344 18.27 20.6482 18.27Z" stroke="#AB064E" stroke-width="1.2055" stroke-linejoin="round"/>
<path d="M5.47824 18.27C4.09198 18.27 2.9682 17.1462 2.9682 15.76C2.9682 14.3738 4.09198 13.25 5.47824 13.25C6.8645 13.25 7.98828 14.3738 7.98828 15.76C7.98828 17.1462 6.8645 18.27 5.47824 18.27Z" stroke="#AB064E" stroke-width="1.2055" stroke-linejoin="round"/>
</svg>
