<svg width="23" height="19" viewBox="0 0 23 19" fill="none" xmlns="http://www.w3.org/2000/svg">
<path d="M15.35 13.3404C14.05 13.3404 13 12.2904 13 10.9904C13 9.69043 14.05 8.64043 15.35 8.64043H20.18C20.18 8.64043 20.99 8.67043 21.64 7.69043V12.3904C21.65 13.5104 19.36 13.3404 19.36 13.3404" stroke="#BF016F" stroke-width="1.2" stroke-linejoin="round"/>
<path d="M15.3501 13.3398H20.1801" stroke="#BF016F" stroke-width="1.2" stroke-linejoin="round"/>
<path d="M19.18 2.88V1H2.44C1.65 1 1 1.64 1 2.44C1 3.24 1.64 3.88 2.44 3.88H20.91V8.32" stroke="#BF016F" stroke-width="1.2" stroke-linejoin="round"/>
<path d="M1 2.44043V16.0404C1 16.8304 1.64 17.4804 2.44 17.4804H20.91V13.1004" stroke="#BF016F" stroke-width="1.2" stroke-linejoin="round"/>
<path d="M15.29 11.5395C15.5717 11.5395 15.8 11.3112 15.8 11.0295C15.8 10.7479 15.5717 10.5195 15.29 10.5195C15.0084 10.5195 14.78 10.7479 14.78 11.0295C14.78 11.3112 15.0084 11.5395 15.29 11.5395Z" stroke="#BF016F" stroke-width="1.2" stroke-linejoin="round"/>
</svg>
