<svg width="22" height="19" viewBox="0 0 22 19" fill="none" xmlns="http://www.w3.org/2000/svg">
<path d="M6.67 13.72C5.1 13.72 3.52 13.72 1.95 13.72C1.89 13.72 1.55 13.71 1.28 13.44C1.11 13.27 1 13.03 1 12.77V1.95C1 1.42 1.43 1 1.95 1H18.58C19.11 1 19.53 1.43 19.53 1.95C19.53 4.97 19.53 8 19.53 11.02" stroke="#BF016F" stroke-width="1.2055" stroke-linejoin="round"/>
<path d="M10.2699 9.02012C9.21992 9.07012 8.47992 8.38012 8.47992 8.38012L2.41992 2.37012" stroke="#BF016F" stroke-width="1.2055" stroke-linejoin="round"/>
<path d="M18.1203 2.37012L12.0503 8.39012C12.0503 8.39012 11.3203 9.07012 10.2603 9.03012" stroke="#BF016F" stroke-width="1.2055" stroke-linejoin="round"/>
<path d="M6.27992 8.41992L2.41992 12.3999" stroke="#BF016F" stroke-width="1.2055" stroke-linejoin="round"/>
<path d="M8.14014 13.7198V11.9998H15.0901V9.7998L20.9101 13.7198L15.1901 17.6798V15.6198H8.14014V13.7198Z" stroke="#BF016F" stroke-width="1.2055" stroke-linejoin="round"/> 
</svg>
