<?xml version="1.0" encoding="utf-8"?>
<!-- Generator: Adobe Illustrator 25.3.1, SVG Export Plug-In . SVG Version: 6.00 Build 0)  -->
<svg version="1.1" id="Слой_1" xmlns="http://www.w3.org/2000/svg" xmlns:xlink="http://www.w3.org/1999/xlink" x="0px" y="0px"
	 viewBox="0 0 39 36" style="enable-background:new 0 0 39 36;" xml:space="preserve">
<style type="text/css">
	.st0{fill:none;stroke:#BF016F;stroke-width:1.6;stroke-miterlimit:10;}
	.st1{fill:#BF016F;}
</style>
<path class="st0" d="M19.4,24.4c1,0,1.7-0.8,1.7-1.7c0-1-0.8-1.7-1.7-1.7c-1,0-1.7,0.8-1.7,1.7C17.7,23.6,18.5,24.4,19.4,24.4z"/>
<path class="st0" d="M16.6,25.4L18,24"/>
<path class="st0" d="M20.6,21.4l5.6-5.6"/>
<path class="st0" d="M26,17.9c1,1.4,1.6,3.1,1.6,4.8"/>
<path class="st0" d="M11.1,22.7c0-4.4,3.7-8.2,8.2-8.2c1.7,0,3.2,0.5,4.5,1.4"/>
<path class="st0" d="M32.8,30.3H6.1c-0.9,0-1.7-0.7-1.7-1.7v-22c0-0.9,0.7-1.7,1.7-1.7h26.9c0.9,0,1.7,0.7,1.7,1.7v22.1
	C34.5,29.6,33.8,30.3,32.8,30.3z"/>
<path class="st1" d="M7.9,6.3H6.4v1.5h1.5V6.3z"/>
<path class="st1" d="M10.6,6.3H9.1v1.5h1.5V6.3z"/>
<path class="st1" d="M13.4,6.3h-1.5v1.5h1.5V6.3z"/>
<path class="st0" d="M4.4,8.9h30.2"/>
</svg>
