<svg width="28" height="19" viewBox="0 0 28 19" fill="none" xmlns="http://www.w3.org/2000/svg">
<path d="M17.5596 4.87988H22.3596L24.7496 8.88988H25.7096C25.7096 8.88988 26.4996 8.96988 26.5196 9.77988V14.4999C26.5196 14.4999 26.5196 15.1299 25.7296 15.1599H24.2096" stroke="#AB064E" stroke-width="1.2055" stroke-linejoin="round"/>
<path d="M21.5201 7.41992L22.8401 9.39992H18.8301" stroke="#AB064E" stroke-width="1.2055" stroke-linejoin="round"/>
<path d="M8 1H17.57V15.16" stroke="#AB064E" stroke-width="1.2055" stroke-linejoin="round"/>
<path d="M19.6998 15.1602H9.25977" stroke="#AB064E" stroke-width="1.2055" stroke-linejoin="round"/>
<path d="M4.5398 15.1602H1.7998" stroke="#AB064E" stroke-width="1.2055" stroke-linejoin="round"/>
<path d="M4.54004 4.34961H12.92" stroke="#AB064E" stroke-width="1.2055" stroke-linejoin="round"/>
<path d="M0 7.78027H9.62" stroke="#AB064E" stroke-width="1.2055" stroke-linejoin="round"/>
<path d="M6.87035 18.2602C8.25659 18.2602 9.38035 17.1365 9.38035 15.7502C9.38035 14.364 8.25659 13.2402 6.87035 13.2402C5.48412 13.2402 4.36035 14.364 4.36035 15.7502C4.36035 17.1365 5.48412 18.2602 6.87035 18.2602Z" stroke="#AB064E" stroke-width="1.2055" stroke-linejoin="round"/>
<path d="M22.0403 18.2602C23.4265 18.2602 24.5503 17.1365 24.5503 15.7502C24.5503 14.364 23.4265 13.2402 22.0403 13.2402C20.654 13.2402 19.5303 14.364 19.5303 15.7502C19.5303 17.1365 20.654 18.2602 22.0403 18.2602Z" stroke="#AB064E" stroke-width="1.2055" stroke-linejoin="round"/>
</svg>
