<svg width="120" height="120" viewBox="0 0 120 120" fill="none" xmlns="http://www.w3.org/2000/svg">
<g clip-path="url(#clip0_529_5)">
<path d="M120 120H60H0V0H120V120Z" fill="#E1173C"/>
<path d="M82.498 38.624C73.873 38.624 65.998 41.999 60.373 47.999C54.748 41.999 46.873 38.624 38.248 38.624C21.373 38.624 7.87305 51.749 7.87305 68.249V111.749H23.998V68.249C23.998 60.749 30.373 54.374 38.248 54.374C46.123 54.374 52.498 60.749 52.498 68.249V104.249V111.749H60.373H68.248V104.249V68.249C68.248 60.749 74.623 54.374 82.498 54.374C90.373 54.374 96.748 60.749 96.748 68.249V111.749H112.873V68.249C112.873 51.749 99.373 38.624 82.498 38.624Z" fill="white"/>
</g>
<defs>
<clipPath id="clip0_529_5">
<rect width="120" height="120" fill="white"/>
</clipPath>
</defs>
</svg>
