<svg width="32" height="32" viewBox="0 0 32 32" fill="none" xmlns="http://www.w3.org/2000/svg">
<g clip-path="url(#clip0_525_18)">
<path d="M32 32H16H0V0H32V32Z" fill="#E1173C"/>
<path d="M21.9996 10.2998C19.6996 10.2998 17.5996 11.1998 16.0996 12.7998C14.5996 11.1998 12.4996 10.2998 10.1996 10.2998C5.69961 10.2998 2.09961 13.7998 2.09961 18.1998V29.7998H6.39961V18.1998C6.39961 16.1998 8.09961 14.4998 10.1996 14.4998C12.2996 14.4998 13.9996 16.1998 13.9996 18.1998V27.7998V29.7998H16.0996H18.1996V27.7998V18.1998C18.1996 16.1998 19.8996 14.4998 21.9996 14.4998C24.0996 14.4998 25.7996 16.1998 25.7996 18.1998V29.7998H30.0996V18.1998C30.0996 13.7998 26.4996 10.2998 21.9996 10.2998Z" fill="white"/>
</g>
<defs>
<clipPath id="clip0_525_18">
<rect width="32" height="32" fill="white"/>
</clipPath>
</defs>
</svg>
