<?xml version="1.0" encoding="utf-8"?>
<!-- Generator: Adobe Illustrator 24.2.0, SVG Export Plug-In . SVG Version: 6.00 Build 0)  -->
<svg version="1.1" id="Слой_1" xmlns="http://www.w3.org/2000/svg" xmlns:xlink="http://www.w3.org/1999/xlink" x="0px" y="0px"
	 viewBox="0 0 512 512" style="enable-background:new 0 0 512 512;" xml:space="preserve">
<style type="text/css">
	.st0{fill:#020203;}
</style>
<path class="st0" d="M-0.1,0.1v512h256h256V0.1H-0.1z M439.7,384.1h-56.5V231.8c0-22-15.1-40.6-35.6-46.5c-2.2-0.6-4.4-1.1-6.7-1.4
	c-0.1,0-0.1,0-0.2,0c-1-0.1-2-0.2-3-0.3c-0.2,0-0.5,0-0.7-0.1c-1.1-0.1-2.2-0.1-3.2-0.1c-1.1,0-2.2,0-3.2,0.1c-0.2,0-0.5,0-0.7,0.1
	c-1,0.1-2,0.2-3,0.3c-0.1,0-0.1,0-0.2,0c-2.3,0.3-4.5,0.8-6.7,1.4c-20.6,5.9-35.6,24.5-35.6,46.5c0,0,0,0,0,0v126l0,26.3h-56.5
	l0-26.3v-126c0,0,0,0,0,0c0-26.7-22.2-48.4-49.5-48.4c-27.3,0-49.5,21.7-49.5,48.4v152.3H72.1V231.8c0-57.2,47.6-103.7,106-103.7
	c30.7,0,58.4,12.8,77.8,33.3c9.3-9.8,20.6-17.9,33.1-23.7c1.6-0.8,3.3-1.5,5-2.1c0.1-0.1,0.3-0.1,0.4-0.2c1.5-0.6,3.1-1.2,4.7-1.7
	c0.3-0.1,0.5-0.2,0.8-0.3c1.5-0.5,2.9-0.9,4.4-1.4c0.4-0.1,0.7-0.2,1.1-0.3c1.4-0.4,2.8-0.7,4.2-1c0.5-0.1,0.9-0.2,1.4-0.3
	c1.3-0.3,2.7-0.5,4-0.8c0.5-0.1,1.1-0.2,1.6-0.3c1.3-0.2,2.6-0.4,3.9-0.5c0.6-0.1,1.1-0.2,1.7-0.2c1.4-0.1,2.7-0.2,4.1-0.3
	c0.5,0,1.1-0.1,1.6-0.1c1.9-0.1,3.8-0.2,5.7-0.2c1.9,0,3.8,0.1,5.7,0.2c0.5,0,1.1,0.1,1.6,0.1c1.4,0.1,2.7,0.2,4.1,0.3
	c0.6,0.1,1.1,0.1,1.7,0.2c1.3,0.2,2.6,0.3,3.9,0.5c0.5,0.1,1.1,0.2,1.6,0.3c1.3,0.2,2.7,0.5,4,0.8c0.5,0.1,0.9,0.2,1.4,0.3
	c1.4,0.3,2.8,0.7,4.2,1c0.4,0.1,0.7,0.2,1.1,0.3c1.5,0.4,3,0.9,4.4,1.4c0.3,0.1,0.5,0.2,0.8,0.3c1.6,0.5,3.1,1.1,4.7,1.7
	c0.1,0.1,0.3,0.1,0.4,0.2c1.7,0.7,3.4,1.4,5,2.1c36.2,16.5,61.4,52.5,61.4,94.1V384.1z"/>
</svg>
