<svg width="28" height="29" viewBox="0 0 28 29" fill="none" xmlns="http://www.w3.org/2000/svg">
<path d="M13.927 28.3559C21.5264 28.3559 27.687 22.1954 27.687 14.5959C27.687 6.9965 21.5264 0.835938 13.927 0.835938C6.32755 0.835938 0.166992 6.9965 0.166992 14.5959C0.166992 22.1954 6.32755 28.3559 13.927 28.3559Z" fill="#013C64"/>
<path d="M15.2166 16.7452H8.12164C6.18664 16.7452 4.68164 15.2402 4.68164 13.3052C4.68164 11.3702 6.18664 9.86523 8.12164 9.86523C9.19664 9.86523 10.2716 10.5102 10.9166 11.1552L17.5816 20.1852" stroke="white" stroke-width="2" stroke-miterlimit="10"/>
<path d="M8.98145 22.1198L17.3664 11.7998C18.0114 11.1548 18.8714 10.5098 19.7314 10.5098C21.4514 10.5098 22.7414 11.7998 22.7414 13.5198C22.7414 15.2398 21.4514 16.5298 19.7314 16.5298H13.4964" stroke="white" stroke-width="2" stroke-miterlimit="10"/>
</svg>
