<svg width="28" height="29" viewBox="0 0 28 29" fill="none" xmlns="http://www.w3.org/2000/svg">
<path d="M13.8391 28.3755C21.4504 28.3755 27.6206 22.2053 27.6206 14.594C27.6206 6.98269 21.4504 0.8125 13.8391 0.8125C6.2278 0.8125 0.0576172 6.98269 0.0576172 14.594C0.0576172 22.2053 6.2278 28.3755 13.8391 28.3755Z" fill="#009295"/>
<path d="M10.2128 15.4329V17.0099H8.23681V18.492H10.2128V21H12.3029V18.492H17.4899V17.0099H12.3029V15.4329H15.7419C17.1289 15.4329 18.2119 15.0719 18.991 14.3689C19.789 13.6659 20.188 12.7159 20.188 11.5569C20.188 10.4169 19.789 9.48585 18.991 8.78284C18.2119 8.06083 17.1289 7.69983 15.7419 7.69983H10.2128V13.9509H8.23681V15.4329H10.2128ZM12.3029 9.58085H15.5519C17.1479 9.58085 18.0979 10.3789 18.0979 11.7659C18.0979 13.1339 17.1479 13.9509 15.5519 13.9509H12.3029V9.58085Z" fill="white"/>
</svg>
