<svg width="41" height="35" viewBox="0 0 41 35" fill="none" xmlns="http://www.w3.org/2000/svg">
<path d="M31.1842 1.84751L30.1249 1H21.0141C20.3785 1 19.531 1 19.1072 1.63563L2.79259 17.7384C1.7332 18.7978 1.7332 20.4928 2.79259 21.5522L14.4459 33.2055C15.5053 34.2648 17.2003 34.2648 18.2597 33.2055L34.5743 16.8909C34.998 16.4671 35.4218 15.6196 35.4218 14.984V5.87319L34.1505 4.8138" stroke="#AB064E" stroke-width="2" stroke-miterlimit="10"/>
<path d="M28.6416 4.38818L32.0316 7.77823" stroke="#AB064E" stroke-width="1.8" stroke-miterlimit="10"/>
<path d="M29.9119 5.87251C30.7594 3.9656 32.6663 2.69434 34.7851 2.69434C37.7514 2.69434 40.082 5.02499 40.082 7.99129C40.082 10.1101 39.0226 11.8051 37.3276 12.6526C36.4801 13.0764 35.6326 13.2882 34.7851 13.2882" stroke="#AB064E" stroke-width="1.8" stroke-miterlimit="10"/>
<path d="M14.0707 12.3398L24.0718 22.3409" stroke="#AB064E" stroke-width="2" stroke-linejoin="round"/>
<path d="M16.5708 9.83984L26.572 19.8409" stroke="#AB064E" stroke-width="2" stroke-linejoin="round"/>
<path d="M11.5709 14.8413L21.572 24.8424" stroke="#AB064E" stroke-width="2" stroke-linejoin="round"/>
<path d="M9.07019 17.3403L15.3203 23.5905" stroke="#AB064E" stroke-width="2" stroke-linejoin="round"/>
</svg>
