<?xml version="1.0" encoding="utf-8"?>
<!-- Generator: Adobe Illustrator 24.2.0, SVG Export Plug-In . SVG Version: 6.00 Build 0)  -->
<svg version="1.1" id="Слой_1" xmlns="http://www.w3.org/2000/svg" xmlns:xlink="http://www.w3.org/1999/xlink" x="0px" y="0px"
	 viewBox="0 0 32 32" style="enable-background:new 0 0 32 32;" xml:space="preserve">
<style type="text/css">
	.st0{fill:#CA027B;}
	.st1{fill:#FFFFFF;}
</style>
<polygon class="st0" points="32,32 16,32 0,32 0,0 32,0 "/>
<path class="st1" d="M26.8,14.4c-1.2-2.7-3.4-4.7-6.1-5.8c-2.7-1-5.7-0.9-8.3,0.2C12,9,10.8,9.5,9,10.5l0,0l-9,5.6v5.6l11.3-7.1
	c1.7-1,2.8-1.4,2.8-1.4l0.1-0.1c3.1-1.4,6.8,0,8.2,3.1c1.4,3.1,0,6.8-3.1,8.2c-1.5,0.7-3.2,0.7-4.8,0.2c-1.5-0.6-2.7-1.7-3.4-3.1
	L7.1,24l0.3,0.6c1.3,2.1,3.2,3.8,5.5,4.6c2.7,1,5.7,0.9,8.4-0.3C26.9,26.4,29.3,19.9,26.8,14.4z"/>
</svg>
