<?xml version="1.0" encoding="utf-8"?>
<!-- Generator: Adobe Illustrator 24.2.0, SVG Export Plug-In . SVG Version: 6.00 Build 0)  -->
<svg version="1.1" id="Слой_1" xmlns="http://www.w3.org/2000/svg" xmlns:xlink="http://www.w3.org/1999/xlink" x="0px" y="0px"
	 viewBox="0 0 512 512" style="enable-background:new 0 0 512 512;" xml:space="preserve">
<style type="text/css">
	.st0{fill:#CA027B;}
	.st1{fill:#FFFFFF;}
</style>
<g>
	<polygon class="st0" points="511.9,512.1 255.9,512.1 -0.1,512.1 -0.1,0.1 511.9,0.1 	"/>
	<path class="st1" d="M391.7,196.8c-15.8-35-44.3-61.8-80.3-75.4c-35.7-13.5-74.4-12.4-109.2,3.1c-4.4,1.7-20.8,8.5-44.4,21.6
		l-0.1,0.2l-20.5,12.9L117,171.9L-0.1,245.4v73.5l97.4-61.2l80-50.3l9.9-6.2c22.8-12.8,37.6-18.7,37.9-18.8l1.9-0.8
		c41-18.5,89.3-0.2,107.8,40.7c18.5,41,0.2,89.3-40.7,107.8c-19.8,9-42,9.7-62.4,2c-19.6-7.4-35.3-21.8-44.5-40.6l-54.5,30.7
		l4.3,7.6c16.6,27.8,41.9,49.1,72.6,60.7c36,13.6,75.1,12.4,110.1-3.5C392.1,354.6,424.3,269.1,391.7,196.8z"/>
</g>
</svg>
