<svg version="1" xmlns="http://www.w3.org/2000/svg" width="933.333" height="933.333" viewBox="0 0 700.000000 700.000000"><path d="M159 84.6c-6.3 1-16.6 4.5-19.5 6.6-.5.4-3.9 2.9-7.5 5.6-30 22.3-36 69.6-12.7 99.6 10.8 13.8 23.6 22.2 40.6 26.6 7.4 1.9 17.6 2.1 35.6.7 8.9-.7 18.1 2.8 29 11.2 3.3 2.5 13.6 12.2 22.8 21.5l16.8 16.9-8.5 8.6c-15.6 15.9-18.7 19.3-18.2 21 .5 1.7 7.3 28.2 8.1 31.6.3 1.1 2.1 8.3 4 16 3.7 14.6 4.8 25.7 3.3 33.5-.5 2.5-1.1 6.3-1.5 8.5-2.6 18-15.7 47.1-32.1 71-11.2 16.3-48.4 63.2-68.3 86-1.4 1.6-7.5 8.6-13.5 15.5-5.9 6.9-11.1 12.7-11.4 13-.6.4-17.2 19.8-22.2 25.9-5.5 6.5-10.7 16-11.6 21.1-2.1 11.7.7 31.5 6.2 43.6 3 6.6 12.5 16 20.2 20.1 19.9 10.6 44 9.8 62.1-1.9 12-7.7 15.9-14 23.8-38.6 3.7-11.7 8.6-28.6 11.5-39.7 8.6-33.1 29.7-96 36-107.3.5-.9 1.9-4 3.1-6.7 2.4-5.6 14.6-30.2 17.6-35.5 18.2-31.6 35.7-58.3 53.3-81.2 9.4-12.2 35.7-39.7 43.5-45.4 2.2-1.6 4.2-3.2 4.5-3.5 4.3-5.1 60.4-42.8 77.5-52 1.7-.9 6.7-3.7 11.2-6.2 19.7-10.9 49.6-24 73.8-32.4 22.3-7.8 34.3-11.4 73-22.3 27.8-7.8 56.4-17.3 62.8-20.8 13.5-7.3 23.9-27.5 23.8-46.4 0-10.2-1.9-18.3-6.3-27.6-9.4-19.9-26.7-29.3-54.3-29.5-13.9-.1-15.2.3-27 8.9-8.7 6.1-10.7 7.9-26.5 22.4-5.8 5.3-12.5 11.4-15 13.6-2.5 2.1-4.7 4.1-5 4.4-.3.3-3.6 3.3-7.5 6.6-3.8 3.3-8.1 6.9-9.5 8.1-1.4 1.2-6.9 5.8-12.4 10.3-5.4 4.5-10.4 8.7-11.1 9.3-.7.7-4.7 3.9-9 7.2-4.3 3.3-8.6 6.7-9.5 7.5-5.6 5.2-51.6 38-53.3 38-.3 0-3.4 1.7-6.8 3.8-22.4 13.4-49.8 21.5-69.9 20.8-10.2-.4-22.8-3.2-65-14.6l-6.5-1.7-15.1 14.9-15 14.9-9-9.2c-19.9-20.4-28-27.8-37.3-33.8-10.6-6.8-16.8-8.2-37.2-8.6-23.7-.4-27.7-1.1-39.8-6.8-4.6-2.2-8.9-5.6-15.1-11.6-12.3-12.2-17.4-22.7-18.7-38.2-2.5-31 21.5-60.7 52.2-64.7 5.2-.6 15.7-.1 20.5 1.1 5.4 1.4 8.4 2.4 15.3 5.4 9.9 4.1 14.3 4.4 15.7.7 1.2-3.2.5-3.9-8.8-8.4-11.2-5.4-19.3-7.1-34.2-7.5-7.4-.1-14.6-.1-16 .1z"/><path d="M488 373.6c-17.8 3.2-28.6 6.6-42 13.3-28.8 14.4-51.3 39.2-62.9 69.4-8.6 22.5-10.7 45.4-6.7 71.7 2.9 19 15.6 45.3 29.2 60.9 21.4 24.4 43.8 38 70.9 43.2 7.3 1.4 36.9 1.8 46 .6 8.7-1.1 12.9-1.8 17-2.9 2.2-.5 4.7-1.1 5.5-1.3.8-.2 5.2-1.7 9.7-3.4 22.7-8.8 53.7-36.9 66.2-60.2 5.7-10.6 9.7-22.2 11.5-33.4 1.8-11.6 2.5-34.7 1.2-43.5-.4-2.5-.9-6.2-1.2-8.3-.9-6.9-4.2-18.4-7.4-26.1-7.1-17-26.3-40.7-43.9-54-15.8-12-38.9-22.2-57.2-25.2-4.6-.7-32.8-1.4-35.9-.8zM438.3 438c10.3 9.4 46.6 45.2 93.4 91.9 41.8 41.8 48.2 48.5 47.1 49.9-2.4 2.9-10 9.7-14.7 13-20.5 14.8-52.4 21.1-80.5 15.8-41.9-7.9-75.1-41.9-84.1-86.1-1.1-5.3-1.4-25.8-.5-31.5.5-3 1.2-6.9 1.5-8.6 2.1-13.6 20.4-48.2 27-51.2 2.2-1.1 2.5-.8 10.8 6.8z"/></svg>