<?xml version="1.0" encoding="utf-8"?>
<!-- Generator: Adobe Illustrator 24.2.0, SVG Export Plug-In . SVG Version: 6.00 Build 0)  -->
<svg version="1.1" id="Слой_1" xmlns="http://www.w3.org/2000/svg" xmlns:xlink="http://www.w3.org/1999/xlink" x="0px" y="0px"
	 viewBox="0 0 512 512" style="enable-background:new 0 0 512 512;" xml:space="preserve">
<path d="M-0.1,0.1v245.3L117,171.9l20.2-12.7l20.5-12.9l0.1-0.2c23.6-13.1,40-19.9,44.4-21.6c34.8-15.5,73.5-16.6,109.2-3.1
	c36,13.6,64.5,40.4,80.3,75.4c32.6,72.3,0.4,157.8-72,190.2c-35,15.9-74.1,17.1-110.1,3.5c-30.7-11.6-56-32.9-72.6-60.7l-4.3-7.6
	l54.5-30.7c9.2,18.8,24.9,33.2,44.5,40.6c20.4,7.7,42.6,7,62.4-2c40.9-18.5,59.2-66.8,40.7-107.8c-18.5-40.9-66.8-59.2-107.8-40.7
	l-1.9,0.8c-0.3,0.1-15.1,6-37.9,18.8l-9.9,6.2l-80,50.3l-97.4,61.2v193.2h256h256V0.1H-0.1z"/>
</svg>
