<svg width="22" height="20" viewBox="0 0 22 20" fill="none" xmlns="http://www.w3.org/2000/svg">
<path d="M19.4755 16.1958H7.59789L3.3287 1H0" stroke="#AB064E" stroke-width="1.3849" stroke-linejoin="round"/>
<path d="M6.89144 3.13477H21.1362L19.7096 12.1592H6.46875" stroke="#AB064E" stroke-width="1.3849" stroke-linejoin="round"/>
<path d="M8.02219 20.0009H7.1768C6.88092 20.0009 6.64844 19.7684 6.64844 19.4726V18.6377C6.64844 18.3419 6.88092 18.1094 7.1768 18.1094H8.01162C8.3075 18.1094 8.53998 18.3419 8.53998 18.6377V19.4726C8.55055 19.7579 8.31807 20.0009 8.02219 20.0009Z" fill="#AB064E"/>
<path d="M18.9374 20.0009H18.1026C17.8067 20.0009 17.5742 19.7684 17.5742 19.4726V18.6377C17.5742 18.3419 17.8067 18.1094 18.1026 18.1094H18.9374C19.2333 18.1094 19.4658 18.3419 19.4658 18.6377V19.4726C19.4763 19.7579 19.2333 20.0009 18.9374 20.0009Z" fill="#AB064E"/>
</svg>
