<svg width="24" height="24" viewBox="0 0 24 24" fill="none" xmlns="http://www.w3.org/2000/svg">
<path d="M22.5 4.5V19.5H1.5V4.5H22.5ZM24 3H0V21H24V3Z" fill="#AB064E"/>
<path d="M12 7.5H21V9H12V7.5Z" fill="#AB064E"/>
<path d="M12 10.5H21V12H12V10.5Z" fill="#AB064E"/>
<path d="M12 13.5H16.5V15H12V13.5Z" fill="#AB064E"/>
<path d="M8.1 10.5H7.5V10.35C8.4 10.05 9 9.15 9 8.25C9 7.05 7.95 6 6.75 6C5.55 6 4.5 7.05 4.5 8.25C4.5 9.3 5.1 10.05 6 10.35V10.5H5.4C4.05 10.5 3 11.55 3 12.9V16.5H10.5V12.9C10.5 11.55 9.45 10.5 8.1 10.5Z" fill="#AB064E"/>
</svg>
