<svg width="126" height="63" viewBox="0 0 126 63" fill="none" xmlns="http://www.w3.org/2000/svg">
<g clip-path="url(#clip0)">
<path d="M124.5 21.8469V17.1469C124.5 15.1469 122.9 13.4469 120.8 13.4469H115.8C117.8 13.4469 119.5 11.8469 119.5 9.74687V5.24687C119.5 3.24687 117.9 1.54688 115.8 1.54688H5.2C3.2 1.54688 1.5 3.14687 1.5 5.24687V9.94687C1.5 11.9469 3.1 13.6469 5.2 13.6469H10.2C8.2 13.6469 6.5 15.2469 6.5 17.3469V22.0469C6.5 24.0469 8.1 25.7469 10.2 25.7469H5.2C3.2 25.7469 1.5 27.3469 1.5 29.4469V34.1469C1.5 36.1469 3.1 37.8469 5.2 37.8469H10.2C8.2 37.8469 6.5 39.4469 6.5 41.5469V46.2469C6.5 48.2469 8.1 49.9469 10.2 49.9469H5.2C3.2 49.9469 1.5 51.5469 1.5 53.6469V58.3469C1.5 60.3469 3.1 62.0469 5.2 62.0469H115.9C117.9 62.0469 119.6 60.4469 119.6 58.3469V53.6469C119.6 51.6469 118 49.9469 115.9 49.9469H120.9C122.9 49.9469 124.6 48.3469 124.6 46.2469V41.5469C124.6 39.5469 123 37.8469 120.9 37.8469H115.9C117.9 37.8469 119.6 36.2469 119.6 34.1469V29.4469C119.6 27.4469 118 25.7469 115.9 25.7469H120.9C122.9 25.5469 124.5 23.9469 124.5 21.8469Z" fill="white"/>
<path d="M120.8 25.5473H10.2C8.2 25.5473 6.5 23.9473 6.5 21.8473V17.1473C6.5 15.1473 8.1 13.4473 10.2 13.4473H120.9C122.9 13.4473 124.6 15.0473 124.6 17.1473V21.8473C124.5 23.9473 122.9 25.5473 120.8 25.5473Z" stroke="#DDDDDD" stroke-miterlimit="10"/>
<path d="M115.8 13.5469H5.2C3.2 13.5469 1.5 11.9469 1.5 9.84688V5.24687C1.5 3.24687 3.1 1.54688 5.2 1.54688H115.9C117.9 1.54688 119.6 3.14687 119.6 5.24687V9.94687C119.5 11.9469 117.9 13.5469 115.8 13.5469Z" stroke="#DDDDDD" stroke-miterlimit="10"/>
<path d="M115.8 61.5473H5.2C3.2 61.5473 1.5 59.9473 1.5 57.8473V53.1473C1.5 51.1473 3.1 49.4473 5.2 49.4473H115.9C117.9 49.4473 119.6 51.0473 119.6 53.1473V57.8473C119.5 59.9473 117.9 61.5473 115.8 61.5473Z" stroke="#DDDDDD" stroke-miterlimit="10"/>
<path d="M120.8 49.5473H10.2C8.2 49.5473 6.5 47.9473 6.5 45.8473V41.1473C6.5 39.1473 8.1 37.4473 10.2 37.4473H120.9C122.9 37.4473 124.6 39.0473 124.6 41.1473V45.8473C124.5 47.9473 122.9 49.5473 120.8 49.5473Z" stroke="#DDDDDD" stroke-miterlimit="10"/>
<path d="M115.8 37.5473H5.2C3.2 37.5473 1.5 35.9473 1.5 33.8473V29.1473C1.5 27.1473 3.1 25.4473 5.2 25.4473H115.9C117.9 25.4473 119.6 27.0473 119.6 29.1473V33.8473C119.5 35.9473 117.9 37.5473 115.8 37.5473Z" stroke="#DDDDDD" stroke-miterlimit="10"/>
<path d="M1.80078 3.54688H119.201" stroke="#DDDDDD" stroke-width="0.5" stroke-miterlimit="10"/>
<path d="M1.80078 11.5469H119.201" stroke="#DDDDDD" stroke-width="0.5" stroke-miterlimit="10"/>
<path d="M4.40039 3.54688V11.5469" stroke="#DDDDDD" stroke-width="0.5" stroke-miterlimit="10"/>
<path d="M8.40039 3.54688V11.5469" stroke="#DDDDDD" stroke-width="0.5" stroke-miterlimit="10"/>
<path d="M12.4004 3.54688V11.5469" stroke="#DDDDDD" stroke-width="0.5" stroke-miterlimit="10"/>
<path d="M16.4004 3.54688V11.5469" stroke="#DDDDDD" stroke-width="0.5" stroke-miterlimit="10"/>
<path d="M20.4004 3.54688V11.5469" stroke="#DDDDDD" stroke-width="0.5" stroke-miterlimit="10"/>
<path d="M24.4004 3.54688V11.5469" stroke="#DDDDDD" stroke-width="0.5" stroke-miterlimit="10"/>
<path d="M28.4004 3.54688V11.5469" stroke="#DDDDDD" stroke-width="0.5" stroke-miterlimit="10"/>
<path d="M32.4004 3.54688V11.5469" stroke="#DDDDDD" stroke-width="0.5" stroke-miterlimit="10"/>
<path d="M36.4004 3.54688V11.5469" stroke="#DDDDDD" stroke-width="0.5" stroke-miterlimit="10"/>
<path d="M40.4004 3.54688V11.5469" stroke="#DDDDDD" stroke-width="0.5" stroke-miterlimit="10"/>
<path d="M44.4004 3.54688V11.5469" stroke="#DDDDDD" stroke-width="0.5" stroke-miterlimit="10"/>
<path d="M48.4004 3.54688V11.5469" stroke="#DDDDDD" stroke-width="0.5" stroke-miterlimit="10"/>
<path d="M52.4004 3.54688V11.5469" stroke="#DDDDDD" stroke-width="0.5" stroke-miterlimit="10"/>
<path d="M56.4004 3.54688V11.5469" stroke="#DDDDDD" stroke-width="0.5" stroke-miterlimit="10"/>
<path d="M60.4004 3.54688V11.5469" stroke="#DDDDDD" stroke-width="0.5" stroke-miterlimit="10"/>
<path d="M64.4004 3.54688V11.5469" stroke="#DDDDDD" stroke-width="0.5" stroke-miterlimit="10"/>
<path d="M68.4004 3.54688V11.5469" stroke="#DDDDDD" stroke-width="0.5" stroke-miterlimit="10"/>
<path d="M72.4004 3.54688V11.5469" stroke="#DDDDDD" stroke-width="0.5" stroke-miterlimit="10"/>
<path d="M76.4004 3.54688V11.5469" stroke="#DDDDDD" stroke-width="0.5" stroke-miterlimit="10"/>
<path d="M80.4004 3.54688V11.5469" stroke="#DDDDDD" stroke-width="0.5" stroke-miterlimit="10"/>
<path d="M84.4004 3.54688V11.5469" stroke="#DDDDDD" stroke-width="0.5" stroke-miterlimit="10"/>
<path d="M88.4004 3.54688V11.5469" stroke="#DDDDDD" stroke-width="0.5" stroke-miterlimit="10"/>
<path d="M92.4004 3.54688V11.5469" stroke="#DDDDDD" stroke-width="0.5" stroke-miterlimit="10"/>
<path d="M96.4004 3.54688V11.5469" stroke="#DDDDDD" stroke-width="0.5" stroke-miterlimit="10"/>
<path d="M100.4 3.54688V11.5469" stroke="#DDDDDD" stroke-width="0.5" stroke-miterlimit="10"/>
<path d="M104.4 3.54688V11.5469" stroke="#DDDDDD" stroke-width="0.5" stroke-miterlimit="10"/>
<path d="M108.4 3.54688V11.5469" stroke="#DDDDDD" stroke-width="0.5" stroke-miterlimit="10"/>
<path d="M112.4 3.54688V11.5469" stroke="#DDDDDD" stroke-width="0.5" stroke-miterlimit="10"/>
<path d="M116.4 3.54688V11.5469" stroke="#DDDDDD" stroke-width="0.5" stroke-miterlimit="10"/>
<path d="M6.80078 15.5469H124.201" stroke="#DDDDDD" stroke-width="0.5" stroke-miterlimit="10"/>
<path d="M6.80078 23.5469H124.201" stroke="#DDDDDD" stroke-width="0.5" stroke-miterlimit="10"/>
<path d="M9.40039 15.5469V23.5469" stroke="#DDDDDD" stroke-width="0.5" stroke-miterlimit="10"/>
<path d="M13.4004 15.5469V23.5469" stroke="#DDDDDD" stroke-width="0.5" stroke-miterlimit="10"/>
<path d="M17.4004 15.5469V23.5469" stroke="#DDDDDD" stroke-width="0.5" stroke-miterlimit="10"/>
<path d="M21.4004 15.5469V23.5469" stroke="#DDDDDD" stroke-width="0.5" stroke-miterlimit="10"/>
<path d="M25.4004 15.5469V23.5469" stroke="#DDDDDD" stroke-width="0.5" stroke-miterlimit="10"/>
<path d="M29.4004 15.5469V23.5469" stroke="#DDDDDD" stroke-width="0.5" stroke-miterlimit="10"/>
<path d="M33.4004 15.5469V23.5469" stroke="#DDDDDD" stroke-width="0.5" stroke-miterlimit="10"/>
<path d="M37.4004 15.5469V23.5469" stroke="#DDDDDD" stroke-width="0.5" stroke-miterlimit="10"/>
<path d="M41.4004 15.5469V23.5469" stroke="#DDDDDD" stroke-width="0.5" stroke-miterlimit="10"/>
<path d="M45.4004 15.5469V23.5469" stroke="#DDDDDD" stroke-width="0.5" stroke-miterlimit="10"/>
<path d="M49.4004 15.5469V23.5469" stroke="#DDDDDD" stroke-width="0.5" stroke-miterlimit="10"/>
<path d="M53.4004 15.5469V23.5469" stroke="#DDDDDD" stroke-width="0.5" stroke-miterlimit="10"/>
<path d="M57.4004 15.5469V23.5469" stroke="#DDDDDD" stroke-width="0.5" stroke-miterlimit="10"/>
<path d="M61.4004 15.5469V23.5469" stroke="#DDDDDD" stroke-width="0.5" stroke-miterlimit="10"/>
<path d="M65.4004 15.5469V23.5469" stroke="#DDDDDD" stroke-width="0.5" stroke-miterlimit="10"/>
<path d="M69.4004 15.5469V23.5469" stroke="#DDDDDD" stroke-width="0.5" stroke-miterlimit="10"/>
<path d="M73.4004 15.5469V23.5469" stroke="#DDDDDD" stroke-width="0.5" stroke-miterlimit="10"/>
<path d="M77.4004 15.5469V23.5469" stroke="#DDDDDD" stroke-width="0.5" stroke-miterlimit="10"/>
<path d="M81.4004 15.5469V23.5469" stroke="#DDDDDD" stroke-width="0.5" stroke-miterlimit="10"/>
<path d="M85.4004 15.5469V23.5469" stroke="#DDDDDD" stroke-width="0.5" stroke-miterlimit="10"/>
<path d="M89.4004 15.5469V23.5469" stroke="#DDDDDD" stroke-width="0.5" stroke-miterlimit="10"/>
<path d="M93.4004 15.5469V23.5469" stroke="#DDDDDD" stroke-width="0.5" stroke-miterlimit="10"/>
<path d="M97.4004 15.5469V23.5469" stroke="#DDDDDD" stroke-width="0.5" stroke-miterlimit="10"/>
<path d="M101.4 15.5469V23.5469" stroke="#DDDDDD" stroke-width="0.5" stroke-miterlimit="10"/>
<path d="M105.4 15.5469V23.5469" stroke="#DDDDDD" stroke-width="0.5" stroke-miterlimit="10"/>
<path d="M109.4 15.5469V23.5469" stroke="#DDDDDD" stroke-width="0.5" stroke-miterlimit="10"/>
<path d="M113.4 15.5469V23.5469" stroke="#DDDDDD" stroke-width="0.5" stroke-miterlimit="10"/>
<path d="M117.4 15.5469V23.5469" stroke="#DDDDDD" stroke-width="0.5" stroke-miterlimit="10"/>
<path d="M121.4 15.5469V23.5469" stroke="#DDDDDD" stroke-width="0.5" stroke-miterlimit="10"/>
<path d="M1.80078 27.5469H119.201" stroke="#DDDDDD" stroke-width="0.5" stroke-miterlimit="10"/>
<path d="M1.80078 35.5469H119.201" stroke="#DDDDDD" stroke-width="0.5" stroke-miterlimit="10"/>
<path d="M1.80078 51.5469H119.201" stroke="#DDDDDD" stroke-width="0.5" stroke-miterlimit="10"/>
<path d="M1.80078 59.5469H119.201" stroke="#DDDDDD" stroke-width="0.5" stroke-miterlimit="10"/>
<path d="M4.40039 51.5469V59.5469" stroke="#DDDDDD" stroke-width="0.5" stroke-miterlimit="10"/>
<path d="M8.40039 51.5469V59.5469" stroke="#DDDDDD" stroke-width="0.5" stroke-miterlimit="10"/>
<path d="M12.4004 51.5469V59.5469" stroke="#DDDDDD" stroke-width="0.5" stroke-miterlimit="10"/>
<path d="M16.4004 51.5469V59.5469" stroke="#DDDDDD" stroke-width="0.5" stroke-miterlimit="10"/>
<path d="M20.4004 51.5469V59.5469" stroke="#DDDDDD" stroke-width="0.5" stroke-miterlimit="10"/>
<path d="M24.4004 51.5469V59.5469" stroke="#DDDDDD" stroke-width="0.5" stroke-miterlimit="10"/>
<path d="M28.4004 51.5469V59.5469" stroke="#DDDDDD" stroke-width="0.5" stroke-miterlimit="10"/>
<path d="M32.4004 51.5469V59.5469" stroke="#DDDDDD" stroke-width="0.5" stroke-miterlimit="10"/>
<path d="M36.4004 51.5469V59.5469" stroke="#DDDDDD" stroke-width="0.5" stroke-miterlimit="10"/>
<path d="M40.4004 51.5469V59.5469" stroke="#DDDDDD" stroke-width="0.5" stroke-miterlimit="10"/>
<path d="M44.4004 51.5469V59.5469" stroke="#DDDDDD" stroke-width="0.5" stroke-miterlimit="10"/>
<path d="M48.4004 51.5469V59.5469" stroke="#DDDDDD" stroke-width="0.5" stroke-miterlimit="10"/>
<path d="M52.4004 51.5469V59.5469" stroke="#DDDDDD" stroke-width="0.5" stroke-miterlimit="10"/>
<path d="M56.4004 51.5469V59.5469" stroke="#DDDDDD" stroke-width="0.5" stroke-miterlimit="10"/>
<path d="M60.4004 51.5469V59.5469" stroke="#DDDDDD" stroke-width="0.5" stroke-miterlimit="10"/>
<path d="M64.4004 51.5469V59.5469" stroke="#DDDDDD" stroke-width="0.5" stroke-miterlimit="10"/>
<path d="M68.4004 51.5469V59.5469" stroke="#DDDDDD" stroke-width="0.5" stroke-miterlimit="10"/>
<path d="M72.4004 51.5469V59.5469" stroke="#DDDDDD" stroke-width="0.5" stroke-miterlimit="10"/>
<path d="M76.4004 51.5469V59.5469" stroke="#DDDDDD" stroke-width="0.5" stroke-miterlimit="10"/>
<path d="M80.4004 51.5469V59.5469" stroke="#DDDDDD" stroke-width="0.5" stroke-miterlimit="10"/>
<path d="M84.4004 51.5469V59.5469" stroke="#DDDDDD" stroke-width="0.5" stroke-miterlimit="10"/>
<path d="M88.4004 51.5469V59.5469" stroke="#DDDDDD" stroke-width="0.5" stroke-miterlimit="10"/>
<path d="M92.4004 51.5469V59.5469" stroke="#DDDDDD" stroke-width="0.5" stroke-miterlimit="10"/>
<path d="M96.4004 51.5469V59.5469" stroke="#DDDDDD" stroke-width="0.5" stroke-miterlimit="10"/>
<path d="M100.4 51.5469V59.5469" stroke="#DDDDDD" stroke-width="0.5" stroke-miterlimit="10"/>
<path d="M104.4 51.5469V59.5469" stroke="#DDDDDD" stroke-width="0.5" stroke-miterlimit="10"/>
<path d="M108.4 51.5469V59.5469" stroke="#DDDDDD" stroke-width="0.5" stroke-miterlimit="10"/>
<path d="M112.4 51.5469V59.5469" stroke="#DDDDDD" stroke-width="0.5" stroke-miterlimit="10"/>
<path d="M116.4 51.5469V59.5469" stroke="#DDDDDD" stroke-width="0.5" stroke-miterlimit="10"/>
<path d="M6.80078 39.5469H124.201" stroke="#DDDDDD" stroke-width="0.5" stroke-miterlimit="10"/>
<path d="M6.80078 47.5469H124.201" stroke="#DDDDDD" stroke-width="0.5" stroke-miterlimit="10"/>
<path d="M9.40039 39.5469V47.5469" stroke="#DDDDDD" stroke-width="0.5" stroke-miterlimit="10"/>
<path d="M13.4004 39.5469V47.5469" stroke="#DDDDDD" stroke-width="0.5" stroke-miterlimit="10"/>
<path d="M17.4004 39.5469V47.5469" stroke="#DDDDDD" stroke-width="0.5" stroke-miterlimit="10"/>
<path d="M21.4004 39.5469V47.5469" stroke="#DDDDDD" stroke-width="0.5" stroke-miterlimit="10"/>
<path d="M25.4004 39.5469V47.5469" stroke="#DDDDDD" stroke-width="0.5" stroke-miterlimit="10"/>
<path d="M29.4004 39.5469V47.5469" stroke="#DDDDDD" stroke-width="0.5" stroke-miterlimit="10"/>
<path d="M33.4004 39.5469V47.5469" stroke="#DDDDDD" stroke-width="0.5" stroke-miterlimit="10"/>
<path d="M37.4004 39.5469V47.5469" stroke="#DDDDDD" stroke-width="0.5" stroke-miterlimit="10"/>
<path d="M41.4004 39.5469V47.5469" stroke="#DDDDDD" stroke-width="0.5" stroke-miterlimit="10"/>
<path d="M45.4004 39.5469V47.5469" stroke="#DDDDDD" stroke-width="0.5" stroke-miterlimit="10"/>
<path d="M49.4004 39.5469V47.5469" stroke="#DDDDDD" stroke-width="0.5" stroke-miterlimit="10"/>
<path d="M53.4004 39.5469V47.5469" stroke="#DDDDDD" stroke-width="0.5" stroke-miterlimit="10"/>
<path d="M57.4004 39.5469V47.5469" stroke="#DDDDDD" stroke-width="0.5" stroke-miterlimit="10"/>
<path d="M61.4004 39.5469V47.5469" stroke="#DDDDDD" stroke-width="0.5" stroke-miterlimit="10"/>
<path d="M65.4004 39.5469V47.5469" stroke="#DDDDDD" stroke-width="0.5" stroke-miterlimit="10"/>
<path d="M69.4004 39.5469V47.5469" stroke="#DDDDDD" stroke-width="0.5" stroke-miterlimit="10"/>
<path d="M73.4004 39.5469V47.5469" stroke="#DDDDDD" stroke-width="0.5" stroke-miterlimit="10"/>
<path d="M77.4004 39.5469V47.5469" stroke="#DDDDDD" stroke-width="0.5" stroke-miterlimit="10"/>
<path d="M81.4004 39.5469V47.5469" stroke="#DDDDDD" stroke-width="0.5" stroke-miterlimit="10"/>
<path d="M85.4004 39.5469V47.5469" stroke="#DDDDDD" stroke-width="0.5" stroke-miterlimit="10"/>
<path d="M89.4004 39.5469V47.5469" stroke="#DDDDDD" stroke-width="0.5" stroke-miterlimit="10"/>
<path d="M93.4004 39.5469V47.5469" stroke="#DDDDDD" stroke-width="0.5" stroke-miterlimit="10"/>
<path d="M97.4004 39.5469V47.5469" stroke="#DDDDDD" stroke-width="0.5" stroke-miterlimit="10"/>
<path d="M101.4 39.5469V47.5469" stroke="#DDDDDD" stroke-width="0.5" stroke-miterlimit="10"/>
<path d="M105.4 39.5469V47.5469" stroke="#DDDDDD" stroke-width="0.5" stroke-miterlimit="10"/>
<path d="M109.4 39.5469V47.5469" stroke="#DDDDDD" stroke-width="0.5" stroke-miterlimit="10"/>
<path d="M113.4 39.5469V47.5469" stroke="#DDDDDD" stroke-width="0.5" stroke-miterlimit="10"/>
<path d="M117.4 39.5469V47.5469" stroke="#DDDDDD" stroke-width="0.5" stroke-miterlimit="10"/>
<path d="M121.4 39.5469V47.5469" stroke="#DDDDDD" stroke-width="0.5" stroke-miterlimit="10"/>
<path d="M124.5 21.8469V17.1469C124.5 15.1469 122.9 13.4469 120.8 13.4469H115.8C117.8 13.4469 119.5 11.8469 119.5 9.74687V5.24687C119.5 3.24687 117.9 1.54688 115.8 1.54688H5.2C3.2 1.54688 1.5 3.14687 1.5 5.24687V9.94687C1.5 11.9469 3.1 13.6469 5.2 13.6469H10.2C8.2 13.6469 6.5 15.2469 6.5 17.3469V22.0469C6.5 24.0469 8.1 25.7469 10.2 25.7469H5.2C3.2 25.7469 1.5 27.3469 1.5 29.4469V34.1469C1.5 36.1469 3.1 37.8469 5.2 37.8469H10.2C8.2 37.8469 6.5 39.4469 6.5 41.5469V46.2469C6.5 48.2469 8.1 49.9469 10.2 49.9469H5.2C3.2 49.9469 1.5 51.5469 1.5 53.6469V58.3469C1.5 60.3469 3.1 62.0469 5.2 62.0469H115.9C117.9 62.0469 119.6 60.4469 119.6 58.3469V53.6469C119.6 51.6469 118 49.9469 115.9 49.9469H120.9C122.9 49.9469 124.6 48.3469 124.6 46.2469V41.5469C124.6 39.5469 123 37.8469 120.9 37.8469H115.9C117.9 37.8469 119.6 36.2469 119.6 34.1469V29.4469C119.6 27.4469 118 25.7469 115.9 25.7469H120.9C122.9 25.5469 124.5 23.9469 124.5 21.8469Z" stroke="#808080" stroke-miterlimit="10"/>
<path d="M4.40039 27.5469V35.5469" stroke="#DDDDDD" stroke-width="0.5" stroke-miterlimit="10"/>
<path d="M8.40039 27.5469V35.5469" stroke="#DDDDDD" stroke-width="0.5" stroke-miterlimit="10"/>
<path d="M12.4004 27.5469V35.5469" stroke="#DDDDDD" stroke-width="0.5" stroke-miterlimit="10"/>
<path d="M16.4004 27.5469V35.5469" stroke="#DDDDDD" stroke-width="0.5" stroke-miterlimit="10"/>
<path d="M20.4004 27.5469V35.5469" stroke="#DDDDDD" stroke-width="0.5" stroke-miterlimit="10"/>
<path d="M24.4004 27.5469V35.5469" stroke="#DDDDDD" stroke-width="0.5" stroke-miterlimit="10"/>
<path d="M28.4004 27.5469V35.5469" stroke="#DDDDDD" stroke-width="0.5" stroke-miterlimit="10"/>
<path d="M32.4004 27.5469V35.5469" stroke="#DDDDDD" stroke-width="0.5" stroke-miterlimit="10"/>
<path d="M36.4004 27.5469V35.5469" stroke="#DDDDDD" stroke-width="0.5" stroke-miterlimit="10"/>
<path d="M40.4004 27.5469V35.5469" stroke="#DDDDDD" stroke-width="0.5" stroke-miterlimit="10"/>
<path d="M44.4004 27.5469V35.5469" stroke="#DDDDDD" stroke-width="0.5" stroke-miterlimit="10"/>
<path d="M48.4004 27.5469V35.5469" stroke="#DDDDDD" stroke-width="0.5" stroke-miterlimit="10"/>
<path d="M52.4004 27.5469V35.5469" stroke="#DDDDDD" stroke-width="0.5" stroke-miterlimit="10"/>
<path d="M56.4004 27.5469V35.5469" stroke="#DDDDDD" stroke-width="0.5" stroke-miterlimit="10"/>
<path d="M60.4004 27.5469V35.5469" stroke="#DDDDDD" stroke-width="0.5" stroke-miterlimit="10"/>
<path d="M64.4004 27.5469V35.5469" stroke="#DDDDDD" stroke-width="0.5" stroke-miterlimit="10"/>
<path d="M68.4004 27.5469V35.5469" stroke="#DDDDDD" stroke-width="0.5" stroke-miterlimit="10"/>
<path d="M72.4004 27.5469V35.5469" stroke="#DDDDDD" stroke-width="0.5" stroke-miterlimit="10"/>
<path d="M76.4004 27.5469V35.5469" stroke="#DDDDDD" stroke-width="0.5" stroke-miterlimit="10"/>
<path d="M80.4004 27.5469V35.5469" stroke="#DDDDDD" stroke-width="0.5" stroke-miterlimit="10"/>
<path d="M84.4004 27.5469V35.5469" stroke="#DDDDDD" stroke-width="0.5" stroke-miterlimit="10"/>
<path d="M88.4004 27.5469V35.5469" stroke="#DDDDDD" stroke-width="0.5" stroke-miterlimit="10"/>
<path d="M92.4004 27.5469V35.5469" stroke="#DDDDDD" stroke-width="0.5" stroke-miterlimit="10"/>
<path d="M96.4004 27.5469V35.5469" stroke="#DDDDDD" stroke-width="0.5" stroke-miterlimit="10"/>
<path d="M100.4 27.5469V35.5469" stroke="#DDDDDD" stroke-width="0.5" stroke-miterlimit="10"/>
<path d="M104.4 27.5469V35.5469" stroke="#DDDDDD" stroke-width="0.5" stroke-miterlimit="10"/>
<path d="M108.4 27.5469V35.5469" stroke="#DDDDDD" stroke-width="0.5" stroke-miterlimit="10"/>
<path d="M112.4 27.5469V35.5469" stroke="#DDDDDD" stroke-width="0.5" stroke-miterlimit="10"/>
<path d="M116.4 27.5469V35.5469" stroke="#DDDDDD" stroke-width="0.5" stroke-miterlimit="10"/>
</g>
<defs>
<clipPath id="clip0">
<rect width="126" height="62" fill="white" transform="translate(0 0.546875)"/>
</clipPath>
</defs>
</svg>
