<svg width="200" height="40" viewBox="0 0 200 40" fill="none" xmlns="http://www.w3.org/2000/svg">
<g clip-path="url(#clip0)">
<path d="M90.6891 11.8813C88.6697 9.83602 86.0028 8.7119 83.1509 8.7119C80.3299 8.7119 77.663 9.82041 75.659 11.8189C75.397 12.053 74.4104 12.9898 73.0846 14.5823V8.89926H68.013V20.4996C68.013 20.4996 68.0284 25.5113 63.1571 25.5893C63.1571 25.5893 58.5787 25.7142 58.4862 20.0468V8.89926H53.4608V16.3778C52.9675 14.7384 52.0888 13.1928 50.8093 11.8969C48.7899 9.85164 46.123 8.72751 43.2712 8.72751C40.4501 8.72751 37.7833 9.83602 35.7793 11.8345C35.4709 12.1155 34.2223 13.2865 32.5883 15.3473C31.7558 12.8025 29.9214 10.726 27.5474 9.61744C27.3933 9.55499 27.2545 9.47693 27.1004 9.41448C27.0849 9.41448 27.0695 9.39887 27.0695 9.39887C26.9308 9.33641 26.792 9.28958 26.6533 9.24274C26.6379 9.22712 26.6071 9.22712 26.5916 9.21151C26.4529 9.16467 26.3296 9.11783 26.1908 9.08661C26.16 9.071 26.1292 9.071 26.0984 9.05538C25.975 9.02416 25.8517 8.99293 25.7284 8.96171C25.6821 8.94609 25.6513 8.94609 25.6051 8.93048C25.4817 8.89926 25.3584 8.88364 25.2505 8.85242C25.2043 8.8368 25.158 8.8368 25.1118 8.82119C24.9884 8.80558 24.8805 8.78997 24.7572 8.77435C24.711 8.77435 24.6493 8.75874 24.6031 8.75874C24.4797 8.74313 24.3564 8.74313 24.2331 8.72751C24.1868 8.72751 24.1406 8.7119 24.0943 8.7119C23.9248 8.69629 23.7552 8.69629 23.5856 8.69629C23.4161 8.69629 23.2465 8.69629 23.0769 8.7119C23.0307 8.7119 22.9844 8.72751 22.9382 8.72751C22.8149 8.74313 22.6915 8.74313 22.5682 8.75874C22.522 8.75874 22.4603 8.77435 22.4141 8.77435C22.2907 8.78997 22.1828 8.80558 22.0595 8.82119C22.0133 8.8368 21.967 8.8368 21.9208 8.85242C21.7974 8.86803 21.6741 8.89926 21.5662 8.93048C21.52 8.94609 21.4891 8.94609 21.4429 8.96171C21.3196 8.99293 21.1962 9.02416 21.0729 9.05538C21.0421 9.071 21.0113 9.071 20.9804 9.08661C20.8417 9.13345 20.7184 9.16467 20.5796 9.21151C20.5642 9.22712 20.5334 9.22712 20.518 9.24274C20.3792 9.28958 20.2405 9.35203 20.1017 9.39887C20.0863 9.39887 20.0709 9.41448 20.0709 9.41448C19.9168 9.47693 19.7626 9.53938 19.6239 9.61744C18.4985 10.1483 17.4811 10.8977 16.6487 11.8189C14.7988 9.91409 12.3015 8.72751 9.54216 8.72751C4.28549 8.72751 0 13.0523 0 18.3918V30.1327H5.0871V18.3918C5.0871 15.9094 7.09111 13.8797 9.54216 13.8797C11.9932 13.8797 13.9972 15.9094 13.9972 18.3918V30.1327H19.0843V18.3918C19.0843 16.3466 20.4409 14.6135 22.2907 14.0671C22.4911 14.0046 22.6915 13.9578 22.8919 13.9266H22.9074C22.9998 13.911 23.0769 13.911 23.1694 13.8954C23.1848 13.8954 23.2157 13.8954 23.2311 13.8954C23.3236 13.8954 23.4315 13.8797 23.524 13.8797C23.6165 13.8797 23.7244 13.8797 23.8169 13.8954C23.8323 13.8954 23.8631 13.8954 23.8785 13.8954C23.971 13.8954 24.0635 13.911 24.1406 13.9266H24.156C24.3564 13.9578 24.5722 14.0046 24.7572 14.0671C26.6071 14.6135 27.9636 16.3466 27.9636 18.3918V22.4668V24.7775V30.1327H33.0507V22.8727C35.9642 17.9391 38.8315 15.3473 38.8623 15.3161L38.9703 15.2068C41.3288 12.8181 45.1518 12.8181 47.5104 15.2068C49.869 17.5956 49.869 21.4676 47.5104 23.8563C46.3697 25.0117 44.859 25.6518 43.2403 25.6518C41.6834 25.6518 40.2189 25.0585 39.0936 23.9812L36.1184 27.5722L36.6117 27.9937C38.4924 29.5082 40.8047 30.3356 43.2403 30.3356C46.0922 30.3356 48.7591 29.2115 50.7785 27.1662C52.058 25.8704 52.9521 24.3247 53.4299 22.6698C53.4762 23.9032 54.1082 30.3981 62.9259 30.3356C62.9259 30.3356 66.1323 30.4137 67.9821 28.5089V29.1178C67.9821 30.6791 67.8434 32.3497 66.6564 33.5363C65.5157 34.6916 64.0049 35.3317 62.3863 35.3317C60.8294 35.3317 59.3649 34.7385 58.2396 33.6612L55.2644 37.2677L55.7577 37.6893C57.6384 39.2037 59.9507 40.0312 62.3863 40.0312C65.2382 40.0312 67.9051 38.9071 69.9245 36.8618C71.9593 34.8009 73.0076 32.0843 73.0384 29.3676V22.6541C75.9057 17.8766 78.6805 15.3473 78.7113 15.3161L78.8192 15.2068C81.1777 12.8181 85.0008 12.8181 87.3593 15.2068C89.7179 17.5956 89.7179 21.4676 87.3593 23.8563C86.2186 25.0117 84.7079 25.6518 83.0893 25.6518C81.5323 25.6518 80.0678 25.0585 78.9425 23.9812L75.9673 27.5878L76.4606 28.0093C78.3413 29.5238 80.6536 30.3513 83.0893 30.3513C85.9411 30.3513 88.608 29.2271 90.6274 27.1819C94.8358 22.9508 94.8358 16.0968 90.6891 11.8813Z" fill="white"/>
<path d="M99.3294 15.093V29.1864H97.6395V9.39279H99.3446V12.6135V12.8616L99.482 12.655C100.913 10.5046 103.611 8.88457 106.886 8.88457C108.548 8.88457 109.905 9.23659 110.957 9.93658C112.009 10.636 112.764 11.6873 113.216 13.0984L113.266 13.2536L113.351 13.1149C114.858 10.6727 117.723 8.88457 121.21 8.88457C123.421 8.88457 125.143 9.5909 126.314 10.9246C127.486 12.2599 128.114 14.2342 128.114 16.787V29.171H126.394V17.172C126.394 14.3621 125.602 12.4021 124.291 11.5953C123.002 10.7565 122.03 10.4902 120.738 10.4902C119.276 10.4902 117.893 10.9581 116.574 11.89L116.573 11.8905C115.288 12.8207 114.29 13.9541 113.661 15.2606L113.652 15.2777L113.653 15.2966C113.699 16.2985 113.729 17.0048 113.729 17.3876V29.1864H112.024V17.1412C112.024 14.9379 111.559 13.2772 110.619 12.1666C109.677 11.0535 108.269 10.5056 106.414 10.5056C105.03 10.5056 103.662 10.9266 102.328 11.8118L102.328 11.8118L102.327 11.8125C101.041 12.6961 100.044 13.7519 99.3384 15.0573L99.3294 15.074V15.093Z" fill="white" stroke="white" stroke-width="0.15"/>
<path d="M149.21 26.6525L149.21 26.6527C147.295 28.6843 144.837 29.6785 141.753 29.6785C138.669 29.6785 136.181 28.6841 134.25 26.6525C132.318 24.6189 131.382 22.1736 131.382 19.312C131.382 16.4503 132.318 14.005 134.25 11.9714C136.181 9.93918 138.67 8.89922 141.753 8.89922C144.836 8.89922 147.279 9.93894 149.21 11.9714C151.143 14.0056 152.124 16.4512 152.124 19.312C152.124 22.1727 151.143 24.6183 149.21 26.6525ZM135.587 13.0375L135.586 13.0382C133.96 14.7315 133.132 16.8295 133.132 19.312C133.132 21.7942 133.96 23.9078 135.586 25.586L135.588 25.5872C137.259 27.2338 139.301 28.0728 141.753 28.0728C144.205 28.0728 146.247 27.2339 147.874 25.5865C149.546 23.8929 150.374 21.7945 150.374 19.312C150.374 16.8298 149.546 14.716 147.874 13.0377C146.247 11.3438 144.205 10.5049 141.753 10.5049C139.301 10.5049 137.259 11.3441 135.587 13.0375Z" fill="white" stroke="white" stroke-width="0.15"/>
<path d="M172.362 12.9186L172.498 13.1078V12.8748V0.075H174.203V29.1705H172.498V25.7342V25.5034L172.362 25.6902C170.431 28.3492 167.778 29.6634 164.288 29.6634L164.287 29.6634C161.326 29.6787 158.914 28.6849 157.075 26.6541C155.233 24.6205 154.327 22.1747 154.327 19.3122C154.327 16.4498 155.233 14.004 157.075 11.9703C158.915 9.93887 161.327 8.89948 164.288 8.89948C167.732 8.89948 170.431 10.2289 172.362 12.9186ZM172.476 23.1004L172.483 23.0858V23.0699V15.5545V15.5381L172.476 15.5232C171.141 12.6171 167.982 10.5051 164.607 10.5051C162.155 10.5051 160.113 11.3442 158.486 13.0385C156.859 14.7325 156.078 16.8308 156.078 19.3122C156.078 21.7937 156.875 23.9074 158.486 25.586L158.487 25.5867C160.113 27.2341 162.155 28.0731 164.607 28.0731C168.072 28.0731 171.187 26.0081 172.476 23.1004Z" fill="white" stroke="white" stroke-width="0.15"/>
<path d="M186.427 10.4902C184.098 10.4902 181.902 11.1779 179.812 12.5507V10.8215C181.768 9.55099 184.099 8.88457 186.747 8.88457C189.291 8.88457 191.408 9.48665 192.888 10.6832C194.366 11.8779 195.217 13.6724 195.217 16.0786V24.9493C195.217 25.815 195.425 26.5445 195.808 27.0596C196.193 27.5769 196.751 27.8734 197.436 27.8734C197.854 27.8734 198.2 27.8102 198.517 27.6704V29.0485C198.168 29.2419 197.649 29.3558 196.98 29.3558C196.108 29.3558 195.321 29.069 194.732 28.5046C194.144 27.9403 193.747 27.0927 193.664 25.9603L193.651 25.7759L193.532 25.9175C191.403 28.4558 188.612 29.6946 185.135 29.6947C183.113 29.6793 181.365 29.0991 179.843 27.985C178.373 26.83 177.638 25.2664 177.638 23.2398C177.638 21.2918 178.417 19.7275 179.92 18.5713L179.92 18.5711C181.47 17.3667 183.399 16.785 185.728 16.785C188.482 16.785 191.068 17.4899 193.398 18.9451L193.512 19.0168V18.8815V16.248C193.512 14.305 192.867 12.8604 191.65 11.9039C190.435 10.9499 188.664 10.4902 186.427 10.4902ZM193.513 24.07L193.528 24.0501V24.0253V20.7296V20.689L193.494 20.6668C191.127 19.1203 188.726 18.3137 186.23 18.3137C184.136 18.3137 182.439 18.7973 181.263 19.6505C180.085 20.5053 179.434 21.7288 179.434 23.1936C179.434 24.8273 180.126 26.0511 181.259 26.8641C182.39 27.6749 183.954 28.0736 185.698 28.0736C189.025 28.0736 191.889 26.2575 193.513 24.07Z" fill="white" stroke="white" stroke-width="0.15"/>
</g>
<defs>
<clipPath id="clip0">
<rect width="200" height="40" fill="white"/>
</clipPath>
</defs>
</svg>
