<svg width="1401" height="304" viewBox="0 0 1401 304" fill="none" xmlns="http://www.w3.org/2000/svg">
<path d="M39.1745 71.1691L39.1744 71.1691L39.1726 71.1711C24.9945 86.4398 17.3595 104.982 17.3595 126.794C17.3595 148.607 24.9945 167.149 39.1726 182.418L39.1724 182.418L39.1765 182.422C54.4452 196.6 72.9874 204.235 94.7998 204.235C116.612 204.235 135.155 196.6 149.336 182.42C164.605 167.15 172.24 148.607 172.24 126.794C172.24 104.982 164.605 86.4392 149.336 71.17C135.156 55.8991 116.612 48.2644 94.7998 48.2644C72.9871 48.2644 54.4439 55.8997 39.1745 71.1691ZM94.7998 219.34C66.4857 219.34 43.6242 210.629 26.2063 192.122C8.78503 173.612 0.075 151.838 0.075 125.705C0.075 99.5721 8.78503 77.7974 26.2063 59.2874C43.6242 40.7809 66.4857 32.0696 94.7998 32.0696C123.111 32.0696 144.885 41.8686 162.305 59.289C179.724 76.7078 188.435 99.5707 188.435 125.705C188.435 151.838 179.725 173.612 162.304 192.122C144.885 210.629 123.113 219.34 94.7998 219.34Z" fill="#666666" stroke="#666666" stroke-width="0.15"/>
<path d="M237.466 183.456V290.167H221.271V36.4282H237.466V67.9532V68.1838L237.602 67.9973C255.021 44.0458 278.97 32.0696 311.637 32.0696C337.767 32.0696 359.541 41.8672 376.961 60.376C393.294 78.8869 402.004 100.662 402.004 125.705C402.004 151.838 393.293 173.613 376.96 192.124C360.632 210.629 338.861 219.34 311.637 219.34C280.061 219.34 256.11 207.364 237.6 183.411L237.466 183.237V183.456ZM237.473 91.8943L237.466 91.9092V91.9255V159.484V159.5L237.473 159.515C249.471 185.694 277.829 204.235 308.369 204.235C330.181 204.235 348.725 196.6 362.906 181.328C377.084 166.059 384.719 147.517 384.719 125.705C384.719 103.892 377.084 85.3502 362.906 70.0815C348.725 54.8098 330.181 47.1748 308.369 47.1747L308.366 47.1748C277.831 48.2654 249.472 65.7138 237.473 91.8943Z" fill="#666666" stroke="#666666" stroke-width="0.15"/>
<path d="M450.102 51.6163V51.5413H450.027H404.336V36.4362H450.027H450.102V36.3612V0.774219H466.296V37.4508V37.5258H466.371H532.765V52.631H466.371H466.296V52.706V163.851C466.296 178.022 468.749 188.123 474.214 194.681C479.682 201.243 488.153 204.243 500.151 204.243C511.016 204.243 520.803 202.078 530.586 195.59V210.667C522.977 216.09 512.105 219.348 495.792 219.348C480.554 219.348 469.135 214.451 461.525 205.617C453.913 196.782 450.102 183.998 450.102 168.209V51.6163Z" fill="#666666" stroke="#666666" stroke-width="0.15"/>
<path d="M1372.92 58.3825C1354.39 39.8247 1331.49 30 1305.33 30C1280.26 30 1256.27 39.8247 1238.83 57.2908C1236.65 59.4741 1227.93 67.1155 1215.93 81.3068V32.1833H1170.15V134.797C1170.15 134.797 1170.15 179.554 1126.54 179.554C1126.54 179.554 1085.11 180.645 1085.11 130.43V32.1833H1040.41V97.6813C1036.05 83.49 1028.42 69.2988 1016.43 58.3825C997.896 39.8247 975.002 30 948.837 30C923.763 30 899.779 39.8247 882.336 57.2908C880.155 60.5657 869.253 70.3904 853.991 88.9482C853.991 87.8566 852.901 86.7649 852.901 84.5817C840.908 52.9243 809.293 30 773.317 30C752.603 30 734.07 37.6414 718.807 49.6494C715.536 51.8327 713.356 54.0159 711.176 57.2908C708.995 55.1076 705.725 51.8327 703.544 49.6494C688.282 37.6414 669.748 30 649.035 30C602.157 30 564 68.2072 564 115.147V219.944H609.788V116.239C609.788 94.4064 627.231 76.9402 649.035 76.9402C670.839 76.9402 688.282 94.4064 688.282 116.239V219.944H693.733H727.529H732.98V116.239C732.98 94.4064 750.423 76.9402 772.226 76.9402C794.03 76.9402 811.473 94.4064 811.473 116.239V219.944H850.72H858.351V155.538C884.516 111.873 909.59 88.9482 910.681 88.9482L911.771 87.8566C932.484 67.1155 967.371 67.1155 988.084 87.8566C1008.8 108.598 1008.8 143.53 988.084 164.271C978.272 174.096 964.1 179.554 949.927 179.554C935.755 179.554 922.673 174.096 912.861 164.271L886.696 195.928L891.057 199.203C907.41 212.303 928.124 219.944 949.927 219.944C975.002 219.944 998.986 210.12 1017.52 191.562C1029.51 179.554 1037.14 166.454 1041.5 152.263C1041.5 163.179 1048.04 221.036 1126.54 219.944C1126.54 219.944 1154.88 221.036 1171.24 203.57V209.028C1171.24 223.219 1170.15 237.41 1159.24 248.327C1149.43 258.151 1135.26 263.61 1121.09 263.61C1106.91 263.61 1093.83 258.151 1084.02 248.327L1057.86 279.984L1062.22 283.259C1078.57 296.359 1099.28 304 1121.09 304C1146.16 304 1170.15 294.175 1188.68 275.618C1207.21 257.06 1215.93 233.044 1217.02 209.028V150.08C1242.1 107.506 1267.17 85.6733 1268.26 85.6733L1269.35 84.5817C1290.07 63.8406 1324.95 63.8406 1345.67 84.5817C1366.38 105.323 1366.38 140.255 1345.67 160.996C1335.85 170.821 1321.68 176.279 1307.51 176.279C1293.34 176.279 1280.26 170.821 1270.44 160.996L1244.28 192.653L1248.64 195.928C1264.99 209.028 1285.71 216.669 1307.51 216.669C1332.58 216.669 1356.57 206.845 1375.1 188.287C1409.99 156.629 1409.99 95.498 1372.92 58.3825Z" fill="#DB3573"/>
</svg>
