<svg width="117" height="27" viewBox="0 0 117 27" fill="none" xmlns="http://www.w3.org/2000/svg">
	<path d="M7.90913 20C5.54548 20 3.63638 19.2727 2.18183 17.7272C0.727276 16.1818 0 14.3636 0 12.1817C0 9.99991 0.727276 8.18172 2.18183 6.63626C3.63638 5.0908 5.54548 4.36353 7.90913 4.36353C10.2728 4.36353 12.091 5.18171 13.5455 6.63626C15.0001 8.09082 15.7273 9.99991 15.7273 12.1817C15.7273 14.3636 15.0001 16.1818 13.5455 17.7272C12.091 19.2727 10.2728 20 7.90913 20ZM7.90913 18.7272C9.72732 18.7272 11.2728 18.0909 12.4546 16.909C13.7273 15.6363 14.3637 14.0908 14.3637 12.2727C14.3637 10.4545 13.7273 8.909 12.4546 7.63627C11.2728 6.36353 9.72732 5.72717 7.90913 5.72717C6.09094 5.72717 4.54548 6.36353 3.27274 7.63627C2.09092 8.909 1.45455 10.4545 1.45455 12.2727C1.45455 14.0908 2.09092 15.6363 3.27274 16.909C4.54548 18.0909 6.09094 18.7272 7.90913 18.7272Z" fill="white" />
	<path d="M31.4542 6.72717C32.8178 8.27263 33.5451 10.0908 33.5451 12.1817C33.5451 14.3636 32.8178 16.1818 31.4542 17.7272C30.0905 19.2727 28.2723 20 25.9996 20C23.3632 20 21.3632 19 19.8177 16.9999V25.9091H18.4541V4.72716H19.8177V7.36354C21.2723 5.36353 23.2723 4.36353 25.9996 4.36353C28.1814 4.36353 29.9996 5.18171 31.4542 6.72717ZM19.8177 9.36355V14.9999C20.8177 17.1818 23.1814 18.7272 25.7269 18.7272C27.5451 18.7272 29.0905 18.0909 30.2723 16.8181C31.4542 15.5454 32.0905 13.9999 32.0905 12.1817C32.0905 10.3636 31.4542 8.81809 30.2723 7.54536C29.0905 6.27262 27.5451 5.63626 25.7269 5.63626C23.1814 5.72717 20.8177 7.18172 19.8177 9.36355Z" fill="white" />
	<path d="M37.5455 15.7273V6.00003H33.7273V4.72729H37.5455V0H38.9091V4.8182H44.4546V6.09094H38.9091V15.3637C38.9091 17.7274 39.7273 18.7274 41.7273 18.7274C42.6364 18.7274 43.4546 18.5455 44.2728 18.0001V19.2728C43.6364 19.7274 42.7273 20.0001 41.3637 20.0001C38.8182 20.0001 37.5455 18.3637 37.5455 15.7273Z" fill="white" />
	<path d="M114.546 6.54529C113 4.99983 111.091 4.18164 108.909 4.18164C106.818 4.18164 104.818 4.99983 103.364 6.45438C103.182 6.6362 102.455 7.27256 101.455 8.45439V4.36346H97.6365V12.909C97.6365 12.909 97.6365 16.6362 94.0001 16.6362C94.0001 16.6362 90.5456 16.7272 90.5456 12.5453V4.36346H86.8183V9.81803C86.4546 8.63621 85.8183 7.45438 84.8183 6.54529C83.2728 4.99983 81.3637 4.18164 79.1819 4.18164C77.091 4.18164 75.0909 4.99983 73.6364 6.45438C73.4546 6.72711 72.5455 7.54529 71.2727 9.09075C71.2727 8.99984 71.1818 8.90894 71.1818 8.72712C70.1818 6.09074 67.5455 4.18164 64.5454 4.18164C62.8182 4.18164 61.2727 4.81801 60 5.81801C59.7272 5.99983 59.5454 6.18165 59.3636 6.45438C59.1818 6.27256 58.9091 5.99983 58.7272 5.81801C57.4545 4.81801 55.909 4.18164 54.1818 4.18164C50.2727 4.18164 47.0908 7.36347 47.0908 11.2726V19.9999H50.909V11.3635C50.909 9.5453 52.3636 8.09075 54.1818 8.09075C55.9999 8.09075 57.4545 9.5453 57.4545 11.3635V19.9999H57.9091H60.7272H61.1818V11.3635C61.1818 9.5453 62.6363 8.09075 64.4545 8.09075C66.2727 8.09075 67.7273 9.5453 67.7273 11.3635V19.9999H71H71.6364V14.6362C73.8182 10.9999 75.9091 9.09075 76 9.09075L76.091 8.99984C77.8182 7.27256 80.7273 7.27256 82.4546 8.99984C84.1819 10.7271 84.1819 13.6362 82.4546 15.3635C81.6364 16.1817 80.4546 16.6362 79.2728 16.6362C78.091 16.6362 77 16.1817 76.1819 15.3635L74 17.9999L74.3637 18.2726C75.7273 19.3635 77.4546 19.9999 79.2728 19.9999C81.3637 19.9999 83.3637 19.1817 84.9092 17.6362C85.9092 16.6362 86.5455 15.5453 86.9092 14.3635C86.9092 15.2726 87.4546 20.0908 94.0001 19.9999C94.0001 19.9999 96.3638 20.0908 97.7274 18.6363V19.0908C97.7274 20.2726 97.6365 21.4544 96.7274 22.3635C95.9092 23.1817 94.7274 23.6363 93.5456 23.6363C92.3637 23.6363 91.2728 23.1817 90.4546 22.3635L88.2728 24.9999L88.6365 25.2726C90.0001 26.3636 91.7274 26.9999 93.5456 26.9999C95.6365 26.9999 97.6365 26.1817 99.182 24.6363C100.727 23.0908 101.455 21.0908 101.546 19.0908V14.1817C103.637 10.6362 105.727 8.81803 105.818 8.81803L105.909 8.72712C107.637 6.99984 110.546 6.99984 112.273 8.72712C114 10.4544 114 13.3635 112.273 15.0908C111.455 15.909 110.273 16.3635 109.091 16.3635C107.909 16.3635 106.818 15.909 106 15.0908L103.818 17.7272L104.182 17.9999C105.546 19.0908 107.273 19.7272 109.091 19.7272C111.182 19.7272 113.182 18.909 114.727 17.3635C117.637 14.7271 117.637 9.63621 114.546 6.54529Z" fill="white" />
</svg>
