<svg width="10" height="17" viewBox="0 0 10 17" fill="none" xmlns="http://www.w3.org/2000/svg">
<path d="M8.71672 9.59164C8.94214 9.59164 9.13626 9.43008 9.1613 9.21466L9.44308 6.95877C9.47439 6.70147 9.26775 6.48006 8.9985 6.48006H6.18071V4.59516C6.18071 3.73948 6.43118 3.15905 7.71484 3.15905H8.90457C9.15504 3.15905 9.35542 2.96757 9.35542 2.72822V0.825365C9.35542 0.586013 9.15504 0.394531 8.90457 0.394531H6.96969C4.60902 0.394531 2.99349 1.77081 2.99349 4.29597V6.47408H1.08366C0.833188 6.47408 0.632812 6.66556 0.632812 6.90491L0.639074 9.16081C0.639074 9.39418 0.83945 9.58566 1.08992 9.58566H2.99349L2.98096 16.5568H6.17445L6.18698 9.58566H8.71672V9.59164Z" fill="#8D8E8E"/>
</svg>
