<svg width="130" height="26" viewBox="0 0 130 26" fill="none" xmlns="http://www.w3.org/2000/svg">
<path d="M58.3607 7.6478C57.0611 6.31439 55.3449 5.58153 53.5097 5.58153C51.6943 5.58153 49.9781 6.30421 48.6885 7.60708C48.5198 7.75976 47.8849 8.37048 47.0318 9.4087V5.70367H43.768V13.2664C43.768 13.2664 43.7779 16.5338 40.6432 16.5847C40.6432 16.5847 37.6968 16.6661 37.6373 12.9712V5.70367H34.4033V10.5793C34.0859 9.51049 33.5204 8.5028 32.6971 7.65797C31.3975 6.32457 29.6813 5.59171 27.8461 5.59171C26.0307 5.59171 24.3145 6.31439 23.0248 7.61726C22.8264 7.80048 22.0229 8.56388 20.9713 9.90746C20.4357 8.24834 19.2552 6.89458 17.7274 6.17189C17.6282 6.13118 17.539 6.08028 17.4398 6.03957C17.4298 6.03957 17.4199 6.02939 17.4199 6.02939C17.3306 5.98868 17.2413 5.95814 17.1521 5.9276C17.1421 5.91742 17.1223 5.91742 17.1124 5.90725C17.0231 5.87671 16.9437 5.84617 16.8545 5.82582C16.8346 5.81564 16.8148 5.81564 16.7949 5.80546C16.7156 5.7851 16.6362 5.76474 16.5569 5.74439C16.5271 5.73421 16.5073 5.73421 16.4775 5.72403C16.3981 5.70367 16.3188 5.69349 16.2493 5.67314C16.2196 5.66296 16.1898 5.66296 16.16 5.65278C16.0807 5.6426 16.0112 5.63242 15.9319 5.62224C15.9021 5.62224 15.8624 5.61206 15.8327 5.61206C15.7533 5.60189 15.674 5.60189 15.5946 5.59171C15.5648 5.59171 15.5351 5.58153 15.5053 5.58153C15.3962 5.57135 15.2871 5.57135 15.1779 5.57135C15.0688 5.57135 14.9597 5.57135 14.8506 5.58153C14.8208 5.58153 14.7911 5.59171 14.7613 5.59171C14.6819 5.60189 14.6026 5.60189 14.5232 5.61206C14.4934 5.61206 14.4538 5.62224 14.424 5.62224C14.3446 5.63242 14.2752 5.6426 14.1958 5.65278C14.1661 5.66296 14.1363 5.66296 14.1066 5.67314C14.0272 5.68332 13.9478 5.70367 13.8784 5.72403C13.8486 5.73421 13.8288 5.73421 13.799 5.74439C13.7197 5.76474 13.6403 5.7851 13.5609 5.80546C13.5411 5.81564 13.5213 5.81564 13.5014 5.82582C13.4121 5.85635 13.3328 5.87671 13.2435 5.90725C13.2336 5.91742 13.2137 5.91742 13.2038 5.9276C13.1145 5.95814 13.0253 5.99885 12.936 6.02939C12.926 6.02939 12.9161 6.03957 12.9161 6.03957C12.8169 6.08028 12.7177 6.121 12.6284 6.17189C11.9043 6.51797 11.2495 7.00654 10.7138 7.60708C9.52341 6.36529 7.91634 5.59171 6.14062 5.59171C2.75782 5.59171 0 8.4112 0 11.8923V19.5466H3.27367V11.8923C3.27367 10.2739 4.5633 8.95066 6.14062 8.95066C7.71793 8.95066 9.00756 10.2739 9.00756 11.8923V19.5466H12.2812V11.8923C12.2812 10.5589 13.1542 9.42906 14.3446 9.07281C14.4736 9.03209 14.6026 9.00156 14.7315 8.9812H14.7415C14.801 8.97102 14.8506 8.97102 14.9101 8.96084C14.92 8.96084 14.9399 8.96084 14.9498 8.96084C15.0093 8.96084 15.0787 8.95066 15.1383 8.95066C15.1978 8.95066 15.2672 8.95066 15.3267 8.96084C15.3367 8.96084 15.3565 8.96084 15.3664 8.96084C15.4259 8.96084 15.4855 8.97102 15.5351 8.9812H15.545C15.674 9.00156 15.8128 9.03209 15.9319 9.07281C17.1223 9.42906 17.9953 10.5589 17.9953 11.8923V14.5489V16.0554V19.5466H21.269V14.8136C23.1439 11.5971 24.989 9.90746 25.0089 9.8871L25.0783 9.81585C26.5961 8.25852 29.0563 8.25852 30.5741 9.81585C32.0919 11.3732 32.0919 13.8975 30.5741 15.4548C29.84 16.208 28.8678 16.6254 27.8262 16.6254C26.8243 16.6254 25.8819 16.2386 25.1577 15.5363L23.2431 17.8774L23.5605 18.1522C24.7708 19.1395 26.2588 19.679 27.8262 19.679C29.6615 19.679 31.3777 18.9461 32.6772 17.6127C33.5006 16.7679 34.076 15.7602 34.3835 14.6813C34.4133 15.4854 34.82 19.7197 40.4944 19.679C40.4944 19.679 42.5578 19.7299 43.7482 18.4881V18.885C43.7482 19.9029 43.6589 20.992 42.895 21.7656C42.1609 22.5188 41.1888 22.9361 40.1471 22.9361C39.1452 22.9361 38.2028 22.5494 37.4786 21.847L35.564 24.1983L35.8814 24.4731C37.0917 25.4604 38.5797 25.9999 40.1471 25.9999C41.9824 25.9999 43.6986 25.2671 44.9981 23.9337C46.3076 22.5901 46.9822 20.819 47.002 19.0479V14.6711C48.8472 11.5564 50.6328 9.90746 50.6527 9.8871L50.7221 9.81585C52.2399 8.25852 54.7001 8.25852 56.2179 9.81585C57.7357 11.3732 57.7357 13.8975 56.2179 15.4548C55.4838 16.208 54.5116 16.6254 53.47 16.6254C52.4681 16.6254 51.5256 16.2386 50.8015 15.5363L48.8869 17.8875L49.2043 18.1624C50.4146 19.1497 51.9026 19.6892 53.47 19.6892C55.3052 19.6892 57.0214 18.9563 58.321 17.6229C61.0292 14.8645 61.0292 10.396 58.3607 7.6478Z" fill="#B11CAB"/>
<path d="M64.4972 9.81461V18.9531H63.4507V6.13412H64.5071V8.20225V8.4504L64.6445 8.24379C65.5699 6.85279 67.3163 5.80364 69.4371 5.80364C70.5145 5.80364 71.3912 6.03179 72.0703 6.48335C72.7485 6.93438 73.2362 7.61269 73.5285 8.52556L73.5782 8.68073L73.6638 8.54208C74.6391 6.96163 76.4938 5.80364 78.7516 5.80364C80.1836 5.80364 81.2957 6.26087 82.051 7.12133C82.8076 7.98327 83.2152 9.2601 83.2152 10.9162V18.943H82.149V11.1666C82.149 9.33684 81.6338 8.05012 80.7694 7.51797C79.9275 6.96999 79.2906 6.7953 78.4451 6.7953C77.4885 6.7953 76.5837 7.10161 75.7222 7.71037L75.7215 7.71086C74.8824 8.31789 74.2308 9.05816 73.8192 9.91224L73.8109 9.92929L73.8118 9.94821C73.8415 10.6 73.8612 11.0586 73.8612 11.3068V18.9531H72.8048V11.1466C72.8048 9.7107 72.5016 8.62356 71.8848 7.89467C71.2659 7.16338 70.3421 6.80532 69.1306 6.80532C68.2245 6.80532 67.3302 7.08088 66.4589 7.65906L66.4589 7.65905L66.4579 7.65974C65.6188 8.23639 64.9674 8.92592 64.5062 9.77893L64.4972 9.79563V9.81461Z" fill="#666666" stroke="#666666" stroke-width="0.15"/>
<path d="M96.9408 17.3136L96.9406 17.3138C95.7006 18.629 94.1095 19.2732 92.1105 19.2732C90.1113 19.2732 88.5003 18.6289 87.2505 17.3136C85.9987 15.9963 85.3924 14.4127 85.3924 12.5582C85.3924 10.7037 85.9987 9.12018 87.2505 7.80288C88.5009 6.487 90.1122 5.81328 92.1105 5.81328C94.1084 5.81328 95.6902 6.48676 96.9408 7.80288C98.1932 9.1208 98.8286 10.7046 98.8286 12.5582C98.8286 14.4119 98.1932 15.9957 96.9408 17.3136ZM88.0821 8.45964L88.0821 8.45963L88.0814 8.46039C87.0192 9.56664 86.4784 10.9375 86.4784 12.5582C86.4784 14.1788 87.019 15.5599 88.0816 16.6563L88.0828 16.6576C89.175 17.7333 90.5091 18.2815 92.1105 18.2815C93.7116 18.2815 95.0463 17.7334 96.1092 16.6568C97.2017 15.5504 97.7426 14.1791 97.7426 12.5582C97.7426 10.9379 97.202 9.55652 96.1094 8.4599C95.0464 7.35305 93.7115 6.80495 92.1105 6.80495C90.509 6.80495 89.1745 7.3533 88.0821 8.45964Z" fill="#666666" stroke="#666666" stroke-width="0.15"/>
<path d="M111.994 8.41597L112.129 8.60526V8.37223V0.075H113.186V18.9428H112.129V16.7344V16.5036L111.994 16.6904C110.743 18.4123 109.026 19.2632 106.764 19.2632L106.764 19.2632C104.845 19.2732 103.284 18.6295 102.093 17.315C100.9 15.9977 100.313 14.4136 100.313 12.5583C100.313 10.7031 100.9 9.11899 102.093 7.80167C103.285 6.48652 104.846 5.81338 106.764 5.81338C108.996 5.81338 110.743 6.67421 111.994 8.41597ZM112.113 15.0323L112.12 15.0178V15.0019V10.1148V10.0984L112.113 10.0835C111.24 8.18452 109.177 6.80505 106.972 6.80505C105.371 6.80505 104.036 7.35331 102.973 8.46049C101.91 9.56746 101.399 10.9387 101.399 12.5583C101.399 14.1781 101.92 15.5593 102.973 16.6562L102.973 16.6569C104.036 17.7335 105.371 18.2816 106.972 18.2816C109.236 18.2816 111.27 16.9329 112.113 15.0323Z" fill="#666666" stroke="#666666" stroke-width="0.15"/>
<path d="M121.161 6.7953C119.656 6.7953 118.236 7.23539 116.885 8.11296V7.05119C118.15 6.23309 119.657 5.80364 121.369 5.80364C123.019 5.80364 124.39 6.19432 125.346 6.96744C126.3 7.73864 126.851 8.89757 126.851 10.4555V16.224C126.851 16.7908 126.987 17.2712 127.24 17.6119C127.495 17.9548 127.866 18.1517 128.32 18.1517C128.578 18.1517 128.796 18.1148 128.996 18.0331V18.874C128.775 18.9924 128.447 19.0632 128.023 19.0632C127.462 19.0632 126.957 18.8787 126.58 18.517C126.202 18.1553 125.946 17.6106 125.893 16.8795L125.88 16.6951L125.761 16.8367C124.382 18.4809 122.574 19.2835 120.321 19.2835C119.012 19.2736 117.88 18.8981 116.895 18.1771C115.946 17.4314 115.471 16.4226 115.471 15.1123C115.471 13.8537 115.975 12.8441 116.945 12.0973L116.945 12.0971C117.948 11.3182 119.196 10.9411 120.706 10.9411C122.492 10.9411 124.169 11.3982 125.68 12.3418L125.794 12.4135V12.2782V10.5657C125.794 9.29591 125.372 8.34812 124.573 7.72016C123.777 7.09471 122.618 6.7953 121.161 6.7953ZM125.79 15.6678L125.804 15.6479V15.6231V13.48V13.4394L125.77 13.4172C124.228 12.4093 122.661 11.8827 121.032 11.8827C119.667 11.8827 118.558 12.198 117.787 12.757C117.015 13.3177 116.587 14.121 116.587 15.0823C116.587 16.1531 117.041 16.9569 117.785 17.4904C118.526 18.0219 119.549 18.2819 120.686 18.2819C122.859 18.2819 124.729 17.0959 125.79 15.6678Z" fill="#666666" stroke="#666666" stroke-width="0.15"/>
</svg>
