<svg width="30" height="30" viewBox="0 0 30 30" fill="none" xmlns="http://www.w3.org/2000/svg">
<path d="M16.4667 17.9331C16.4667 17.4665 16.4667 17.1998 16.4667 17.1998L16.6 11.9998C16.6 11.1331 16.3334 10.2665 15.8 9.53313C15.8667 9.53313 15.8667 9.46646 15.9334 9.46646C16.3334 9.06646 16.3334 8.46646 15.9334 8.06646C15.5334 7.66646 14.9334 7.66646 14.5334 8.06646C14.4667 8.13313 14.4667 8.13313 14.4 8.19979C12.6667 7.13313 10.3334 7.33313 8.86671 8.86646C7.33337 10.3998 7.13337 12.6665 8.20004 14.3998C8.13337 14.4665 8.06671 14.4665 8.06671 14.5331C7.66671 14.9331 7.66671 15.5331 8.06671 15.9331C8.46671 16.3331 9.06671 16.3331 9.46671 15.9331C9.53337 15.8665 9.53337 15.8665 9.53337 15.7998C11.2667 16.9998 13.6667 16.7998 15.2 15.2665" stroke="#979797" stroke-width="1.2" stroke-miterlimit="10" stroke-linecap="round" stroke-linejoin="round"/>
<path d="M16.4668 17.9331C16.4668 18.9998 16.8001 20.9998 18.4001 22.5331" stroke="#979797" stroke-width="1.2" stroke-miterlimit="10" stroke-linecap="round" stroke-linejoin="round"/>
<path d="M8.93359 8.86666C9.46693 8.46666 10.5336 8.39999 11.2669 9.26665C11.6669 9.73332 11.7336 10.4667 11.2669 10.9333C10.8003 11.4 10.0669 11.4 9.60026 10.9333" stroke="#979797" stroke-width="1.2" stroke-miterlimit="10" stroke-linecap="round" stroke-linejoin="round"/>
<path d="M12.7999 23.1999C15.6665 26.0666 20.3332 26.0666 23.1332 23.1999C25.9332 20.3332 25.9999 15.6666 23.1332 12.8666L17.1332 6.86655C14.2665 3.99989 9.59988 3.99989 6.79988 6.86655C3.99988 9.73322 3.93321 14.3999 6.79988 17.1999L12.7999 23.1999Z" stroke="#979797" stroke-width="1.2" stroke-miterlimit="10" stroke-linecap="round" stroke-linejoin="round"/>
<path d="M10.667 13.6665L11.2003 14.1332" stroke="#979797" stroke-width="1.2" stroke-miterlimit="10" stroke-linecap="round" stroke-linejoin="round"/>
<path d="M13.7334 10.5999L14.2001 11.1332" stroke="#979797" stroke-width="1.2" stroke-miterlimit="10" stroke-linecap="round" stroke-linejoin="round"/>
</svg>
