<svg width="30" height="30" viewBox="0 0 30 30" fill="none" xmlns="http://www.w3.org/2000/svg">
<path d="M10.8086 5H7.07617C5.37997 5 4 6.37997 4 8.07617V11.8086C4 13.5048 5.37997 14.8848 7.07617 14.8848H10.8086C12.5048 14.8848 13.8848 13.5048 13.8848 11.8086V8.07617C13.8848 6.37997 12.5048 5 10.8086 5ZM12.6543 11.8086C12.6543 12.8263 11.8263 13.6543 10.8086 13.6543H7.07617C6.05845 13.6543 5.23047 12.8263 5.23047 11.8086V8.07617C5.23047 7.05845 6.05845 6.23047 7.07617 6.23047H10.8086C11.8263 6.23047 12.6543 7.05845 12.6543 8.07617V11.8086Z" fill="#979797"/>
<path d="M21.9238 16.1152H18.1914C16.4952 16.1152 15.1152 17.4952 15.1152 19.1914V22.9238C15.1152 24.62 16.4952 26 18.1914 26H21.9238C23.62 26 25 24.62 25 22.9238V19.1914C25 17.4952 23.62 16.1152 21.9238 16.1152ZM23.7695 22.9238C23.7695 23.9415 22.9415 24.7695 21.9238 24.7695H18.1914C17.1737 24.7695 16.3457 23.9415 16.3457 22.9238V19.1914C16.3457 18.1737 17.1737 17.3457 18.1914 17.3457H21.9238C22.9415 17.3457 23.7695 18.1737 23.7695 19.1914V22.9238Z" fill="#979797"/>
<path d="M21.9238 5H18.1914C16.4952 5 15.1152 6.37997 15.1152 8.07617V11.8086C15.1152 14.1833 13.1833 16.1152 10.8086 16.1152H7.07617C5.37997 16.1152 4 17.4952 4 19.1914V22.9238C4 24.62 5.37997 26 7.07617 26H10.8086C12.5048 26 13.8848 24.62 13.8848 22.9238V19.1914C13.8848 16.8167 15.8167 14.8848 18.1914 14.8848H21.9238C23.62 14.8848 25 13.5048 25 11.8086V8.07617C25 6.37997 23.62 5 21.9238 5ZM12.6543 19.1914V22.9238C12.6543 23.9415 11.8263 24.7695 10.8086 24.7695H7.07617C6.05845 24.7695 5.23047 23.9415 5.23047 22.9238V19.1914C5.23047 18.1737 6.05845 17.3457 7.07617 17.3457H10.8086C11.6628 17.3457 12.4725 17.1512 13.1957 16.8043C12.8488 17.5275 12.6543 18.3372 12.6543 19.1914ZM23.7695 11.8086C23.7695 12.8263 22.9415 13.6543 21.9238 13.6543H18.1914C17.3372 13.6543 16.5275 13.8488 15.8043 14.1957C16.1512 13.4725 16.3457 12.6628 16.3457 11.8086V8.07617C16.3457 7.05845 17.1737 6.23047 18.1914 6.23047H21.9238C22.9415 6.23047 23.7695 7.05845 23.7695 8.07617V11.8086Z" fill="#979797"/>
</svg>
