<svg width="30" height="30" viewBox="0 0 30 30" fill="none" xmlns="http://www.w3.org/2000/svg">
<path d="M22.8529 11.7814C23.0517 12.322 22.8529 13.3048 22.6079 13.9678C22.1628 15.1721 21.6496 16.0318 20.9124 16.8426C18.3325 19.4963 15.7525 22.0763 13.0988 24.6563C11.9194 25.8357 9.85538 25.8357 8.67596 24.6563C7.2754 23.3294 5.87484 21.9289 4.47427 20.5283C3.81085 19.8649 3.22114 19.2752 3 18.3169C3 17.8746 3 17.506 3 17.0638C3.22114 16.0318 3.95828 15.2946 4.69542 14.5575C6.68569 12.5672 8.74967 10.6507 10.6662 8.58668C10.7399 8.51296 10.8137 8.43925 10.8874 8.36554C10.8874 8.36554 10.9611 8.36554 10.9611 8.29182L11.0348 8.21811C11.7719 7.48097 12.6565 6.89126 13.5411 6.44898C14.3519 6.08041 15.1628 5.71184 16.0473 5.4907C16.5633 5.34327 17.153 5.26956 17.669 5.12213C17.8165 5.12213 17.9639 5.04842 18.1113 5.04842H18.185C19.6593 4.90099 21.2073 5.04842 22.313 6.08041L22.3867 6.15413C23.2713 7.1124 23.7873 8.43925 23.4924 9.54496C23.4187 9.61867 23.4187 9.61867 23.4187 9.69238C22.9027 9.32381 22.4604 8.95525 21.9444 8.66039C21.4284 8.36554 20.8387 8.07068 20.3227 7.77583C19.6593 7.33354 18.9959 7.25983 18.2587 7.55469C17.2268 7.92325 16.7845 9.02896 17.0793 10.061C17.4479 11.0929 18.4799 11.6089 19.5856 11.4615C19.8067 11.4615 21.5752 10.6512 21.7226 10.7986" stroke="#979797" stroke-width="1.26316" stroke-miterlimit="10" stroke-linecap="round" stroke-linejoin="round"/>
<path d="M19.0688 9.42236C19.6094 9.56979 19.5342 9.54525 20.1239 9.76639C20.4188 9.91382 20.7873 10.0612 21.0822 10.2824C21.2296 10.3561 21.3771 10.4298 21.4508 10.5035C21.8193 10.7984 22.1879 11.0932 22.4828 11.3881C22.6318 11.5371 22.7039 11.6092 22.8513 11.7567C22.8915 11.7969 22.9988 11.9041 23.0725 11.9778C23.1462 12.0515 23.1462 12.0515 23.1462 12.0515C24.9153 14.1155 26.3159 16.4006 26.9056 19.128C26.9056 19.2017 27.053 20.2337 26.9793 20.9709V21.0446C26.537 23.1086 24.5467 23.3297 23.1462 22.4451C21.9668 21.708 21.2296 20.676 20.4925 19.5703" stroke="#979797" stroke-width="1.26316" stroke-miterlimit="10" stroke-linecap="round" stroke-linejoin="round"/>
<path d="M14.352 12.2725V14.9999L16.6372 16.5479L14.0572 17.4324L13.2463 20.0861L11.6246 17.8747L8.89722 17.9484L10.5189 15.737L9.56064 13.157L12.1406 13.9679L14.352 12.2725Z" stroke="#979797" stroke-width="1.05263" stroke-miterlimit="10" stroke-linecap="round" stroke-linejoin="round"/>
</svg>
