<svg width="55" height="55" viewBox="0 0 55 55" fill="none" xmlns="http://www.w3.org/2000/svg">
<path d="M39.2343 24.5665C38.1343 23.4665 37.0343 22.3665 35.8121 21.3887C35.5676 21.1443 34.9565 21.1443 34.5898 21.1443C32.7565 21.3887 31.0454 20.5332 30.4343 18.8221C29.9454 17.1109 30.6787 15.2776 32.3898 14.6665C33.6121 14.1776 34.7121 14.2998 35.8121 15.0332C36.6676 15.5221 37.6454 16.0109 38.501 16.4998C39.3565 16.9887 40.0898 17.5998 40.9454 18.2109C40.9454 18.0887 40.9454 18.0887 41.0676 17.9665C41.5565 16.1332 40.701 13.9332 39.2343 12.3443L39.1121 12.2221C37.2787 10.5109 34.7121 10.2665 32.2676 10.5109H32.1454C31.901 10.5109 31.6565 10.6332 31.4121 10.6332C30.5565 10.8776 29.5787 10.9998 28.7232 11.2443C27.2565 11.6109 25.9121 12.2221 24.5676 12.8332C23.101 13.5665 21.6343 14.5443 20.4121 15.7665L20.2898 15.8887C20.2898 16.0109 20.1676 16.0109 20.1676 16.0109C20.0454 16.1332 19.9232 16.2554 19.801 16.3776C16.6232 19.7998 13.201 22.9776 9.90096 26.2776C8.67873 27.4998 7.45651 28.7221 7.08984 30.4332C7.08984 31.1665 7.08984 31.7776 7.08984 32.5109C7.45651 34.0998 8.43429 35.0776 9.53429 36.1776C11.8565 38.4998 14.1787 40.8221 16.501 43.0221C18.4565 44.9776 21.8787 44.9776 23.8343 43.0221C28.2343 38.7443 32.5121 34.4665 36.7898 30.0665C38.0121 28.7221 38.7454 27.0109 39.601 25.2998C39.4787 25.2998 39.3565 24.8109 39.2343 24.5665Z" stroke="#979797" stroke-width="0.8" stroke-miterlimit="10" stroke-linecap="round" stroke-linejoin="round"/>
<path d="M47.9117 32.8776C46.9339 28.3554 44.6117 24.5665 41.6784 21.1443C41.6784 21.1443 41.6784 21.0221 41.5562 21.0221C41.4339 20.8999 41.3117 20.7777 41.1895 20.6554C40.9451 20.411 40.8228 20.1665 40.5784 20.0443C40.0895 19.5554 39.4784 19.0665 38.8673 18.5777C38.7451 18.4554 38.5006 18.3332 38.2562 18.211C37.7673 17.8443 37.1562 17.5999 36.6673 17.3554C35.6895 16.9888 34.7117 16.7443 33.7339 16.6221C33.0006 16.4999 32.5117 17.111 32.5117 17.8443C32.5117 18.5777 32.8784 19.1888 33.6117 19.1888C35.4451 19.311 36.9117 20.2888 38.1339 21.511C41.3117 24.4443 43.6339 27.9888 44.8562 32.1443C45.1006 33.1221 45.2228 34.0999 45.2228 35.0777C45.2228 36.5443 44.3673 37.0332 43.2673 36.1777C42.1673 35.4443 41.3117 34.4665 40.4562 33.4888C39.7228 32.6332 39.1117 31.5332 38.5006 30.4332C38.1339 30.9221 37.8895 31.411 37.4006 31.7777C36.6673 32.3888 36.7895 32.8777 37.2784 33.611C38.5006 35.4443 39.7228 37.1554 41.6784 38.3776C44.0006 39.8443 47.3006 39.4776 48.0339 36.0554V35.9332C48.1562 34.711 47.9117 32.9999 47.9117 32.8776Z" stroke="#979797" stroke-width="0.8" stroke-miterlimit="10" stroke-linecap="round" stroke-linejoin="round"/>
<path d="M25.9116 22.4893V27.0115L29.7005 29.5781L25.4227 31.0448L24.0783 35.4448L21.3894 31.7781L16.8672 31.9004L19.5561 28.2337L17.9672 23.9559L22.245 25.3004L25.9116 22.4893Z" stroke="#979797" stroke-miterlimit="10" stroke-linecap="round" stroke-linejoin="round"/>
</svg>
