<?xml version="1.0" encoding="utf-8"?>
<!-- Generator: Adobe Illustrator 25.3.1, SVG Export Plug-In . SVG Version: 6.00 Build 0)  -->
<svg version="1.1" id="Слой_1" xmlns="http://www.w3.org/2000/svg" xmlns:xlink="http://www.w3.org/1999/xlink" x="0px" y="0px"
	 viewBox="0 0 28 28" style="enable-background:new 0 0 28 28;" xml:space="preserve">
<style type="text/css">
	.st0{fill:none;stroke:#979797;stroke-width:1.2;stroke-linecap:round;stroke-linejoin:round;stroke-miterlimit:10;}
</style>
<image style="display:none;overflow:visible;opacity:0.42;" width="920" height="512" xlink:href="png-transparent-computer-icons-school-bag-backpack-school-bag-hd-icon-miscellaneous-rectangle-orange.png"  transform="matrix(5.224148e-02 0 0 5.224148e-02 -10.0311 1.2524)">
</image>
<path class="st0" d="M12,15.1c-3.2-0.8-5-3.3-5-3.3v-4c0-0.4,0.3-0.6,0.6-0.6h12.8c0.4,0,0.6,0.3,0.6,0.6v4c0,0-1.9,2.5-5,3.3"/>
<polyline class="st0" points="7.3,12.2 7.3,22.2 20.6,22.2 20.6,12.3 "/>
<path class="st0" d="M20.6,21.6h2.9V14c0,0-0.4-1.8-2.4-2.6"/>
<path class="st0" d="M7.3,21.6H4.6V14c0,0,0.4-1.8,2.4-2.6"/>
<rect x="12" y="13.3" class="st0" width="4" height="4.7"/>
<path class="st0" d="M9.1,6.3h1.7c0,0,2-1.5,3.3-1.5s3.1,1.5,3.1,1.5h1.4"/>
</svg>
