<svg width="16" height="15" viewBox="0 0 16 15" fill="none" xmlns="http://www.w3.org/2000/svg">
<path d="M7.49851 1.35146C9.50189 1.35146 9.73705 1.36039 10.5289 1.39611C11.2612 1.42885 11.6571 1.5509 11.922 1.65509C12.2733 1.79202 12.5233 1.95277 12.7853 2.21473C13.0472 2.47668 13.211 2.72673 13.3449 3.07799C13.4461 3.34293 13.5711 3.73884 13.6039 4.47113C13.6396 5.26295 13.6485 5.49811 13.6485 7.50149C13.6485 9.50486 13.6396 9.74003 13.6039 10.5319C13.5711 11.2641 13.4491 11.6601 13.3449 11.925C13.208 12.2762 13.0472 12.5263 12.7853 12.7883C12.5233 13.0502 12.2733 13.2139 11.922 13.3479C11.6571 13.4491 11.2612 13.5741 10.5289 13.6069C9.73705 13.6426 9.50189 13.6515 7.49851 13.6515C5.49514 13.6515 5.25997 13.6426 4.46815 13.6069C3.73586 13.5741 3.33995 13.4521 3.07502 13.3479C2.72375 13.211 2.47371 13.0502 2.21175 12.7883C1.94979 12.5263 1.78607 12.2762 1.65211 11.925C1.5509 11.6601 1.42588 11.2641 1.39313 10.5319C1.35741 9.74003 1.34848 9.50486 1.34848 7.50149C1.34848 5.49811 1.35741 5.26295 1.39313 4.47113C1.42588 3.73884 1.54793 3.34293 1.65211 3.07799C1.78905 2.72673 1.94979 2.47668 2.21175 2.21473C2.47371 1.95277 2.72375 1.78905 3.07502 1.65509C3.33995 1.55388 3.73586 1.42885 4.46815 1.39611C5.25997 1.35741 5.49514 1.35146 7.49851 1.35146ZM7.49851 0C5.46239 0 5.20639 0.00893034 4.40564 0.0446517C3.60786 0.0803731 3.06311 0.208375 2.58682 0.392935C2.09268 0.583449 1.67593 0.842429 1.25918 1.25918C0.842429 1.67593 0.586426 2.09565 0.392935 2.58682C0.208375 3.06311 0.0803731 3.60786 0.0446517 4.40861C0.00893034 5.20639 0 5.46239 0 7.49851C0 9.53463 0.00893034 9.79063 0.0446517 10.5914C0.0803731 11.3892 0.208375 11.9339 0.392935 12.4132C0.583449 12.9073 0.842429 13.3241 1.25918 13.7408C1.67593 14.1576 2.09565 14.4136 2.58682 14.6071C3.06311 14.7916 3.60786 14.9196 4.40861 14.9553C5.20937 14.9911 5.46239 15 7.50149 15C9.54058 15 9.79361 14.9911 10.5944 14.9553C11.3921 14.9196 11.9369 14.7916 12.4162 14.6071C12.9103 14.4166 13.327 14.1576 13.7438 13.7408C14.1605 13.3241 14.4166 12.9043 14.61 12.4132C14.7946 11.9369 14.9226 11.3921 14.9583 10.5914C14.994 9.79063 15.003 9.53761 15.003 7.49851C15.003 5.45942 14.994 5.20639 14.9583 4.40564C14.9226 3.60786 14.7946 3.06311 14.61 2.58385C14.4195 2.0897 14.1605 1.67295 13.7438 1.2562C13.327 0.839452 12.9073 0.583449 12.4162 0.389958C11.9399 0.205398 11.3951 0.0773963 10.5944 0.0416749C9.79063 0.00893035 9.53463 0 7.49851 0Z" fill="#8D8E8E"/>
<path d="M7.49844 3.64648C5.37302 3.64648 3.64648 5.37004 3.64648 7.49844C3.64648 9.62684 5.37302 11.3504 7.49844 11.3504C9.62386 11.3504 11.3504 9.62386 11.3504 7.49844C11.3504 5.37302 9.62386 3.64648 7.49844 3.64648ZM7.49844 9.99894C6.11721 9.99894 4.99794 8.87967 4.99794 7.49844C4.99794 6.11721 6.11721 4.99794 7.49844 4.99794C8.87967 4.99794 9.99894 6.11721 9.99894 7.49844C9.99894 8.87967 8.87967 9.99894 7.49844 9.99894Z" fill="#8D8E8E"/>
<path d="M11.5025 4.39368C11.999 4.39368 12.4015 3.99119 12.4015 3.49469C12.4015 2.99819 11.999 2.5957 11.5025 2.5957C11.006 2.5957 10.6035 2.99819 10.6035 3.49469C10.6035 3.99119 11.006 4.39368 11.5025 4.39368Z" fill="#8D8E8E"/>
</svg>
