<svg width="17" height="17" viewBox="0 0 17 17" fill="none" xmlns="http://www.w3.org/2000/svg">
<path d="M12.5793 9.76778C12.5461 9.75189 11.3068 9.1416 11.0866 9.06234C10.9967 9.03005 10.9003 8.99853 10.7979 8.99853C10.6305 8.99853 10.49 9.08193 10.3805 9.24575C10.2567 9.42977 9.88188 9.86785 9.76608 9.99872C9.75096 10.016 9.73032 10.0366 9.71795 10.0366C9.70686 10.0366 9.51506 9.95765 9.45699 9.93243C8.12752 9.35493 7.11839 7.96617 6.98002 7.73198C6.96026 7.69831 6.95943 7.68302 6.95926 7.68302C6.96412 7.66519 7.00883 7.62037 7.0319 7.59725C7.0994 7.53046 7.17254 7.44243 7.2433 7.35726C7.2768 7.31691 7.31036 7.27651 7.34331 7.23843C7.44597 7.11898 7.49167 7.02626 7.54466 6.91885L7.57242 6.86305C7.7018 6.606 7.5913 6.38909 7.55559 6.31905C7.52628 6.26043 7.00298 4.99746 6.94734 4.86477C6.81355 4.54459 6.63676 4.39551 6.39109 4.39551C6.36829 4.39551 6.39109 4.39551 6.29549 4.39954C6.17908 4.40445 5.54517 4.4879 5.26489 4.66458C4.96767 4.85197 4.46484 5.44929 4.46484 6.49975C4.46484 7.44519 5.06481 8.33785 5.32241 8.67736C5.32881 8.68591 5.34056 8.7033 5.35762 8.72824C6.34412 10.1689 7.57391 11.2366 8.8206 11.7347C10.0208 12.2141 10.5891 12.2695 10.9123 12.2695C10.9123 12.2695 10.9123 12.2695 10.9123 12.2695C11.0481 12.2695 11.1568 12.2588 11.2526 12.2494L11.3135 12.2436C11.7281 12.2068 12.6392 11.7347 12.8465 11.1587C13.0098 10.7051 13.0528 10.2095 12.9442 10.0296C12.8698 9.90726 12.7416 9.84572 12.5793 9.76778Z" fill="#8E8F8F"/>
<path d="M8.65089 0C4.04676 0 0.30102 3.71759 0.30102 8.28711C0.30102 9.76507 0.696546 11.2118 1.44582 12.4779L0.0116885 16.7084C-0.0150258 16.7872 0.00484432 16.8744 0.0631852 16.9338C0.105299 16.9768 0.162425 17 0.220766 17C0.24312 17 0.26564 16.9966 0.287607 16.9896L4.69878 15.5879C5.90589 16.2328 7.27019 16.5733 8.65095 16.5733C13.2546 16.5733 17 12.8561 17 8.28711C17 3.71759 13.2546 0 8.65089 0ZM8.65089 14.8471C7.35166 14.8471 6.09327 14.4719 5.01157 13.7621C4.97519 13.7382 4.93297 13.726 4.89047 13.726C4.868 13.726 4.84548 13.7294 4.82357 13.7363L2.61385 14.4387L3.32719 12.3342C3.35026 12.2661 3.33872 12.191 3.29622 12.1329C2.47249 11.0074 2.03706 9.67758 2.03706 8.28711C2.03706 4.66948 5.004 1.72627 8.65084 1.72627C12.2972 1.72627 15.2638 4.66948 15.2638 8.28711C15.2639 11.9043 12.2973 14.8471 8.65089 14.8471Z" fill="#8E8F8F"/>
</svg>
