<?xml version="1.0" encoding="utf-8"?>
<svg version="1.1" id="Layer_1" xmlns="http://www.w3.org/2000/svg" xmlns:xlink="http://www.w3.org/1999/xlink" x="0px" y="0px" width="24" height="24" viewBox="0 0 24 24" style="enable-background:new 0 0 24 24;" xml:space="preserve">
	<style type="text/css">
		.st0{fill:#B2B2B2;}
	</style>
	<path class="st0" d="M19.2,2.4c-0.4,0-3.7,0-4.2,0C14.7,1,13.5,0,12,0S9.3,1,9,2.4c-0.5,0-3.7,0-4.2,0c-0.6,0-1.2,0.5-1.2,1.2v19.3
	c0,0.6,0.5,1.2,1.2,1.2h14.3c0.6,0,1.2-0.5,1.2-1.2V3.6C20.3,2.9,19.8,2.4,19.2,2.4z M12,1.4c0.7,0,1.3,0.4,1.5,1h-3.1
	C10.7,1.8,11.3,1.4,12,1.4z M7.9,4h8.3v2H7.9V4z M18.8,22.6H5.2V4H7v1.7c0,0.6,0.5,1.2,1.2,1.2h7.6c0.6,0,1.2-0.5,1.2-1.2V4h1.9
	L18.8,22.6L18.8,22.6z" />
	<path class="st0" d="M10.4,13.8c0.2,0.3,0.6,0.3,0.9,0.1L15,11c0.3-0.3,0.4-0.7,0.1-1.1c-0.2-0.3-0.7-0.4-1-0.2L11,12.3L10,11
	c-0.3-0.3-0.7-0.3-1,0c-0.3,0.3-0.3,0.8,0,1.1L10.4,13.8z" />
	<rect x="7" y="16.3" class="st0" width="10" height="0.8" />
	<rect x="7" y="18" class="st0" width="7.8" height="0.8" />
</svg>
