<?xml version="1.0" encoding="utf-8"?>
<!-- Generator: Adobe Illustrator 25.3.1, SVG Export Plug-In . SVG Version: 6.00 Build 0)  -->
<svg version="1.1" id="Слой_1" xmlns="http://www.w3.org/2000/svg" xmlns:xlink="http://www.w3.org/1999/xlink" x="0px" y="0px"
	 viewBox="0 0 30 23" style="enable-background:new 0 0 30 23;" xml:space="preserve">
<style type="text/css">
	.st0{fill:#FFFFFF;stroke:#009295;stroke-width:1.6;}
	.st1{fill:#FFFFFF;stroke:#009295;}
	.st2{fill:#FFFFFF;stroke:#009295;stroke-width:1.8252;stroke-miterlimit:10;}
	.st3{fill:#009295;}
</style>
<path class="st0" d="M21.4,8.3V4.6L11.2,1.1L0.9,4.6v11.9L11.2,20l5.1-1.7"/>
<path class="st1" d="M21.4,4.7L11.2,8.2L0.9,4.7"/>
<path class="st1" d="M11.2,19.7V8.2"/>
<path class="st1" d="M6.2,2.7l10,3.6"/>
<path class="st0" d="M27.7,14.7c0,3.5-2.8,6.3-6.3,6.3s-6.3-2.8-6.3-6.3s2.8-6.3,6.3-6.3S27.7,11.2,27.7,14.7z"/>
<path class="st2" d="M24.2,17.1c-0.7,0.8-1.7,1.3-2.8,1.3c-2,0-3.7-1.6-3.7-3.7c0-0.2,0-0.4,0.1-0.7"/>
<path class="st2" d="M18.5,12.4c0.7-0.8,1.7-1.3,2.8-1.3c2,0,3.7,1.6,3.7,3.7c0,0.2,0,0.4-0.1,0.7"/>
<path class="st3" d="M16.2,14.4l1.5-1.5l1.5,1.5H16.2z"/>
<path class="st3" d="M26.6,15.1L25,16.6l-1.5-1.5C23.5,15.1,26.6,15.1,26.6,15.1z"/>
</svg>
