<svg width="30" height="23" viewBox="0 0 30 23" fill="none" xmlns="http://www.w3.org/2000/svg">
<path d="M21.4414 8.26318V4.64927L11.1725 1.06836L0.914551 4.64927V16.5379L11.1725 20.0196L16.307 18.2788" stroke="#B2B2B2" stroke-width="1.6"/>
<path d="M21.4414 4.65039L11.1835 8.16519L0.914551 4.65039" stroke="#B2B2B2"/>
<path d="M11.1721 19.6781V8.16406" stroke="#B2B2B2"/>
<path d="M6.19214 2.66602L16.1746 6.31303" stroke="#B2B2B2"/>
<path d="M27.704 14.6545C27.704 18.1132 24.9001 20.9171 21.4413 20.9171C17.9825 20.9171 15.1787 18.1132 15.1787 14.6545C15.1787 11.1957 17.9825 8.3918 21.4413 8.3918C24.9001 8.3918 27.704 11.1957 27.704 14.6545Z" stroke="#B2B2B2" stroke-width="1.6"/>
<path d="M16.1599 14.6798L17.7084 13.1816L19.2267 14.6798H16.1599Z" fill="#B2B2B2"/>
<path d="M26.5865 14.7695L25.0381 16.2677L23.5198 14.7695H26.5865Z" fill="#B2B2B2"/>
<path d="M24.1933 17.0614C23.5196 17.8658 22.504 18.3786 21.3779 18.3786C19.3468 18.3786 17.6978 16.7296 17.6978 14.6985C17.6978 14.4773 17.7179 14.2561 17.7581 14.0449" stroke="#B2B2B2" stroke-width="1.82516" stroke-miterlimit="10"/>
<path d="M18.5332 12.3549C19.2069 11.5404 20.2325 11.0176 21.3687 11.0176C23.3998 11.0176 25.0488 12.6666 25.0488 14.6977C25.0488 14.9189 25.0287 15.1401 24.9885 15.3513" stroke="#B2B2B2" stroke-width="1.82516" stroke-miterlimit="10"/>
</svg>
