<svg width="28" height="29" viewBox="0 0 28 29" fill="none" xmlns="http://www.w3.org/2000/svg">
<path d="M13.8391 28.3755C21.4504 28.3755 27.6206 22.2053 27.6206 14.594C27.6206 6.98269 21.4504 0.8125 13.8391 0.8125C6.2278 0.8125 0.0576172 6.98269 0.0576172 14.594C0.0576172 22.2053 6.2278 28.3755 13.8391 28.3755Z" fill="#013C64"/>
<path d="M2.68066 14.5512L5.99167 11.3477L9.23816 14.5512H2.68066Z" fill="white"/>
<path d="M24.9764 14.7441L21.6654 17.9476L18.4189 14.7441H24.9764Z" fill="white"/>
<path d="M19.8587 19.6453C18.4182 21.3653 16.2467 22.4618 13.8387 22.4618C9.49572 22.4618 5.96973 18.9358 5.96973 14.5928C5.96973 14.1198 6.01273 13.6468 6.09873 13.1953" stroke="white" stroke-width="2" stroke-miterlimit="10"/>
<path d="M7.75488 9.58411C9.19538 7.84261 11.3884 6.72461 13.8179 6.72461C18.1609 6.72461 21.6869 10.2506 21.6869 14.5936C21.6869 15.0666 21.6439 15.5396 21.5579 15.9911" stroke="white" stroke-width="2" stroke-miterlimit="10"/>
</svg>
