<svg width="55" height="55" viewBox="0 0 55 55" fill="none" xmlns="http://www.w3.org/2000/svg">
<g clip-path="url(#clip0)">
<path d="M25.3616 10.4012C23.3939 10.1812 23.0394 12.0512 23.9316 13.6523C25.5694 16.61 21.9272 17.38 21.8416 17.3923C20.6683 17.6734 19.5194 18.0156 18.3705 18.3945C17.5883 18.6512 17.1239 19.1278 16.8916 19.8612C16.4638 21.1567 16.2072 22.4767 15.9994 23.8089C15.8405 24.7867 15.7183 25.7645 15.5961 26.7423C15.4861 27.6345 15.3883 28.5267 15.3027 29.4189C15.205 30.4334 15.1194 31.4478 15.0583 32.4623C14.985 33.6356 14.9116 34.8089 14.8872 35.9823C14.8139 38.4878 14.7527 40.9934 14.8261 43.4989C14.8383 43.8534 14.9116 43.9756 15.2783 44.0856C16.0361 44.3178 16.7816 44.33 17.5272 44C17.6372 43.9512 17.6861 43.9023 17.6861 43.7923C17.7105 43.12 17.7472 42.46 17.7839 41.7878C17.845 40.7734 17.9061 39.7711 17.9794 38.7567C18.0283 37.9989 18.0894 37.2534 18.175 36.4956C18.2605 35.64 18.3583 34.7845 18.4683 33.9289C18.5783 33 18.7127 32.0712 18.835 31.1423C18.9694 30.1889 19.1283 29.2356 19.275 28.27C19.4339 27.2678 19.605 26.2656 19.7639 25.2756C19.7883 25.1412 19.825 25.0067 19.8494 24.8723C19.8616 24.8723 19.8739 24.8723 19.8861 24.8723C19.9105 24.9456 19.9472 25.0312 19.9594 25.1045C20.1061 25.8867 20.2894 26.6689 20.3994 27.4512C20.5583 28.6245 20.6927 29.81 20.8027 30.9956C20.925 32.2178 20.9005 33.4523 20.8272 34.6745C20.7416 35.9823 20.5583 37.2778 20.3505 38.5612C20.1305 39.9056 19.8983 41.2378 19.6905 42.5823C19.6416 42.8634 19.6416 43.1445 19.6172 43.4256C19.6416 43.4378 19.6539 43.45 19.6661 43.45C21.0472 44.8923 32.2672 45.0511 35.3472 43.45C35.3594 43.45 35.3716 43.4378 35.3961 43.4256C35.3716 43.1445 35.3594 42.8634 35.3227 42.5823C35.1027 41.2378 34.8827 39.9056 34.6627 38.5612C34.455 37.2656 34.2716 35.97 34.1861 34.6745C34.1005 33.4523 34.0883 32.2178 34.2105 30.9956C34.3205 29.81 34.455 28.6367 34.6139 27.4512C34.7239 26.6689 34.9072 25.8867 35.0539 25.1045C35.0661 25.0312 35.1027 24.9456 35.1272 24.8723C35.1394 24.8723 35.1516 24.8723 35.1639 24.8723C35.1883 25.0067 35.225 25.1412 35.2494 25.2756C35.4205 26.2778 35.5794 27.28 35.7383 28.27C35.885 29.2234 36.0439 30.1767 36.1783 31.1423C36.3127 32.0712 36.435 33 36.545 33.9289C36.655 34.7845 36.7527 35.64 36.8383 36.4956C36.9116 37.2412 36.9727 37.9989 37.0339 38.7567C37.1072 39.7711 37.1683 40.7734 37.2294 41.7878C37.2661 42.46 37.3027 43.12 37.3272 43.7923C37.3272 43.9023 37.3761 43.9512 37.4861 44C38.2194 44.33 38.9772 44.3178 39.735 44.0856C40.1139 43.9634 40.175 43.8534 40.1872 43.4989C40.2483 40.9934 40.1872 38.4878 40.1261 35.9823C40.0894 34.8089 40.0283 33.6356 39.955 32.4623C39.8939 31.4478 39.7961 30.4334 39.7105 29.4189C39.625 28.5267 39.5272 27.6345 39.4172 26.7423C39.295 25.7645 39.1727 24.7867 39.0139 23.8089C38.8061 22.4767 38.5494 21.1567 38.1216 19.8612C37.8772 19.14 37.425 18.6634 36.6427 18.3945C35.5061 18.0156 34.345 17.6734 33.1716 17.3923C33.0739 17.3678 29.4316 16.61 31.0816 13.6523C31.9739 12.0512 31.6194 10.1812 29.6516 10.4012H25.3616Z" stroke="#979797" stroke-miterlimit="10"/>
</g>
<defs>
<clipPath id="clip0">
<rect width="55" height="55" fill="white"/>
</clipPath>
</defs>
</svg>
