<svg width="55" height="55" viewBox="0 0 55 55" fill="none" xmlns="http://www.w3.org/2000/svg">
<g clip-path="url(#clip0)">
<path d="M28.8069 7.5534C30.5547 7.52896 32.5347 7.32118 34.1358 7.12562C33.9769 6.11118 33.8058 5.42674 33.6347 5.54896C33.6347 5.54896 31.0803 6.49007 27.4625 6.25785C23.8447 6.02562 20.9358 5.54896 20.9358 5.54896C20.9358 5.54896 20.6669 5.36562 20.4592 6.30674C20.4225 6.4534 20.3736 6.6734 20.3125 6.93007C22.5981 7.19896 26.3381 7.59007 28.8069 7.5534Z" stroke="#979797" stroke-miterlimit="10"/>
<path d="M34.3195 8.40903C32.5228 8.60458 30.335 8.82458 28.8439 8.88569C26.1795 9.0568 22.2561 8.62903 20.0317 8.33569C19.775 9.80236 19.5795 11.8312 19.8972 13.9824C20.4106 17.5024 21.6083 23.1124 21.865 25.6424C22.1217 28.1724 22.2683 29.5779 22.2928 30.4824C22.3295 31.3868 22.5861 35.6279 22.5861 35.6279C22.5861 35.6279 22.9772 45.6868 23.0017 46.6279C23.0383 47.569 22.8917 48.779 23.1972 49.1212C23.4906 49.4635 23.845 49.4635 25.2628 49.4635C26.6806 49.4635 27.3406 49.3168 27.4628 48.2413C27.585 47.1657 27.1817 38.4635 27.1083 37.3512C27.035 36.239 26.8395 30.299 26.9128 28.8324C26.9739 27.6957 26.9739 26.559 26.9983 25.4224C27.035 23.6868 27.0595 21.9513 27.0961 20.2157C27.1083 19.0668 27.1695 17.9301 27.145 16.7812C27.1328 16.3046 27.0717 15.8157 27.1206 15.339C27.145 15.0824 27.1817 14.8257 27.2795 14.5935C27.3772 14.349 27.7072 13.9824 27.7806 14.4468C27.915 15.1679 28.355 18.1624 28.355 18.1624C28.355 18.1624 29.455 24.139 29.5161 24.7012C29.5772 25.2635 29.7606 29.3457 29.7606 30.8612C29.7606 32.3768 29.8583 44.7701 29.8583 44.7701L29.8339 48.3024C29.8339 48.3024 29.7117 49.4512 31.2517 49.4024C32.7795 49.3535 33.305 49.3046 33.305 49.3046C33.305 49.3046 34.1483 49.0235 34.2461 48.229C34.3439 47.4224 34.4661 37.9012 34.4661 37.9012C34.4661 37.9012 34.8572 27.1701 35.0406 24.5668C35.4683 21.0224 35.2606 15.3268 34.8083 12.9068C34.7106 12.0757 34.5395 10.1079 34.3195 8.40903Z" stroke="#979797" stroke-miterlimit="10"/>
</g>
<defs>
<clipPath id="clip0">
<rect width="55" height="55" fill="white"/>
</clipPath>
</defs>
</svg>
