<svg width="55" height="55" viewBox="0 0 55 55" fill="none" xmlns="http://www.w3.org/2000/svg">
<g clip-path="url(#clip0)">
<path d="M21.8528 45.7599C21.6328 47.0921 21.4617 48.4244 21.6206 49.7566C21.755 50.8933 21.9383 52.0299 22.1094 53.1666H24.0406C24.1139 52.5066 24.2483 51.8588 24.3583 51.1988C24.5783 49.8299 24.8228 48.4488 24.835 47.0677C24.835 46.3832 24.7617 45.6499 24.9083 44.9777C25.1405 43.9266 25.1161 42.9244 25.2383 41.8732C25.5561 39.0621 26.7294 36.0433 27.0717 32.6944C27.1206 32.1688 27.2306 31.1666 27.9394 31.0444C28.6239 31.1666 28.5017 31.961 28.6239 32.4621C28.905 34.2588 29.235 35.2488 29.565 36.5077C30.1028 38.5121 30.6772 40.5044 31.2883 42.4844C31.4961 43.1444 31.7039 43.8044 31.9239 44.4644C32.1439 45.1366 32.1194 45.7355 32.1439 46.4444C32.1683 47.2144 32.2783 47.9966 32.4617 48.7299C32.7183 49.7077 33.0483 50.6733 33.3294 51.6388C33.4517 52.091 33.5617 52.5433 33.6717 52.9955L35.7128 53.1666C35.8105 51.7855 35.7861 50.4166 35.7005 49.0355C35.6394 48.0944 35.6394 47.1655 35.3583 46.2366C35.1628 45.5766 34.9183 44.9166 34.7717 44.2444C34.4661 42.7777 34.4172 41.2988 34.405 39.8199C34.3928 38.5244 34.405 37.2166 34.3683 35.921C34.3317 34.4666 34.2217 32.9999 33.9528 31.5699C33.6961 30.1888 33.1583 28.8933 32.8772 27.5244C32.8528 27.3777 32.7428 27.2921 32.5717 27.2921C32.2906 27.2799 30.1883 26.8399 28.0494 26.8277C25.8739 26.8033 23.6617 27.2188 23.1361 27.231C22.855 27.2433 22.6839 27.3166 22.5861 27.561C22.0972 28.7221 22.305 30.3355 21.9994 31.5944C21.315 34.5155 21.425 37.4366 21.9383 40.3699C22.2439 42.1666 22.1461 43.9755 21.8528 45.7599Z" stroke="#979797" stroke-miterlimit="10" stroke-linecap="round" stroke-linejoin="round"/>
<path d="M17.88 29.0522C17.2322 28.9666 16.7677 28.6488 16.9511 29.1499C17.0366 29.3699 17.0977 29.6144 17.0611 29.9199C17.0122 30.2255 16.6333 30.7755 16.8411 30.8611C17.0489 30.9466 17.7822 31.0444 18.1611 30.9955C18.54 30.9588 18.7844 30.7633 18.6377 30.5677C18.4911 30.3722 18.6866 29.8099 18.7844 29.6633C18.8333 29.5899 19.2244 29.1866 19.0777 29.0644C18.9189 28.9422 18.5033 29.1377 17.88 29.0522Z" stroke="#979797" stroke-miterlimit="10" stroke-linecap="round" stroke-linejoin="round"/>
<path d="M27.3274 1.86996C21.0451 4.49773 25.4818 9.69218 25.2496 10.9633C25.0907 11.7944 23.6851 12.1244 23.0007 12.43C21.8762 12.9311 21.3874 13.6888 20.7396 14.6666C18.3196 18.37 16.1196 27.5366 16.9629 28.3066C17.4151 28.4777 18.5274 28.7222 19.2362 28.4166C19.9574 28.0988 20.104 25.6911 20.214 25.0555C20.3485 24.3344 21.0574 17.8566 22.5729 18.3944C23.624 18.7733 23.5751 20.3744 23.5018 21.2666C23.3918 22.8311 22.5362 25.8744 22.5362 26.1188C22.5362 26.2655 23.7829 25.9722 23.8929 25.96C25.3474 25.7522 26.8874 25.6788 28.3785 25.7522C29.1485 25.7888 29.9062 25.8622 30.664 25.9722C31.2629 26.0577 32.094 26.3633 32.6685 26.0577C32.9007 25.9355 32.5462 25.0311 32.4851 24.86C32.314 24.3222 32.1185 23.7966 31.9474 23.2711C31.8129 22.88 31.6907 22.4888 31.6174 22.0733C31.4462 21.0711 31.1162 18.8588 32.3996 18.3944C34.3551 17.6977 34.624 27.2066 35.7362 27.6955C36.4451 28.0011 37.5574 27.7566 38.0096 27.5855C38.8407 26.8155 36.6529 18.37 34.2329 14.6666C33.5851 13.6888 33.0962 12.9311 31.9718 12.43C31.2874 12.1244 29.8696 11.7944 29.7229 10.9633C29.4907 9.69218 33.9274 4.49773 27.6451 1.86996C27.4985 1.79662 27.364 1.85773 27.3274 1.86996Z" stroke="#979797" stroke-miterlimit="10" stroke-linecap="round" stroke-linejoin="round"/>
<path d="M37.0449 28.3433C37.6927 28.2578 38.1572 27.94 37.9738 28.4411C37.8883 28.6611 37.8272 28.9055 37.8638 29.2111C37.9127 29.5166 38.2916 30.0666 38.0838 30.1522C37.8761 30.2377 37.1427 30.3355 36.7638 30.2866C36.3849 30.25 36.1405 30.0544 36.2872 29.8589C36.4338 29.6633 36.2383 29.1011 36.1405 28.9544C36.0916 28.8811 35.7005 28.4778 35.8472 28.3555C36.0183 28.2333 36.4338 28.4289 37.0449 28.3433Z" stroke="#979797" stroke-miterlimit="10" stroke-linecap="round" stroke-linejoin="round"/>
<path d="M27.4996 2.99438C27.4996 2.99438 26.2285 3.66661 25.8985 5.01105C25.5685 6.3555 25.3852 7.88327 26.4119 9.42327C27.4508 10.9511 27.4508 10.9511 27.4508 10.9511C27.4508 10.9511 29.2108 9.42327 29.333 7.65105C29.4674 5.87883 28.9663 3.86216 27.4996 2.99438Z" stroke="#979797" stroke-miterlimit="10" stroke-linecap="round" stroke-linejoin="round"/>
<path d="M27.4629 10.9634L27.7807 25.5445" stroke="#979797" stroke-miterlimit="10" stroke-linecap="round" stroke-linejoin="round"/>
</g>
<defs>
<clipPath id="clip0">
<rect width="55" height="55" fill="white"/>
</clipPath>
</defs>
</svg>
