<svg width="55" height="55" viewBox="0 0 55 55" fill="none" xmlns="http://www.w3.org/2000/svg">
<path d="M39.1968 24.21C38.109 23.11 36.9846 22.0466 35.8112 21.0322C35.5301 20.8 34.9924 20.7389 34.6012 20.8C32.7312 21.0811 31.0079 20.1277 30.5068 18.4777C29.9935 16.7911 30.7879 14.97 32.4379 14.2733C33.599 13.7844 34.7357 13.9189 35.8235 14.6033C36.6912 15.1533 37.6323 15.5811 38.5001 16.1189C39.3435 16.6444 40.1379 17.2555 40.9446 17.83C40.969 17.7566 40.9935 17.6711 41.0179 17.5855C41.0179 17.5733 41.0179 17.5733 41.0301 17.5611C41.4823 15.7155 40.6512 13.4789 39.1723 11.9633C39.1357 11.9266 39.099 11.89 39.0746 11.8655C39.0623 11.8533 39.0379 11.8289 39.0257 11.8166C37.2168 10.1055 34.6135 9.81219 32.2179 10.0933C32.1812 10.0933 32.1446 10.1055 32.1079 10.1055C31.839 10.1422 31.5824 10.1789 31.3135 10.2155C30.4212 10.4111 29.529 10.5944 28.649 10.8389C27.1946 11.2422 25.8012 11.7677 24.4935 12.4277C22.9779 13.21 21.5724 14.1877 20.3257 15.3366C20.2768 15.3855 20.2279 15.4222 20.179 15.4711C20.1179 15.5322 20.0568 15.5933 19.9957 15.6422C19.8612 15.7766 19.7268 15.8989 19.6046 16.0455C16.3779 19.4066 13.0412 22.6577 9.75346 25.9455C8.54346 27.1555 7.33346 28.3655 6.9668 30.1255C6.9668 30.81 6.9668 31.4944 6.9668 32.1789C7.32124 33.7066 8.31124 34.8066 9.3868 35.87C11.709 38.1677 13.9946 40.5022 16.3412 42.7633C18.3212 44.67 21.719 44.7311 23.6746 42.8122C28.0379 38.5344 32.4012 34.2566 36.5935 29.82C37.8157 28.5244 38.5001 26.7033 39.3801 25.09C39.4657 24.8944 39.3801 24.3933 39.1968 24.21Z" stroke="#ab064e" stroke-width="0.8" stroke-miterlimit="10" stroke-linecap="round" stroke-linejoin="round"/>
<path d="M47.9472 32.5331C47.0061 27.9987 44.6717 24.1854 41.6894 20.7387C41.6528 20.702 41.6283 20.6654 41.5917 20.6287C41.4694 20.4942 41.3472 20.3598 41.225 20.2254C41.0172 20.0054 40.8094 19.7854 40.5894 19.5654L40.5772 19.5531C40.0517 19.0276 39.4894 18.5265 38.8906 18.0742C38.7072 17.9398 38.5239 17.8176 38.3406 17.6954C37.8272 17.3531 37.2772 17.0476 36.7028 16.8031C35.7861 16.3998 34.7472 16.2042 33.745 16.1065C33.0239 16.0331 32.5228 16.6565 32.4983 17.3654C32.4617 18.0498 32.8772 18.6487 33.5861 18.6854C35.4561 18.7954 36.8494 19.7976 38.145 20.9831C41.335 23.9165 43.5961 27.4487 44.9161 31.5798C45.2094 32.4965 45.3317 33.4865 45.3317 34.452C45.3317 35.8942 44.5128 36.3709 43.3394 35.552C42.2761 34.8187 41.335 33.8531 40.4917 32.8754C39.7339 31.9831 39.1839 30.9198 38.4994 29.8809C38.1206 30.3576 37.8272 30.8709 37.3994 31.2376C36.715 31.8365 36.825 32.3498 37.2894 33.0342C38.4994 34.8431 39.795 36.542 41.6528 37.752C43.9628 39.2554 47.275 38.8276 47.9717 35.4909C47.9839 35.442 47.9961 35.3931 47.9961 35.3442C48.1794 34.3542 47.9594 32.582 47.9472 32.5331Z" stroke="#ab064e" stroke-width="0.8" stroke-miterlimit="10" stroke-linecap="round" stroke-linejoin="round"/>
<path d="M17.6855 25.9947C17.6855 25.1758 17.8689 24.5769 18.2233 24.1858C18.5778 23.7947 19.0667 23.5991 19.6778 23.5991C20.3133 23.5991 20.8022 23.7947 21.1689 24.1858C21.5355 24.5769 21.7067 25.188 21.7067 26.0069C21.7067 26.8258 21.5233 27.4247 21.1689 27.8158C20.8144 28.2069 20.3255 28.4025 19.7144 28.4025C19.0789 28.4025 18.59 28.2069 18.2233 27.8158C17.8689 27.4247 17.6855 26.8258 17.6855 25.9947ZM19.0544 25.9825C19.0544 26.5814 19.1278 26.9725 19.2622 27.1802C19.36 27.3269 19.5067 27.4002 19.69 27.4002C19.8733 27.4002 20.02 27.3269 20.13 27.1802C20.2644 26.9725 20.3255 26.5814 20.3255 25.9825C20.3255 25.3958 20.2644 24.9925 20.13 24.7969C20.0322 24.638 19.8855 24.5647 19.69 24.5647C19.5067 24.5647 19.36 24.638 19.2622 24.7847C19.1155 24.9925 19.0544 25.3958 19.0544 25.9825ZM21.01 33.2058H19.7144L24.5667 23.5869H25.8255L21.01 33.2058ZM23.8333 30.8102C23.8333 29.9914 24.0167 29.3925 24.3711 29.0014C24.7255 28.6102 25.2144 28.4147 25.8378 28.4147C26.4611 28.4147 26.95 28.6102 27.3167 29.0014C27.6711 29.3925 27.8544 30.0036 27.8544 30.8102C27.8544 31.6291 27.6711 32.2402 27.3167 32.6314C26.9622 33.0225 26.4733 33.218 25.8622 33.218C25.2267 33.218 24.7378 33.0225 24.3711 32.6314C24.0167 32.2402 23.8333 31.6414 23.8333 30.8102ZM25.2022 30.8102C25.2022 31.3969 25.2755 31.8002 25.41 31.9958C25.5078 32.1547 25.6544 32.228 25.8378 32.228C26.0211 32.228 26.1678 32.1547 26.2655 32.008C26.4 31.8002 26.4733 31.4091 26.4733 30.8102C26.4733 30.2114 26.4122 29.8202 26.2778 29.6125C26.18 29.4658 26.0333 29.3925 25.8378 29.3925C25.6422 29.3925 25.5078 29.4658 25.41 29.6125C25.2633 29.8202 25.2022 30.2236 25.2022 30.8102Z" fill="#ab064e"/>
</svg>
