<svg width="55" height="55" viewBox="0 0 55 55" fill="none" xmlns="http://www.w3.org/2000/svg">
<g clip-path="url(#clip0)">
<path d="M24.8002 15.0333L30.4102 14.691C30.4102 14.4833 30.4346 14.2755 30.4835 14.0433C30.4957 13.9577 30.5202 13.8599 30.5446 13.7744C30.9113 12.3444 31.9013 11.0244 32.0602 9.59438C32.1824 8.46993 31.4369 7.47993 31.5469 6.3066C31.5835 5.89104 32.0724 4.20438 32.3535 3.38549C32.4146 3.21438 32.3535 2.85993 32.048 3.16549C30.0557 5.16993 28.1491 7.77327 25.0202 8.31104C23.908 8.5066 22.4902 8.32327 22.1602 9.64327C21.8791 10.7677 22.7346 11.8677 23.5046 12.5888C24.4091 13.4566 24.7635 14.251 24.8002 15.0333Z" stroke="#979797" stroke-miterlimit="10"/>
<path d="M34.8706 25.0067C34.6017 22.5133 33.4773 20.1056 31.9862 18.0644C31.4117 17.2822 30.8984 16.6467 30.6173 15.9133L24.6284 16.28C24.3351 17.27 23.724 18.2722 23.2595 19.3967C22.1228 22.1222 22.2451 25.7889 22.6362 28.5878C23.4795 34.7233 23.8584 41.0911 19.9962 46.4567C18.9206 47.9478 17.6739 49.0844 14.8262 50.6367C15.3517 51.3456 17.7962 49.6467 21.4628 51.1622C23.5773 52.0422 26.0217 51.6878 26.0217 51.6878C29.8595 46.8967 33.3428 33.4278 31.7784 26.4122C33.9662 31.5089 31.6195 46.5911 28.0506 51.7489C28.6373 51.9689 30.5195 51.5533 31.4728 51.5044C32.6828 51.4433 33.6851 52.1767 34.2351 51.8833C34.4306 51.7611 36.044 31.1544 34.8706 25.0067Z" stroke="#979797" stroke-miterlimit="10"/>
</g>
<defs>
<clipPath id="clip0">
<rect width="55" height="55" fill="white"/>
</clipPath>
</defs>
</svg>
