<svg width="55" height="55" viewBox="0 0 55 55" fill="none" xmlns="http://www.w3.org/2000/svg">
<g clip-path="url(#clip0)">
<path d="M16.3541 37.1434C16.1463 37.3267 15.853 37.3512 15.5719 37.3512C14.7041 37.3634 13.8485 37.2167 13.0297 36.9234C12.7852 36.8378 12.5408 36.7401 12.3819 36.5445C11.9908 36.0801 12.2352 35.3834 12.4674 34.8334C15.3885 28.0989 15.9385 20.6189 16.8797 13.3467C17.0752 11.8434 17.3563 10.2178 18.493 9.21561C19.3241 8.4945 20.4485 8.25005 21.4141 7.7245C23.3697 6.66117 24.7752 4.37561 26.9997 4.27783C25.7285 4.48561 24.7997 5.69561 24.5063 6.94228C24.2008 8.20116 24.3963 9.50894 24.5674 10.7923C26.3641 24.0045 26.3152 37.3878 26.2541 50.7223C22.9297 50.7589 19.593 50.2701 16.4152 49.2678C16.7819 44.5745 17.4663 39.8934 18.4808 35.2856C18.9574 33.1101 19.5074 30.9467 19.8619 28.7345C19.9719 28.0745 20.2163 21.9145 19.8863 22.5989C19.4219 23.5523 18.4685 28.5023 18.2974 29.2478C17.7719 31.6434 16.5741 36.9723 16.3541 37.1434Z" stroke="#979797" stroke-miterlimit="10"/>
<path d="M22.5026 6.94226C21.8793 7.48004 21.1948 7.96893 20.6693 8.60448C20.1193 9.27671 19.8504 10.0956 19.3615 10.8167C19.0437 11.2812 19.1415 11.6112 19.3615 11.9289C19.5815 12.2589 20.0337 12.1123 21.6593 11.9289C21.6593 11.9289 20.9382 12.2589 20.486 12.76C20.0337 13.2734 19.1904 13.64 19.9115 15.0823C20.6204 16.5245 22.026 18.0767 23.3704 20.79C24.7148 23.5034 25.4237 27.8789 25.8026 28.3067" stroke="#979797" stroke-miterlimit="10"/>
<path d="M38.6475 37.1434C38.8553 37.3267 39.1486 37.3512 39.4297 37.3512C40.2975 37.3634 41.1531 37.2167 41.972 36.9234C42.2164 36.8378 42.4608 36.7401 42.6197 36.5445C43.0108 36.0801 42.7664 35.3834 42.5342 34.8334C39.6131 28.0989 39.0631 20.6189 38.122 13.3467C37.9264 11.8434 37.6453 10.2178 36.5086 9.21561C35.6775 8.4945 34.5531 8.25005 33.5875 7.7245C31.632 6.66117 30.2264 4.37561 28.002 4.27783C29.2731 4.48561 30.202 5.69561 30.4953 6.94228C30.8008 8.20116 30.6053 9.50894 30.4342 10.7923C28.6375 24.0045 28.6864 37.3878 28.7475 50.7223C32.072 50.7589 35.4086 50.2701 38.5864 49.2678C38.2197 44.5745 37.5353 39.8934 36.5208 35.2856C36.0442 33.1101 35.4942 30.9467 35.1397 28.7345C35.0297 28.0745 34.7853 21.9145 35.1153 22.5989C35.5797 23.5523 36.5331 28.5023 36.7042 29.2478C37.2297 31.6434 38.4275 36.9723 38.6475 37.1434Z" stroke="#979797" stroke-miterlimit="10"/>
<path d="M32.4992 6.94226C33.1226 7.48004 33.807 7.96893 34.3326 8.60448C34.8826 9.27671 35.1514 10.0956 35.6403 10.8167C35.9581 11.2812 35.8603 11.6112 35.6403 11.9289C35.4203 12.2589 34.9681 12.1123 33.3426 11.9289C33.3426 11.9289 34.0637 12.2589 34.5159 12.76C34.9681 13.2734 35.8114 13.64 35.0903 15.0823C34.3814 16.5245 32.9759 18.0767 31.6314 20.79C30.287 23.5034 29.5781 27.8789 29.1992 28.3067" stroke="#979797" stroke-miterlimit="10"/>
<path d="M24.0667 30.14C24.0667 30.14 23.8834 31.5456 23.8345 32.3034C23.7856 33.0611 23.48 33.6722 22.8812 33.4767C21.8178 33.1467 20.73 32.9022 19.6912 32.4745C19.1289 32.2422 18.8845 31.9489 18.9945 31.2767C19.1412 30.3356 19.6178 30.0545 19.6545 29.7122C19.6912 29.3578 19.7645 29.1134 20.18 29.2111C20.5956 29.2967 23.1745 30.14 24.0667 30.14Z" stroke="#979797" stroke-miterlimit="10"/>
<path d="M30.9219 30.14C30.9219 30.14 31.1052 31.5456 31.1541 32.3034C31.203 33.0611 31.5085 33.6722 32.1074 33.4767C33.1708 33.1467 34.2585 32.9022 35.2974 32.4745C35.8597 32.2422 36.1041 31.9489 35.9941 31.2767C35.8474 30.3356 35.3708 30.0545 35.3341 29.7122C35.2974 29.3578 35.2241 29.1134 34.8085 29.2111C34.393 29.2967 31.8141 30.14 30.9219 30.14Z" stroke="#979797" stroke-miterlimit="10"/>
<path d="M27.9894 4.32672C27.9894 4.32672 27.0361 4.26561 26.6816 4.40006" stroke="#979797" stroke-miterlimit="10"/>
<path d="M28.6371 49.0112H26.3516" stroke="#979797" stroke-miterlimit="10"/>
</g>
<defs>
<clipPath id="clip0">
<rect width="55" height="55" fill="white"/>
</clipPath>
</defs>
</svg>
