<svg width="55" height="55" viewBox="0 0 55 55" fill="none" xmlns="http://www.w3.org/2000/svg">
<g clip-path="url(#clip0)">
<path d="M32.3763 22.6722C32.3763 22.3667 32.3885 19.0056 32.7674 17.2456C32.9141 17.0256 33.0974 16.9522 33.3296 17.0867C34.5029 18.0278 35.6274 32.0711 35.6274 32.0711H38.5852C38.5852 32.0711 37.5829 17.6367 37.4118 15.3511C37.2529 13.0656 35.7496 8.17669 35.5296 7.76114C35.3218 7.34558 34.4907 7.40669 34.4907 7.40669L30.5307 6.08669C30.5307 6.08669 30.3596 5.57336 29.993 5.2678C29.7607 5.07225 28.4896 4.96225 27.7807 4.91336C29.6507 5.29225 30.0663 8.58003 30.0541 10.0834C30.0541 10.2911 30.0418 10.5111 30.0296 10.7189C29.9807 11.6967 29.8218 12.65 29.5041 13.5911C29.1985 14.5322 28.1352 18.0645 27.4996 18.0522C27.4018 17.8322 24.9452 12.8334 25.0429 9.80225C25.0918 8.06669 25.2507 5.09669 27.4996 4.88892C27.5241 4.88892 25.3118 5.02336 25.0063 5.28003C24.6274 5.58558 24.4685 6.09892 24.4685 6.09892L20.5085 7.41892C20.5085 7.41892 19.6774 7.3578 19.4696 7.77336C19.2618 8.18892 17.7585 13.0656 17.5874 15.3634C17.4285 17.6489 16.4141 32.0834 16.4141 32.0834H19.3718C19.3718 32.0834 20.4841 18.04 21.6696 17.0989C21.9018 16.9645 22.0852 17.0378 22.2318 17.2578C22.6352 19.1034 22.623 22.7089 22.623 22.7089L24.163 23.0267L23.8818 23.5645L22.4396 23.2834C21.963 24.7011 20.7529 28.38 20.6307 29.1745C20.4718 30.1522 20.3863 31.3011 20.3863 31.3011C20.3863 31.3011 25.7641 31.68 27.2307 27.3534C27.3407 26.9989 27.4385 26.6322 27.5118 26.2534C27.5852 26.6322 27.6829 26.9989 27.7929 27.3534C29.2474 31.68 34.6374 31.3011 34.6374 31.3011C34.6374 31.3011 34.7107 30.3845 34.3929 29.1745C34.1363 28.2089 33.0118 24.6645 32.5718 23.2834L31.0685 23.5767L30.7874 23.0389L32.3274 22.7211L32.3763 22.6722Z" stroke="#979797" stroke-miterlimit="10" stroke-linecap="round" stroke-linejoin="round"/>
<path d="M27.7072 29.37H27.2916C26.5339 30.5189 24.5783 32.6456 20.7039 32.23C20.7039 32.23 20.1661 35.8355 20.7039 39.5267C21.0216 41.6655 21.1561 41.7878 21.2905 43.9389C21.4127 45.8822 21.7061 46.7256 21.535 48.6811C21.5105 49.1333 24.3094 50.1111 28.2205 50.1111C32.1316 50.1111 33.5005 49.1333 33.4639 48.6811C33.2805 46.6522 33.6105 45.6256 33.7327 43.6089C33.9039 40.9444 34.3439 40.3455 34.4905 37.6689C34.515 37.2778 34.5027 32.2056 34.295 32.23C30.4205 32.6333 28.465 30.5189 27.7072 29.37Z" stroke="#979797" stroke-miterlimit="10"/>
<path d="M24.4682 6.099L23.5149 7.79789L21.7305 8.31122C21.7305 8.31122 24.8349 17.2212 27.4994 18.0646V26.2168" stroke="#979797" stroke-miterlimit="10"/>
<path d="M30.5316 6.099L31.4849 7.79789L33.2572 8.31122C33.2572 8.31122 30.1527 17.2212 27.4883 18.0646" stroke="#979797" stroke-miterlimit="10"/>
</g>
<defs>
<clipPath id="clip0">
<rect width="55" height="55" fill="white"/>
</clipPath>
</defs>
</svg>
