<svg width="55" height="55" viewBox="0 0 55 55" fill="none" xmlns="http://www.w3.org/2000/svg">
<g clip-path="url(#clip0)">
<path d="M24.6897 50.7589C25.1663 50.5266 24.6897 44.8555 24.6897 44.8555V40.4189C24.6897 40.4189 24.8119 37.9133 24.8486 37.6078C24.8852 37.3022 24.9586 34.76 24.9952 34.5278C25.0319 34.2955 25.1052 31.0322 25.4352 30.9833C26.2419 30.8733 28.6986 39.0989 28.9797 40.1989C29.5663 42.4844 30.5808 44.6478 31.1308 46.9333C31.3508 47.85 31.4852 51.48 32.6586 51.7244C36.1908 52.4578 36.1541 51.15 36.1541 51.15C35.763 45.8944 33.7463 40.8833 33.2452 35.6155C33.2086 35.2244 32.6708 28.4778 32.1575 26.6322C32.1575 26.6322 28.9919 27.3411 25.5819 26.8155C23.003 26.4978 21.4019 26.1189 19.9841 24.2733C20.0697 24.3833 19.4586 25.7889 19.4097 25.9478C19.0063 27.4266 18.7863 28.9666 18.8597 30.4944C19.0063 33.5622 19.4463 36.5933 19.813 39.6366C20.2775 43.4133 20.4486 46.9822 20.2408 50.7711C20.2408 50.7467 21.2919 52.4578 24.6897 50.7589Z" stroke="#979797" stroke-miterlimit="10" stroke-linecap="round" stroke-linejoin="round"/>
<path d="M35.8723 8.18886C35.7134 6.90553 35.6767 5.4633 35.0289 4.31442C34.2956 3.00664 32.4256 3.10442 31.0934 3.06775C31.0934 3.06775 29.81 4.38775 27.9767 4.85219L28.4534 9.00775H27.5L26.9378 5.01108C25.9356 5.05997 24.8234 4.8033 23.6989 3.95997C23.4667 3.78886 21.6212 4.66886 21.3278 4.8033C20.5212 5.18219 19.7145 5.71997 19.4212 6.61219C18.8712 8.27442 18.8956 10.4866 18.8956 12.2344C18.8956 12.87 20.1912 13.0533 21.1323 13.2366C21.4256 13.2977 21.3767 11.7455 21.5723 11.7455C21.9878 11.7455 22.0489 15.0089 21.8534 15.7055C21.67 16.4022 21.8534 16.3166 20.9123 17.5022C19.9712 18.6755 18.5167 20.3133 18.8956 20.7655C19.2745 21.2055 19.3967 22.9777 21.9878 24.3589C24.5789 25.7522 29.1256 25.7522 30.3234 25.5566C30.58 25.52 31.5945 25.4589 32.3523 25.3C32.8534 25.19 33.2445 25.0433 33.22 24.8233C33.22 24.7989 32.9023 21.2055 32.9023 21.2055V17.16L33.0245 12.43C33.0245 12.43 32.9634 10.8289 33.2567 10.8289C33.3789 10.8289 33.4278 12.4544 33.5623 12.4544C34.2223 12.4422 35.4078 12.3811 35.7989 12.2466C36.52 11.9533 35.9334 8.68997 35.8723 8.18886Z" stroke="#979797" stroke-miterlimit="10"/>
</g>
<defs>
<clipPath id="clip0">
<rect width="55" height="55" fill="white"/>
</clipPath>
</defs>
</svg>
