<svg width="55" height="55" viewBox="0 0 55 55" fill="none" xmlns="http://www.w3.org/2000/svg">
<path d="M11.2913 49.1717C10.1842 49.0254 9.39031 48.4823 9.70375 49.3387C9.84987 49.7147 9.95429 50.1325 9.89174 50.6547C9.80817 51.1769 9.16062 52.1169 9.51576 52.2632C9.87089 52.4093 11.1241 52.5764 11.7717 52.4929C12.4192 52.4302 12.8369 52.096 12.5862 51.7618C12.3356 51.4276 12.6697 50.4667 12.8369 50.2161C12.9205 50.0907 13.5889 49.4014 13.3381 49.1926C13.0668 48.9837 12.3565 49.3179 11.2913 49.1717Z" stroke="#979797" stroke-miterlimit="10" stroke-linecap="round" stroke-linejoin="round"/>
<path d="M27.4371 2.71788C16.7005 7.20878 24.2829 16.0862 23.8861 18.2586C23.6145 19.6789 21.2123 20.2429 20.0426 20.7652C18.1209 21.6216 17.2855 22.9165 16.1784 24.5876C12.0426 30.9168 8.28272 46.5826 9.72394 47.8986C10.4968 48.191 12.3977 48.6089 13.609 48.0866C14.8416 47.5435 15.0921 43.4286 15.2801 42.3424C15.51 41.11 16.7215 30.0393 19.3115 30.9585C21.1079 31.606 21.0243 34.3423 20.899 35.8671C20.711 38.5409 19.2488 43.7419 19.2488 44.1596C19.2488 44.4103 21.3794 43.9091 21.5674 43.8882C24.0532 43.5331 26.6851 43.4076 29.2334 43.5331C30.5494 43.5956 31.8443 43.7211 33.1394 43.9091C34.1629 44.0552 35.5833 44.5774 36.5651 44.0552C36.9619 43.8463 36.3561 42.3007 36.2517 42.0083C35.9593 41.0892 35.6251 40.1909 35.3327 39.2928C35.1029 38.6244 34.894 37.9559 34.7687 37.2458C34.4762 35.533 33.9122 31.7521 36.1055 30.9585C39.4475 29.7678 39.9071 46.0187 41.8079 46.8542C43.0194 47.3765 44.9203 46.9586 45.6931 46.6662C47.1135 45.3503 43.3745 30.9168 39.2387 24.5876C38.1316 22.9165 37.296 21.6216 35.3744 20.7652C34.2048 20.2429 31.7817 19.6789 31.531 18.2586C31.1342 16.0862 38.7166 7.20878 27.98 2.71788C27.7295 2.59254 27.4996 2.69697 27.4371 2.71788Z" stroke="#979797" stroke-miterlimit="10" stroke-linecap="round" stroke-linejoin="round"/>
<path d="M44.0442 47.9616C45.1513 47.8155 45.9452 47.2724 45.6318 48.1288C45.4856 48.5047 45.3812 48.9224 45.4438 49.4447C45.5273 49.9668 46.1749 50.9068 45.8197 51.0531C45.4648 51.1992 44.2114 51.3663 43.5638 51.2828C42.9163 51.2202 42.4986 50.8859 42.7493 50.5518C42.9999 50.2175 42.6657 49.2567 42.4986 49.006C42.415 48.8807 41.7466 48.1915 41.9973 47.9825C42.2898 47.7736 42.9999 48.1079 44.0442 47.9616Z" stroke="#979797" stroke-miterlimit="10" stroke-linecap="round" stroke-linejoin="round"/>
<path d="M27.7312 4.63965C27.7312 4.63965 25.5588 5.7885 24.9949 8.08618C24.4309 10.3839 24.1176 12.9949 25.8723 15.6267C27.6478 18.2378 27.6478 18.2378 27.6478 18.2378C27.6478 18.2378 30.6557 15.6267 30.8645 12.598C31.0942 9.56923 30.2378 6.1227 27.7312 4.63965Z" stroke="#979797" stroke-miterlimit="10" stroke-linecap="round" stroke-linejoin="round"/>
<path d="M27.668 18.2588L28.2111 43.1782" stroke="#979797" stroke-miterlimit="10" stroke-linecap="round" stroke-linejoin="round"/>
</svg>
