<?xml version="1.0" encoding="utf-8"?>
<!-- Generator: Adobe Illustrator 25.3.1, SVG Export Plug-In . SVG Version: 6.00 Build 0)  -->
<svg version="1.1" id="Слой_1" xmlns="http://www.w3.org/2000/svg" xmlns:xlink="http://www.w3.org/1999/xlink" x="0px" y="0px"
	 viewBox="0 0 55 55" style="enable-background:new 0 0 55 55;" xml:space="preserve">
<style type="text/css">
	.st0{fill:none;stroke:#979797;stroke-miterlimit:10;}
</style>
<g>
	<path class="st0" d="M31.2,33.5c0,0,8.3,6,8.3,8c0,1.9-17.7,1.7-19,0.2c-1.3-1.4-1.8-4.4-3.7-9.5s-6.2-9.5-7.2-11.1
		c-1-1.6-0.1-6.2,2-7.6S18.4,23,24,27.9s8.4,5,6.9,5.8c-1.4,0.8-5.3,3.3-8,2c-2.7-1.3-4.6-5.2-6.2-9.8S13.6,15,13.1,14"/>
	<polyline class="st0" points="10.7,22.6 11.8,34.2 12.8,34 13.8,26.7 	"/>
	<path class="st0" d="M23.2,27.1c-1.6-4.6-4.2-8.6-4.9-10.1c-0.8-1.7-0.6-3.6,1.7-4.7s6.9,7.5,12,13s7.8,5.9,6.3,6.4
		c-1.5,0.6-6.3,1.8-8.8,0.2c-2.5-1.6-3.3-4.7-4.4-9.5c-1.1-4.8-1.5-7.4-2-8.5"/>
	<path class="st0" d="M38.6,31.6c0,0,7.4,6.8,7.2,8.7c-0.1,0.7-2.8,0.8-6.3,0.6"/>
	<line class="st0" x1="18.5" y1="17.5" x2="19.1" y2="22.1"/>
</g>
</svg>
