<?xml version="1.0" encoding="utf-8"?>
<!-- Generator: Adobe Illustrator 25.3.1, SVG Export Plug-In . SVG Version: 6.00 Build 0)  -->
<svg version="1.1" id="Слой_1" xmlns="http://www.w3.org/2000/svg" xmlns:xlink="http://www.w3.org/1999/xlink" x="0px" y="0px"
	 viewBox="0 0 55 55" style="enable-background:new 0 0 55 55;" xml:space="preserve">
<style type="text/css">
	.st0{fill:none;stroke:#979797;stroke-miterlimit:10;}
</style>
<g>
	<path class="st0" d="M14.4,21.2h26.2L43,32.1c0,0-12.7,5-30,0.2c-0.3-0.1-0.5-0.2-0.8-0.2C11.5,31.9,14.4,21.2,14.4,21.2z"/>
	<path class="st0" d="M41.8,32.5l1.7,9c0.2,1-0.6,1.9-1.6,1.9H13c-1,0-1.7-0.9-1.6-1.9l1.5-9.2"/>
	<path class="st0" d="M19.3,21.2c0,0-0.5-10.8,8.2-10.8c8,0,7.6,10.8,7.6,10.8"/>
	<path class="st0" d="M30.4,33.9c0,0,0.2,2.8-3,2.8c-2.9,0-2.8-2.8-2.8-2.8"/>
	<path class="st0" d="M15.6,43.4c0,0,0.1,1.2-1.3,1.2c-1.3,0-1.2-1.2-1.2-1.2"/>
	<path class="st0" d="M41.3,43.4c0,0,0.1,1.2-1.3,1.2c-1.3,0-1.2-1.2-1.2-1.2"/>
</g>
</svg>
