<?xml version="1.0" encoding="utf-8"?>
<!-- Generator: Adobe Illustrator 25.3.1, SVG Export Plug-In . SVG Version: 6.00 Build 0)  -->
<svg version="1.1" id="Слой_1" xmlns="http://www.w3.org/2000/svg" xmlns:xlink="http://www.w3.org/1999/xlink" x="0px" y="0px"
	 viewBox="0 0 55 55" style="enable-background:new 0 0 55 55;" xml:space="preserve">
<style type="text/css">
	.st0{fill:none;stroke:#979797;stroke-miterlimit:10;}
</style>
<g>
	<path class="st0" d="M33.5,44.3h-13c-0.8,0-1.5-0.7-1.5-1.5v-5.3c0-0.8,0.7-1.5,1.5-1.5h13c0.8,0,1.5,0.7,1.5,1.5v5.3
		C35,43.7,34.3,44.3,33.5,44.3z"/>
	<path class="st0" d="M20.9,36.1c0.1-0.6-0.5-2.8,0.7-2.7c0,0,11.4,0,11.4,0c1.1,0,0.5,2.1,0.7,2.7"/>
	<path class="st0" d="M21.4,33.4c0,0,3-1.2,4.7-2.7c2.2-1.9,2.9,0.8,3.3,1.2c0.6,0.4,4.6-1.2,3.8,1.6"/>
	<path class="st0" d="M41.9,23H31.3c-0.9,0-0.6-1.3-0.7-1.9c0-0.4,0.3-0.7,0.7-0.7h10.6c0.9,0,0.6,1.3,0.7,1.9
		C42.5,22.7,42.2,23,41.9,23z"/>
	<line class="st0" x1="31.9" y1="31.7" x2="30.8" y2="22.7"/>
	<polyline class="st0" points="42.4,22.7 40.1,40.4 35,40.4 	"/>
	<path class="st0" d="M34.2,44.1h5.2c1.2,0.1,0.5-3.2,0.7-3.8"/>
	<path class="st0" d="M25.5,31.2l0.7-4.9c-0.1-9.5-15.1-9.2-15.2,0l2.6,16.8c0.1,0.4,0.4,0.7,0.8,0.7h5.1"/>
	<polyline class="st0" points="15,20 15.8,16 21.4,16 22.3,20 	"/>
	<line class="st0" x1="20.9" y1="14.6" x2="20.9" y2="16"/>
	<path class="st0" d="M25.2,14.6H14.9c0-0.9-0.3-2.7,1-2.8c0,0,9-0.7,9-0.7c0.6,0,1.1,0.4,1.1,1C26,12.9,26.4,14.7,25.2,14.6z"/>
	<line class="st0" x1="16.4" y1="16" x2="16.4" y2="14.6"/>
</g>
</svg>
