<svg width="55" height="55" viewBox="0 0 55 55" fill="none" xmlns="http://www.w3.org/2000/svg">
<g clip-path="url(#clip0)">
<path d="M38.2559 24.6888C38.1948 24.3588 38.1459 24.0166 38.0359 23.6988C37.3881 21.7433 36.7648 19.7755 36.0803 17.8444C35.4326 16.0111 34.687 14.2144 34.0148 12.3811C33.6115 11.3177 33.1348 10.2911 32.5237 9.3255C32.4992 9.28883 32.487 9.22772 32.487 9.19106C32.4992 9.06883 32.4992 8.94661 32.5237 8.82439C32.6215 8.20106 32.6581 7.57772 32.6092 6.95439C32.597 6.74661 32.5726 6.53883 32.6459 6.33106C32.6581 6.29439 32.6337 6.2455 32.6215 6.20883C32.6092 6.14772 32.5848 6.08661 32.5848 6.03772C32.5848 5.79328 32.6092 5.56106 32.5726 5.31661C32.5359 5.07217 32.4626 4.83994 32.3892 4.60772C32.3648 4.54661 32.3037 4.4855 32.2548 4.43661C32.0103 4.25328 31.7415 4.10661 31.4359 4.03328C31.3015 3.99661 31.1548 3.98439 31.0203 3.94772C30.5192 3.78883 30.0059 3.72772 29.4926 3.70328C28.417 3.66661 27.3415 3.61772 26.2659 3.83772C25.9359 3.89883 25.7037 4.0455 25.5815 4.36328C25.3492 4.94994 25.0437 5.49994 24.8481 6.11106C24.7626 6.36772 24.6403 6.59995 24.5426 6.85661C24.2248 7.6755 24.1392 8.53106 24.2615 9.39883C24.3348 9.89995 24.5426 10.3644 24.7381 10.8288C25.0681 11.5866 25.5081 12.2466 26.1559 12.7599C26.5592 13.0777 26.7548 13.4811 26.7181 14.0066C26.6692 14.5444 26.657 15.0944 26.6203 15.6444C26.4859 17.3555 26.3637 19.0666 26.3637 20.7777C26.3637 21.9633 26.2537 23.1488 26.0948 24.3222C25.9603 25.2999 25.7159 26.2655 25.4226 27.2066C25.3981 27.2922 25.3737 27.3777 25.2759 27.4266C24.0048 28.1722 22.7215 28.9055 21.377 29.4922C20.6559 29.8099 19.8981 30.0422 19.1037 30.0544C18.8592 30.0666 18.6148 30.0544 18.3703 30.0788C18.1015 30.1033 17.8326 30.1399 17.5637 30.2133C17.2459 30.2988 17.0381 30.5311 17.0137 30.8733C16.9892 31.1422 16.9892 31.4233 17.0381 31.6799C17.1237 32.1933 17.2092 32.7188 17.197 33.2444C17.1726 34.0999 17.0259 34.9433 16.8303 35.7744C16.7203 36.2511 16.6959 36.7155 16.7937 37.1922C16.9037 37.7422 17.0381 38.2799 17.1359 38.8299C17.1848 39.0744 17.3192 39.2455 17.4659 39.4044C17.8815 39.8444 17.9792 38.8055 18.0403 38.5977C18.4315 37.1922 19.177 35.9211 19.9348 34.6988C20.4848 33.8188 20.9615 32.1933 21.9148 31.6922C22.6481 31.3133 24.0781 31.3011 24.8237 30.9466C24.8359 30.9344 24.8603 30.9344 24.897 30.9344C24.897 31.0077 24.9092 31.0811 24.9092 31.1422C24.9337 31.6311 24.9337 32.1077 24.9948 32.5966C25.1659 34.0511 25.3003 35.5055 25.4959 36.9477C25.6915 38.3166 26.2415 39.6366 26.2415 41.0422C26.2415 42.4477 25.8137 43.6088 24.9826 44.8188C24.7503 45.1611 24.7748 45.5399 24.9826 45.9066C25.1537 46.1999 25.3859 46.4444 25.6303 46.6766C25.8992 46.9211 26.1926 47.1533 26.437 47.4222C27.0115 48.0577 27.427 48.8033 27.757 49.5855C27.867 49.8544 28.0259 50.0622 28.2581 50.2333C28.417 50.3555 28.5759 50.4655 28.747 50.5755C29.1137 50.8322 29.5903 51.2111 30.0426 51.2844C31.0692 51.4677 30.8003 51.0644 30.4703 50.3188C30.1892 49.6955 29.9081 49.0722 29.6515 48.4366C29.4559 47.9599 29.3581 47.4588 29.3092 46.9455C29.2359 46.1755 29.1137 45.2955 28.967 44.5011C28.8203 43.6699 28.4415 42.8511 28.3803 42.0077C28.2581 40.2233 28.5637 38.4388 28.6248 36.6422C28.6615 35.5666 28.7715 34.5033 28.8326 33.4277C28.9181 32.0833 29.0159 30.7511 29.1992 29.4188C29.2115 29.3088 29.2481 29.2599 29.3581 29.2233C29.7981 29.0888 30.2259 28.9422 30.6537 28.7955C32.1326 28.3066 33.6115 27.7933 35.127 27.4388C35.787 27.2799 36.4226 27.0599 36.9603 26.6199C37.327 26.3266 37.7059 26.0455 37.987 25.6666C38.2192 25.3855 38.3292 25.0555 38.2559 24.6888ZM33.5626 23.4544C33.0981 23.5766 31.9492 23.7966 31.4848 23.9311C31.2281 24.0044 30.9837 24.1144 30.727 24.1999C30.7026 24.2122 30.6659 24.2244 30.5926 24.2366C30.9837 22.9655 31.3503 21.7311 31.7415 20.4599C31.7781 20.5211 31.8026 20.5455 31.827 20.5822L33.8437 22.8799C33.9659 23.1488 33.8559 23.3811 33.5626 23.4544Z" stroke="#979797" stroke-miterlimit="10" stroke-linecap="round" stroke-linejoin="round"/>
</g>
<defs>
<clipPath id="clip0">
<rect width="55" height="55" fill="white"/>
</clipPath>
</defs>
</svg>
