<svg width="55" height="55" viewBox="0 0 55 55" fill="none" xmlns="http://www.w3.org/2000/svg">
<g clip-path="url(#clip0)">
<path d="M28.2336 35.3225C26.1558 35.3225 24.5669 38.7447 24.5669 38.7447C24.4447 38.8669 24.2003 38.8669 24.2003 38.8669L15.278 36.0558C15.1558 28.2336 19.3114 21.0225 19.3114 21.0225C19.3114 21.0225 22.7336 22.1225 28.2336 22.0002" stroke="#979797" stroke-miterlimit="10"/>
<path d="M15.4008 36.1787L15.2786 38.5009C15.2786 38.5009 15.1564 38.7454 15.4008 38.8676L22.123 40.8232C22.123 40.8232 22.3675 41.0676 22.7342 40.7009L24.2008 38.7454" stroke="#979797" stroke-miterlimit="10"/>
<path d="M19.3125 21.0227L20.2903 17.7227C20.2903 17.7227 20.4125 17.7227 20.6569 17.7227C20.6569 17.7227 22.9792 18.5782 28.1125 18.3338" stroke="#979797" stroke-miterlimit="10"/>
<path d="M28.2344 35.3225C30.3122 35.3225 31.901 38.7447 31.901 38.7447C32.0233 38.8669 32.2677 38.8669 32.2677 38.8669L41.1899 36.0558C41.3122 28.2336 37.1566 21.0225 37.1566 21.0225C37.1566 21.0225 33.7344 22.1225 28.2344 22.0002" stroke="#979797" stroke-miterlimit="10"/>
<path d="M40.9445 36.1787L41.0668 38.5009C41.0668 38.5009 41.189 38.7454 40.9445 38.8676L34.2223 40.8232C34.2223 40.8232 33.9779 41.0676 33.6112 40.7009L32.1445 38.7454" stroke="#979797" stroke-miterlimit="10"/>
<path d="M37.0344 21.0227L36.0566 17.7227C36.0566 17.7227 35.9344 17.7227 35.6899 17.7227C35.6899 17.7227 33.3677 18.5782 28.2344 18.3338" stroke="#979797" stroke-miterlimit="10"/>
</g>
<defs>
<clipPath id="clip0">
<rect width="55" height="55" fill="white"/>
</clipPath>
</defs>
</svg>
