<svg width="55" height="55" viewBox="0 0 55 55" fill="none" xmlns="http://www.w3.org/2000/svg">
<g clip-path="url(#clip0)">
<path d="M29.1259 8.00546C31.3015 7.96879 33.7459 7.72435 35.7504 7.46768C35.5426 6.22101 35.3348 5.36546 35.127 5.52435C35.127 5.52435 31.9615 6.69768 27.4637 6.40435C22.9537 6.11101 19.3603 5.52435 19.3603 5.52435C19.3603 5.52435 19.0303 5.29212 18.7615 6.45324C18.7248 6.63657 18.6515 6.90546 18.5781 7.22324C21.4137 7.56546 26.0581 8.04212 29.1259 8.00546Z" stroke="#979797" stroke-miterlimit="10"/>
<path d="M35.9704 9.06872C33.746 9.31317 31.0204 9.58206 29.1749 9.65539C25.8627 9.86317 20.9982 9.32539 18.236 8.97095C17.9182 10.7921 17.6738 13.3098 18.0649 15.9743C18.7004 20.3376 20.1915 27.3043 20.4971 30.4454C20.8149 33.5865 20.986 35.3343 21.0349 36.4465C21.0715 37.5587 21.4015 42.8387 21.4015 42.8387C21.4015 42.8387 21.8782 44.8187 21.9149 45.9798C21.9515 47.1409 21.7804 48.6565 22.1471 49.0843C22.5138 49.5121 22.9538 49.5121 24.7138 49.5121C26.486 49.5121 27.2804 49.3287 27.4393 47.9965C27.5982 46.6521 27.0849 46.3709 26.9993 44.9776C26.9138 43.5965 26.6693 36.2387 26.7671 34.4054C26.8404 32.9998 26.8527 31.5821 26.8771 30.1765C26.926 28.0254 26.9627 25.8621 26.9871 23.7109C26.9993 22.2932 27.0727 20.8632 27.0482 19.4454C27.036 18.8465 26.9627 18.2476 27.0115 17.6487C27.036 17.3309 27.0849 17.0132 27.2193 16.7198C27.3538 16.4265 27.7449 15.9621 27.8427 16.5487C28.0015 17.4532 28.5515 21.1565 28.5515 21.1565C28.5515 21.1565 29.9082 28.5754 29.9815 29.2721C30.0549 29.9687 30.2871 35.041 30.2871 36.911C30.2871 38.781 30.4093 43.6698 30.4093 43.6698L30.3727 48.0454C30.3727 48.0454 30.226 49.4754 32.1327 49.4143C34.0393 49.3654 34.6749 49.3043 34.6749 49.3043C34.6749 49.3043 35.7138 48.9621 35.836 47.9721C35.9582 46.9821 36.1049 45.6621 36.1049 45.6621C36.1049 45.6621 36.5938 32.3398 36.826 29.1132C37.3515 24.7132 37.1071 17.6365 36.5327 14.6421C36.4593 13.6032 36.2393 11.1709 35.9704 9.06872Z" stroke="#979797" stroke-miterlimit="10"/>
</g>
<defs>
<clipPath id="clip0">
<rect width="55" height="55" fill="white"/>
</clipPath>
</defs>
</svg>
