<svg width="55" height="55" viewBox="0 0 55 55" fill="none" xmlns="http://www.w3.org/2000/svg">
<g clip-path="url(#clip0)">
<path d="M28.0996 12.8701V36.9112V42.1668C28.0996 42.5946 28.4418 42.9368 28.8696 42.9368H35.6774C37.3029 42.9368 38.6229 41.5435 38.6229 39.8201C38.6229 38.5001 37.8407 37.3757 36.7529 36.9234C37.8529 36.4712 38.6229 35.3468 38.6229 34.0268C38.6229 33.9779 38.6107 33.9412 38.6107 33.8923C38.6107 33.8557 38.6229 33.8312 38.6229 33.7946C38.6229 32.5968 37.9752 31.5701 37.0463 31.0446C37.9874 30.519 38.6229 29.4923 38.6229 28.2946C38.6229 28.2457 38.6107 28.209 38.6107 28.1601C38.6107 28.099 38.6229 28.0501 38.6229 27.989C38.6229 27.5735 38.5496 27.1823 38.4029 26.8157C38.4396 26.8279 38.4885 26.8523 38.5252 26.8646C38.5252 27.2679 38.5985 27.6712 38.7941 28.0623L39.7229 29.9446C40.1141 30.7146 40.8107 31.2157 41.5929 31.3868C41.4463 31.9368 41.4829 32.5235 41.7518 33.0735L42.5707 34.7357C42.9007 35.3957 43.4874 35.8357 44.1596 35.9946C44.0985 36.4101 44.1474 36.8623 44.3552 37.2779L45.0885 38.7568C45.6141 39.8079 46.8852 40.2479 47.9485 39.7223L49.4274 38.989C50.4785 38.4634 50.9185 37.1923 50.3929 36.129L49.6596 34.6501C49.4396 34.1979 49.0729 33.8679 48.6574 33.6723C48.8896 33.0734 48.8774 32.3768 48.5718 31.7534L47.7529 30.0912C47.4841 29.5535 47.0318 29.1623 46.5063 28.9423C46.8485 28.2212 46.8729 27.3535 46.4941 26.5835L45.5652 24.7012C45.2596 24.0901 44.7585 23.6501 44.1718 23.4057C44.4774 22.4523 44.3063 21.3768 43.6218 20.5457L42.1307 18.749C41.4463 17.9301 40.4196 17.5635 39.4296 17.6857C39.5518 16.9279 39.3685 16.1212 38.8429 15.4857L38.4641 15.0335C36.5359 14.2466 34.8829 13.7295 33.5 13.393" stroke="#979797" stroke-miterlimit="10"/>
<path d="M35.9462 45.8335H29.0039C28.5517 45.8335 28.1973 45.4668 28.1973 45.0268V44.3179C28.1973 43.8657 28.5639 43.5112 29.0039 43.5112H35.9462C36.3984 43.5112 36.7528 43.8779 36.7528 44.3179V45.0268C36.7528 45.4668 36.3862 45.8335 35.9462 45.8335Z" stroke="#979797" stroke-miterlimit="10"/>
<path d="M50.9429 40.6268L48.2907 41.9346C48.0462 42.0568 47.7651 41.9591 47.6429 41.7146L47.3007 41.0179C47.1784 40.7735 47.2762 40.4924 47.5207 40.3702L50.1729 39.0624C50.4173 38.9402 50.6984 39.0379 50.8207 39.2824L51.1629 39.9791C51.2729 40.2235 51.1751 40.5046 50.9429 40.6268Z" stroke="#979797" stroke-miterlimit="10"/>
<path d="M6.74674 42.0567L4.07007 40.81C3.82563 40.7 3.72785 40.4067 3.83785 40.1745L4.16785 39.4778C4.27785 39.2333 4.57118 39.1356 4.80341 39.2456L7.48007 40.4922C7.72452 40.6022 7.82229 40.8956 7.71229 41.1278L7.38229 41.8245C7.27229 42.0567 6.99118 42.1667 6.74674 42.0567Z" stroke="#979797" stroke-miterlimit="10"/>
<path d="M28.6613 17.2945H28.1113V9.16675H32.0958L33.4891 13.3956C33.4891 15.2901 30.5558 17.2945 28.6613 17.2945Z" stroke="#979797" stroke-miterlimit="10"/>
<path d="M26.9004 12.8701V36.9112V42.1668C26.9004 42.5946 26.5582 42.9368 26.1304 42.9368H19.3226C17.6971 42.9368 16.3771 41.5435 16.3771 39.8201C16.3771 38.5001 17.1593 37.3757 18.2471 36.9234C17.1471 36.4712 16.3771 35.3468 16.3771 34.0268C16.3771 33.9779 16.3893 33.9412 16.3893 33.8923C16.3893 33.8557 16.3771 33.8312 16.3771 33.7946C16.3771 32.5968 17.0248 31.5701 17.9537 31.0446C17.0126 30.519 16.3771 29.4923 16.3771 28.2946C16.3771 28.2457 16.3893 28.209 16.3893 28.1601C16.3893 28.099 16.3771 28.0501 16.3771 27.989C16.3771 27.5735 16.4504 27.1823 16.5971 26.8157C16.5604 26.8279 16.5115 26.8523 16.4748 26.8646C16.4748 27.2679 16.4015 27.6712 16.2059 28.0623L15.2771 29.9446C14.8859 30.7146 14.1893 31.2157 13.4071 31.3868C13.5537 31.9368 13.5171 32.5235 13.2482 33.0735L12.4293 34.7357C12.0993 35.3957 11.5126 35.8357 10.8404 35.9946C10.9015 36.4101 10.8526 36.8623 10.6448 37.2779L9.9115 38.7568C9.38594 39.8079 8.11483 40.2479 7.0515 39.7223L5.57261 38.989C4.5215 38.4634 4.0815 37.1923 4.60705 36.129L5.34039 34.6501C5.56039 34.1979 5.92705 33.8679 6.34261 33.6723C6.11039 33.0734 6.12261 32.3768 6.42816 31.7534L7.24705 30.0912C7.51594 29.5535 7.96816 29.1623 8.49372 28.9423C8.1515 28.2212 8.12705 27.3535 8.50594 26.5835L9.43483 24.7012C9.74039 24.0901 10.2415 23.6501 10.8282 23.4057C10.5226 22.4523 10.6937 21.3768 11.3782 20.5457L12.8693 18.749C13.5537 17.9301 14.5804 17.5635 15.5704 17.6857C15.4482 16.9279 15.6315 16.1212 16.1571 15.4857L16.5359 15.0335C18.4641 14.2466 20.1171 13.7295 21.5 13.393" stroke="#979797" stroke-miterlimit="10"/>
<path d="M19.0547 45.8335H25.9969C26.4492 45.8335 26.8036 45.4668 26.8036 45.0268V44.3179C26.8036 43.8657 26.4369 43.5112 25.9969 43.5112H19.0547C18.6025 43.5112 18.248 43.8779 18.248 44.3179V45.0268C18.248 45.4668 18.6147 45.8335 19.0547 45.8335Z" stroke="#979797" stroke-miterlimit="10"/>
<path d="M26.3273 17.2945H26.8895V9.16675H22.9051L21.5117 13.3956C21.5117 15.2901 24.4451 17.2945 26.3273 17.2945Z" stroke="#979797" stroke-miterlimit="10"/>
</g>
<defs>
<clipPath id="clip0">
<rect width="55" height="55" fill="white"/>
</clipPath>
</defs>
</svg>
