<svg width="55" height="55" viewBox="0 0 55 55" fill="none" xmlns="http://www.w3.org/2000/svg">
<g clip-path="url(#clip0)">
<path d="M27.443 21.7692C32.0536 20.9624 33.3215 18.4266 33.3215 18.4266L32.8604 11.9718C32.8604 11.9718 32.0536 7.82227 27.443 7.82227H27.2125C22.6019 7.82227 21.795 11.9718 21.795 11.9718L21.334 18.4266C21.334 18.4266 22.6019 20.9624 27.2125 21.7692H27.443Z" stroke="#979797" stroke-miterlimit="10"/>
<path d="M27.5576 10.7037C27.5576 10.7037 30.0934 10.4732 30.6697 13.009C30.6697 13.009 31.7071 18.4264 27.5576 19.4638H27.2118C23.0623 18.4264 24.0996 13.009 24.0996 13.009C24.5607 10.4732 27.2118 10.7037 27.2118 10.7037H27.5576Z" stroke="#979797" stroke-miterlimit="10"/>
<path d="M21.2179 18.4268C21.2179 18.4268 14.7631 21.1931 10.9594 21.9999C10.9594 21.9999 9.92204 22.461 10.1526 23.2679L11.7663 27.6479C11.7663 27.6479 11.7663 28.1089 12.5731 28.1089L17.9905 27.3021C17.9905 27.3021 21.3332 24.9968 20.2958 21.1931" stroke="#979797" stroke-miterlimit="10"/>
<path d="M27.3262 19.4639C27.3262 19.4639 28.3635 19.4639 29.4009 21.3081" stroke="#979797" stroke-miterlimit="10"/>
<path d="M10.4985 28.2246C9.69165 28.4551 8.8848 28.1093 8.65427 27.4177L7.96269 25.4583C7.73216 24.7667 8.07795 23.9598 8.8848 23.7293H9.00007C9.69165 23.4988 10.4985 23.8446 10.729 24.6514L11.4206 26.6109C11.5359 27.1872 11.1901 27.9941 10.4985 28.2246Z" stroke="#979797" stroke-miterlimit="10"/>
<path d="M17.8768 27.418C17.8768 27.418 18.3378 28.4553 18.3378 29.7233L17.8768 42.287C17.8768 42.287 17.6462 44.5923 19.721 44.8229H27.4437" stroke="#979797" stroke-miterlimit="10"/>
<path d="M33.4355 18.4268C33.4355 18.4268 39.8903 21.1931 43.6941 21.9999C43.6941 21.9999 44.7314 22.461 44.5009 23.2679L42.8872 27.6479C42.8872 27.6479 42.8872 28.1089 42.0804 28.1089L36.6629 27.3021C36.6629 27.3021 33.3203 24.9968 34.3577 21.1931" stroke="#979797" stroke-miterlimit="10"/>
<path d="M44.1549 28.2246C44.9617 28.4551 45.7686 28.1093 45.9991 27.4177L46.6907 25.4583C46.9212 24.7667 46.5754 23.9598 45.7686 23.7293H45.6533C44.9617 23.4988 44.1549 23.8446 43.9244 24.6514L43.2328 26.6109C43.1175 27.1872 43.4633 27.9941 44.1549 28.2246Z" stroke="#979797" stroke-miterlimit="10"/>
<path d="M36.7798 27.418C36.7798 27.418 36.3188 28.4553 36.3188 29.7233L36.7798 42.287C36.7798 42.287 37.0103 44.5923 34.9356 44.8229H27.2129" stroke="#979797" stroke-miterlimit="10"/>
<path d="M31.2462 25.803C31.5645 25.803 31.8226 25.545 31.8226 25.2267C31.8226 24.9084 31.5645 24.6504 31.2462 24.6504C30.9279 24.6504 30.6699 24.9084 30.6699 25.2267C30.6699 25.545 30.9279 25.803 31.2462 25.803Z" fill="#979797"/>
<path d="M31.9376 29.8382C32.2559 29.8382 32.514 29.5802 32.514 29.2619C32.514 28.9436 32.2559 28.6855 31.9376 28.6855C31.6194 28.6855 31.3613 28.9436 31.3613 29.2619C31.3613 29.5802 31.6194 29.8382 31.9376 29.8382Z" fill="#979797"/>
<path d="M32.5138 33.7571C32.8321 33.7571 33.0901 33.4991 33.0901 33.1808C33.0901 32.8625 32.8321 32.6045 32.5138 32.6045C32.1955 32.6045 31.9375 32.8625 31.9375 33.1808C31.9375 33.4991 32.1955 33.7571 32.5138 33.7571Z" fill="#979797"/>
<path d="M32.7443 37.6761C33.0626 37.6761 33.3206 37.4181 33.3206 37.0998C33.3206 36.7815 33.0626 36.5234 32.7443 36.5234C32.426 36.5234 32.168 36.7815 32.168 37.0998C32.168 37.4181 32.426 37.6761 32.7443 37.6761Z" fill="#979797"/>
<path d="M32.7443 41.595C33.0626 41.595 33.3206 41.337 33.3206 41.0187C33.3206 40.7004 33.0626 40.4424 32.7443 40.4424C32.426 40.4424 32.168 40.7004 32.168 41.0187C32.168 41.337 32.426 41.595 32.7443 41.595Z" fill="#979797"/>
<path d="M23.7541 25.803C24.0723 25.803 24.3304 25.545 24.3304 25.2267C24.3304 24.9084 24.0723 24.6504 23.7541 24.6504C23.4358 24.6504 23.1777 24.9084 23.1777 25.2267C23.1777 25.545 23.4358 25.803 23.7541 25.803Z" fill="#979797"/>
<path d="M23.0627 29.8382C23.3809 29.8382 23.639 29.5802 23.639 29.2619C23.639 28.9436 23.3809 28.6855 23.0627 28.6855C22.7444 28.6855 22.4863 28.9436 22.4863 29.2619C22.4863 29.5802 22.7444 29.8382 23.0627 29.8382Z" fill="#979797"/>
<path d="M22.4865 33.7571C22.8048 33.7571 23.0628 33.4991 23.0628 33.1808C23.0628 32.8625 22.8048 32.6045 22.4865 32.6045C22.1682 32.6045 21.9102 32.8625 21.9102 33.1808C21.9102 33.4991 22.1682 33.7571 22.4865 33.7571Z" fill="#979797"/>
<path d="M22.256 37.6761C22.5743 37.6761 22.8323 37.4181 22.8323 37.0998C22.8323 36.7815 22.5743 36.5234 22.256 36.5234C21.9377 36.5234 21.6797 36.7815 21.6797 37.0998C21.6797 37.4181 21.9377 37.6761 22.256 37.6761Z" fill="#979797"/>
<path d="M22.256 41.595C22.5743 41.595 22.8323 41.337 22.8323 41.0187C22.8323 40.7004 22.5743 40.4424 22.256 40.4424C21.9377 40.4424 21.6797 40.7004 21.6797 41.0187C21.6797 41.337 21.9377 41.595 22.256 41.595Z" fill="#979797"/>
</g>
<defs>
<clipPath id="clip0">
<rect width="55" height="55" fill="white"/>
</clipPath>
</defs>
</svg>
