<svg width="55" height="55" viewBox="0 0 55 55" fill="none" xmlns="http://www.w3.org/2000/svg">
<g clip-path="url(#clip0)">
<path d="M22.2441 14.1787C22.2441 16.7454 24.6886 18.7009 27.6219 18.7009C30.5553 18.7009 32.9997 16.6232 32.9997 14.1787" stroke="#979797" stroke-miterlimit="10"/>
<path d="M15.278 34.3449C14.9113 39.2338 15.0335 42.1671 15.0335 42.1671C16.6224 42.2893 29.578 42.9004 29.578 42.9004L29.0891 19.1893L28.478 18.8227L24.6891 12.2227L22.3669 14.056L22.1224 13.9338H21.878L19.5558 14.9115L16.2558 15.8893C16.2558 15.8893 15.7669 15.8893 15.1558 17.6004C15.1558 17.6004 12.1002 23.8338 9.16687 27.3782C9.16687 27.3782 8.8002 27.7449 9.16687 28.6004C9.16687 28.6004 11.4891 32.5115 12.1002 35.3227C12.1002 35.3227 14.3002 34.1004 18.4558 33.7338C18.4558 33.7338 18.2113 30.8004 18.3335 30.0671C18.3335 30.0671 18.4558 29.9449 18.4558 29.7004L16.1335 17.7227C16.1335 17.7227 15.8891 16.3782 16.378 15.8893" stroke="#979797" stroke-miterlimit="10" stroke-linejoin="round"/>
<path d="M27.5 17.1115L30.4333 12.2227L32.7556 14.056L32.8778 13.9338H33.1222L35.3222 14.9115L38.6222 15.8893C38.6222 15.8893 39.1111 15.8893 39.7222 17.6004C39.7222 17.6004 42.7778 23.8338 45.7111 27.3782C45.7111 27.3782 46.0778 27.7449 45.7111 28.6004C45.7111 28.6004 43.3889 32.5115 42.7778 35.3227C42.7778 35.3227 40.5778 34.1004 36.4222 33.7338C36.4222 33.7338 36.6667 30.8004 36.5444 30.0671C36.5444 30.0671 36.4222 29.9449 36.4222 29.7004L38.7444 17.7227C38.7444 17.7227 38.9889 16.3782 38.5 15.8893" stroke="#979797" stroke-miterlimit="10" stroke-linejoin="round"/>
<path d="M24.6895 12.2227C24.6895 12.2227 27.3783 14.3004 30.4339 12.2227" stroke="#979797" stroke-miterlimit="10"/>
<path d="M10.6328 31.4118C10.6328 31.4118 11.4884 30.8007 18.3328 30.0674" stroke="#979797" stroke-miterlimit="10"/>
<path d="M44.366 31.4118C44.366 31.4118 43.5105 30.8007 36.666 30.0674" stroke="#979797" stroke-miterlimit="10"/>
<path d="M29.5781 42.5336C29.5781 42.5336 38.3781 42.4114 40.2115 42.0447C40.2115 42.0447 40.2115 37.8892 39.8448 34.3447" stroke="#979797" stroke-miterlimit="10"/>
<path d="M26.5332 21.5342C26.8093 21.5342 27.0332 21.3103 27.0332 21.0342C27.0332 20.758 26.8093 20.5342 26.5332 20.5342C26.2571 20.5342 26.0332 20.758 26.0332 21.0342C26.0332 21.3103 26.2571 21.5342 26.5332 21.5342Z" fill="#979797"/>
<path d="M26.7773 29.3564C27.0535 29.3564 27.2773 29.1326 27.2773 28.8564C27.2773 28.5803 27.0535 28.3564 26.7773 28.3564C26.5012 28.3564 26.2773 28.5803 26.2773 28.8564C26.2773 29.1326 26.5012 29.3564 26.7773 29.3564Z" fill="#979797"/>
<path d="M26.9004 38.1562C27.1765 38.1562 27.4004 37.9324 27.4004 37.6562C27.4004 37.3801 27.1765 37.1562 26.9004 37.1562C26.6242 37.1562 26.4004 37.3801 26.4004 37.6562C26.4004 37.9324 26.6242 38.1562 26.9004 38.1562Z" fill="#979797"/>
</g>
<defs>
<clipPath id="clip0">
<rect width="55" height="55" fill="white"/>
</clipPath>
</defs>
</svg>
