<svg width="55" height="55" viewBox="0 0 55 55" fill="none" xmlns="http://www.w3.org/2000/svg">
<g clip-path="url(#clip0)">
<path d="M27.5013 34.9556C26.1569 34.9556 25.0569 36.0556 25.0569 37.4V41.3112C25.0569 43.1445 23.5902 44.4889 21.8791 44.4889C20.0458 44.4889 18.7013 43.0223 18.7013 41.3112V22.3667C20.9013 17.8445 16.9902 13.3223 16.9902 13.3223" stroke="#979797" stroke-miterlimit="10"/>
<path d="M18.5784 22.3664L14.3006 27.3775L10.5117 24.8108L16.7451 13.4442L22.2451 10.6331C22.2451 10.6331 22.7339 10.3886 23.2228 10.6331C23.2228 10.6331 24.4444 12 27.5 12" stroke="#979797" stroke-miterlimit="10"/>
<path d="M27.6227 15.5219C27.6227 15.5219 22.3672 14.4219 22.3672 10.5107" stroke="#979797" stroke-miterlimit="10"/>
<path d="M27.5 34.9556C28.8444 34.9556 29.9444 36.0556 29.9444 37.4V41.3112C29.9444 43.1445 31.4111 44.4889 33.1222 44.4889C34.9556 44.4889 36.3 43.0223 36.3 41.3112V22.3667C34.1 17.8445 38.0111 13.3223 38.0111 13.3223" stroke="#979797" stroke-miterlimit="10"/>
<path d="M27.5 12C30.5556 12 31.9008 10.511 31.9008 10.511C32.3897 10.2665 32.8786 10.511 32.8786 10.511L38.3786 13.3221L44.6119 24.6888L40.823 27.2554L36.5 22.5" stroke="#979797" stroke-miterlimit="10"/>
<path d="M32.6342 10.3887C32.6342 14.2998 27.5 15.5 27.5 15.5" stroke="#979797" stroke-miterlimit="10"/>
<path d="M27.623 15.5225V31.6558" stroke="#979797" stroke-miterlimit="10"/>
</g>
<defs>
<clipPath id="clip0">
<rect width="55" height="55" fill="white"/>
</clipPath>
</defs>
</svg>
