<svg width="55" height="55" viewBox="0 0 55 55" fill="none" xmlns="http://www.w3.org/2000/svg">
<g clip-path="url(#clip0)">
<path d="M29.9079 7.35777L31.3746 7.22332C31.3746 7.22332 31.5335 7.03999 31.5579 7.40666C31.5823 7.77332 31.5212 8.81221 31.5212 8.81221C31.5212 8.81221 31.729 8.82443 31.729 9.21555C31.7168 9.60666 31.9368 11.4767 32.4868 11.5622C33.0368 11.6355 33.6601 12.21 33.7335 12.8211C33.8068 13.4322 33.8068 14.6911 33.489 15.0455C33.1712 15.4 32.9879 15.5222 32.9879 15.5222L33.3912 17.4289C33.3912 17.4289 34.1001 17.4167 34.3446 18.1011C34.6012 18.7855 36.569 30.5922 36.6301 31.7044C36.7157 33.3544 36.5446 34.8333 36.899 36.4589C37.2657 38.1211 37.5712 39.7955 37.8279 41.47C38.1212 43.3767 38.0479 45.2955 38.0112 47.2144C37.9746 48.51 38.4146 51.0644 37.7668 52.2622C37.7057 52.3844 37.2657 51.6389 35.9212 51.5167C34.5768 51.3822 33.1712 51.7 32.7923 52.1522C32.4135 52.6044 32.2546 52.69 32.0468 52.4333C31.839 52.1889 31.5457 51.9322 31.5946 51.0155C31.8146 47.4955 31.3257 44.4278 30.1768 41.1033C29.8101 40.0522 29.5779 37.7544 29.3457 37.1678C29.1135 36.5811 28.7468 32.7555 28.6246 32.4378C28.5146 32.1322 28.0868 29.92 27.6346 29.9322C27.1701 29.9444 26.999 29.8467 27.0723 30.2255C27.1579 30.5922 27.2679 31.7167 26.9746 32.7555C26.6812 33.8067 26.5468 34.9922 26.4857 35.6767C26.4246 36.3611 26.6812 36.8255 26.4368 37.4122C26.1923 37.9989 25.7768 38.17 25.6057 39.1233C25.4346 40.0767 25.239 40.5778 24.9457 41.4455C24.4935 42.7411 24.6279 44.1589 24.2979 45.4789C24.0046 46.6644 23.5035 47.6544 23.5401 48.9133C23.5646 49.6955 23.8823 50.6244 23.4179 51.1989C22.9535 51.7733 23.2468 52.5678 22.5623 52.4578C21.8779 52.3478 20.3012 50.8078 19.2868 50.9178C18.2723 51.0278 18.0523 51.5411 17.539 51.7611C17.0257 51.9811 17.2579 51.9811 17.0135 51.0155C16.769 50.05 16.9157 49.5 17.099 48.0822C17.2823 46.6644 16.9646 44.7822 17.3679 43.6944C17.7712 42.6067 17.759 39.7222 18.1623 38.5367C18.5657 37.3511 18.639 34.8333 18.7857 34.3811C18.9323 33.9289 18.8346 31.1789 18.9935 30.5433C19.1523 29.9078 19.4212 23.5889 19.5923 22.5011C19.7635 21.4011 20.3257 17.71 20.4723 17.5267C20.619 17.3433 20.4723 17.3922 20.8879 17.27C21.3035 17.1478 21.4257 15.9622 21.4868 15.6811C21.5357 15.4122 20.9857 14.1044 20.9001 13.6889C20.8146 13.2733 20.8635 11.6722 21.1568 11.2689C21.4379 10.8655 21.7679 10.8289 22.0001 10.56C22.2323 10.2911 22.4401 9.65555 22.4646 8.92221C22.489 8.18888 22.1468 7.35777 22.3668 7.35777C22.599 7.36999 24.1635 7.18666 24.1635 7.18666C24.1635 7.18666 24.2246 9.80221 24.6279 9.89999C24.799 9.94888 25.8257 10.0955 26.6323 10.1444C26.7057 10.1444 26.559 18.4678 26.9379 21.89C27.0601 22.9289 27.4512 22.4155 27.4757 22.4155C27.6712 22.4278 27.1701 10.1078 27.3657 10.12C28.1723 10.1567 28.7712 10.1444 29.0768 10.0833C29.8101 9.91221 29.9079 7.35777 29.9079 7.35777Z" stroke="#979797" stroke-miterlimit="10" stroke-linecap="round" stroke-linejoin="round"/>
<path d="M31.5704 6.8932L29.9082 6.68542C29.9082 6.68542 30.4093 5.18209 30.5315 4.99875C30.6538 4.8032 31.546 2.79875 31.656 2.68875C31.766 2.59098 32.756 3.40987 32.8782 3.50764C33.0004 3.60542 33.086 3.5932 33.0493 3.72764C33.0126 3.86209 31.5949 6.66098 31.5704 6.8932Z" stroke="#979797" stroke-miterlimit="10" stroke-linecap="round" stroke-linejoin="round"/>
<path d="M23.5655 2.44434C23.5655 2.44434 22.4899 2.73767 22.3188 2.78656C22.1477 2.84767 21.9888 2.72545 21.9399 3.031C21.9032 3.33656 22.0377 4.021 22.0499 4.351C22.0744 4.66878 22.1721 6.36767 22.2577 6.57545C22.3432 6.771 22.5999 6.79545 22.7832 6.80767C22.9666 6.80767 24.1032 6.771 24.1644 6.63656C24.2255 6.50211 24.1277 6.13545 24.1888 5.96434C24.2499 5.79322 23.8955 2.45656 23.5655 2.44434Z" stroke="#979797" stroke-miterlimit="10" stroke-linecap="round" stroke-linejoin="round"/>
<path d="M32.2905 6.05005C32.2905 6.05005 31.9971 6.80783 31.9483 6.9056C31.8994 7.00338 31.7894 7.68783 31.9238 7.68783C32.0583 7.68783 32.1071 7.61449 32.2538 7.40672C32.4005 7.19894 32.9383 6.11116 32.2905 6.05005Z" stroke="#979797" stroke-miterlimit="10" stroke-linecap="round" stroke-linejoin="round"/>
<path d="M21.671 7.93216C21.671 7.93216 21.7932 7.13772 21.8177 7.02772C21.8421 6.91772 21.8054 6.23327 21.671 6.25772C21.5365 6.28216 21.5121 6.36772 21.4143 6.59994C21.3165 6.83216 21.0354 8.01772 21.671 7.93216Z" stroke="#979797" stroke-miterlimit="10" stroke-linecap="round" stroke-linejoin="round"/>
<path d="M37.2413 38.1944C37.2413 38.1944 33.5502 37.2533 32.0591 37.6933C30.568 38.1333 29.6758 38.7078 29.6758 38.7078" stroke="#979797" stroke-miterlimit="10" stroke-linecap="round" stroke-linejoin="round"/>
<path d="M25.6059 39.1234C25.6059 39.1234 23.2715 38.5001 22.0859 38.4756C20.9004 38.4634 18.2726 38.0967 18.1504 38.5367" stroke="#979797" stroke-miterlimit="10" stroke-linecap="round" stroke-linejoin="round"/>
<path d="M35.2725 22.6477L32.1191 23.1121C32.1191 23.1121 32.3147 29.8955 36.5436 30.2499" stroke="#979797" stroke-miterlimit="10" stroke-linecap="round" stroke-linejoin="round"/>
<path d="M19.6163 22.2566L23.063 22.9777C23.063 22.9777 21.743 29.0155 19.1152 29.2477" stroke="#979797" stroke-miterlimit="10" stroke-linecap="round" stroke-linejoin="round"/>
<path d="M27.2676 22.5376L27.6342 29.9198" stroke="#979797" stroke-miterlimit="10" stroke-linecap="round" stroke-linejoin="round"/>
<path d="M32.9757 15.5098C32.9757 15.5098 27.8179 15.742 27.4023 15.6809" stroke="#979797" stroke-miterlimit="10" stroke-linecap="round" stroke-linejoin="round"/>
<path d="M33.3798 17.4165C33.3798 17.4165 27.9409 17.8321 27.5254 17.7709" stroke="#979797" stroke-miterlimit="10" stroke-linecap="round" stroke-linejoin="round"/>
<path d="M21.4863 15.6809C21.4863 15.6809 25.7274 15.852 26.6808 15.6809" stroke="#979797" stroke-miterlimit="10" stroke-linecap="round" stroke-linejoin="round"/>
<path d="M20.8887 17.2578C20.8887 17.2578 25.6553 17.8567 26.682 17.7711" stroke="#979797" stroke-miterlimit="10" stroke-linecap="round" stroke-linejoin="round"/>
</g>
<defs>
<clipPath id="clip0">
<rect width="55" height="55" fill="white"/>
</clipPath>
</defs>
</svg>
