<svg width="55" height="55" viewBox="0 0 55 55" fill="none" xmlns="http://www.w3.org/2000/svg">
<g clip-path="url(#clip0)">
<path d="M23.1404 16.1496C22.7451 15.9636 22.2917 15.8822 21.8616 15.9868C21.2803 16.138 20.8501 16.6379 20.5246 17.1378C20.1991 17.6261 19.9084 18.1841 19.8968 18.7654C19.8852 19.3583 20.1991 19.9861 20.7687 20.1721C20.9431 20.2302 21.164 20.2535 21.2454 20.4279C20.9896 20.4976 20.7339 20.5674 20.4781 20.6371C20.4548 20.6488 20.42 20.6604 20.4083 20.6836C20.4083 20.6953 20.4083 20.7069 20.42 20.7301C20.5478 20.9975 20.8966 21.1487 21.1756 21.0557C21.4547 20.9627 21.6872 20.6953 21.9662 20.7534C22.1057 20.7883 22.2103 20.8929 22.315 21.0092C22.408 21.1138 22.5126 21.2301 22.6521 21.2766C22.8846 21.3347 23.059 21.1254 23.0125 20.9278C22.966 20.7069 22.687 20.579 22.7102 20.3349C22.7335 20.1256 22.9311 19.9861 23.0358 19.8117C23.1404 19.6257 23.1288 19.4048 23.1288 19.1955C23.0939 18.1608 23.1055 17.161 23.1404 16.1496Z" stroke="#979797" stroke-miterlimit="10"/>
<path d="M30.3594 16.289C30.7547 16.1029 31.4638 15.882 31.894 15.9867C32.4753 16.1378 32.9054 16.6377 33.231 17.1376C33.5565 17.6259 33.8471 18.184 33.8587 18.7652C33.8704 19.3582 33.5565 19.986 32.9868 20.172C32.8124 20.2301 32.5915 20.2534 32.5102 20.4277C32.7659 20.4975 33.0217 20.5672 33.2775 20.637C33.3007 20.6486 33.3356 20.6603 33.3472 20.6835C33.3472 20.6951 33.3472 20.7068 33.3356 20.73C33.2077 20.9974 32.8589 21.1485 32.5799 21.0555C32.3009 20.9625 32.0684 20.6951 31.7894 20.7533C31.6498 20.7881 31.5452 20.8928 31.4406 21.009C31.3476 21.1137 31.2429 21.2299 31.1034 21.2764C30.8709 21.3345 30.6965 21.1253 30.743 20.9276C30.7895 20.7068 31.0685 20.5789 31.0453 20.3347C31.022 20.1255 30.8244 19.986 30.7198 19.8116C30.6151 19.6256 30.7895 19.3 30.8012 19.0791C30.8244 18.0561 30.4059 17.3004 30.3594 16.289Z" stroke="#979797" stroke-miterlimit="10"/>
<path d="M30.3481 18.8004C30.29 18.1959 30.0807 16.5101 30.0226 16.4171C29.8947 16.1962 29.6041 16.3706 29.3483 16.2776C29.4413 17.196 29.325 19.2771 29.2669 19.3119C26.9301 20.707 24.4073 19.2073 24.4073 19.2073C24.4073 19.2073 24.2678 17.2193 24.2329 16.2195C24.012 16.1846 23.7912 16.1613 23.5703 16.1265C23.4656 18.3586 23.454 20.6024 23.8028 22.8113C23.8958 23.3926 24.012 23.9855 24.0004 24.5668C24.0004 24.7063 23.9888 24.8458 24.0237 24.9853C24.0702 25.1946 24.2213 25.3806 24.3957 25.5434C24.9072 26.02 25.6048 26.299 26.2791 26.5548C26.4535 26.6246 26.6278 26.6943 26.8139 26.7176C26.9766 26.7408 27.151 26.7292 27.3254 26.7059C27.9997 26.6129 28.6275 26.3107 29.0925 25.8456C29.3018 25.6364 29.4762 25.3922 29.5808 25.1248C29.6854 24.8342 29.6854 24.5203 29.6971 24.218C29.7319 23.4158 29.8133 22.6137 29.9528 21.8231C30.0226 21.4511 30.0691 21.0558 30.197 20.6838C30.2783 20.4396 30.3946 19.2654 30.3481 18.8004Z" stroke="#979797" stroke-miterlimit="10"/>
<path d="M29.7686 25.7643C29.6872 25.7294 28.7339 27.2175 27.2226 27.2524C26.4436 27.3338 23.7348 25.7643 23.7116 25.5434C23.6883 25.3225 20.4447 27.6709 19.5844 28.6126C18.7241 29.5659 17.143 31.8097 16.9802 32.484C16.8175 33.1583 22.1072 31.6353 23.4674 30.1937C23.3163 30.5192 25.3508 34.9835 27.49 35.1463C29.4315 35.0068 31.1521 31.9143 30.4313 30.0426C30.2918 29.6822 30.6754 30.496 30.7336 30.5657C32.2449 33.1583 36.8139 33.9372 36.8139 33.9372C36.8139 33.9372 32.989 26.9966 29.7686 25.7643Z" stroke="#979797" stroke-miterlimit="10"/>
<path d="M10.4572 45.0861C10.3177 45.5046 10.155 45.9347 10.2015 46.3765C10.3642 48.0506 12.2941 47.5507 13.5962 48.0971C17.4676 49.7131 17.5838 50.6083 20.3857 50.8641C25.6987 51.3407 31.1512 51.5849 36.6385 49.9805C36.8362 49.9224 37.0571 49.9573 37.2547 49.934C37.7197 49.8875 38.1964 49.7829 38.58 49.5155C38.8126 49.3527 38.9986 49.1318 39.0451 48.8528C39.1148 48.3994 38.9869 48.0623 39.4985 47.853C39.9519 47.6786 40.4402 47.667 40.9168 47.5507C41.3819 47.4345 41.8701 47.1671 41.998 46.702C42.0678 46.423 42.0097 46.1324 41.9399 45.865C41.1261 42.4703 38.7312 35.7505 37.0222 34.4252C34.8017 34.8554 32.244 33.2045 31.3023 32.2628C30.9535 33.5649 29.5235 35.7389 28.2098 35.9482C24.6407 36.0877 23.7804 32.7162 23.141 31.635C23.234 31.7978 17.3281 34.9949 16.6887 32.9371C16.7003 32.9371 11.5617 41.6448 10.4572 45.0861Z" stroke="#979797" stroke-miterlimit="10"/>
<path d="M29.1869 13.0573C29.1869 13.0573 29.0706 11.9761 28.3033 11.8598C27.536 11.7435 26.9315 11.8017 26.7222 12.0342C26.5129 12.2667 26.5129 12.2667 26.5129 12.2667C26.5129 12.2667 26.1874 11.7668 25.8735 11.6854C25.548 11.5924 25.4899 11.6854 25.4899 11.6854L25.1992 11.7784L29.8844 2.72192L29.1869 13.0573Z" stroke="#979797" stroke-miterlimit="10"/>
<path d="M30.4184 1.22217V1.97785L31.1509 2.21036L30.4301 2.4545V3.21018L29.9767 2.59401L29.2559 2.83815L29.6976 2.22199L29.2559 1.60582L29.9767 1.83834L30.4184 1.22217Z" stroke="#979797" stroke-miterlimit="10"/>
<path d="M29.8946 2.72192C29.8946 2.72192 29.8132 6.13991 35.103 7.34899C40.3927 8.55808 41.7297 7.83728 43.2643 8.48832C44.7989 9.13937 46.4032 10.9414 46.5893 11.1041C46.7869 11.2669 47.3449 11.79 48.8098 11.1041C48.8098 11.1041 49.4259 12.5457 47.7983 13.2549C46.1707 13.9757 45.5429 15.115 45.1244 15.4057C44.6942 15.6963 42.5086 14.2315 41.6018 13.0573C40.6833 11.8831 40.3229 10.8019 37.3932 10.8367C34.4519 10.8716 29.9992 7.7559 29.8946 2.72192Z" stroke="#979797" stroke-miterlimit="10"/>
</g>
<defs>
<clipPath id="clip0">
<rect width="55" height="55" fill="white"/>
</clipPath>
</defs>
</svg>
