<svg width="55" height="55" viewBox="0 0 55 55" fill="none" xmlns="http://www.w3.org/2000/svg">
<g clip-path="url(#clip0)">
<path d="M24.6897 50.7587C25.1663 50.5265 24.6897 44.8554 24.6897 44.8554V40.4187C24.6897 40.4187 24.8119 37.9132 24.8486 37.6076C24.8852 37.3021 24.9586 34.7599 24.9952 34.5276C25.0319 34.2954 25.1052 31.0321 25.4352 30.9832C26.2419 30.8732 28.6986 39.0987 28.9797 40.1987C29.5663 42.4843 30.5808 44.6476 31.1308 46.9332C31.3508 47.8499 31.4852 51.4799 32.6586 51.7243C36.1908 52.4576 36.1541 51.1499 36.1541 51.1499C35.763 45.8943 33.7463 40.8832 33.2452 35.6154C33.2086 35.2243 32.6708 28.4776 32.1575 26.6321C32.1575 26.6321 28.9919 27.341 25.5819 26.8154C23.003 26.4976 21.4019 26.1187 19.9841 24.2732C20.0697 24.3832 19.4586 25.7887 19.4097 25.9476C19.0063 27.4265 18.7863 28.9665 18.8597 30.4943C19.0063 33.5621 19.4463 36.5932 19.813 39.6365C20.2775 43.4132 20.4486 46.9821 20.2408 50.771C20.2408 50.7465 21.2919 52.4576 24.6897 50.7587Z" stroke="#979797" stroke-miterlimit="10" stroke-linecap="round" stroke-linejoin="round"/>
<path d="M35.8723 8.18874C35.7134 6.9054 35.6767 5.46318 35.0289 4.31429C34.2956 3.00652 32.4256 3.10429 31.0934 3.06763C31.0934 3.06763 29.81 4.38763 27.9767 4.85207L28.4534 9.00763H27.5L26.9378 5.01096C25.9356 5.05985 24.8234 4.80318 23.6989 3.95985C23.4667 3.78874 21.6212 4.66874 21.3278 4.80318C20.5212 5.18207 19.7145 5.71985 19.4212 6.61207C18.8712 8.27429 18.8956 10.4865 18.8956 12.2343C18.8956 12.8698 20.1912 13.0532 21.1323 13.2365C21.4256 13.2976 21.3767 11.7454 21.5723 11.7454C21.9878 11.7454 22.0489 15.0087 21.8534 15.7054C21.67 16.4021 21.8534 16.3165 20.9123 17.5021C19.9712 18.6754 18.5167 20.3132 18.8956 20.7654C19.2745 21.2054 19.3967 22.9776 21.9878 24.3587C24.5789 25.7521 29.1256 25.7521 30.3234 25.5565C30.58 25.5198 31.5945 25.4587 32.3523 25.2998C32.8534 25.1898 33.2445 25.0432 33.22 24.8232C33.22 24.7987 32.9023 21.2054 32.9023 21.2054V17.1598L33.0245 12.4298C33.0245 12.4298 32.9634 10.8287 33.2567 10.8287C33.3789 10.8287 33.4278 12.4543 33.5623 12.4543C34.2223 12.4421 35.4078 12.381 35.7989 12.2465C36.52 11.9532 35.9334 8.68985 35.8723 8.18874Z" stroke="#979797" stroke-miterlimit="10"/>
</g>
<defs>
<clipPath id="clip0">
<rect width="55" height="55" fill="white"/>
</clipPath>
</defs>
</svg>
