<svg width="55" height="55" viewBox="0 0 55 55" fill="none" xmlns="http://www.w3.org/2000/svg">
<g clip-path="url(#clip0)">
<path d="M18.699 23.1006L18.0879 43.3895H26.0323L26.2768 40.7006C26.5212 39.6006 27.6212 39.6006 27.6212 39.6006" stroke="#979797" stroke-miterlimit="10"/>
<path d="M27.4997 12.9558C27.4997 12.9558 24.1997 13.2002 21.5108 11.6113L16.8664 14.3002L16.7441 14.6669C20.0441 17.3558 18.6997 23.1002 18.6997 23.1002" stroke="#979797" stroke-miterlimit="10"/>
<path d="M27.5006 16.7447C27.5006 16.7447 23.1006 17.2335 21.5117 11.6113" stroke="#979797" stroke-miterlimit="10"/>
<path d="M36.2992 23.1006L36.9103 43.3895H28.9658L28.7214 40.7006C28.477 39.6006 27.377 39.6006 27.377 39.6006" stroke="#979797" stroke-miterlimit="10"/>
<path d="M27.5 12.9558C27.5 12.9558 30.8 13.2002 33.4889 11.6113L38.1333 14.3002L38.3778 14.7891C35.0778 17.478 36.4222 23.2224 36.4222 23.2224" stroke="#979797" stroke-miterlimit="10" stroke-linejoin="round"/>
<path d="M27.5 16.7447C27.5 16.7447 31.9 17.2335 33.4889 11.6113" stroke="#979797" stroke-miterlimit="10"/>
</g>
<defs>
<clipPath id="clip0">
<rect width="55" height="55" fill="white"/>
</clipPath>
</defs>
</svg>
