<svg width="55" height="55" viewBox="0 0 55 55" fill="none" xmlns="http://www.w3.org/2000/svg">
<g clip-path="url(#clip0)">
<path d="M21.432 22.624C21.432 22.624 21.1731 23.5302 18.584 25.2132L14.053 27.5434C14.053 27.5434 9.91031 29.4853 11.4638 34.0163C13.0173 38.5473 17.5483 37.5116 17.5483 37.5116L22.8561 34.9225" stroke="#979797" stroke-miterlimit="10"/>
<path d="M31.4013 25.3418C31.4013 25.3418 31.2718 26.3775 29.071 28.4488L25.0578 31.4263C25.0578 31.4263 21.3036 34.1449 23.7633 38.1581C26.223 42.1713 30.3656 40.4883 30.3656 40.4883L38.6509 34.2744C38.6509 34.2744 41.24 32.462 40.8517 28.5782" stroke="#979797" stroke-miterlimit="10"/>
<path d="M40.5906 28.5788L31.5286 25.4718C30.234 25.0834 29.5867 23.6594 30.1045 22.3648L31.0107 19.7756C31.3991 18.4811 32.8232 17.8338 34.1177 18.3516L43.1798 21.4586C44.4743 21.847 45.1216 23.271 44.6038 24.5656L43.6976 27.1547C43.1798 28.3198 41.8852 28.9671 40.5906 28.5788Z" stroke="#979797" stroke-miterlimit="10"/>
<path d="M29.5892 27.543L21.304 22.753C20.1388 22.1057 19.7505 20.5522 20.3978 19.5166L21.8218 17.0569C22.4691 15.8918 24.0226 15.5034 25.0582 16.1507L31.0133 19.5166" stroke="#979797" stroke-miterlimit="10"/>
</g>
<defs>
<clipPath id="clip0">
<rect width="55" height="55" fill="white"/>
</clipPath>
</defs>
</svg>
