<svg width="45" height="45" viewBox="0 0 45 45" fill="none" xmlns="http://www.w3.org/2000/svg">
<g clip-path="url(#clip0)">
<path d="M25.75 16.23C26.56 15.35 27.63 14.41 28.65 14.16C30.7 13.65 32.18 12.75 32.18 12.75C32.18 12.75 32.88 15.91 32.75 17.92C32.7 18.63 32.74 18.73 32.53 19.29" stroke="#979797" stroke-miterlimit="10"/>
<path d="M21.5306 16.18C20.7206 15.32 19.6806 14.41 18.6806 14.16C16.6306 13.65 15.1506 12.75 15.1506 12.75C15.1506 12.75 14.4506 15.91 14.5806 17.92C14.6406 18.92 14.7806 19.39 15.0806 20.06" stroke="#979797" stroke-miterlimit="10"/>
<path d="M9.54008 30.8599C12.2101 31.6499 14.2601 33.2999 16.4601 34.6699C17.7201 35.4499 19.1201 36.1099 20.7401 36.2099C23.2601 36.3699 25.7601 35.2499 28.0601 34.5799C29.5701 34.1399 31.2001 33.7999 32.8201 33.9399C34.4801 34.0799 35.9701 34.6899 37.6801 34.2799C39.3801 33.8799 41.2401 32.9099 42.1501 31.5999C42.0701 31.4099 41.9901 31.2299 41.9201 31.0599C40.4301 27.5699 38.1001 24.3599 35.4601 21.6899C32.7501 18.9599 29.4301 16.6399 25.6401 15.8899C25.6401 15.8899 25.4701 15.9299 25.2101 15.9899C25.1101 16.0099 28.3301 17.8099 28.8801 20.5499C27.8101 17.9899 24.8701 16.0699 24.3901 16.1599C24.1601 16.2099 23.3101 16.3199 23.1501 16.3199C23.0201 16.3199 22.8801 16.2999 22.7401 16.2799C22.5901 16.2499 17.4401 20.4599 17.2401 22.9599C17.1801 20.3399 22.1401 16.1199 22.0701 16.0899C21.7801 15.9899 21.5701 15.8899 21.5701 15.8899C21.5701 15.8899 17.6901 15.8799 11.9901 23.8299C9.74008 26.9799 7.22008 28.9299 5.33008 30.0799C6.67008 30.5499 8.16008 30.4599 9.54008 30.8599Z" stroke="#979797" stroke-miterlimit="10"/>
<path d="M42.4701 32.4899C41.7701 34.0999 39.6201 35.2999 37.6701 35.7599C35.9701 36.1599 34.4701 35.5599 32.8101 35.4199C31.2001 35.2799 29.5601 35.6199 28.0501 36.0599C25.7501 36.7299 23.2501 37.8499 20.7301 37.6899C19.1101 37.5899 17.7101 36.9299 16.4501 36.1499C14.2401 34.7799 12.1901 33.1199 9.53008 32.3399C8.06008 31.9099 6.45008 32.0399 5.03008 31.4599C4.64008 31.2999 4.28008 31.0799 3.93008 30.8599C2.95008 31.3399 2.34008 31.5299 2.33008 31.5299C3.35008 31.9099 4.08008 32.8099 5.03008 33.3099C6.45008 34.0599 8.06008 33.8799 9.53008 34.4299C12.2001 35.4299 14.2501 37.5499 16.4501 39.2899C17.7101 40.2899 19.1101 41.1299 20.7301 41.2499C23.2501 41.4499 25.7501 40.0199 28.0501 39.1699C29.5601 38.6099 31.1901 38.1799 32.8101 38.3599C34.4701 38.5399 35.9601 39.3099 37.6701 38.7999C39.7801 38.1699 42.1501 36.3999 42.6201 34.0799C42.7301 33.5699 42.6401 33.0199 42.4701 32.4899Z" stroke="#979797" stroke-miterlimit="10"/>
<path d="M20.1503 11.32C20.6003 12.25 20.9903 13.19 21.0903 14.23C21.0903 14.23 21.2703 15.03 23.5103 15.03C25.7503 15.03 25.9403 14.23 25.9403 14.23C25.9503 14.17 25.9603 14.11 25.9703 14.05C25.9803 14 25.9903 13.96 25.9903 13.91C26.2103 12.62 26.7803 11.46 27.4203 10.33C27.5803 10.05 27.5803 9.87998 27.3503 9.63998C26.4903 8.69998 26.4803 7.53998 26.5703 6.34998L26.5803 6.05998C26.6303 5.43998 26.6803 4.94998 26.7303 4.35998V4.08998L26.7603 3.81998L26.1703 3.72998L26.0903 4.40998C26.0303 4.85998 25.9603 5.36998 25.8803 5.86998L25.7803 6.42998C25.5903 7.23998 25.4403 8.06998 24.8503 8.70998C24.1003 9.52998 22.6003 9.39998 22.0003 8.46998C21.6103 7.86998 21.4403 7.17998 21.2703 6.42998L21.1703 5.88998C21.0903 5.47998 20.9803 4.85998 20.9803 4.64998C20.9803 4.43998 20.9703 4.04998 20.9703 4.04998C20.6903 4.12998 20.5503 4.15998 20.2703 4.22998L20.3203 4.57998C20.3603 5.08998 20.4103 5.55998 20.4503 6.07998C20.4503 6.07998 20.4603 6.50998 20.4703 6.53998C20.5603 7.68998 20.4803 8.80998 19.6303 9.70998C19.4403 9.90998 19.4503 10.06 19.5903 10.28C19.8003 10.61 19.9803 10.96 20.1503 11.32Z" stroke="#979797" stroke-miterlimit="10"/>
</g>
<defs>
<clipPath id="clip0">
<rect width="45" height="45" fill="white"/>
</clipPath>
</defs>
</svg>
