<svg width="55" height="55" viewBox="0 0 55 55" fill="none" xmlns="http://www.w3.org/2000/svg">
<g clip-path="url(#clip0)">
<path d="M27.3888 19.76C27.6413 19.76 27.8459 19.5553 27.8459 19.3028C27.8459 19.0504 27.6413 18.8457 27.3888 18.8457C27.1363 18.8457 26.9316 19.0504 26.9316 19.3028C26.9316 19.5553 27.1363 19.76 27.3888 19.76Z" fill="#979797"/>
<path d="M27.3888 23.303C27.6413 23.303 27.8459 23.0983 27.8459 22.8458C27.8459 22.5933 27.6413 22.3887 27.3888 22.3887C27.1363 22.3887 26.9316 22.5933 26.9316 22.8458C26.9316 23.0983 27.1363 23.303 27.3888 23.303Z" fill="#979797"/>
<path d="M27.3888 26.8459C27.6413 26.8459 27.8459 26.6413 27.8459 26.3888C27.8459 26.1363 27.6413 25.9316 27.3888 25.9316C27.1363 25.9316 26.9316 26.1363 26.9316 26.3888C26.9316 26.6413 27.1363 26.8459 27.3888 26.8459Z" fill="#979797"/>
<path d="M27.3888 30.3889C27.6413 30.3889 27.8459 30.1842 27.8459 29.9318C27.8459 29.6793 27.6413 29.4746 27.3888 29.4746C27.1363 29.4746 26.9316 29.6793 26.9316 29.9318C26.9316 30.1842 27.1363 30.3889 27.3888 30.3889Z" fill="#979797"/>
<path d="M27.3888 33.8166C27.6413 33.8166 27.8459 33.612 27.8459 33.3595C27.8459 33.107 27.6413 32.9023 27.3888 32.9023C27.1363 32.9023 26.9316 33.107 26.9316 33.3595C26.9316 33.612 27.1363 33.8166 27.3888 33.8166Z" fill="#979797"/>
<path d="M27.3888 37.3606C27.6413 37.3606 27.8459 37.1559 27.8459 36.9034C27.8459 36.651 27.6413 36.4463 27.3888 36.4463C27.1363 36.4463 26.9316 36.651 26.9316 36.9034C26.9316 37.1559 27.1363 37.3606 27.3888 37.3606Z" fill="#979797"/>
<path d="M18.4744 22.1601L14.9315 24.3315L11.3887 17.9315L22.2458 10.3887C23.6172 11.5315 26.9315 11.5315 26.9315 11.5315H27.8458C27.8458 11.5315 31.1601 11.5315 32.5315 10.3887L43.3887 17.9315L39.8458 24.3315L36.303 22.1601" stroke="#979797" stroke-miterlimit="10" stroke-linejoin="round"/>
<path d="M18.4744 15.3028C18.4744 15.3028 19.3887 18.1599 18.2458 24.217L15.3887 40.5599C15.3887 40.5599 19.8458 42.3885 27.1601 42.3885H27.6172C34.9315 42.3885 39.3887 40.5599 39.3887 40.5599L36.5315 24.1028C35.3887 18.0456 36.303 15.1885 36.303 15.1885" stroke="#979797" stroke-miterlimit="10" stroke-linejoin="round"/>
<path d="M19.7305 12.1029C19.7305 12.1029 20.3019 17.2458 23.8448 17.9315C27.3876 18.6172 27.3876 14.96 27.3876 14.96C22.9305 14.7315 22.0162 10.6172 22.0162 10.6172" stroke="#979797" stroke-miterlimit="10" stroke-linejoin="round"/>
<path d="M35.0458 12.1029C35.0458 12.1029 34.4744 17.2458 30.9315 17.9315C27.3887 18.6172 27.3887 14.96 27.3887 14.96C31.8458 14.7315 32.7601 10.6172 32.7601 10.6172" stroke="#979797" stroke-miterlimit="10" stroke-linejoin="round"/>
<path d="M25.5605 19.3027V42.3885" stroke="#979797" stroke-miterlimit="10" stroke-linejoin="round"/>
<path d="M29.2168 19.3027V42.3885" stroke="#979797" stroke-miterlimit="10" stroke-linejoin="round"/>
</g>
<defs>
<clipPath id="clip0">
<rect width="55" height="55" fill="white"/>
</clipPath>
</defs>
</svg>
