<svg width="55" height="55" viewBox="0 0 55 55" fill="none" xmlns="http://www.w3.org/2000/svg">
<g clip-path="url(#clip0)">
<path d="M17.6649 24.8665C17.6649 24.8665 19.1729 18.0225 15.4609 15.3545" stroke="#979797" stroke-miterlimit="10"/>
<path d="M27.6401 17.3267C27.6401 17.3267 22.6521 17.7907 20.9121 12.2227" stroke="#979797" stroke-miterlimit="10"/>
<path d="M27.6408 13.4987C27.6408 13.4987 31.3528 13.7307 34.3688 12.2227L39.5888 14.8907L43.6488 21.5027L37.6168 24.8667L38.4288 41.2227H29.3808H25.9008H16.8528L17.5488 24.8667L11.6328 21.5027L15.6928 14.8907L20.9128 12.2227C23.9288 13.7307 27.6408 13.4987 27.6408 13.4987Z" stroke="#979797" stroke-miterlimit="10"/>
<path d="M37.6175 24.8665C37.6175 24.8665 36.1095 18.0225 39.8215 15.3545" stroke="#979797" stroke-miterlimit="10"/>
<path d="M27.6406 17.3267C27.6406 17.3267 32.6286 17.7907 34.3686 12.2227" stroke="#979797" stroke-miterlimit="10"/>
</g>
<defs>
<clipPath id="clip0">
<rect width="55" height="55" fill="white"/>
</clipPath>
</defs>
</svg>
