<svg width="55" height="55" viewBox="0 0 55 55" fill="none" xmlns="http://www.w3.org/2000/svg">
<g clip-path="url(#clip0)">
<path d="M26.0049 21.8652L24.6249 38.195C24.6249 38.195 24.3949 39 27.4999 39" stroke="#979797" stroke-miterlimit="10"/>
<path d="M16.8047 36.6995C14.5047 36.6995 13.9297 35.7796 13.9297 35.7796C14.5047 34.9746 15.6547 31.2946 15.6547 31.2946L18.2996 21.0597C18.6446 19.9098 19.4496 18.7598 19.4496 18.7598H27.4995" stroke="#979797" stroke-miterlimit="10"/>
<path d="M20.4844 21.8652L16.6895 36.93C16.6895 36.93 17.9544 39.345 21.4044 37.85L23.8194 21.8652" stroke="#979797" stroke-miterlimit="10"/>
<path d="M19.4492 18.875V16H27.4991" stroke="#979797" stroke-miterlimit="10"/>
<path d="M28.995 21.8652L30.375 38.195C30.375 38.195 30.605 39 27.5 39" stroke="#979797" stroke-miterlimit="10"/>
<path d="M38.1949 36.6995C40.4948 36.6995 41.0698 35.7796 41.0698 35.7796C40.4948 34.9746 39.3449 31.2946 39.3449 31.2946L36.6999 21.0597C36.3549 19.9098 35.5499 18.7598 35.5499 18.7598H27.5" stroke="#979797" stroke-miterlimit="10"/>
<path d="M34.5166 21.8652L38.3115 36.93C38.3115 36.93 37.0466 39.345 33.5966 37.85L31.1816 21.8652" stroke="#979797" stroke-miterlimit="10"/>
<path d="M35.5499 18.875V16H27.5" stroke="#979797" stroke-miterlimit="10"/>
<path d="M21.5195 37.8496C21.5195 37.8496 22.8995 38.5396 24.7395 38.1946" stroke="#979797" stroke-miterlimit="10"/>
<path d="M30.375 38.1946C30.375 38.1946 31.87 38.6546 33.595 37.8496" stroke="#979797" stroke-miterlimit="10"/>
</g>
<defs>
<clipPath id="clip0">
<rect width="55" height="55" fill="white"/>
</clipPath>
</defs>
</svg>
