<svg width="55" height="55" viewBox="0 0 55 55" fill="none" xmlns="http://www.w3.org/2000/svg">
<g clip-path="url(#clip0)">
<path d="M36.5808 35.2244C36.5808 35.2244 35.7986 36.1288 33.9164 36.5199C32.0342 36.8988 27.9275 33.8311 27.9275 33.8311C27.9275 33.8311 23.8208 36.9111 21.9386 36.5199C20.0564 36.1288 19.2742 35.2244 19.2742 35.2244C19.2742 35.2244 19.1275 35.8722 19.2742 37.2899C19.4208 38.7077 20.6797 43.3888 20.6797 43.9633C20.6797 44.5377 20.5086 45.5644 21.4742 46.2733C22.4397 46.9822 25.7519 47.8133 27.9153 47.5566C30.0786 47.8133 33.3908 46.9822 34.3564 46.2733C35.3219 45.5644 35.1508 44.5377 35.1508 43.9633C35.1508 43.3888 36.3975 38.7077 36.5564 37.2899C36.7397 35.8722 36.5808 35.2244 36.5808 35.2244Z" stroke="#979797" stroke-miterlimit="10"/>
<path d="M32.5468 10.4256C32.5468 10.4256 29.6013 9.00781 27.8779 9.00781C26.1546 9.00781 23.5391 10.2911 23.5391 10.2911" stroke="#979797" stroke-miterlimit="10"/>
<path d="M9.96063 30.2988C9.80174 30.5311 9.66729 30.7388 9.55729 30.9099C9.09285 31.3133 9.54507 31.7166 9.54507 31.7166C9.54507 31.7166 11.2073 32.9877 12.344 33.7577C12.5762 33.9166 12.8695 33.4644 13.0895 33.2077L9.96063 30.2988Z" stroke="#979797" stroke-miterlimit="10"/>
<path d="M24.553 8.66553C24.553 8.66553 22.1941 10.0711 21.4241 10.4011C20.6663 10.7189 19.493 10.9755 19.2852 11.1711C19.0896 11.3666 19.0896 11.3666 19.0896 11.3666C19.0896 11.3666 18.5518 11.5011 18.4052 11.9411C18.4052 11.9411 17.7085 14.5077 17.2563 15.4733C16.8041 16.4389 15.2885 21.6944 13.9074 23.98C13.0763 25.3611 11.4141 27.8911 10.2285 29.6877L13.4063 32.6822C13.9074 32.0344 14.3841 31.3622 14.8363 30.6777C15.8018 29.26 16.9752 27.7811 17.7574 26.2411C18.6496 24.4933 19.1996 23.1733 20.4096 21.5966C20.8374 21.0344 20.0307 25.9355 19.5785 28.3189L21.6074 28.71V29.3577C21.6074 30.1644 20.5685 29.9689 19.7618 29.9689H19.2241C18.7352 31.4111 17.843 33.8311 17.843 33.8311C17.843 33.8311 19.6396 35.5666 22.4018 35.1755C24.1741 34.9311 26.1052 33.88 27.2541 33.1711V15.5955C26.3741 14.2511 24.9074 11.6233 24.553 8.66553Z" stroke="#979797" stroke-miterlimit="10"/>
<path d="M35.4432 21.2055C36.9099 23.1244 38.0343 25.8011 38.3521 26.1189C38.5721 26.3389 40.3199 29.3455 41.7376 31.3011L44.8543 28.93C43.7176 27.2433 42.141 24.8478 41.2976 23.4666C39.9043 21.1689 39.0243 16.4266 38.5843 15.4733C38.1321 14.5077 37.4354 11.9411 37.4354 11.9411C37.301 11.4889 36.7632 11.3666 36.7632 11.3666C36.7632 11.3666 36.7632 11.3666 36.5554 11.1711C36.3476 10.9755 35.1743 10.7189 34.4165 10.4011C33.6587 10.0833 31.2876 8.66553 31.2876 8.66553C31.0921 11.3911 29.821 13.8722 28.9043 15.2777L28.9532 33.3911C30.1143 34.0877 31.8376 34.9433 33.4387 35.1633C36.201 35.5422 37.9976 33.8189 37.9976 33.8189C37.9976 33.8189 36.9221 32.1444 36.4454 29.9566H35.9565C35.1499 29.9566 34.111 30.1522 34.111 29.3455V28.6977L36.3354 28.3066C35.9199 25.0677 35.0032 20.6189 35.4432 21.2055Z" stroke="#979797" stroke-miterlimit="10"/>
<path d="M45.4534 29.8834C45.3679 29.7612 45.2701 29.6023 45.1479 29.4312L42.0801 31.7167C42.1656 31.8145 42.239 31.9 42.3123 31.9734C42.5567 32.23 42.7767 32.4012 42.9356 32.4378C44.4634 31.57 45.4656 30.7145 45.4656 30.7145C45.4656 30.7145 45.8812 30.3234 45.4534 29.8834Z" stroke="#979797" stroke-miterlimit="10"/>
<path d="M24.7363 8.72669C24.6752 8.73891 24.5652 8.93447 24.5652 9.0078C24.5285 11.0611 27.2663 15.6078 27.2663 15.6078L24.5163 13.7989C24.0885 13.5789 23.8563 13.1022 23.9419 12.6256L23.9785 12.4056C24.0396 12.0389 23.9174 11.6722 23.6608 11.4156L23.5996 11.3667C23.3185 11.0978 23.2085 10.7067 23.2819 10.34L23.5385 9.27669C23.7952 8.21336 26.8508 7.39447 27.8774 7.44336C30.3463 7.10114 32.5463 9.42336 32.5463 9.42336L32.7419 10.3522C32.8274 10.7311 32.7052 11.11 32.4241 11.3789L32.3874 11.4034C32.1185 11.66 31.9963 12.0267 32.0696 12.3934L32.1063 12.6134C32.1919 13.09 31.9596 13.5667 31.5319 13.7867L28.9163 15.2656C28.9163 15.2656 32.1552 8.97114 30.7863 8.54336" stroke="#979797" stroke-miterlimit="10"/>
</g>
<defs>
<clipPath id="clip0">
<rect width="55" height="55" fill="white"/>
</clipPath>
</defs>
</svg>
