<svg width="55" height="55" viewBox="0 0 55 55" fill="none" xmlns="http://www.w3.org/2000/svg">
<g clip-path="url(#clip0)">
<path d="M35.86 37.9621C35.8234 37.5344 36.0678 36.2144 36.0678 36.2144C35.9945 35.4444 35.97 34.9921 35.7011 34.7966C35.4323 34.5888 35.4689 34.7844 35.2367 34.8821C35.0045 34.9799 34.7723 35.2366 34.5034 35.3466C34.2345 35.4566 34.0389 35.2977 33.8434 35.3466C33.6478 35.3955 33.4645 35.2977 33.2567 35.4566C33.0489 35.6032 32.7434 35.8599 32.5356 35.9455C32.34 36.031 31.8389 35.7621 31.5211 35.7377C31.2034 35.7255 31.02 36.2632 30.7023 36.3855C30.3845 36.5077 30.2011 36.0188 29.7856 36.0799C29.37 36.1532 29.37 36.581 29.0278 36.6666C28.7345 36.7399 28.2211 36.4832 28.0623 36.4099C28.0623 36.3977 28.0623 36.3855 28.0623 36.3855C28.0623 36.3855 28.05 36.3855 28.0378 36.3977C28.0256 36.3855 28.0134 36.3855 28.0134 36.3855C28.0134 36.3855 28.0134 36.3977 28.0134 36.4099C27.8545 36.4955 27.3411 36.7399 27.0478 36.6666C26.6934 36.581 26.6934 36.141 26.29 36.0799C25.8745 36.0066 25.6911 36.5077 25.3734 36.3855C25.0556 36.2632 24.8723 35.7255 24.5545 35.7377C24.2367 35.7499 23.7356 36.031 23.54 35.9455C23.3445 35.8599 23.0389 35.6032 22.8189 35.4566C22.6111 35.3099 22.4278 35.3955 22.2323 35.3466C22.0367 35.2977 21.8289 35.4566 21.5723 35.3466C21.3034 35.2366 21.0711 34.9799 20.8389 34.8821C20.6067 34.7844 20.6434 34.5888 20.3745 34.7966C20.1056 35.0044 20.0811 35.4444 20.0078 36.2144C20.0078 36.2144 20.24 37.5344 20.2034 37.9621" stroke="#979797" stroke-miterlimit="10" stroke-linecap="round" stroke-linejoin="round"/>
<path d="M36.5204 41.2866C36.4471 40.7977 36.4348 40.4433 36.3982 40.0155C36.3615 39.5877 36.2148 37.9499 36.2148 37.9499C36.1415 37.1799 36.1171 36.7277 35.8482 36.5322C35.5793 36.3244 35.616 36.5199 35.3715 36.6177C35.1393 36.7155 34.8948 36.9722 34.626 37.0822C34.3571 37.1922 34.1493 37.0333 33.9537 37.0822C33.746 37.1311 33.5626 37.0333 33.3548 37.1922C33.1348 37.3388 32.8293 37.5955 32.6215 37.6811C32.4137 37.7666 31.9126 37.4977 31.5948 37.4733C31.2771 37.4611 31.0937 37.9988 30.7637 38.1211C30.446 38.2433 30.2626 37.7544 29.8348 37.8155C29.4071 37.8888 29.4071 38.3166 29.0526 38.4022C28.7593 38.4755 28.2337 38.2188 28.0748 38.1455C28.0748 38.1333 28.0748 38.1211 28.0748 38.1211C28.0748 38.1211 28.0626 38.1211 28.0504 38.1333C28.0382 38.1211 28.026 38.1211 28.026 38.1211C28.026 38.1211 28.026 38.1333 28.026 38.1455C27.8671 38.2311 27.3415 38.4755 27.0482 38.4022C26.6937 38.3166 26.6937 37.8766 26.266 37.8155C25.8382 37.7422 25.6548 38.2433 25.3371 38.1211C25.0193 37.9988 24.836 37.4611 24.506 37.4733C24.1882 37.4855 23.6748 37.7666 23.4793 37.6811C23.2715 37.5955 22.966 37.3388 22.746 37.1922C22.526 37.0455 22.3426 37.1311 22.1471 37.0822C21.9393 37.0333 21.7437 37.1922 21.4748 37.0822C21.206 36.9722 20.9737 36.7155 20.7293 36.6177C20.4971 36.5199 20.5215 36.3244 20.2526 36.5322C19.9837 36.7399 19.9471 37.1799 19.886 37.9499C19.886 37.9499 19.7393 39.5877 19.7026 40.0155C19.666 40.4433 19.6537 40.7977 19.5804 41.2866C19.5071 41.7755 19.5682 42.4844 19.5804 42.6555C19.5926 42.8266 20.0815 43.23 20.4237 43.5844C20.766 43.9388 23.2348 45.8211 23.3693 45.9555C23.9071 46.4933 26.4615 47.9722 26.3882 48.7177C26.9015 48.8155 27.4148 48.8766 27.9404 48.8766C28.4171 48.8766 29.0282 48.9377 29.4804 48.7788C30.0548 48.5833 30.8371 47.5688 31.326 47.1655C31.8026 46.7622 32.3282 46.3833 32.7682 45.9433C33.6604 45.0511 34.846 44.4888 35.7137 43.5722C36.056 43.2177 36.5448 42.8144 36.5571 42.6433C36.5448 42.4844 36.5937 41.7755 36.5204 41.2866Z" stroke="#979797" stroke-miterlimit="10" stroke-linecap="round" stroke-linejoin="round"/>
<path d="M36.5201 42.6554C36.5201 42.6554 33.0124 41.7999 31.4235 43.6332C29.9813 44.6232 29.3824 47.3121 29.3457 48.791" stroke="#979797" stroke-miterlimit="10" stroke-linecap="round" stroke-linejoin="round"/>
<path d="M19.5684 42.6554C19.5684 42.6554 23.0761 41.7999 24.665 43.6332C26.1072 44.6232 26.7061 47.3121 26.7428 48.791" stroke="#979797" stroke-miterlimit="10" stroke-linecap="round" stroke-linejoin="round"/>
<path d="M29.6026 46.9822H26.4492" stroke="#979797" stroke-miterlimit="10" stroke-linecap="round" stroke-linejoin="round"/>
<path d="M36.9728 32.8044C36.9728 32.8044 35.5061 20.7166 35.4083 19.7144C35.3106 18.7122 35.3106 18.5411 35.2983 17.6244C35.2861 16.7077 35.445 14.2755 34.9561 14.3366C34.4672 14.3977 34.0517 14.5566 33.4772 14.0922C32.9028 13.6277 31.6072 13.1388 31.6806 11.4155C31.7539 9.69218 31.9495 7.5044 32.035 7.32107C32.1206 7.14996 32.3161 6.30663 32.1206 6.14774C31.7295 6.24552 32.035 5.92774 31.7295 6.24552C31.7783 6.61218 31.4728 7.33329 31.5095 7.49218C31.5461 7.65107 31.1061 10.7922 31.1061 10.7922C31.1061 10.7922 31.1306 11.1711 30.7028 11.4644C30.3972 11.6722 29.7617 12.1855 27.4761 12.1855C25.1906 12.1855 24.555 11.6722 24.2495 11.4644C23.8217 11.1711 23.8461 10.7922 23.8461 10.7922C23.8461 10.7922 23.4184 7.65107 23.4428 7.49218C23.4795 7.33329 23.1739 6.61218 23.2228 6.24552C22.9295 5.92774 23.2228 6.24552 22.8317 6.14774C22.6728 6.31885 22.8561 7.14996 22.9417 7.33329C23.0272 7.5044 23.2228 9.7044 23.2961 11.4277C23.3695 13.1511 22.0739 13.64 21.4995 14.1044C20.925 14.5688 20.5217 14.41 20.0206 14.3488C19.5317 14.2877 19.6906 16.72 19.6784 17.6366C19.6661 18.5533 19.6661 18.7244 19.5684 19.7266C19.4706 20.7288 18.0039 32.8166 18.0039 32.8166C18.0039 32.8166 20.265 34.3077 24.2495 33.4888C30.5317 32.2055 36.9728 32.8044 36.9728 32.8044Z" stroke="#979797" stroke-miterlimit="10" stroke-linecap="round" stroke-linejoin="round"/>
</g>
<defs>
<clipPath id="clip0">
<rect width="55" height="55" fill="white"/>
</clipPath>
</defs>
</svg>
