<svg width="55" height="55" viewBox="0 0 55 55" fill="none" xmlns="http://www.w3.org/2000/svg">
<g clip-path="url(#clip0)">
<path d="M12.6625 10.9388C12.6136 11.2688 12.5525 11.5988 12.5159 11.9288C12.4181 12.8577 12.4548 13.7988 12.4914 14.7521C12.5403 14.7521 12.5892 14.7521 12.6259 14.7521C12.6259 14.7521 15.4614 14.1899 16.9281 14.1899C18.4192 14.1899 21.5114 14.7643 21.5114 14.7643C21.6092 14.7643 21.6581 14.7399 21.6825 14.6299C21.9636 13.4321 22.2448 12.2343 22.5381 11.0366C22.5503 11.0121 22.5503 10.9755 22.5503 10.951C22.5381 11.0366 20.167 10.291 17.5025 10.291C14.8381 10.291 12.6625 10.9388 12.6625 10.9388Z" stroke="#979797" stroke-miterlimit="10"/>
<path d="M21.4875 16.622C21.4875 16.622 18.3097 15.8643 16.7208 15.8643C15.3275 15.8643 12.5286 16.622 12.5286 16.622C12.553 16.8909 12.5652 17.1476 12.6019 17.4165C12.7119 18.2231 12.8097 19.042 12.9319 19.8487C13.0541 20.7043 13.2008 21.5598 13.3352 22.4154C13.5064 23.4787 13.7019 24.542 13.8852 25.6054C14.0075 26.3265 14.1419 27.0476 14.2641 27.7687C14.3619 28.3187 14.4964 28.8565 14.5697 29.4065C14.7652 30.8609 14.5941 32.2543 13.763 33.5009C13.4575 33.9531 13.0786 34.332 12.6508 34.6743C12.4552 34.8331 12.3086 35.0776 12.1864 35.2976C11.6608 36.2631 11.8564 37.1554 12.5408 37.962C13.1764 38.7198 14.0075 39.2331 14.8997 39.6243C15.1319 39.722 15.4008 39.7343 15.6575 39.7954C17.1364 40.162 18.4441 40.8465 19.4586 42.0076C19.9964 42.6065 20.5708 43.1443 21.2308 43.5965C21.903 44.0609 22.6119 44.452 23.4186 44.5743C23.883 44.6476 24.3475 44.7209 24.8241 44.7209C25.7408 44.7087 26.5719 44.4031 27.2197 43.7309C27.5008 43.4498 27.6719 43.0954 27.623 42.6798C27.5864 42.4109 27.4397 42.2154 27.2319 42.0687C27.0486 41.9343 26.8286 41.8365 26.6575 41.6898C26.3519 41.4331 26.0464 41.1765 25.7775 40.8831C24.9586 40.0031 24.1519 39.1231 23.333 38.2309C23.2841 38.182 23.2475 38.1209 23.223 38.0476C22.3919 35.7743 21.573 33.5009 20.8764 31.1787C20.6319 30.3476 20.5219 29.5043 20.4608 28.6487C20.3386 27.1576 20.2897 25.6665 20.3141 24.1631C20.3264 23.3565 20.363 22.5498 20.4241 21.7554C20.4852 20.7776 20.693 19.8243 20.9252 18.8831C21.1208 18.1254 21.3041 17.3798 21.4875 16.622Z" stroke="#979797" stroke-miterlimit="10"/>
<path d="M29.7251 25.9478C29.8228 26.4978 29.9573 28.8567 30.0306 29.4067C30.2262 30.8611 30.0551 32.2545 29.224 33.5011C28.9184 33.9533 28.5395 34.3322 28.1117 34.6745C27.9162 34.8333 27.7695 35.0778 27.6473 35.2978C27.1217 36.2633 27.3173 37.1556 28.0017 37.9622C28.6373 38.72 29.4684 39.2333 30.3606 39.6244C30.5928 39.7222 30.8617 39.7345 31.1184 39.7956C32.5973 40.1622 33.9051 40.8467 34.9195 42.0078C35.4573 42.6067 36.0317 43.1444 36.6917 43.5967C37.364 44.0611 38.0728 44.4522 38.8795 44.5745C39.344 44.6478 39.8084 44.7211 40.2851 44.7211C41.2017 44.7089 42.0328 44.4033 42.6806 43.7311C42.9617 43.45 43.1328 43.0956 43.084 42.68C43.0473 42.4111 42.9006 42.2156 42.6928 42.0689C42.5095 41.9344 42.2895 41.8367 42.1184 41.69C41.8128 41.4333 41.5073 41.1767 41.2384 40.8833C40.4195 40.0033 39.6128 39.1233 38.794 38.2311C38.7451 38.1822 38.7084 38.1211 38.684 38.0478C37.8528 35.7744 37.034 33.5011 36.3373 31.1789C36.0928 30.3478 35.9828 27.6833 35.9217 26.8278C35.9217 26.8278 36.0562 25.4222 33.7462 25.5078C32.5484 25.5689 30.9473 25.2511 29.7251 25.9478Z" stroke="#979797" stroke-miterlimit="10"/>
<path d="M29.6406 32.731C29.6406 32.731 31.9506 35.151 32.1584 36.2998C32.8551 37.8643 32.2684 39.8076 32.1584 39.9421" stroke="#979797" stroke-miterlimit="10"/>
</g>
<defs>
<clipPath id="clip0">
<rect width="55" height="55" fill="white"/>
</clipPath>
</defs>
</svg>
