<svg width="55" height="55" viewBox="0 0 55 55" fill="none" xmlns="http://www.w3.org/2000/svg">
<g clip-path="url(#clip0)">
<path d="M20.3507 21.3277C20.3507 16.9766 17.6863 13.4443 14.4107 13.4443C11.1229 13.4443 8.4707 16.9766 8.4707 21.3277C8.4707 24.9943 10.3651 28.0743 12.9318 28.9543C12.7485 29.0643 12.6507 29.1988 12.6507 29.3332C12.6507 29.6021 13.0418 29.8466 13.6163 29.9566C13.3596 30.7754 13.2007 31.961 13.2007 33.2932C13.2007 34.0877 13.2618 34.8332 13.3596 35.481C13.4451 36.0188 13.274 36.5566 12.9563 37.0332C12.834 37.2166 12.7607 37.4121 12.7363 37.6321C12.6507 38.4754 13.4574 39.2454 14.4107 39.2454C15.3396 39.2454 16.0851 38.5854 16.0851 37.7666C16.0851 37.4977 15.9996 37.241 15.8529 37.021C15.5474 36.5688 15.3763 36.0432 15.4618 35.5177C15.5596 34.8577 15.6207 34.0999 15.6207 33.2932C15.6207 31.9488 15.4618 30.751 15.2051 29.9321C15.7307 29.8099 16.0851 29.5899 16.0851 29.3332C16.0851 29.1988 15.9874 29.0766 15.8285 28.9788C18.4318 28.1232 20.3507 25.0188 20.3507 21.3277Z" stroke="#979797" stroke-miterlimit="10"/>
<path d="M18.1147 21.3032C18.1147 24.0043 16.4525 26.1921 14.3991 26.1921C12.3458 26.1921 10.6836 24.0043 10.6836 21.3032C10.6836 18.6021 12.3458 16.4143 14.3991 16.4143C16.4647 16.4143 18.1147 18.6021 18.1147 21.3032Z" stroke="#979797" stroke-miterlimit="10"/>
<path d="M32.7695 36.3977C33.5517 35.2854 34.5295 33.941 35.3239 32.8288C36.0939 31.7532 36.8762 30.7021 37.6584 29.6388C37.8173 29.431 37.9395 29.1988 37.9517 28.9299C37.9762 28.5632 37.8295 28.2943 37.5362 28.0988C37.2428 27.9032 36.9495 27.891 36.6684 28.0743C36.485 28.1966 36.3139 28.3554 36.155 28.5143C35.6173 29.1132 35.0917 29.7121 34.5539 30.311C34.5173 30.3477 34.4928 30.3843 34.4562 30.4088C34.3584 30.4821 34.2484 30.4943 34.1506 30.421C34.0528 30.3477 34.0284 30.2132 34.0773 30.1032C34.1017 30.0666 34.1262 30.0177 34.1506 29.981C34.6395 29.1988 35.1406 28.4288 35.6295 27.6466C35.9595 27.1088 36.3017 26.5588 36.5951 25.9966C36.8273 25.581 36.7173 25.1532 36.3873 24.8966C36.0328 24.6154 35.6173 24.6154 35.2384 24.921C35.0795 25.0554 34.9328 25.2143 34.8228 25.3854C34.2606 26.2043 33.7106 27.0232 33.1484 27.8421C32.8673 28.2577 32.5862 28.6732 32.305 29.0888C32.2073 29.2354 32.0728 29.2599 31.9506 29.1866C31.8406 29.1132 31.8162 28.9788 31.8773 28.8321C31.8895 28.8077 31.9017 28.7954 31.9139 28.771C32.7328 27.2432 33.5395 25.7032 34.3584 24.1754C34.5051 23.9066 34.6395 23.6499 34.6517 23.3321C34.6639 22.941 34.5173 22.6354 34.1628 22.4643C33.8328 22.2932 33.5028 22.3299 33.2095 22.5621C33.0506 22.7088 32.8917 22.8799 32.7817 23.0632C32.0484 24.2732 31.3395 25.4832 30.6184 26.6932C30.3984 27.0599 30.1784 27.4388 29.9584 27.8054C29.9217 27.8788 29.8484 27.9399 29.775 27.8788C29.7384 27.8421 29.7262 27.7443 29.7384 27.6832C29.7506 27.5977 29.8117 27.5121 29.8484 27.4266C30.1173 26.7666 30.3862 26.1188 30.655 25.4588C30.8995 24.8721 31.1439 24.2854 31.3884 23.6866C31.5106 23.3932 31.6695 23.0999 31.6817 22.7699C31.6939 22.3788 31.5717 22.0488 31.205 21.8654C30.8506 21.6699 30.4595 21.7188 30.1417 21.9999C30.0073 22.1221 29.885 22.281 29.7995 22.4399C29.5795 22.8554 29.3962 23.2954 29.1884 23.7232C28.6873 24.8232 28.1739 25.911 27.6728 27.011C27.4284 27.5488 27.1839 28.0866 26.9273 28.6243C26.8784 28.7466 26.7928 28.8199 26.6584 28.8077C26.5239 28.7954 26.4628 28.6977 26.4384 28.5877C26.4017 28.3921 26.365 28.1966 26.3406 28.001C26.3039 27.6954 26.2795 27.3777 26.2306 27.0843C26.1206 26.5221 25.8028 26.0699 25.3262 25.7643C24.8984 25.4954 24.1406 25.4343 23.8106 26.1066C23.7862 26.1677 23.7495 26.2288 23.725 26.3021C23.6517 26.5343 23.6273 26.7666 23.7862 26.9866C23.9084 27.1577 24.0306 27.3288 24.0795 27.5243C24.2139 27.9888 24.3362 28.4532 24.4217 28.9299C24.495 29.4188 24.5562 29.9199 24.5562 30.4088" stroke="#979797" stroke-miterlimit="10"/>
<path d="M30.1535 43.78C30.129 43.7189 30.1412 43.6334 30.1657 43.5723C30.3612 43.1811 30.4957 42.7778 30.569 42.35C30.6423 41.91 30.6668 41.47 30.7646 41.0423C30.9846 40.0645 31.3635 39.1356 31.8768 38.2678C32.0601 37.95 32.2801 37.6567 32.5857 37.4367C32.6712 37.3756 32.7446 37.2534 32.7568 37.1556C32.9035 36.3245 32.4268 35.7378 31.559 35.8478C30.9723 35.9334 30.5323 36.2878 30.2268 36.8011C30.1046 37.0211 30.0068 37.2656 29.909 37.4856C29.7868 37.7545 29.6646 38.0356 29.5423 38.3045C29.4935 38.4145 29.3957 38.4756 29.2612 38.4511C29.139 38.4267 29.0901 38.3411 29.0657 38.2189C29.0046 37.8156 28.9312 37.4 28.8701 36.9967C28.7357 36.1289 28.589 35.2611 28.4546 34.3934C28.3079 33.4889 28.1612 32.5723 28.0268 31.6678C27.9901 31.3989 27.9168 31.1422 27.7579 30.9222C27.5379 30.6289 27.2568 30.4822 26.8901 30.5311C26.5112 30.58 26.2423 30.8 26.1446 31.1667C26.0957 31.35 26.0712 31.5456 26.0835 31.7289C26.1201 32.23 26.1935 32.7311 26.2546 33.22C26.3646 34.1734 26.4746 35.1267 26.5846 36.0923C26.609 36.2511 26.6335 36.41 26.6335 36.5689C26.6335 36.6178 26.5723 36.6789 26.5357 36.7278C26.4868 36.6911 26.4379 36.6667 26.389 36.6178C26.3768 36.6056 26.3768 36.5689 26.3646 36.5323C25.8879 34.76 25.4112 32.9878 24.9346 31.2156C24.8735 30.9711 24.7635 30.7511 24.5923 30.5678C24.1646 30.1278 23.4557 30.2378 23.1746 30.7756C23.0646 30.9834 23.0279 31.1911 23.0523 31.4234C23.1012 31.7534 23.1746 32.0834 23.2479 32.4134C23.5779 33.9534 23.9201 35.5056 24.2501 37.0456C24.2868 37.2167 24.2257 37.3511 24.0912 37.3878C23.9568 37.4245 23.8346 37.3511 23.7735 37.18C23.6635 36.85 23.5535 36.5078 23.4312 36.1778C23.0646 35.0778 22.6979 33.9778 22.3312 32.8778C22.2335 32.5722 22.0746 32.2911 21.7935 32.1078C21.3046 31.7778 20.5957 32.0711 20.4735 32.6456C20.4246 32.9022 20.4612 33.1589 20.5223 33.3911C20.8646 34.5767 21.2068 35.75 21.5612 36.9356C21.6346 37.1678 21.7079 37.4 21.769 37.6323C21.8057 37.7911 21.7568 37.9011 21.6223 37.9623C21.4879 38.0111 21.3779 37.9623 21.3046 37.8156C21.2923 37.7789 21.2679 37.7545 21.2557 37.7178C20.9135 37.0089 20.5712 36.2878 20.2168 35.5789C20.119 35.3956 20.009 35.2123 19.8746 35.0534C19.6668 34.8089 19.3857 34.6989 19.0679 34.7845C18.7379 34.87 18.4935 35.0656 18.3957 35.4078C18.3101 35.6889 18.359 35.97 18.4568 36.2511C19.3735 38.7567 20.2779 41.25 21.1823 43.7556C21.439 44.4767 21.8546 45.0756 22.4779 45.5278C22.5146 45.5523 22.5512 45.6134 22.5512 45.6623C22.6246 46.2489 22.6979 46.8478 22.7712 47.4345C22.869 48.2411 22.979 49.06 23.0768 49.8667C23.089 49.9645 23.1257 50.0011 23.2112 50.0134C23.4312 50.05 23.6512 50.0745 23.8346 50.0989C24.1768 50.0745 24.4823 50.0745 24.7757 50.0134C25.6801 49.8545 26.5723 49.6956 27.4646 49.4878C28.5401 49.2434 29.6035 48.95 30.6179 48.4978C30.9357 48.3634 31.229 48.1678 31.5224 47.9845C31.6324 47.9111 31.6568 47.8134 31.6079 47.6789C31.119 46.3956 30.6301 45.0878 30.1535 43.78Z" stroke="#979797" stroke-miterlimit="10"/>
<path d="M44.5641 15.669C44.5641 15.669 46.6541 13.6523 46.5319 11.4645C46.4463 9.92451 46.2263 6.08673 46.2263 6.08673C46.2263 6.08673 43.7696 5.67117 43.1952 5.72006C42.6208 5.76895 40.4819 5.76895 39.6507 6.44117C38.8196 7.1134 38.9419 9.72895 38.9419 9.72895" stroke="#979797" stroke-miterlimit="10"/>
<path d="M24.5679 15.0211C24.5679 15.0211 22.8934 12.2955 23.3334 10.1811C23.6512 8.66551 24.4334 4.90106 24.4334 4.90106C24.4334 4.90106 26.9268 4.83995 27.4768 4.9744C28.039 5.10884 30.1534 5.42662 30.8746 6.20884C31.5957 6.99106 31.1923 9.25218 31.1923 9.25218" stroke="#979797" stroke-miterlimit="10"/>
<path d="M34.4432 9.12988C41.8132 9.59433 43.671 14.7399 43.671 14.7399C43.671 14.7399 46.0299 18.2721 45.2477 22.2199C42.5588 14.911 40.6155 12.0143 34.3088 11.9288C28.0021 12.0143 26.0466 14.911 23.3699 22.2199C22.5877 18.2721 24.9466 14.7399 24.9466 14.7399C24.9466 14.7399 26.8043 9.60655 34.1743 9.12988H34.4432V9.12988Z" stroke="#979797" stroke-miterlimit="10"/>
</g>
<defs>
<clipPath id="clip0">
<rect width="55" height="55" fill="white"/>
</clipPath>
</defs>
</svg>
