<svg width="55" height="55" viewBox="0 0 55 55" fill="none" xmlns="http://www.w3.org/2000/svg">
<g clip-path="url(#clip0)">
<path d="M36.2272 41.3721C35.9461 39.6243 35.7139 35.6765 35.5917 33.9165C35.4817 32.2543 35.4695 32.7921 35.6161 31.1299C35.7628 29.5288 35.9339 27.9277 36.1417 26.3388C36.2884 25.2754 36.5206 24.2243 36.7161 23.161C36.7406 23.051 36.7772 22.9532 36.8139 22.8432C36.8261 22.8432 36.8506 22.8432 36.8628 22.8432C36.8995 23.0265 36.9484 23.1977 36.9728 23.381C37.1928 24.7377 37.3517 25.6543 37.4128 26.0821C37.4739 26.5099 41.4339 26.7788 42.4606 25.361C42.3017 24.041 42.1306 22.721 41.935 21.401C41.1895 16.561 39.185 13.9577 34.2472 12.711C34.125 12.6865 34.0272 12.6621 33.9539 12.8088C33.3184 14.141 32.1206 14.8743 30.7639 15.4243C29.7861 15.8277 29.1872 15.9377 28.1361 15.9743L26.6939 15.9377C25.6428 15.901 25.1661 15.8154 24.2006 15.4121C22.8561 14.8621 21.6584 14.1288 21.0106 12.7965C20.9495 12.6621 20.8395 12.6743 20.7172 12.6988C15.3272 14.031 13.8606 15.9132 13.0295 21.3888C12.8339 22.7088 12.6628 24.0288 12.5039 25.3488C13.5184 26.7665 17.5517 26.0699 17.5517 26.0699C17.7595 24.7132 17.7717 24.7132 17.9917 23.3688C18.0161 23.1854 18.065 23.0021 18.1017 22.831C18.1139 22.831 18.1384 22.831 18.1506 22.831C18.1872 22.941 18.2239 23.0388 18.2484 23.1488C18.4439 24.2121 18.6884 25.2632 18.8228 26.3265C19.0428 27.9154 19.2017 29.5165 19.3484 31.1177C19.5072 32.7799 19.4828 32.2421 19.3728 33.9043C19.2628 35.6643 19.0184 39.6121 18.7372 41.3599C18.7372 41.3599 20.9984 44.5254 28.3072 43.9143C35.6528 43.3032 36.2272 41.3721 36.2272 41.3721Z" stroke="#979797" stroke-miterlimit="10"/>
<path d="M22.501 11C22.2688 11.2444 22.0366 11.5011 21.8166 11.7455C21.5599 12.0389 23.6622 13.3222 23.9066 13.4689C25.3488 14.3367 27.1944 14.5444 28.8688 14.2755C29.8588 14.1167 30.8855 13.7989 31.7288 13.2733C32.0099 13.1022 33.4522 12.1367 33.171 11.7455L32.621 11C31.1299 12.3811 28.8444 12.7722 26.8277 12.5767C25.8744 12.4911 25.0677 12.2589 24.2244 11.8433C24.1022 11.7822 22.5622 10.9389 22.501 11Z" stroke="#979797" stroke-miterlimit="10"/>
</g>
<defs>
<clipPath id="clip0">
<rect width="55" height="55" fill="white"/>
</clipPath>
</defs>
</svg>
