<svg width="55" height="55" viewBox="0 0 55 55" fill="none" xmlns="http://www.w3.org/2000/svg">
<path d="M16.5755 32.1543C16.4336 32.722 16.4336 35.4187 16.4336 35.9864C16.4336 41.6635 39.0003 41.6635 39.0003 35.9864C39.0003 35.4187 39.0003 32.722 38.8583 32.1543C37.0133 36.8379 18.4206 36.8379 16.5755 32.1543Z" stroke="#979797" stroke-miterlimit="10"/>
<path d="M30.0594 19.6654C30.3432 19.2396 30.6271 18.6719 30.6271 18.1042C30.6271 16.543 29.3498 15.2656 27.7885 15.2656C26.2273 15.2656 24.95 16.543 24.95 18.1042C24.95 18.6719 25.0919 19.2396 25.5177 19.8073C20.834 20.8008 17.4277 24.9168 17.4277 29.8843C17.4277 35.5614 38.1493 35.5614 38.1493 29.8843C38.1493 24.9168 34.6011 20.8008 30.0594 19.6654Z" stroke="#979797" stroke-miterlimit="10"/>
</svg>
