<svg width="55" height="55" viewBox="0 0 55 55" fill="none" xmlns="http://www.w3.org/2000/svg">
<g clip-path="url(#clip0)">
<path d="M19.3102 13.1995C18.5769 13.6884 17.3547 14.1773 16.8658 15.0328C16.1325 16.1328 15.5214 17.4773 15.5214 18.9439C15.5214 22.2439 14.1769 23.0995 14.0547 25.5439C15.6436 26.8884 16.988 27.1328 19.0658 26.6439C19.188 26.155 19.3102 25.5439 19.4325 25.055C20.7769 32.0217 20.0436 36.5439 19.5547 43.5106C19.0658 44.2439 20.5325 44.4884 20.6547 44.4884C25.6658 45.5884 29.9436 45.7106 34.8325 44.7328C35.1991 44.6106 37.2769 44.3661 37.1547 43.1439C36.2991 36.6661 35.5658 30.4328 36.0547 23.8328C36.2991 24.5661 36.4214 25.5439 36.9102 26.155C38.8658 26.7661 40.8214 25.2995 40.8214 24.9328C40.9436 24.6884 40.8214 24.1995 40.8214 23.955C40.5769 22.2439 39.8436 20.655 39.5991 18.8217C39.3547 17.4773 39.1102 16.0106 38.2547 14.9106C36.788 13.1995 34.7102 13.3217 33.1214 11.855C32.8769 12.955 31.4102 13.4439 30.3102 13.8106C29.2102 14.1773 27.988 13.9328 26.888 13.4439C25.9102 12.955 25.0547 12.3439 24.3214 11.6106C23.9547 11.2439 23.8325 10.6328 23.2214 10.6328C22.8547 10.755 22.2436 11.2439 21.8769 11.3661C20.8991 11.855 20.288 12.5884 19.3102 13.1995Z" stroke="#979797" stroke-miterlimit="10"/>
<path d="M33.2426 11.7331C32.9982 11.4886 33.1204 11.4886 32.7537 11.3664C31.8982 13.1997 29.0871 13.1997 27.376 12.3442C26.276 11.8553 25.176 10.7553 24.5648 9.65527C24.3204 9.7775 23.4648 10.2664 23.4648 10.2664" stroke="#979797" stroke-miterlimit="10"/>
<path d="M28.2324 13.8107L29.5769 15.1551L30.4324 13.6885" stroke="#979797" stroke-miterlimit="10"/>
</g>
<defs>
<clipPath id="clip0">
<rect width="55" height="55" fill="white"/>
</clipPath>
</defs>
</svg>
