<svg width="55" height="55" viewBox="0 0 55 55" fill="none" xmlns="http://www.w3.org/2000/svg">
<g clip-path="url(#clip0)">
<path d="M32.0222 10.877L32.7556 12.4658L29.2111 16.8658L27.5 14.177L32.0222 10.877Z" stroke="#979797" stroke-miterlimit="10"/>
<path d="M32.3889 44.6106L27.5 39.7217" stroke="#979797" stroke-miterlimit="10"/>
<path d="M27.5 39.1104V44.6104" stroke="#979797" stroke-miterlimit="10"/>
<path d="M22.9775 10.877L22.2441 12.4658L25.7886 16.8658L27.4997 14.177L22.9775 10.877Z" stroke="#979797" stroke-miterlimit="10"/>
<path d="M38.9883 40.8214C38.9883 41.4326 39.1105 42.1659 39.1105 42.777C39.1105 42.8992 39.1105 43.0214 39.2327 43.0214C40.0883 43.3881 41.1883 43.3881 42.1661 43.1437C42.5327 43.0214 42.6549 42.8992 42.6549 42.4103C42.6549 41.7992 42.6549 41.3103 42.6549 40.6992C40.8216 41.3103 39.4772 40.9437 38.9883 40.8214Z" stroke="#979797" stroke-miterlimit="10"/>
<path d="M42.6549 40.0885C42.6549 38.3774 42.6549 36.9107 42.5326 34.833C42.5326 33.4885 42.4104 32.1441 42.2882 30.7996C42.166 29.6996 42.166 28.4774 42.0438 27.3774C41.9215 26.2774 41.7993 25.0552 41.5549 23.9552C41.3104 22.8552 41.066 21.8774 40.8215 20.7774C40.5771 19.3107 40.6993 17.7219 40.0882 16.3774C39.7215 15.6441 38.866 15.033 38.1326 14.7885C36.7882 14.2996 33.8549 12.833 32.6326 12.5885L32.0215 10.9996L27.4993 10.5107L22.9771 10.9996L22.366 12.5885C21.0215 12.9552 18.0882 14.4219 16.866 14.7885C16.1326 15.033 15.1549 15.6441 14.9104 16.3774C14.2993 17.8441 14.4215 19.3107 14.1771 20.7774C14.0549 21.8774 13.6882 22.8552 13.4437 23.9552C13.1993 25.0552 13.0771 26.1552 12.9549 27.3774C12.8326 28.4774 12.7104 29.6996 12.7104 30.7996C12.5882 32.1441 12.5882 33.4885 12.466 34.833C12.466 37.033 12.3438 38.4996 12.3438 40.0885C14.1771 40.6996 15.6437 40.333 16.1326 40.0885C16.2549 39.233 16.2549 38.9885 16.3771 38.0107C16.4993 36.2996 16.3771 34.7107 16.3771 32.9996C16.3771 31.533 16.866 30.1885 17.3549 28.8441C17.8437 27.4996 18.2104 26.033 18.4549 24.5663C18.4549 24.4441 18.5771 24.3219 18.5771 24.0774C18.5771 24.1996 18.6993 24.1996 18.6993 24.3219C19.4326 28.1107 20.0437 30.0663 19.9215 33.9774C19.5549 36.6663 19.5549 39.5996 19.1882 42.2885C19.1882 42.6552 19.1882 42.8996 19.066 43.2663C19.066 43.2663 21.8771 44.733 27.4993 44.6107C32.9993 44.733 35.9326 43.2663 35.9326 43.2663C35.9326 42.8996 35.9326 42.6552 35.8104 42.2885C35.4437 39.5996 35.4437 36.6663 35.3215 33.8552C35.0771 29.9441 35.8104 27.9885 36.5437 24.1996C36.5437 24.0774 36.5437 24.0774 36.666 23.9552C36.666 24.0774 36.7882 24.1996 36.7882 24.4441C37.0326 25.9107 37.3993 27.3774 37.8882 28.7219C38.3771 30.0663 38.866 31.4107 38.866 32.8774C38.866 34.5885 38.7437 36.1774 38.866 37.8885C38.9882 38.8663 38.9882 39.233 39.1104 39.9663C39.3549 40.2107 40.8215 40.6996 42.6549 40.0885Z" stroke="#979797" stroke-miterlimit="10"/>
<path d="M12.3438 40.6992C12.3438 41.1881 12.3438 41.7992 12.3438 42.4103C12.3438 42.777 12.466 42.8992 12.8326 43.1437C13.6882 43.3881 14.9104 43.3881 15.766 43.0214C15.8882 43.0214 15.8882 42.8992 15.8882 42.777C15.8882 42.1659 15.8882 41.4326 16.0104 40.8214C15.5215 40.9437 14.1771 41.3103 12.3438 40.6992Z" stroke="#979797" stroke-miterlimit="10"/>
<path d="M27.5 14.1777V44.6111" stroke="#979797" stroke-miterlimit="10"/>
</g>
<defs>
<clipPath id="clip0">
<rect width="55" height="55" fill="white"/>
</clipPath>
</defs>
</svg>
