<svg width="55" height="55" viewBox="0 0 55 55" fill="none" xmlns="http://www.w3.org/2000/svg">
<g clip-path="url(#clip0)">
<path d="M38.0117 42.8994C38.0117 43.5105 38.1339 44.1216 38.1339 44.7327C38.1339 44.855 38.1339 44.855 38.2562 44.9772C38.9895 45.3439 40.0895 45.3439 40.9451 45.0994C41.3117 44.9772 41.4339 44.855 41.4339 44.4883C41.4339 43.8772 41.4339 43.3883 41.4339 43.0216C39.7228 43.5105 38.5006 43.1439 38.0117 42.8994Z" stroke="#979797" stroke-miterlimit="10"/>
<path d="M41.4328 42.2887C41.4328 40.6998 41.4328 37.6442 41.3105 35.6887C41.3105 34.4665 41.1883 33.2442 41.1883 32.022C41.0661 30.922 41.0661 29.9442 40.9439 28.8442C40.8217 27.7442 40.8217 26.7665 40.5772 25.7887C40.3328 24.8109 40.0883 23.8331 39.9661 22.9776C39.7217 21.1442 39.8439 19.0665 38.255 17.722C36.9105 16.622 33.3661 15.2776 31.655 14.9109V12.7109C29.8217 12.4665 25.6661 12.3442 23.4661 12.7109V14.9109C21.5105 15.3998 19.1883 16.2554 17.5994 17.4776C15.3994 19.0665 15.6439 20.5331 15.2772 22.9776C15.155 23.9553 14.9105 24.9331 14.6661 25.7887C14.4217 26.7665 14.2994 27.8665 14.2994 28.8442C14.1772 29.9442 14.055 30.922 14.055 32.022C13.9328 33.2442 13.9328 34.4665 13.9328 35.6887C13.9328 37.6442 13.8105 40.6998 13.8105 42.2887C15.5217 42.8998 16.7439 42.5331 17.2328 42.2887C17.2328 41.5553 17.355 41.3109 17.4772 40.3331C17.5994 38.7442 17.4772 35.5665 17.4772 33.9776C17.4772 32.6331 17.9661 31.4109 18.3328 30.1887C18.8217 28.8442 19.0661 27.622 19.3105 26.2776C19.3105 26.1553 19.3105 26.0331 19.4328 25.9109C19.4328 26.0331 19.555 26.0331 19.555 26.1553C20.1661 29.5776 19.9217 31.4109 19.7994 34.9553C19.6772 37.522 19.6772 40.2109 19.3105 42.7776C19.3105 43.022 19.3105 43.3887 19.1883 43.6331C19.1883 43.6331 22.6105 44.9776 27.7439 44.8553C32.8772 44.9776 36.2994 43.6331 36.2994 43.6331C36.2994 43.3887 36.2994 43.022 36.1772 42.7776C35.8105 40.2109 35.8105 37.522 35.6883 34.9553C35.5661 31.4109 35.1994 29.5776 35.9328 26.1553C35.9328 26.0331 35.9328 26.0331 36.055 25.9109C36.055 26.0331 36.1772 26.1553 36.1772 26.2776C36.4217 27.622 36.6661 28.9665 37.155 30.1887C37.5217 31.4109 38.0105 32.6331 38.0105 33.9776C38.0105 35.5665 37.8883 38.7442 38.0105 40.3331C38.1328 41.3109 38.1328 41.5553 38.255 42.2887C38.3772 42.4109 39.7217 42.8998 41.4328 42.2887Z" stroke="#979797" stroke-miterlimit="10"/>
<path d="M13.5664 42.8996C13.5664 43.3885 13.5664 43.8773 13.5664 44.3662C13.5664 44.7329 13.6886 44.8551 14.0553 44.9773C14.7886 45.2218 15.8886 45.2218 16.7442 44.8551C16.8664 44.8551 16.8664 44.7329 16.8664 44.6107C16.8664 43.9996 16.8664 43.3885 16.9886 42.7773C16.4997 43.144 15.2775 43.5107 13.5664 42.8996Z" stroke="#979797" stroke-miterlimit="10"/>
<path d="M31.6552 11.7332C31.6552 11.7332 24.1996 11.3665 23.0996 11.7332V10.0221C23.0996 10.0221 28.5996 9.53317 31.6552 10.1443C31.6552 10.1443 31.7774 10.2665 31.6552 11.7332Z" stroke="#979797" stroke-miterlimit="10"/>
</g>
<defs>
<clipPath id="clip0">
<rect width="55" height="55" fill="white"/>
</clipPath>
</defs>
</svg>
