<svg width="55" height="55" viewBox="0 0 55 55" fill="none" xmlns="http://www.w3.org/2000/svg">
<g clip-path="url(#clip0)">
<path d="M40.9447 29.6996L39.6003 27.6218C39.2336 25.9107 38.5003 23.7107 38.1336 21.8773C38.1336 21.7551 38.1336 21.6329 38.1336 21.5107C37.8892 19.7996 37.767 18.2107 37.4003 16.4996C37.0336 15.0329 36.667 13.444 35.567 12.4662C34.1003 11.244 32.267 11.6107 31.0447 10.2662C30.8003 10.7551 27.6225 16.744 27.6225 16.744L22.0003 11.3662C21.7559 11.1218 21.3892 10.7551 21.267 10.5107C20.9003 10.144 20.6559 9.77734 20.2892 9.77734C20.0447 9.77734 19.6781 9.89957 19.4336 10.0218C17.967 10.9996 16.5003 11.244 15.1559 12.2218C14.3003 12.8329 13.2003 13.5662 12.7114 14.544C12.1003 15.644 12.2225 16.9885 11.9781 18.2107C11.6114 19.7996 10.8781 21.144 10.3892 22.6107C9.9003 24.1996 9.9003 25.9107 9.53364 27.6218C9.28919 28.5996 9.41141 29.6996 9.41141 30.7996C9.41141 31.5329 9.53364 32.144 9.53364 32.8773C9.65586 34.0996 9.65586 35.444 9.77808 36.7885C9.9003 39.4773 10.1447 42.1662 10.3892 44.9773C11.367 45.2218 12.467 45.344 13.4447 44.8551C13.8114 40.944 13.9336 36.9107 13.8114 32.8773C13.8114 31.6551 13.6892 30.3107 13.9336 29.0885C14.4225 27.0107 16.0114 25.1773 16.0114 23.0996C17.6003 30.1885 17.967 35.5662 17.4781 42.7773C17.4781 43.0218 17.4781 43.144 17.6003 43.3885C17.7225 43.6329 17.967 43.6329 18.2114 43.7551C23.5892 45.0996 26.4003 45.0996 31.7781 43.8773C32.5114 43.7551 33.1225 43.6329 33.4892 42.8996C32.5114 36.4218 32.8781 29.944 33.9781 23.4662L35.567 28.844L36.7892 32.0218C36.7892 32.0218 42.6559 40.2107 42.7781 40.8218C42.9003 41.4329 46.0781 41.0662 45.5892 39.4773C45.1003 37.644 40.9447 29.6996 40.9447 29.6996Z" stroke="#979797" stroke-miterlimit="10"/>
<path d="M19.5561 10.144C19.4338 11.4884 27.5005 18.4551 27.5005 18.4551L31.5338 10.9995C31.6561 10.8773 31.1672 10.2662 30.8005 10.3884C28.6005 10.7551 23.1005 10.8773 20.2894 9.89951C20.1672 9.77729 19.5561 9.89951 19.5561 10.144Z" stroke="#979797" stroke-miterlimit="10"/>
</g>
<defs>
<clipPath id="clip0">
<rect width="55" height="55" fill="white"/>
</clipPath>
</defs>
</svg>
