<svg width="55" height="55" viewBox="0 0 55 55" fill="none" xmlns="http://www.w3.org/2000/svg">
<g clip-path="url(#clip0)">
<path d="M44.6111 43.8779L44.7333 44.7335C44.7333 44.7335 42.6555 45.2224 41.9222 45.3446C41.8 45.3446 41.6777 44.0002 41.6777 44.0002L44.6111 43.8779Z" stroke="#979797" stroke-miterlimit="10"/>
<path d="M10.3878 43.8779L10.2656 44.7335C10.2656 44.7335 12.3434 45.2224 13.0767 45.3446C13.199 45.3446 13.3212 44.0002 13.3212 44.0002L10.3878 43.8779Z" stroke="#979797" stroke-miterlimit="10"/>
<path d="M45.0996 37.0332C45.0996 37.0332 42.1663 38.4999 39.5996 38.4999C39.5996 38.4999 39.9663 42.1665 40.2107 42.7776C40.4552 43.3888 40.5774 44.3665 41.5552 44.1221C42.1663 44.1221 44.7329 43.6332 45.3441 43.3888C45.8329 43.2665 45.5885 38.011 45.0996 37.0332Z" stroke="#979797" stroke-miterlimit="10"/>
<path d="M9.8996 37.0332C9.8996 37.0332 12.8329 38.4999 15.3996 38.4999C15.3996 38.4999 15.0329 42.1665 14.7885 42.7776C14.544 43.3888 14.4218 44.3665 13.444 44.1221C12.8329 44.1221 10.2663 43.6332 9.65516 43.3888C9.16627 43.2665 9.41071 38.011 9.8996 37.0332Z" stroke="#979797" stroke-miterlimit="10"/>
<path d="M22.4893 11.9775C21.8782 11.9775 21.3893 12.0997 20.9004 12.3441C21.1448 11.2441 21.1448 10.1441 21.1448 9.04414C21.2671 7.94414 21.5115 6.72192 22.2448 5.98858C22.9782 5.13303 24.2004 4.76636 25.3004 4.64414C26.7671 4.39969 28.3559 4.27747 29.8226 4.52191C31.0448 4.76636 32.1448 5.37747 33.0004 6.23303C33.8559 7.2108 33.7337 8.18858 33.8559 9.28858C33.9782 10.2664 33.9782 11.2441 34.1004 12.2219C32.6337 11.6108 31.0448 12.4664 29.4559 12.833C28.2337 13.1997 26.8893 13.0775 25.6671 12.7108C24.9337 12.4664 24.0782 12.0997 23.3448 11.8552C22.9782 11.9775 22.7337 11.9775 22.4893 11.9775Z" stroke="#979797" stroke-miterlimit="10"/>
<path d="M31.9005 7.94467C31.7782 8.31133 31.5338 8.678 31.2894 9.04467C30.6782 9.778 30.0671 10.5113 29.2116 10.7558C28.2338 11.0002 26.6449 11.1224 25.5449 10.878C24.5671 10.5113 24.0782 9.53355 23.5894 8.678C23.2227 7.94467 22.9782 6.96689 23.4671 6.35578C23.7116 5.98911 24.2005 5.74467 24.6894 5.62244C26.6449 5.01133 29.8227 5.01133 31.4116 6.60022C31.656 6.84467 31.9005 7.21133 31.9005 7.578C31.9005 7.578 31.9005 7.82244 31.9005 7.94467Z" stroke="#979797" stroke-miterlimit="10"/>
<path d="M44.8559 35.1997C44.7337 33.8552 43.2671 25.9108 43.0226 25.2997C42.9004 24.6886 41.1893 20.2886 40.9448 19.6774C40.7004 19.0663 40.0893 17.4774 39.4782 16.6219C38.7448 15.6441 37.5226 15.033 37.5226 15.033C37.5226 15.033 35.4448 14.2997 35.3226 14.1774C34.3448 13.8108 33.2448 13.3219 32.1448 13.4441C31.7782 13.5663 29.4559 13.933 29.3337 14.1774V14.0552C29.3337 14.0552 29.3337 14.0552 29.2115 14.0552V48.8886H26.6448V14.1774C24.9337 13.8108 22.9782 12.7108 21.2671 13.3219L19.5559 13.933L17.3559 14.7886C17.3559 14.7886 16.1337 15.5219 15.4004 16.3774C14.6671 17.3552 14.1782 18.8219 13.9337 19.433C13.6893 20.0441 11.9782 24.3219 11.8559 25.0552C11.7337 25.6663 10.2671 33.733 10.0226 34.9552C9.90039 36.2997 9.90039 36.2997 9.90039 36.2997C9.90039 36.2997 12.8337 37.5219 14.3004 37.6441C15.7671 37.7663 15.5226 37.6441 15.5226 37.6441C15.5226 37.6441 15.8893 35.3219 15.8893 35.0774C16.0115 34.833 16.7448 31.533 16.7448 31.2886C16.7448 31.0441 17.3559 28.5997 17.3559 28.1108C17.3559 27.6219 17.7226 27.133 17.7226 27.133C17.7226 27.133 18.0893 26.8886 18.0893 27.133C18.0893 27.3774 18.2115 28.7219 18.0893 29.5774C17.9671 30.433 17.7226 33.8552 17.7226 34.2219C17.7226 34.5886 17.2337 37.1552 17.2337 37.7663C17.2337 38.3774 17.2337 39.9663 17.2337 40.4552C17.2337 40.9441 17.1115 44.2441 16.9893 44.8552C16.9893 45.4663 16.9893 46.3219 16.9893 46.933C16.9893 47.5441 17.1115 47.9108 17.1115 48.2774C17.1115 48.6441 16.8671 49.133 17.1115 49.3774C17.2337 49.6219 18.4559 50.1108 19.6782 50.3552C24.9337 50.8441 30.0671 50.8441 35.2004 50.3552C36.4226 50.233 37.5226 49.6219 37.7671 49.3774C38.0115 49.133 37.6448 48.6441 37.7671 48.2774C37.7671 47.9108 37.8893 47.5441 37.8893 46.933C37.8893 46.3219 38.0115 45.4663 37.8893 44.8552C37.8893 44.2441 37.6448 40.9441 37.6448 40.4552C37.6448 39.9663 37.6448 38.3774 37.6448 37.7663C37.6448 37.1552 37.1559 34.5886 37.1559 34.2219C37.1559 33.8552 36.9115 30.5552 36.7893 29.5774C36.6671 28.7219 36.7893 27.2552 36.7893 27.133C36.7893 26.8886 37.1559 27.133 37.1559 27.133C37.1559 27.133 37.5226 27.6219 37.5226 28.1108C37.5226 28.5997 38.1337 31.0441 38.1337 31.2886C38.1337 31.533 38.8671 34.833 38.9893 35.0774C39.1115 35.3219 39.3559 37.6441 39.3559 37.6441C39.3559 37.6441 39.1115 37.7663 40.5782 37.6441C42.0448 37.5219 44.9782 36.2997 44.9782 36.2997C44.9782 36.2997 44.9782 36.4219 44.8559 35.1997Z" stroke="#979797" stroke-miterlimit="10"/>
<path d="M37.6448 37.0332H31.9004L32.2671 46.4443C32.2671 46.4443 34.9559 47.911 38.0115 46.4443" stroke="#979797" stroke-miterlimit="10"/>
<path d="M37.7671 39.3547C37.7671 39.3547 32.7559 39.1103 31.9004 39.3547" stroke="#979797" stroke-miterlimit="10"/>
<path d="M17.1097 37.0332H22.8541L22.6097 46.4443C22.6097 46.4443 19.9208 47.911 16.8652 46.4443" stroke="#979797" stroke-miterlimit="10"/>
<path d="M17.1113 39.3547C17.1113 39.3547 22.1224 39.1103 22.978 39.3547" stroke="#979797" stroke-miterlimit="10"/>
<path d="M36.7876 27.2556C33.8543 27.6223 29.332 26.6445 29.332 26.6445" stroke="#979797" stroke-miterlimit="10"/>
<path d="M18.2109 27.2556C21.7554 27.6223 26.7665 26.6445 26.7665 26.6445" stroke="#979797" stroke-miterlimit="10"/>
</g>
<defs>
<clipPath id="clip0">
<rect width="55" height="55" fill="white"/>
</clipPath>
</defs>
</svg>
