<svg width="55" height="55" viewBox="0 0 55 55" fill="none" xmlns="http://www.w3.org/2000/svg">
<g clip-path="url(#clip0)">
<path d="M35.4429 3.42253C34.3429 3.91142 26.7651 4.15587 26.0318 4.03365C24.3207 3.91142 22.7318 3.66698 21.1429 3.30031C20.0429 3.05587 19.9207 2.6892 19.3096 3.54476C18.9429 4.03365 19.0651 5.74476 18.9429 6.35587C18.2096 13.567 18.5763 20.9003 18.9429 28.1114C19.1874 34.5892 19.554 41.067 19.7985 47.5448C19.7985 48.5225 19.9207 49.6225 20.4096 50.6003C20.8985 51.4559 21.9985 52.1892 22.9763 51.9448C24.4429 51.5781 24.6874 49.6225 24.6874 48.1559C24.8096 38.0114 25.9096 27.6225 27.7429 17.6003C29.0874 25.667 28.9651 33.9781 29.3318 42.167C29.454 44.7336 29.5763 47.3003 30.554 49.6225C31.4096 49.9892 32.3874 50.1114 33.3651 50.1114C33.6096 50.1114 33.854 50.1114 34.0985 49.867C34.3429 49.6225 34.4651 49.2559 34.4651 48.8892C35.4429 43.0225 34.7096 36.7892 35.3207 30.9225C35.5651 28.3559 35.4429 26.0336 35.8096 23.5892C36.9096 16.867 36.7874 10.0225 35.4429 3.42253C35.5651 3.30031 35.4429 3.42253 35.4429 3.42253Z" stroke="#979797" stroke-miterlimit="10"/>
<path d="M18.9434 4.88965C18.9434 4.88965 25.2989 6.60076 29.21 6.23409C29.8211 6.23409 30.5545 6.23409 31.2878 6.11187C33.4878 5.86743 35.81 5.50076 35.81 5.50076" stroke="#979797" stroke-miterlimit="10"/>
<path d="M31.0434 6.11133C31.1657 7.08911 31.2879 12.2224 30.6768 12.7113C30.0657 13.2002 29.0879 13.4447 29.0879 13.4447" stroke="#979797" stroke-miterlimit="10"/>
<path d="M29.2108 6.2334C29.2108 6.2334 29.6997 12.7112 28.7219 16.0112L27.7441 17.6001" stroke="#979797" stroke-miterlimit="10"/>
<path d="M25.2991 6.11133C25.2991 6.11133 24.688 12.3447 24.3213 14.178C22.3658 26.7669 23.3435 39.2336 22.7324 51.8224" stroke="#979797" stroke-miterlimit="10"/>
<path d="M32.3887 5.98926C32.3887 5.98926 33.2442 15.767 33.3664 16.3781C33.4887 16.9893 33.2442 23.1004 33.3664 23.9559C33.4887 24.8115 33.4887 31.4115 33.3664 32.267C33.3664 33.1226 33.3664 43.3893 33.3664 44.1226C33.3664 44.8559 33.2442 49.9893 33.2442 49.9893" stroke="#979797" stroke-miterlimit="10"/>
<path d="M21.7551 5.62305L18.4551 12.9564" stroke="#979797" stroke-miterlimit="10"/>
<path d="M34.3438 5.74462H33.7327L33.4883 3.78906H34.0994L34.3438 5.74462Z" stroke="#979797" stroke-miterlimit="10"/>
<path d="M25.6658 6.11098H25.0547V4.0332H25.6658V6.11098Z" stroke="#979797" stroke-miterlimit="10"/>
<path d="M21.2654 5.37773L20.6543 5.25551V3.17773L21.2654 3.5444V5.37773Z" stroke="#979797" stroke-miterlimit="10"/>
</g>
<defs>
<clipPath id="clip0">
<rect width="55" height="55" fill="white"/>
</clipPath>
</defs>
</svg>
