<svg width="55" height="55" viewBox="0 0 55 55" fill="none" xmlns="http://www.w3.org/2000/svg">
<g clip-path="url(#clip0)">
<path d="M35.8111 14.6661C35.8111 14.6661 35.8111 14.9105 36.1778 15.3994C36.5444 15.8883 36.9111 16.6217 37.1556 17.1105C37.4 17.5994 37.5222 17.9661 37.7667 18.5772C38.0111 19.1883 38.2556 19.1883 38.1333 19.6772C38.0111 20.1661 38.3778 20.5328 38.5 20.8994C38.7444 21.3883 38.7444 21.9994 38.7444 22.3661C38.7444 22.7328 38.9889 23.3439 38.9889 23.8328C38.9889 24.3217 38.8667 24.9328 38.9889 25.5439C38.9889 26.155 39.2333 26.8883 39.2333 27.0105C39.2333 27.1328 38.9889 26.7661 38.3778 26.6439C37.7667 26.6439 37.8889 26.6439 37.2778 26.7661C36.6667 26.8883 36.9111 26.7661 36.4222 27.0105C35.9333 27.255 35.9333 27.255 35.9333 27.255C35.9333 27.255 35.4444 26.7661 35.4444 25.9105C35.4444 25.055 35.8111 24.8105 35.4444 24.3217C35.0778 23.8328 35.0778 22.855 35.0778 22.855C35.0778 22.855 35.0778 24.1994 35.0778 24.5661C35.0778 24.8105 34.7111 25.7883 34.7111 25.7883C34.5889 25.7883 32.3889 25.6661 31.2889 25.6661C30.3111 25.7883 29.8222 25.6661 28.7222 25.5439C27.6222 25.2994 25.9111 25.2994 25.9111 24.9328C25.7889 24.4439 25.9111 23.8328 25.7889 23.5883C25.6667 23.3439 25.6667 24.5661 25.5444 24.8105C25.4222 25.1772 25.5444 25.1772 25.0556 25.2994C24.4444 25.4217 24.5667 25.4217 24.0778 25.7883C23.5889 26.2772 23.9556 24.0772 23.8333 23.5883C23.5889 23.0994 22.9778 22.4883 22.7333 22.2439C22 22.1217 22 22.1217 22 22.1217C22 22.1217 22.6111 21.5105 22.7333 21.2661C22.8556 21.0217 23.8333 17.9661 23.8333 17.5994C23.8333 17.2328 23.8333 16.255 24.5667 15.7661C25.3 15.2772 26.1556 13.8105 27.3778 13.8105C28.6 13.8105 35.4444 13.9328 35.8111 14.6661Z" stroke="#979797" stroke-miterlimit="10"/>
<path d="M34.4665 27.1331C34.4665 27.1331 35.0776 28.3553 35.322 29.8219C35.4443 31.1664 35.6887 34.8331 35.6887 35.5664C35.6887 36.1775 36.0554 39.7219 36.1776 40.4553C36.1776 41.1886 36.5443 47.7886 36.5443 48.6442C36.5443 49.4997 36.6665 49.6219 35.4443 49.8664C34.222 50.1108 32.8776 50.4775 32.2665 50.4775C31.5332 50.4775 30.5554 50.233 30.0665 50.4775C29.5776 50.7219 28.4776 50.7219 28.1109 50.7219C27.7443 50.5997 27.622 50.8442 26.522 50.7219C25.4221 50.5997 23.7109 50.1108 23.7109 50.1108C23.7109 50.1108 23.7109 49.133 23.7109 48.3997C23.8332 47.5442 24.1998 45.0997 24.1998 44.6108C24.1998 44.1219 23.8332 32.5108 24.4443 30.0664C25.0554 27.6219 25.5443 26.1553 25.5443 26.1553C25.5443 26.1553 33.122 26.3997 34.4665 27.1331Z" stroke="#979797" stroke-miterlimit="10"/>
<path d="M34.4663 25.7883C34.4663 25.7883 34.5885 26.0328 34.5885 26.5217C34.5885 27.0105 35.0774 27.1328 34.2219 27.1328C33.3663 27.1328 30.3108 27.0105 30.0663 27.0105C29.6997 27.0105 26.7663 26.8883 26.1552 26.6439C25.6663 26.3994 25.4219 26.0328 25.4219 26.0328C25.4219 26.0328 25.4219 24.8105 25.6663 24.8105C25.9108 24.8105 27.8663 25.4217 29.0885 25.4217C30.3108 25.4217 32.3885 25.4217 32.8774 25.4217C33.3663 25.4217 34.5885 25.1772 34.4663 25.7883Z" stroke="#979797" stroke-miterlimit="10"/>
<path d="M32.879 12.8335C33.3679 12.9557 33.979 13.2001 34.4679 13.4446C34.8346 13.5668 35.9346 14.1779 36.0568 14.5446C36.179 15.0335 35.3235 15.4001 34.9568 15.6446C34.4679 16.0112 33.979 16.3779 33.3679 16.7446C32.2679 17.3557 32.3901 17.8446 31.1679 18.089C31.0457 28.8446 29.7012 39.7224 29.7012 50.4779C29.0901 50.6001 28.479 50.7223 28.1123 50.2335C27.9901 49.989 27.9901 49.7446 27.9901 49.5001C27.6235 39.4779 28.3568 28.1112 28.1123 18.089C28.1123 17.2335 27.1346 17.8446 26.6457 17.1112C26.1568 16.5001 25.4235 16.1335 24.9346 15.5224C24.8123 15.4001 24.6901 15.1557 24.8123 14.9112C24.8123 14.789 24.9346 14.6668 25.0568 14.5446C26.5235 13.2001 28.479 12.4668 30.5568 12.4668C31.2901 12.4668 32.1457 12.589 32.879 12.8335Z" stroke="#979797" stroke-miterlimit="10"/>
<path d="M32.1447 10.2668C32.1447 10.2668 32.3891 10.7557 32.0224 10.8779C31.6558 11.0001 31.4113 10.8779 31.1669 10.8779C31.0447 10.8779 31.0447 11.0001 30.8002 11.1223C30.5558 11.1223 30.5558 11.1223 30.3113 11.1223C30.0669 11.1223 29.7002 11.3668 29.3335 11.1223C29.0891 10.8779 28.7224 10.6334 28.478 10.6334C28.2335 10.6334 28.1113 10.5112 28.1113 10.389C28.2335 10.2668 28.478 9.90011 28.3558 9.77788C28.2335 9.77788 28.6002 9.289 28.1113 9.41122C27.6224 9.41122 27.378 9.41122 27.1336 9.77788C27.0113 10.2668 26.7669 10.389 26.8891 10.7557C27.0113 11.0001 27.0113 11.0001 27.0113 11.2446C27.0113 11.489 27.378 11.6112 27.0113 12.1001C26.6447 12.589 26.1558 12.9557 26.5224 13.5668C26.8891 14.1779 26.8891 13.5668 26.6447 14.5446C26.278 15.5223 26.6447 15.5223 26.6447 16.2557C26.6447 16.989 26.1558 17.7223 27.8669 18.2112C29.3335 18.5779 29.9447 18.8223 30.5558 18.7001C31.1669 18.4557 30.4335 18.5779 31.5335 18.4557C32.7558 18.3334 32.3891 18.089 32.878 17.6001C33.3669 17.1112 33.4891 17.3557 33.978 16.6223C34.8335 14.9112 33.3669 12.2223 33.3669 12.1001C33.3669 11.9779 33.1224 11.6112 33.3669 11.1223C33.4891 10.6334 33.4891 10.6334 33.3669 10.2668C33.2447 9.90011 33.1224 9.65566 33.0002 9.77788C32.878 9.90011 32.5113 9.53344 32.3891 9.53344C32.2669 9.53344 31.9002 9.53344 32.0224 9.77788C32.1447 9.90011 32.1447 10.2668 32.1447 10.2668Z" stroke="#979797" stroke-miterlimit="10"/>
<path d="M32.9997 8.79966C32.9997 8.79966 32.633 7.57744 32.3886 6.96633C32.1441 6.35522 32.5108 5.74411 32.2664 5.25522C32.1441 4.88855 31.4108 4.64411 31.1664 4.52189C30.7997 4.27744 30.0664 4.15522 29.6997 4.27744C29.2108 4.39966 28.7219 4.76633 28.3553 5.133C27.8664 5.62188 28.1108 6.11077 27.9886 6.72188C27.9886 6.96633 27.7441 7.333 27.7441 7.57744C27.7441 7.82188 27.7441 8.433 27.7441 8.433C27.7441 8.433 28.4775 9.28855 32.9997 8.79966Z" stroke="#979797" stroke-miterlimit="10"/>
<path d="M33 9.65514C33 9.65514 31.7778 9.04403 30.4333 9.16626C29.0889 9.28848 27.5 9.4107 27.5 9.4107C27.5 9.4107 27.6222 8.55514 27.8667 8.43292C28.1111 8.18848 29.8222 7.45514 30.9222 7.69959C32.0222 7.94403 33.2444 8.92181 33.2444 8.92181C33.2444 8.92181 33.6111 9.4107 33 9.65514Z" stroke="#979797" stroke-miterlimit="10"/>
<path d="M36.7898 47.666C36.7898 47.666 35.6898 48.2771 34.2231 48.3993C32.8787 48.5216 32.2676 48.766 30.9231 48.766C29.5787 48.766 27.9898 48.766 26.8898 48.6438C25.7898 48.5216 24.812 48.5216 24.3231 48.3993C23.8343 48.3993 23.2231 48.1549 23.2231 48.1549C23.2231 48.1549 22.7343 49.9882 23.2231 50.3549C23.5898 50.7216 25.912 51.3327 27.1343 51.2105C28.3565 51.0882 28.8454 50.966 29.9454 50.966C31.1676 50.966 31.7787 51.2105 33.612 51.0882C35.4454 50.966 36.7898 50.2327 37.0343 49.4993C37.2787 48.8882 36.7898 47.666 36.7898 47.666Z" stroke="#979797" stroke-miterlimit="10"/>
<path d="M35.4449 28.2328C35.4449 28.1106 35.6893 27.7439 36.1782 27.6217C36.5449 27.4995 37.6449 27.1328 38.256 27.1328C38.8671 27.1328 39.6004 27.4995 39.7226 27.8661C39.8449 28.1106 39.8449 28.4773 39.8449 28.7217C39.8449 29.0884 39.7226 29.455 39.8449 29.6995C39.9671 29.9439 40.2115 30.9217 39.8449 31.1661C39.4782 31.4106 38.9893 31.2884 38.9893 31.2884C38.9893 31.2884 39.356 30.4328 38.7449 30.3106C38.1338 30.1884 36.9115 30.1884 36.5449 30.1884C36.1782 30.3106 35.6893 30.555 35.6893 30.555C35.6893 30.555 35.3226 30.0661 35.4449 29.6995C35.6893 29.3328 35.4449 28.355 35.4449 28.2328Z" stroke="#979797" stroke-miterlimit="10"/>
<path d="M22.3675 21.8778C22.8564 22.3667 23.5898 23.1 23.8342 23.7111C23.9564 24.2 24.0786 24.9333 24.0786 25.4222C23.9564 26.0333 23.4675 26.0333 23.2231 26.5222C23.1009 26.7667 22.9786 27.1333 22.7342 27.3778C22.1231 27.9889 21.2675 28.3556 20.5342 27.8667C19.9231 27.5 18.9453 26.6444 18.9453 25.7889C18.9453 25.3 19.1898 23.5889 19.1898 23.3444C19.312 22.9778 19.6786 22.6111 19.8009 22.4889C19.9231 22.3667 20.0453 22.1222 20.412 22C20.7786 21.8778 21.7564 21.7556 22.3675 21.8778Z" stroke="#979797" stroke-miterlimit="10"/>
<path d="M22.001 24.8104C21.8788 25.4216 21.5121 25.7882 20.901 25.7882C20.2899 25.7882 19.5566 25.5438 19.4343 25.1771C19.1899 24.6882 19.4343 22.4882 19.801 22.1216C20.0454 21.8771 21.0232 21.7549 21.3899 21.7549C21.7566 21.7549 22.001 21.9993 22.001 22.6104C22.1232 23.0993 22.2454 24.0771 22.001 24.8104Z" stroke="#979797" stroke-miterlimit="10"/>
<path d="M39.4774 30.1882C39.4774 30.1882 39.4774 31.0438 38.9886 31.5327C38.4997 32.0216 38.6219 32.1438 38.133 32.266C37.6441 32.3882 37.033 32.5105 36.6663 32.3882C36.2997 32.266 35.933 30.7993 36.0552 30.5549C36.1774 30.3105 36.2997 29.9438 36.9108 29.9438C37.5219 29.8216 38.8663 29.5771 39.4774 30.1882Z" stroke="#979797" stroke-miterlimit="10"/>
<path d="M30.6784 12.0992C30.8006 11.977 30.0672 12.0992 29.7006 12.0992C29.3339 12.0992 29.4561 12.0992 29.0895 12.0992C28.9672 11.977 30.0673 12.8326 30.6784 12.0992Z" stroke="#979797" stroke-miterlimit="10"/>
<path d="M18.0893 53.4106L20.656 25.5439H19.9227L17.7227 53.5328L18.0893 53.4106Z" stroke="#979797" stroke-miterlimit="10"/>
<path d="M22.0002 4.7666C21.6335 4.7666 21.2668 5.13327 21.2668 5.49993C21.2668 5.74438 21.3891 5.98882 21.6335 6.11105L20.2891 21.8777L21.1446 21.7555L22.3668 6.11105C22.6113 5.98882 22.7335 5.74438 22.7335 5.49993C22.7335 5.13327 22.3668 4.7666 22.0002 4.7666Z" stroke="#979797" stroke-miterlimit="10"/>
<path d="M23.3437 3.42196H22.4881L22.2437 2.56641L21.877 3.29974H21.0215L21.6326 3.91085L21.3882 4.64418L22.1215 4.1553L22.7326 4.76641L22.6104 3.91085L23.3437 3.42196Z" stroke="#979797" stroke-miterlimit="10"/>
</g>
<defs>
<clipPath id="clip0">
<rect width="55" height="55" fill="white"/>
</clipPath>
</defs>
</svg>
