<svg width="55" height="55" viewBox="0 0 55 55" fill="none" xmlns="http://www.w3.org/2000/svg">
<g clip-path="url(#clip0)">
<path d="M21.6332 22.9775C20.5332 25.0553 21.1443 27.2553 21.3888 29.4553C21.511 30.3109 22.3666 36.2998 22.4888 38.4998C22.611 40.6998 23.3443 44.4887 23.3443 45.7109C23.4666 46.8109 24.4443 51.0887 24.3221 51.5775C24.0777 54.3887 24.3221 52.6775 26.2777 52.4331C28.111 52.1887 28.111 53.7775 28.111 52.1887C28.111 51.5775 28.111 50.5998 28.2332 49.9887C28.2332 49.2553 27.7443 47.9109 27.8666 47.422C27.8666 46.9331 27.7443 42.7775 27.6221 41.6775C27.4999 40.5775 27.6221 38.9887 27.6221 38.2553C27.6221 37.3998 27.8666 36.2998 27.9888 35.0775C27.9888 33.8553 28.2332 29.822 28.2332 29.822C28.2332 29.822 28.8443 33.4887 28.8443 33.9775C28.8443 34.4664 29.3332 36.5442 29.3332 37.2775C29.3332 38.0109 30.311 39.5998 30.6777 39.722C30.9221 39.8442 30.6777 40.4553 30.311 41.0664C29.9443 41.6775 30.1888 44.3664 30.311 45.0998C30.311 45.8331 30.1888 46.5664 29.9443 46.9331C29.6999 47.422 30.0666 48.3998 30.0666 49.0109C29.9443 49.4998 29.8221 49.8664 29.8221 50.1109C29.8221 50.3553 30.4332 51.2109 31.411 51.2109C32.3888 51.2109 32.3888 50.9664 32.3888 50.9664C32.3888 50.9664 32.7555 49.9887 32.7555 49.3775C32.8777 48.8887 33.2443 47.2998 33.611 45.8331C34.0999 44.3664 35.4443 37.6442 35.4443 37.3998C35.5666 37.1553 35.5666 36.7887 35.4443 35.9331C35.3221 35.0775 34.9555 33.3664 34.8332 32.7553C34.711 32.022 34.711 30.6775 34.8332 29.6998C34.9555 28.8442 34.4666 23.9553 34.4666 23.9553" stroke="#979797" stroke-miterlimit="10" stroke-linejoin="round"/>
<path d="M30.1896 2.07755C30.1896 2.07755 26.2785 1.34422 22.9785 2.68866" stroke="#979797" stroke-miterlimit="10" stroke-linejoin="round"/>
<path d="M38.7447 10.2662C38.7447 10.2662 38.2559 11.1217 37.5225 11.7329C36.7892 12.344 36.1781 12.344 35.8114 12.5884C35.4447 11.9773 33.6114 9.41063 33.6114 9.41063C33.6114 9.41063 33.8559 11.244 33.2447 13.1995C33.2447 16.6217 33.8559 21.2662 34.3447 23.5884C34.467 23.8329 33.367 24.0773 33.1225 24.0773C32.267 24.1995 31.4114 24.6884 30.4336 24.6884C29.4559 24.6884 28.4781 24.8106 27.5003 24.8106C26.0336 24.8106 24.4447 24.5662 23.1003 24.0773C22.2447 23.8329 21.5114 23.0995 21.0225 22.3662C21.0225 22.3662 21.7559 17.4773 21.0225 10.8773V9.41063L20.0447 11.9773C20.0447 11.9773 19.3114 12.0995 18.3336 11.9773C17.3559 11.8551 16.2559 11.1217 16.2559 11.1217C16.2559 11.1217 16.867 9.65508 16.867 9.53286C16.9892 8.92175 17.1114 8.31063 17.1114 7.69952C17.2336 6.72175 17.3559 5.62174 17.967 4.76619C18.5781 4.03286 19.3114 3.78841 20.167 3.54397C21.0225 3.1773 21.8781 2.81063 22.7336 2.56619H22.8559C22.8559 2.56619 22.9781 4.76619 26.0336 4.76619C26.1559 4.76619 26.8892 6.35508 27.1336 6.35508C27.2559 6.35508 27.7447 4.64397 27.9892 4.64397C30.9225 4.15508 30.067 1.95508 30.067 1.95508C30.067 1.95508 33.8559 3.05508 34.2225 3.29952C34.5892 3.42174 35.4447 3.78841 35.6892 4.52174C36.0559 5.25508 38.7447 10.2662 38.7447 10.2662Z" stroke="#979797" stroke-miterlimit="10" stroke-linejoin="round"/>
</g>
<defs>
<clipPath id="clip0">
<rect width="55" height="55" fill="white"/>
</clipPath>
</defs>
</svg>
