<svg width="55" height="55" viewBox="0 0 55 55" fill="none" xmlns="http://www.w3.org/2000/svg">
<g clip-path="url(#clip0)">
<path d="M27.044 45.0998C27.044 45.0998 27.044 44.8554 26.7996 45.222C26.5551 45.4665 26.1885 46.5665 26.0662 47.0554C25.944 47.5443 25.8218 48.2776 25.8218 48.2776C25.8218 48.2776 25.8218 48.3998 25.2107 48.522C24.5996 48.7665 21.544 49.0109 20.0773 48.7665C18.6107 48.522 17.2662 48.1554 17.2662 48.1554L16.7773 47.6665C16.7773 47.6665 16.8996 43.6332 17.3885 41.922C17.8773 40.2109 18.244 39.5998 18.3662 36.5443C18.3662 35.322 18.6107 35.0776 18.6107 35.0776C18.6107 35.0776 23.8662 36.1776 28.6329 35.9332C33.3996 35.6887 34.744 34.7109 34.744 34.7109C34.744 34.7109 35.3551 36.2998 35.4773 37.7665C35.5996 39.2332 35.844 41.3109 35.9662 42.2887C36.0885 43.2665 36.3329 47.0554 36.3329 47.422C36.3329 47.7887 35.844 48.0332 35.3551 48.1554C34.8662 48.2776 31.6885 48.7665 29.7329 48.3998C27.7773 48.1554 27.6551 47.7887 27.6551 47.7887C27.6551 47.7887 27.2885 45.0998 27.044 45.0998Z" stroke="#979797" stroke-miterlimit="10" stroke-linejoin="round"/>
<path d="M26.9219 44.9778C26.9219 44.9778 27.7774 44.9778 28.633 44" stroke="#979797" stroke-miterlimit="10" stroke-linejoin="round"/>
<path d="M20.6884 35.2002C20.6884 35.2002 20.3218 38.6224 19.8329 39.8446C19.344 41.0669 18.9773 43.5113 18.8551 44.3669C18.7329 45.1002 18.8551 48.278 18.8551 48.278" stroke="#979797" stroke-miterlimit="10" stroke-linejoin="round"/>
<path d="M34.5009 33.7336C34.2565 32.7558 34.3787 31.2891 34.3787 30.1891C34.3787 29.2113 33.7676 27.5002 33.7676 26.6447C33.7676 25.7891 33.7676 23.4669 33.7676 22.7336C33.7676 22.0002 34.1342 20.5335 34.2565 20.0447C34.3787 19.5558 35.3565 17.2335 35.3565 16.5002C35.3565 15.7669 34.6231 15.5224 33.5231 13.2002C32.4231 10.878 33.0342 6.84466 33.0342 6.84466C32.7898 6.72244 31.3231 6.11133 31.3231 6.11133C30.9565 6.47799 31.0787 7.82244 30.9565 8.43355C30.8342 9.28911 30.5898 10.1447 30.1009 11.0002C28.2676 14.178 24.4787 12.4669 22.6454 10.3891C22.4009 10.1447 20.812 6.47799 21.4231 6.23355C21.4231 6.23355 20.0787 6.84466 19.712 6.96688C19.712 6.96688 20.812 11.0002 19.5898 13.3224C18.4898 15.6447 17.2676 15.8891 17.2676 16.6224C17.2676 17.3558 18.2454 19.5558 18.3676 20.1669C18.4898 20.6558 18.8565 22.1224 18.8565 22.8558C18.8565 23.5891 18.8565 25.9113 18.8565 26.7669C18.8565 27.6224 18.3676 29.2113 18.2454 30.3113C18.2454 31.2891 18.3676 32.878 18.1231 33.8558C18.1231 33.8558 19.9565 34.7113 26.6787 34.7113C33.6454 34.5891 34.5009 33.7336 34.5009 33.7336Z" stroke="#979797" stroke-miterlimit="10" stroke-linejoin="round"/>
</g>
<defs>
<clipPath id="clip0">
<rect width="55" height="55" fill="white"/>
</clipPath>
</defs>
</svg>
