<?xml version="1.0" encoding="utf-8"?>
<!-- Generator: Adobe Illustrator 25.3.1, SVG Export Plug-In . SVG Version: 6.00 Build 0)  -->
<svg version="1.1" id="Слой_1" xmlns="http://www.w3.org/2000/svg" xmlns:xlink="http://www.w3.org/1999/xlink" x="0px" y="0px"
	 viewBox="0 0 55 55" style="enable-background:new 0 0 55 55;" xml:space="preserve">
<style type="text/css">
	.st0{fill:none;stroke:#979797;stroke-miterlimit:10;}
</style>
<g>
	<path class="st0" d="M28.8,25.3c0,0,8.7-5.5,13.4-5.5c1.3,0,5.1-0.4,5.3,3.8s-14.1,15-19.4,16.9s-7.8-0.8-8.1-2.4s1.6-10.1,5-12.2
		s7.4,0.9,8.4,1.9c1,1,4.4,5.1,4.4,6.4"/>
	<path class="st0" d="M47.6,23.6c0,0,0.3,1.5,0.4,2.8c0.1,2.2-6.8,8.2-9.8,10.5c-3.6,2.8-10.4,6-12.3,5.9c-2.6-0.1-4.4-0.9-5.3-3
		c-1-2.1-0.2-4.4-0.2-4.4"/>
</g>
<g>
	<path class="st0" d="M20.9,33.4c-2.5,1.7-4.9,3.1-6.5,3.6c-5.3,1.9-7.8-0.8-8.1-2.4s1.6-10.1,5-12.2s7.4,0.9,8.4,1.9
		s2.9,3.3,2.9,4.6"/>
	<path class="st0" d="M15.1,21.7c0,0,6.5-4.4,11.2-4.9c1.5-0.2,7.3-1.3,7.5,2.9c0,0.9,0.3,1.8-0.7,3.1"/>
	<path class="st0" d="M20.5,35.8c-3.3,1.9-7.1,3.6-8.4,3.6c-2.6,0-4.4-0.9-5.3-3c-1-2.1-0.2-4.4-0.2-4.4"/>
	<path class="st0" d="M33.8,20.1"/>
</g>
</svg>
