<svg width="55" height="55" viewBox="0 0 55 55" fill="none" xmlns="http://www.w3.org/2000/svg">
<g clip-path="url(#clip0)">
<path d="M35.9337 40.8224C35.6892 39.1113 35.4448 35.3224 35.3226 33.6113C35.2004 32.0224 35.2004 32.5113 35.3226 30.9224C35.4448 29.3335 35.567 27.8669 35.8115 26.278C35.9337 25.3002 36.1781 24.2002 36.4226 23.2224C36.4226 23.1002 36.5448 22.978 36.5448 22.978C36.5448 23.1002 36.667 23.3446 36.667 23.4669C36.9115 24.8113 37.0337 25.6669 37.0337 26.0335C37.0337 26.4002 40.9448 26.6446 41.9226 25.3002C41.8003 24.078 41.5559 22.7335 41.4337 21.5113C40.7004 16.8669 38.7448 14.3002 33.9781 13.2002C33.8559 13.2002 33.7337 13.2002 33.7337 13.3224C33.1226 14.5446 32.0226 15.278 30.6781 15.8891C29.7003 16.2558 29.2115 16.378 28.1115 16.378H26.767C25.7892 16.378 25.3003 16.2558 24.3226 15.8891C22.9781 15.4002 21.8781 14.6669 21.267 13.3224C21.1448 13.2002 21.1448 13.2002 21.0226 13.2002C15.8892 14.5446 14.4226 16.2558 13.567 21.5113C13.3226 22.7335 13.2003 24.078 13.0781 25.3002C14.0559 26.6446 17.967 26.0335 17.967 26.0335C18.2115 24.6891 18.2115 24.6891 18.3337 23.4669C18.3337 23.3446 18.4559 23.1002 18.4559 22.978C18.4559 23.1002 18.5781 23.2224 18.5781 23.2224C18.8226 24.2002 18.9448 25.3002 19.1892 26.278C19.4337 27.8669 19.5559 29.3335 19.6781 30.9224C19.8003 32.5113 19.8003 32.0224 19.6781 33.6113C19.5559 35.3224 19.3115 39.1113 19.067 40.8224C19.067 40.8224 21.267 43.878 28.2337 43.2669C35.3226 42.778 35.9337 40.8224 35.9337 40.8224Z" stroke="#979797" stroke-miterlimit="10"/>
<path d="M22.7326 11.6116C22.4882 11.856 22.2437 12.1004 22.1215 12.3449C21.8771 12.5893 23.9548 13.8116 24.1993 14.056C25.5437 14.9116 27.3771 15.0338 28.966 14.7893C29.9437 14.6671 30.9215 14.3004 31.7771 13.8116C32.0215 13.6893 33.4882 12.7116 33.1215 12.3449L32.6326 11.6116C31.166 12.956 28.966 13.3227 27.0104 13.0782C26.0326 12.956 25.2993 12.7116 24.566 12.3449C24.1993 12.3449 22.7326 11.4893 22.7326 11.6116Z" stroke="#979797" stroke-miterlimit="10"/>
</g>
<defs>
<clipPath id="clip0">
<rect width="55" height="55" fill="white"/>
</clipPath>
</defs>
</svg>
