<svg width="55" height="55" viewBox="0 0 55 55" fill="none" xmlns="http://www.w3.org/2000/svg">
<g clip-path="url(#clip0)">
<path d="M33.0009 13.3224C34.3454 13.6891 36.3009 14.0558 37.6454 14.4224C38.5009 14.6669 38.9898 15.278 39.2343 16.0113C39.7232 17.478 39.9676 18.9447 40.212 20.4113C40.3343 21.5113 40.5787 22.6113 40.7009 23.5891C40.8232 24.5669 40.9454 25.5447 41.0676 26.5224C41.1898 27.6224 41.312 28.7224 41.312 29.8224C41.4343 31.1669 41.4343 32.3891 41.5565 33.7336C41.6787 36.5447 41.6787 39.2336 41.6787 42.0447C41.6787 42.4113 41.5565 42.5336 41.1898 42.6558C40.3343 42.9002 39.4787 42.9002 38.7454 42.5335C38.6232 42.5335 38.6232 42.4113 38.6232 42.2891C38.6232 41.5558 38.5009 40.8224 38.5009 40.0891C38.3787 38.9891 38.3787 37.8891 38.2565 36.7891C38.2565 35.9336 38.1343 35.078 38.012 34.3447C37.8898 33.3669 37.7676 32.5113 37.6454 31.5335C37.5232 30.5558 37.4009 29.4558 37.2787 28.478C37.1565 27.378 36.912 26.4002 36.7898 25.3002C36.6676 24.2002 36.4232 23.1002 36.3009 22.0002C36.3009 21.878 36.1787 21.7558 36.1787 21.5113C36.1787 21.6336 36.0565 21.6335 36.0565 21.7558C35.9343 22.6113 35.6898 23.4669 35.5676 24.3224C35.4454 25.6669 36.1787 39.6002 36.4232 41.0669C36.4232 41.4335 36.4232 41.678 36.5454 42.0447C33.1232 43.7558 20.7787 43.6336 19.1898 42.0447C19.1898 41.678 19.1898 41.4335 19.312 41.0669C19.5565 39.6002 20.2898 25.6669 20.1676 24.3224C20.0454 23.4669 19.8009 22.6113 19.6787 21.7558C19.6787 21.6335 19.6787 21.6336 19.5565 21.5113C19.5565 21.6336 19.4343 21.7558 19.4343 22.0002C19.312 23.1002 19.0676 24.2002 18.9454 25.3002C18.8232 26.4002 18.5787 27.378 18.4565 28.478C18.3343 29.4558 18.212 30.5558 18.0898 31.5335C17.9676 32.5113 17.8454 33.3669 17.7232 34.3447C17.6009 35.2002 17.6009 36.0558 17.4787 36.7891C17.3565 37.8891 17.3565 38.9891 17.2343 40.0891C17.2343 40.8224 17.112 41.5558 17.112 42.2891C17.112 42.4113 17.112 42.4113 16.9898 42.5335C16.1343 42.9002 15.4009 42.9002 14.5454 42.6558C14.1787 42.5336 14.0565 42.4113 14.0565 42.0447C13.9343 39.2336 14.0565 36.5447 14.1787 33.7336C14.1787 32.3891 14.3009 31.1669 14.4232 29.8224C14.5454 28.7224 14.5454 27.6224 14.6676 26.5224C14.7898 25.5447 14.912 24.5669 15.0343 23.5891C15.1565 22.4891 15.2787 21.3891 15.5232 20.4113C15.7676 18.9447 16.012 17.478 16.5009 16.0113C16.7454 15.1558 17.2343 14.6669 18.0898 14.4224C19.312 14.0558 20.6565 13.5669 21.8787 13.3224L23.2232 11.6113C23.2232 11.6113 26.4009 11.6113 27.7454 11.6113C29.0898 11.6113 32.1454 11.6113 32.1454 11.6113L33.0009 13.3224Z" stroke="#979797" stroke-miterlimit="10"/>
<path d="M31.5333 11.6113L33 13.3224L30.1889 17.478L27.5 14.7891L31.5333 11.6113Z" stroke="#979797" stroke-miterlimit="10"/>
<path d="M22.6112 11.6113L21.1445 13.3224L23.9556 17.478L26.889 14.7891L22.6112 11.6113Z" stroke="#979797" stroke-miterlimit="10"/>
<path d="M13.4453 40.4561C13.4453 40.4561 14.1786 40.9449 16.7453 40.7005" stroke="#979797" stroke-miterlimit="10"/>
<path d="M38.2559 40.4561C38.2559 40.4561 38.9892 40.9449 41.5559 40.7005" stroke="#979797" stroke-miterlimit="10"/>
<path d="M27.1348 15.0332V39.7221V43.3888H29.3348L27.1348 39.7221" stroke="#979797" stroke-miterlimit="10"/>
</g>
<defs>
<clipPath id="clip0">
<rect width="55" height="55" fill="white"/>
</clipPath>
</defs>
</svg>
