<svg width="55" height="55" viewBox="0 0 55 55" fill="none" xmlns="http://www.w3.org/2000/svg">
<g clip-path="url(#clip0)">
<path d="M30.4325 7.33372L31.8992 7.2115C31.8992 7.2115 32.0214 6.96706 32.0214 7.45595C32.0214 7.82261 32.0214 8.92261 32.0214 8.92261C32.0214 8.92261 32.2659 8.92261 32.2659 9.28928C32.2659 9.65595 32.5103 11.4893 32.9992 11.6115C33.4881 11.7337 34.2214 12.2226 34.2214 12.8337C34.2214 13.4448 34.3437 14.6671 33.977 15.0337C33.6103 15.4004 33.4881 15.5226 33.4881 15.5226L33.8548 17.4782C33.8548 17.4782 34.5881 17.4782 34.8325 18.0893C35.077 18.8226 37.0325 30.5559 37.1548 31.6559C37.277 33.3671 37.0325 34.8337 37.3992 36.4226C37.7659 38.1337 38.1325 39.7226 38.377 41.4337C38.6214 43.3893 38.6214 45.2226 38.4992 47.1782C38.4992 48.5226 38.8659 51.0893 38.2548 52.1893C38.1325 52.3115 37.7659 51.5782 36.4214 51.456C35.077 51.3337 33.6103 51.5782 33.2437 52.0671C32.877 52.556 32.7548 52.556 32.5103 52.3115C32.2659 52.0671 32.0214 51.8226 32.0214 50.8448C32.2659 47.3004 31.777 44.2448 30.5548 40.9448C30.1881 39.8448 29.9437 37.6448 29.6992 37.0337C29.4548 36.4226 29.0881 32.6337 28.9659 32.2671C28.8437 31.9004 28.477 29.7004 27.9881 29.8226C27.4992 29.8226 27.377 29.7004 27.377 30.0671C27.4992 30.4337 27.6214 31.5337 27.2548 32.6337C27.0103 33.7337 26.7659 34.8337 26.7659 35.5671C26.6437 36.3004 27.0103 36.6671 26.7659 37.2782C26.5214 37.8893 26.1548 38.0115 25.9103 38.9893C25.7881 39.9671 25.5437 40.4559 25.2992 41.3115C24.8103 42.6559 24.9325 44.0004 24.6881 45.3448C24.4437 46.5671 23.9548 47.5448 23.9548 48.7671C23.9548 49.5004 24.3214 50.4782 23.8325 51.0893C23.3437 51.7004 23.7103 52.4337 22.977 52.3115C22.2437 52.1893 20.6548 50.7226 19.677 50.7226C18.6992 50.8448 18.4548 51.3337 17.9659 51.5782C17.477 51.8226 17.7214 51.8226 17.477 50.8448C17.2325 49.8671 17.3548 49.3782 17.5992 47.9115C17.7214 46.4448 17.477 44.6115 17.8437 43.5115C18.2103 42.4115 18.2103 39.4782 18.577 38.3782C18.9437 37.1559 19.0659 34.7115 19.1881 34.2226C19.3103 33.7337 19.1881 31.0448 19.4325 30.4337C19.677 29.8226 19.9214 23.4671 20.0437 22.3671C20.1659 21.2671 20.777 17.6004 20.8992 17.3559C21.0214 17.1115 20.8992 17.2337 21.2659 17.1115C21.6325 16.9893 21.7548 15.7671 21.877 15.5226C21.877 15.2782 21.3881 13.9337 21.2659 13.5671C21.1437 13.2004 21.2659 11.4893 21.5103 11.1226C21.7548 10.7559 22.1214 10.6337 22.3659 10.3893C22.6103 10.1448 22.8548 9.53372 22.8548 8.80039C22.8548 8.06706 22.7325 7.33372 22.977 7.33372C23.2214 7.33372 24.8103 7.2115 24.8103 7.2115C24.8103 7.2115 24.9325 9.77817 25.2992 9.90039C25.4214 9.90039 26.5214 10.1448 27.2548 10.1448C27.377 10.1448 27.1325 18.4559 27.6214 21.8782C27.7437 22.8559 28.1103 22.3671 28.1103 22.3671C28.3548 22.3671 27.7437 10.0226 27.9881 10.0226C28.8437 10.0226 29.3325 10.0226 29.6992 10.0226C30.3103 9.90039 30.4325 7.33372 30.4325 7.33372Z" stroke="#979797" stroke-miterlimit="10" stroke-linecap="round" stroke-linejoin="round"/>
<path d="M32.1428 6.84438L30.4316 6.59994C30.4316 6.59994 30.9205 5.13327 31.0428 4.88882C31.165 4.64438 32.0205 2.68882 32.1428 2.5666C32.265 2.44438 33.2428 3.29994 33.365 3.42216C33.4872 3.54438 33.6094 3.54438 33.4872 3.6666C33.365 3.78882 32.1428 6.59994 32.1428 6.84438Z" stroke="#979797" stroke-miterlimit="10" stroke-linecap="round" stroke-linejoin="round"/>
<path d="M24.0772 2.44434C24.0772 2.44434 22.9772 2.68878 22.8549 2.811C22.7327 2.811 22.4883 2.811 22.4883 3.05545C22.4883 3.42211 22.6105 4.03322 22.6105 4.39989C22.6105 4.76656 22.7327 6.47767 22.8549 6.59989C22.9772 6.84434 23.2216 6.84434 23.3438 6.84434C23.4661 6.84434 24.6883 6.84434 24.6883 6.72211C24.6883 6.59989 24.6883 6.23322 24.6883 6.111C24.6883 5.98878 24.4438 2.44434 24.0772 2.44434Z" stroke="#979797" stroke-miterlimit="10" stroke-linecap="round" stroke-linejoin="round"/>
<path d="M32.8763 5.98828C32.8763 5.98828 32.6319 6.72161 32.5096 6.84384C32.3874 6.96606 32.3874 7.57717 32.5096 7.57717C32.6319 7.57717 32.6319 7.45495 32.8763 7.33273C32.9985 7.2105 33.4874 6.1105 32.8763 5.98828Z" stroke="#979797" stroke-miterlimit="10" stroke-linecap="round" stroke-linejoin="round"/>
<path d="M22.2429 7.94437L22.3651 7.08882C22.3651 6.96659 22.3651 6.23326 22.2429 6.35548C22.1207 6.4777 21.9985 6.35548 21.9985 6.59993C21.8763 6.84437 21.6318 8.06659 22.2429 7.94437Z" stroke="#979797" stroke-miterlimit="10" stroke-linecap="round" stroke-linejoin="round"/>
<path d="M37.7661 38.1336C37.7661 38.1336 34.0994 37.1558 32.6328 37.6447C31.1661 38.1336 30.3105 38.6225 30.3105 38.6225" stroke="#979797" stroke-miterlimit="10" stroke-linecap="round" stroke-linejoin="round"/>
<path d="M26.1548 39.111C26.1548 39.111 23.8326 38.4999 22.6103 38.4999C21.3881 38.4999 18.8214 38.1332 18.6992 38.4999" stroke="#979797" stroke-miterlimit="10" stroke-linecap="round" stroke-linejoin="round"/>
<path d="M35.8106 22.6113L32.6328 23.1002C32.6328 23.1002 32.8773 29.8224 37.0328 30.1891" stroke="#979797" stroke-miterlimit="10" stroke-linecap="round" stroke-linejoin="round"/>
<path d="M20.1666 22.2441L23.5888 22.9775C23.5888 22.9775 22.2444 28.9664 19.6777 29.2108" stroke="#979797" stroke-miterlimit="10" stroke-linecap="round" stroke-linejoin="round"/>
<path d="M27.8652 22.4883L28.2319 29.9438" stroke="#979797" stroke-miterlimit="10" stroke-linecap="round" stroke-linejoin="round"/>
<path d="M33.4875 15.5225C33.4875 15.5225 28.3541 15.7669 27.8652 15.6447" stroke="#979797" stroke-miterlimit="10" stroke-linecap="round" stroke-linejoin="round"/>
<path d="M33.976 17.3555C33.976 17.3555 28.5983 17.7221 28.1094 17.7221" stroke="#979797" stroke-miterlimit="10" stroke-linecap="round" stroke-linejoin="round"/>
<path d="M22 15.6445C22 15.6445 26.2778 15.7668 27.2556 15.6445" stroke="#979797" stroke-miterlimit="10" stroke-linecap="round" stroke-linejoin="round"/>
<path d="M21.3887 17.2334C21.3887 17.2334 26.1553 17.8445 27.1331 17.7223" stroke="#979797" stroke-miterlimit="10" stroke-linecap="round" stroke-linejoin="round"/>
</g>
<defs>
<clipPath id="clip0">
<rect width="55" height="55" fill="white"/>
</clipPath>
</defs>
</svg>
