<svg width="55" height="55" viewBox="0 0 55 55" fill="none" xmlns="http://www.w3.org/2000/svg">
<g clip-path="url(#clip0)">
<path d="M29.0873 7.94487C31.2873 7.94487 33.7317 7.70042 35.6873 7.45598C35.4428 6.23376 35.3206 5.3782 35.0762 5.50042C35.0762 5.50042 31.8984 6.72265 27.3762 6.35598C22.8539 6.11153 19.3095 5.50042 19.3095 5.50042C19.3095 5.50042 18.9428 5.25598 18.6984 6.4782C18.6984 6.72265 18.5762 6.96709 18.5762 7.21153C21.3873 7.5782 26.0317 8.06709 29.0873 7.94487Z" stroke="#979797" stroke-miterlimit="10"/>
<path d="M35.9327 9.04507C33.7327 9.28952 31.0438 9.53396 29.0882 9.65618C25.7882 9.90063 20.8993 9.28952 18.2105 8.92285C17.8438 10.7562 17.5993 13.3229 18.0882 15.8895C18.6993 20.2895 20.166 27.2562 20.5327 30.3117C20.8993 33.4895 21.0216 35.2006 21.0216 36.3006C21.0216 37.4006 21.3882 42.6562 21.3882 42.6562C21.3882 42.6562 21.8771 44.6117 21.8771 45.834C21.8771 47.0562 21.7549 48.5229 22.1216 48.8895C22.4882 49.2562 22.9771 49.2562 24.6882 49.2562C26.3993 49.2562 27.2549 49.134 27.3771 47.7895C27.4993 46.4451 27.0105 46.2006 26.8882 44.734C26.766 43.3895 26.5216 35.934 26.6438 34.1006C26.8882 33.0006 26.8882 31.534 26.8882 30.1895C26.8882 27.9895 27.0105 25.9117 27.0105 23.7117C27.0105 22.2451 27.1327 20.9006 27.1327 19.434C27.1327 18.8229 27.0105 18.2117 27.1327 17.6006C27.1327 17.234 27.2549 16.9895 27.3771 16.6229C27.4993 16.3784 27.866 15.8895 27.9882 16.5006C28.1105 17.3562 28.7216 21.1451 28.7216 21.1451C28.7216 21.1451 30.066 28.6006 30.1882 29.2117C30.3105 29.9451 30.5549 34.9562 30.5549 36.7895C30.5549 38.6229 30.6771 43.5117 30.6771 43.5117V47.9117C30.6771 47.9117 30.5549 49.3784 32.3882 49.2562C34.3438 49.2562 34.9549 49.134 34.9549 49.134C34.9549 49.134 36.0549 48.7673 36.1771 47.7895C36.2993 46.8117 36.4216 45.4673 36.4216 45.4673C36.4216 45.4673 36.9105 32.1451 37.1549 28.9673C37.6438 24.5673 37.3993 17.4784 36.9105 14.5451C36.4216 13.5673 36.1771 11.1229 35.9327 9.04507Z" stroke="#979797" stroke-miterlimit="10"/>
<path d="M32.6328 9.41113L33.9773 32.1445L34.7106 49.2556" stroke="#979797" stroke-miterlimit="10"/>
<path d="M22.7324 9.65625L23.3435 34.3451L24.688 49.5007" stroke="#979797" stroke-miterlimit="10"/>
</g>
<defs>
<clipPath id="clip0">
<rect width="55" height="55" fill="white"/>
</clipPath>
</defs>
</svg>
