<svg width="55" height="55" viewBox="0 0 55 55" fill="none" xmlns="http://www.w3.org/2000/svg">
<g clip-path="url(#clip0)">
<path d="M23.3441 15.6445L21.8774 15.889C21.8774 15.889 21.8774 15.889 21.8774 16.0112V15.889C21.633 15.7668 21.1441 16.0112 21.0219 16.2556C20.7774 16.5001 20.7774 16.8668 20.6552 17.1112C20.2885 17.7223 19.433 17.8445 18.6996 18.089C17.4774 18.4556 16.4996 19.4334 16.0107 20.5334C15.5219 21.6334 15.5219 22.8556 15.6441 24.0779C15.7663 25.0556 16.133 26.0334 16.8663 26.7668C17.5996 27.3779 19.0663 27.5001 19.6774 26.7668C19.9219 27.5001 20.8996 28.1112 21.5107 27.7445C22.1219 27.3779 21.5107 26.889 21.9996 26.1556C22.9774 24.8112 21.5107 24.5668 21.0219 23.9556C20.7774 23.4668 21.1441 22.9779 21.1441 22.489C21.1441 22.489 21.3885 22.7334 22.1219 23.589C22.8552 24.3223 22.9774 24.5668 23.4663 24.9334C23.9552 25.3001 26.8885 26.0334 27.4996 25.6668C28.1107 25.3001 27.4996 19.4334 27.4996 19.189C27.4996 18.9445 25.1774 16.2556 24.8107 16.2556" stroke="#979797" stroke-miterlimit="10"/>
<path d="M29.945 17.7226C29.5783 17.7226 28.7228 19.0671 28.7228 19.1893C28.7228 19.3115 28.1117 25.3004 28.7228 25.6671C29.3339 26.0337 32.2672 25.4226 32.7561 24.9337C33.245 24.5671 33.245 24.4448 34.1006 23.5893C34.8339 22.8559 35.0783 22.4893 35.0783 22.4893V22.3671C35.0783 22.4893 35.0783 22.4893 35.0783 22.6115C35.2006 23.2226 35.0783 23.8337 34.7117 24.3226C34.2228 25.0559 33.245 24.4448 33.6117 24.9337C34.2228 25.6671 34.345 26.8893 34.2228 27.7448C34.1006 28.4782 36.6672 27.7448 36.9117 26.8893C37.645 27.7448 38.5006 27.9893 39.3561 27.2559C40.2117 26.5226 40.5783 25.5448 40.7006 24.4448C40.8228 23.2226 40.8228 21.8782 40.3339 20.6559C39.845 19.4337 38.745 18.4559 37.5228 18.0893C36.6672 17.8448 35.6894 17.7226 35.3228 17.1115C35.2006 16.8671 35.2006 16.5004 34.9561 16.1337C34.8339 15.8893 34.5894 15.6448 34.2228 15.6448C33.8561 15.6448 32.8783 15.4004 32.8783 15.4004" stroke="#979797" stroke-miterlimit="10"/>
<path d="M30.6777 13.6889C30.5555 13.8111 30.4332 15.7667 30.311 16.1334C30.1888 16.7445 29.9444 17.8445 29.3332 18.2111C28.9666 18.4556 28.4777 18.8223 28.4777 18.8223L28.3555 24.4445C28.3555 24.4445 29.3332 24.6889 29.5777 24.6889C29.8221 24.6889 29.6999 22.9778 29.6999 22.8556C29.6999 22 29.9444 21.1445 30.1888 20.4111C30.4332 19.8 30.7999 18.9445 30.6777 18.2111C30.6777 17.8445 34.2221 18.2111 34.2221 17.9667C34.2221 17.7223 34.0999 17.3556 33.9777 17.1111C33.611 16.3778 33.3666 15.8889 32.6332 15.4C32.1444 15.0334 31.5332 14.7889 31.1666 14.3C31.0444 14.1778 30.9221 13.5667 30.6777 13.6889Z" stroke="#979797" stroke-miterlimit="10"/>
<path d="M25.6664 13.6889C25.7886 13.8111 25.9108 15.7667 25.9108 16.0111C26.033 16.6223 26.2775 17.7223 26.8886 18.2111C27.2553 18.4556 27.4997 18.5778 27.4997 18.5778L27.7441 22.2445L28.1108 24.4445C28.1108 24.4445 27.133 24.6889 26.8886 24.6889C26.6441 24.6889 26.7664 22.8556 26.7664 22.7334C26.7664 21.8778 26.5219 21.1445 26.2775 20.2889C26.033 19.6778 25.7886 18.8223 25.7886 18.2111C25.7886 17.8445 22.2441 18.2111 22.2441 17.9667C22.2441 17.7223 22.3664 17.3556 22.4886 17.1111C22.6108 16.7445 22.733 16.1334 23.2219 15.7667C23.7108 15.4 25.1775 14.4223 25.2997 14.3C25.2997 14.1778 25.4219 13.5667 25.6664 13.6889Z" stroke="#979797" stroke-miterlimit="10"/>
<path d="M30.5562 7.82209V9.65543C30.5562 9.16654 28.4784 9.41098 28.1118 9.41098C27.7451 9.41098 27.2562 9.41098 26.8896 9.5332C26.6451 9.5332 24.4451 10.511 24.4451 10.2665C24.5673 10.9999 24.5673 11.8554 24.6896 12.5888L24.5673 22.2443C24.5673 22.2443 24.4451 23.5888 24.0784 24.0777C23.7118 24.5665 23.5896 24.3221 23.5896 24.3221L23.4673 24.811C23.4673 24.811 23.3451 25.0554 23.1007 25.0554C22.8562 25.0554 23.5896 11.9776 23.5896 10.2665C23.7118 7.69987 30.5562 7.69987 30.5562 7.82209Z" stroke="#979797" stroke-miterlimit="10"/>
<path d="M38.8671 51.4559C38.6226 51.3337 38.3782 51.2115 38.1337 51.2115C36.4226 51.0892 36.1782 49.9892 35.3226 49.2559C34.7115 48.6448 34.8337 47.667 34.8337 46.8115C34.8337 46.0781 34.7115 45.2226 34.7115 44.4892C35.4448 44.2448 36.0559 43.7559 36.4226 43.1448C36.5448 42.9004 36.6671 42.5337 36.5448 42.2892C36.4226 42.0448 36.1782 41.8004 35.9337 41.5559C35.6893 41.3115 35.4448 41.067 35.3226 40.8226C35.2004 40.7004 35.2004 40.3337 35.0782 40.2115C35.3226 40.0892 35.4448 40.0892 35.5671 39.8448C35.6893 39.6004 35.6893 39.2337 35.5671 38.9892C34.8337 35.4448 34.1004 31.9004 33.2448 28.4781C30.1893 28.8448 27.0115 29.2115 24.0782 28.4781C23.3448 28.3559 23.3448 28.2337 23.1004 28.967C22.8559 29.5781 22.7337 30.1892 22.6115 30.8004C22.3671 32.0226 22.1226 33.367 22.0004 34.5892C22.0004 35.3226 21.3893 36.1781 20.7782 36.667C20.2893 37.1559 20.1671 38.5004 20.1671 39.3559C20.1671 39.6004 20.2893 39.7226 20.4115 39.8448C20.2893 39.967 20.1671 40.2115 20.0448 40.3337C19.8004 40.5781 19.5559 40.7004 19.3115 40.9448C19.0671 41.067 18.7004 41.1892 18.5782 41.5559C18.4559 41.8004 18.4559 42.167 18.5782 42.4115C18.8226 43.1448 19.3115 43.7559 19.9226 44.1226C19.6782 44.8559 19.5559 45.5892 19.3115 46.3226C19.0671 47.1781 19.0671 48.0337 18.3337 48.5226C17.3559 49.1337 16.8671 50.1115 15.1559 49.867C14.9115 49.867 14.6671 49.867 14.4226 49.9892C14.1782 50.1115 13.9337 50.3559 14.0559 50.6004C14.9115 51.3337 16.1337 51.5781 17.3559 51.4559C18.5782 51.3337 19.5559 50.8448 20.5337 50.2337C20.6559 50.4781 20.6559 50.7226 20.5337 50.8448C20.9004 50.967 21.3893 50.967 21.7559 51.0892C22.0004 49.5004 22.2448 47.9115 22.7337 46.4448C22.9782 45.8337 23.1004 45.3448 23.3448 44.8559C23.4671 44.6115 23.5893 44.367 23.7115 44.1226C24.0782 43.8781 24.4448 43.7559 24.9337 43.7559C24.8115 42.9004 24.6893 42.167 24.5671 41.3115C24.8115 41.3115 24.9337 41.3115 25.1782 41.4337C25.3004 41.4337 25.4226 41.5559 25.5448 41.4337C25.7893 41.4337 25.9115 41.1892 25.9115 40.9448C26.5226 39.3559 26.4004 37.5226 26.7671 35.8115C26.7671 35.567 26.8893 35.2004 27.1337 34.9559C27.2559 34.7115 27.6226 34.5892 27.8671 34.7115C28.1115 34.8337 28.2337 35.0781 28.3559 35.3226C28.6004 35.8115 28.6004 36.4226 28.6004 36.9115C28.6004 37.5226 28.6004 38.1337 28.7226 38.7448C28.9671 39.4781 29.3337 40.2115 28.8448 40.7004C29.4559 40.8226 30.1893 40.9448 30.8004 40.9448C30.5559 41.6781 30.1893 42.4115 29.9448 43.1448C30.3115 43.267 30.8004 43.3892 31.0448 43.7559C31.1671 44.0004 31.2893 44.2448 31.2893 44.4892C31.4115 45.1004 31.5337 45.5892 31.5337 46.2004C31.6559 47.7892 31.5337 49.3781 31.4115 50.967C31.7782 50.967 32.2671 50.967 32.6337 50.967C32.6337 50.7226 32.6337 50.4781 32.7559 50.3559C33.4893 51.2115 34.4671 51.9448 35.5671 52.3115C36.6671 52.6781 37.8893 52.6781 38.9893 52.1892C39.2337 51.9448 39.1115 51.7004 38.8671 51.4559Z" stroke="#979797" stroke-miterlimit="10"/>
<path d="M35.8109 8.55575C35.6887 8.31131 33.6109 8.31131 33.3664 8.18908C31.4109 8.06686 29.4553 7.82242 27.622 8.06686C26.1553 8.31131 24.4442 8.67797 23.4664 9.90019C22.4887 11.1224 21.6331 12.8335 20.1664 13.4446C19.0664 11.978 18.9442 9.41131 19.5553 7.70019C20.4109 4.88908 23.222 3.05575 26.1553 2.56686C28.722 2.20019 31.4109 3.17797 33.3664 4.88908C34.4664 5.86686 35.4442 7.08908 35.8109 8.55575Z" stroke="#979797" stroke-miterlimit="10"/>
<path d="M32.8776 25.5449C32.8776 25.5449 31.0443 26.2783 29.6998 26.2783C28.3554 26.4005 27.2554 26.4005 26.3998 26.2783C25.6665 26.156 23.7109 25.5449 23.7109 25.5449C23.7109 25.5449 23.9554 26.7671 23.7109 27.3783C23.4665 27.9894 23.222 28.1116 23.4665 28.6005C23.7109 29.0894 26.0332 29.5783 28.722 29.5783C31.4109 29.5783 33.7332 28.4783 33.4887 28.356C33.2443 28.356 33.3665 25.7894 32.8776 25.5449Z" stroke="#979797" stroke-miterlimit="10"/>
<path d="M34.834 24.4443C34.834 24.4443 36.7895 25.6666 37.034 27.011" stroke="#979797" stroke-miterlimit="10"/>
<path d="M21.1444 24.0781C21.1444 24.0781 20.0444 24.9337 19.6777 26.8892" stroke="#979797" stroke-miterlimit="10"/>
</g>
<defs>
<clipPath id="clip0">
<rect width="55" height="55" fill="white"/>
</clipPath>
</defs>
</svg>
