<svg width="55" height="55" viewBox="0 0 55 55" fill="none" xmlns="http://www.w3.org/2000/svg">
<g clip-path="url(#clip0)">
<path d="M33.6094 23.4669C32.0205 23.5891 30.0649 23.8336 28.7205 23.8336C26.276 23.9558 23.4649 22.8558 21.5094 22.6113C21.2649 23.9558 21.1427 26.4002 21.3871 28.2336C21.876 31.2891 22.2427 36.3002 22.4871 38.5002C22.7316 40.7002 22.8538 41.9224 22.8538 42.778C22.8538 43.5113 23.0983 47.3002 23.0983 47.3002C23.0983 47.3002 23.4649 48.6447 23.4649 49.5002C23.4649 50.3558 23.3427 51.3336 23.5871 51.7002C23.8316 51.9447 24.1983 51.9447 25.4205 51.9447C26.6427 51.9447 27.2538 51.8224 27.376 50.8447C27.4983 49.8669 27.1316 49.7447 27.0094 48.7669C26.8872 47.7891 26.7649 42.6558 26.8871 41.3113C26.8871 40.3336 26.8872 39.3558 27.0094 38.378C27.0094 36.9113 27.0094 35.3224 27.1316 33.8558C27.1316 32.878 27.2538 31.9002 27.1316 30.8002C27.1316 30.4336 27.0094 29.9447 27.1316 29.578C27.1316 29.3336 27.1316 29.0891 27.2538 28.9669C27.376 28.7224 27.6205 28.478 27.7427 28.8447C27.8649 29.4558 28.2316 32.1447 28.2316 32.1447C28.2316 32.1447 29.2094 37.4002 29.2094 37.8891C29.2094 38.378 29.4538 41.9224 29.4538 43.2669C29.4538 44.6113 29.576 48.0336 29.576 48.0336V51.0891C29.576 51.0891 29.4538 52.0669 30.7983 52.0669C32.1427 52.0669 32.6316 51.9447 32.6316 51.9447C32.6316 51.9447 33.3649 51.7002 33.4871 50.9669C33.6094 50.2336 33.7316 49.378 33.7316 49.378C33.7316 49.378 34.0983 39.9669 34.2205 37.7669C34.5871 34.7113 34.4649 29.7002 33.976 27.6224C33.8538 26.6447 33.7316 24.9336 33.6094 23.4669Z" stroke="#979797" stroke-miterlimit="10"/>
<path d="M31.5326 4.27789C32.5104 4.52233 33.9771 4.76678 34.8326 5.13344C35.4437 5.37789 35.8104 5.74455 36.0549 6.35566C36.4215 7.45566 36.5437 8.43344 36.7882 9.53344C36.9104 10.2668 37.0326 11.1223 37.1549 11.8557C37.2771 12.589 37.2771 13.3223 37.3993 14.0557C37.5215 14.9112 37.5215 15.6446 37.6437 16.5001C37.6437 17.4779 37.766 18.3334 37.766 19.3112C37.766 21.2668 37.8882 23.3446 37.766 25.3001C37.766 25.5446 37.6437 25.6668 37.3993 25.789C36.7882 26.0334 36.1771 26.0334 35.566 25.6668C35.4437 25.6668 35.4437 25.6668 35.4437 25.5446C35.4437 25.0557 35.4437 24.4446 35.3215 23.9557C35.3215 23.1001 35.1993 22.3668 35.1993 21.5112C35.1993 20.9001 35.0771 20.289 35.0771 19.6779C34.9549 18.9446 34.9549 18.3334 34.8326 17.6001C34.7104 16.8668 34.5882 16.1334 34.5882 15.4001C34.466 14.6668 34.3437 13.8112 34.2215 13.0779C34.0993 12.2223 33.9771 11.489 33.8549 10.6334C33.8549 10.5112 33.8549 10.389 33.7326 10.2668C33.7326 10.389 33.7326 10.389 33.7326 10.5112C33.6104 11.1223 33.4882 11.7334 33.366 12.3446C33.2437 13.3223 33.7326 23.4668 33.9771 24.5668C33.9771 24.8112 33.9771 25.0557 34.0993 25.3001C31.6549 26.6446 22.6104 26.4001 21.5104 25.3001C21.5104 25.0557 21.5104 24.8112 21.6326 24.5668C21.7549 23.4668 22.366 13.3223 22.2437 12.3446C22.1215 11.7334 21.9993 11.1223 21.8771 10.5112C21.8771 10.389 21.8771 10.389 21.8771 10.2668C21.8771 10.389 21.8771 10.5112 21.7549 10.6334C21.6326 11.489 21.5104 12.2223 21.3882 13.0779C21.266 13.8112 21.1438 14.6668 21.0215 15.4001C20.8993 16.1334 20.7771 16.8668 20.7771 17.6001C20.6549 18.3334 20.6549 18.9446 20.5326 19.6779C20.5326 20.289 20.4104 20.9001 20.4104 21.5112C20.4104 22.3668 20.2882 23.1001 20.2882 23.9557C20.2882 24.4446 20.2882 25.0557 20.166 25.5446C20.166 25.6668 20.166 25.6668 20.0437 25.6668C19.4326 25.9112 18.8215 25.9112 18.2104 25.789C17.966 25.6668 17.8438 25.5446 17.8438 25.3001C17.8438 23.3446 17.8438 21.2668 17.8438 19.3112C17.8438 18.3334 17.966 17.4779 17.966 16.5001C17.966 15.6446 18.0882 14.9112 18.2104 14.0557C18.3326 13.3223 18.3326 12.589 18.4549 11.8557C18.5771 11.1223 18.6993 10.2668 18.8215 9.53344C18.9437 8.43344 19.1882 7.45566 19.5549 6.35566C19.7993 5.74455 20.166 5.37789 20.7771 5.13344C21.0215 4.889 21.9993 4.52233 22.9771 4.27789L23.9549 3.05566C23.9549 3.05566 26.2771 3.05566 27.2549 3.05566C28.2326 3.05566 30.4326 3.05566 30.4326 3.05566L31.5326 4.27789Z" stroke="#979797" stroke-miterlimit="10"/>
<path d="M30.4333 3.05566L31.5333 4.27789L29.4556 7.33344L27.5 5.37789L30.4333 3.05566Z" stroke="#979797" stroke-miterlimit="10"/>
<path d="M23.9555 3.05566L22.8555 4.27789L24.9332 7.33344L27.011 5.37789L23.9555 3.05566Z" stroke="#979797" stroke-miterlimit="10"/>
<path d="M17.2324 24.0781C17.2324 24.0781 17.7213 24.4448 19.5546 24.3226" stroke="#979797" stroke-miterlimit="10"/>
<path d="M35.3223 24.0781C35.3223 24.0781 35.8112 24.4448 37.6445 24.3226" stroke="#979797" stroke-miterlimit="10"/>
<path d="M27.0095 5.37793H27.4984L28.2318 6.11126L27.6207 6.96682H26.8873L26.3984 5.98904L27.0095 5.37793Z" stroke="#979797" stroke-miterlimit="10"/>
<path d="M31.5332 4.27832L27.2555 10.8783L22.8555 4.27832" stroke="#979797" stroke-miterlimit="10"/>
<path d="M27.6211 6.9668L28.11 9.41124L27.6211 6.9668Z" stroke="#979797" stroke-miterlimit="10"/>
<path d="M26.8885 6.9668L26.2773 9.53346" stroke="#979797" stroke-miterlimit="10"/>
<path d="M32.2664 4.52246L27.133 12.8336L22.2441 4.52246" stroke="#979797" stroke-miterlimit="10"/>
</g>
<defs>
<clipPath id="clip0">
<rect width="55" height="55" fill="white"/>
</clipPath>
</defs>
</svg>
