<svg width="55" height="55" viewBox="0 0 55 55" fill="none" xmlns="http://www.w3.org/2000/svg">
<g clip-path="url(#clip0)">
<path d="M13.3223 16.1331C13.5667 16.0108 13.6889 15.7664 13.8112 15.6442C14.3 15.1553 14.9112 14.6664 15.4 14.0553C16.0112 13.4442 16.6223 12.7108 17.2334 12.0997C17.6 11.7331 17.9667 11.3664 18.2112 11.1219C18.3334 10.9997 18.4556 10.7553 18.7 10.6331C18.8223 10.5108 19.0667 10.3886 19.1889 10.3886C19.4334 10.3886 19.5556 10.3886 19.6778 10.3886C20.5334 10.2664 21.3889 10.1442 22.3667 9.89972C22.6112 9.89972 22.8556 9.7775 23.1 9.65527C23.2223 9.7775 23.2223 9.7775 23.3445 10.0219C23.7112 10.8775 23.9556 11.7331 24.3223 12.4664C24.4445 12.8331 24.6889 13.1997 24.8112 13.5664C25.1778 14.1775 25.7889 14.5442 26.4 14.7886C27.8667 15.3997 29.5778 14.5442 30.5556 13.4442C31.0445 12.8331 31.5334 12.0997 31.9 11.3664C32.1445 10.8775 32.2667 10.5108 32.5112 10.0219C32.5112 9.7775 32.6334 9.7775 32.7556 9.7775C33.2445 9.89972 33.7334 10.1442 34.1 10.2664C34.8334 10.5108 35.5667 10.7553 36.4223 10.8775C36.4223 10.8775 36.4223 10.8775 36.5445 10.8775C36.7889 10.7553 36.9112 10.9997 37.0334 11.1219C37.2778 11.3664 37.5223 11.6108 37.7667 11.9775C38.1334 12.4664 38.6223 13.0775 38.9889 13.5664C39.6 14.2997 40.2112 15.0331 40.8223 15.8886C41.0667 16.1331 41.3112 16.4997 41.5556 16.7442C41.6778 16.8664 41.8 16.9886 41.8 17.1108C41.8 17.2331 41.9223 17.2331 41.8 17.3553C40.4556 18.4553 39.3556 19.7997 38.1334 21.0219C38.0112 21.1442 38.0112 21.2664 37.8889 21.2664C37.7667 21.3886 37.7667 21.3886 37.6445 21.2664C37.0334 20.8997 36.5445 20.5331 35.9334 20.1664C35.8112 20.1664 35.8112 20.0442 35.6889 20.0442H35.5667V20.1664C35.6889 21.0219 35.6889 21.9997 35.6889 22.8553C35.8112 24.0775 35.8112 25.2997 35.9334 26.5219C35.9334 27.3775 36.0556 28.3553 36.0556 29.2108C36.0556 30.3108 36.3 31.4108 36.4223 32.5108C36.5445 33.4886 36.9112 34.4664 37.1556 35.4442C37.2778 35.6886 37.2778 35.9331 37.4 36.0553C37.5223 36.2997 37.4 36.4219 37.1556 36.4219C37.0334 36.4219 36.7889 36.5442 36.6667 36.6664C36.0556 37.1553 35.4445 37.7664 34.9556 38.3775C34.5889 38.7442 34.2223 39.2331 33.8556 39.5997C33.4889 39.9664 33.2445 40.3331 32.8778 40.6997C32.5112 41.0664 32.0223 41.5553 31.6556 41.9219C31.4112 42.1664 31.1667 42.5331 30.9223 42.7775C30.6778 43.1442 30.3112 43.5108 30.0667 43.8775C30.0667 44.1219 29.8223 44.2442 29.7 44.4886C29.5778 44.6108 29.5778 44.7331 29.4556 44.8553C29.3334 45.0997 29.2112 45.2219 29.0889 45.2219C27.9889 45.2219 27.0112 45.2219 25.9112 45.2219C25.5445 45.2219 25.3 45.2219 24.9334 45.2219C24.6889 45.2219 24.5667 45.2219 24.5667 44.9775C24.4445 44.8553 24.4445 44.7331 24.3223 44.6108C24.2 44.3664 24.2 44.2442 23.9556 43.9997C23.8334 43.8775 23.8334 43.7553 23.8334 43.5108C23.8334 43.2664 23.5889 42.8997 23.4667 42.7775C23.1 42.1664 22.6112 41.6775 22.1223 41.0664C21.6334 40.4553 21.1445 39.9664 20.7778 39.3553C20.4112 38.9886 20.0445 38.6219 19.8 38.2553C19.3112 37.6442 18.7 37.0331 18.0889 36.4219C17.9667 36.4219 17.9667 36.2997 17.8445 36.2997C17.4778 36.0553 17.1112 35.9331 16.8667 35.6886C16.7445 35.6886 16.7445 35.5664 16.7445 35.4442C16.7445 35.3219 16.7445 35.1997 16.8667 35.0775C17.2334 34.5886 17.3556 33.9775 17.4778 33.4886C17.6 32.8775 17.8445 32.2664 17.9667 31.6553C18.0889 30.9219 18.2112 30.1886 18.3334 29.3331C18.4556 28.7219 18.4556 28.2331 18.4556 27.6219C18.5778 26.8886 18.5778 26.1553 18.5778 25.4219C18.7 23.5886 18.9445 21.6331 19.0667 19.7997V19.6775C18.9445 19.6775 18.8223 19.7997 18.7 19.7997C18.3334 20.0442 17.8445 20.2886 17.3556 20.5331C16.7445 20.8997 16.7445 20.7775 16.2556 20.1664C15.4 19.0664 14.6667 17.9664 13.8112 16.9886C13.6889 16.6219 13.4445 16.4997 13.3223 16.1331ZM13.3223 16.1331C13.3223 16.2553 13.3223 16.1331 13.3223 16.1331Z" stroke="#979797" stroke-miterlimit="10"/>
<path d="M36.6658 36.7884C36.5436 35.6884 36.0547 35.8107 35.1992 36.1773C33.2436 36.9107 31.0436 37.644 29.9436 39.4773C29.2103 40.8218 27.8658 43.8773 29.3325 45.0996" stroke="#979797" stroke-miterlimit="10"/>
<path d="M17.5996 36.0554C17.8441 35.811 18.6996 35.811 19.3107 36.0554C21.2663 36.7887 23.4663 37.5221 24.5663 39.3554C25.2996 40.6998 26.1552 43.7554 24.6885 44.9776" stroke="#979797" stroke-miterlimit="10"/>
</g>
<defs>
<clipPath id="clip0">
<rect width="55" height="55" fill="white"/>
</clipPath>
</defs>
</svg>
