<svg width="55" height="55" viewBox="0 0 55 55" fill="none" xmlns="http://www.w3.org/2000/svg">
<g clip-path="url(#clip0)">
<path d="M35.9329 37.4004C35.9329 37.4004 36.0551 39.2338 36.1773 39.7227C36.1773 40.2115 36.1773 40.5782 36.2996 41.1893C36.4218 41.6782 36.2996 42.5338 36.2996 42.656C36.2996 42.9004 36.6662 46.8115 36.2996 47.1782C36.2996 47.1782 32.7551 49.7449 28.5996 47.3004C27.9884 46.9338 28.5996 43.1449 27.8662 43.3893C27.3773 43.5115 26.7662 43.2671 26.2773 43.2671C25.6662 43.2671 25.9107 47.6671 25.4218 47.5449C25.4218 47.5449 19.3107 48.7671 17.3551 47.056C16.9884 46.6893 17.4773 43.0226 17.4773 42.7782C17.4773 42.5338 17.3551 41.8004 17.4773 41.3115C17.5996 40.8226 17.5996 40.3338 17.5996 39.8449C17.5996 39.356 17.844 37.5227 17.844 37.5227C17.9662 36.6671 17.9662 36.1782 18.2107 35.9338C18.2107 35.9338 24.3218 35.0782 27.3773 35.2004C30.5551 35.3226 35.1996 35.4449 35.6884 36.056C36.1773 36.5449 35.9329 37.4004 35.9329 37.4004Z" stroke="#979797" stroke-miterlimit="10"/>
<path d="M17.356 27.2558C17.4782 26.5225 17.6004 25.7892 17.7227 25.1781C17.8449 24.6892 17.8449 24.0781 17.8449 23.5892C17.9671 22.8558 17.9671 22.2447 17.9671 21.5114C18.0893 19.8003 18.3338 17.9669 18.456 16.2558V16.1336C18.3338 16.1336 18.2115 16.2558 18.0893 16.2558C17.6004 16.5003 17.1115 16.7447 16.7449 16.8669C16.0115 17.2336 16.0115 17.1114 15.5227 16.5003C14.6671 15.5225 13.8115 14.4225 12.956 13.4447C12.7115 13.2003 12.4671 13.0781 12.2227 12.8336V12.7114C12.4671 12.5892 12.5893 12.3447 12.8338 12.2225C13.4449 11.7336 13.9338 11.2447 14.5449 10.7558C15.156 10.1447 15.7671 9.53361 16.5004 8.9225C16.8671 8.55583 17.2338 8.31139 17.6004 7.94472C17.7227 7.8225 17.8449 7.70028 17.9671 7.57806C18.2115 7.45583 18.3338 7.33361 18.5782 7.33361C18.8227 7.33361 18.9449 7.33361 19.0671 7.33361C20.0449 7.21139 20.9004 7.08917 21.8782 6.96695C22.1227 6.96695 22.3671 6.84472 22.6115 6.7225C22.856 6.60028 22.856 6.7225 22.9782 6.84472C23.3449 7.57806 23.7115 8.43361 24.0782 9.16695C24.2004 9.53361 24.4449 9.77806 24.6893 10.1447C25.056 10.7558 25.6671 11.1225 26.4004 11.3669C27.9893 11.9781 29.8227 11.1225 30.8004 10.0225C31.4115 9.41139 31.7782 8.80028 32.1449 8.06695C32.3893 7.70028 32.5115 7.21139 32.756 6.84472C32.8782 6.7225 32.8782 6.7225 33.1227 6.7225C33.6115 6.84472 34.1004 7.08917 34.5893 7.21139C35.4449 7.45583 36.1782 7.57806 37.0338 7.8225C37.0338 7.8225 37.0338 7.8225 37.156 7.8225C37.4004 7.70028 37.5227 7.8225 37.7671 8.06695C37.8893 8.31139 38.1338 8.55583 38.3782 8.80028C38.8671 9.28917 39.2338 9.77806 39.7227 10.2669C40.3338 11.0003 40.9449 11.7336 41.6782 12.3447C41.9227 12.5892 42.1671 12.9558 42.4115 13.2003C42.5338 13.3225 42.656 13.4447 42.7782 13.5669C42.9004 13.6892 42.9004 13.6892 42.7782 13.8114C41.4338 14.9114 40.0893 16.1336 38.8671 17.3558C38.7449 17.4781 38.7449 17.4781 38.6227 17.6003C38.6227 17.7225 38.5004 17.7225 38.3782 17.6003C37.7671 17.2336 37.156 16.8669 36.5449 16.5003C36.4227 16.5003 36.4227 16.3781 36.3004 16.3781H36.1782V16.5003C36.1782 17.3558 36.3004 18.2114 36.3004 19.0669C36.4227 20.1669 36.4227 21.2669 36.5449 22.4892C36.5449 23.3447 36.6671 24.2003 36.6671 25.0558L37.0338 32.8781C37.0338 32.2669 32.1449 33.2447 27.256 32.8781C21.5115 32.3892 20.2893 32.5114 16.7449 33.2447C16.6227 31.1669 17.356 27.2558 17.356 27.2558Z" stroke="#979797" stroke-miterlimit="10"/>
</g>
<defs>
<clipPath id="clip0">
<rect width="55" height="55" fill="white"/>
</clipPath>
</defs>
</svg>
