<svg width="55" height="55" viewBox="0 0 55 55" fill="none" xmlns="http://www.w3.org/2000/svg">
<g clip-path="url(#clip0)">
<path d="M24.6883 50.7226C25.1772 50.4781 24.6883 44.8559 24.6883 44.8559V40.4559C24.6883 40.4559 24.8106 38.0115 24.8106 37.6448C24.8106 37.2781 24.9328 34.8337 24.9328 34.5892C24.9328 34.3448 25.055 31.0448 25.4217 31.0448C26.2772 30.9226 28.7217 39.1115 28.9661 40.2115C29.5772 42.5337 30.555 44.6115 31.1661 46.9337C31.4106 47.9115 31.5328 51.4559 32.755 51.7003C36.2995 52.4337 36.2995 51.0892 36.2995 51.0892C35.9328 45.8337 33.855 40.8226 33.3661 35.567C33.3661 35.2003 32.755 28.4781 32.2661 26.5226C32.2661 26.5226 29.0883 27.2559 25.6661 26.6448C23.0995 26.2781 21.5106 25.9115 20.0439 24.0781C20.1661 24.2003 19.555 25.5448 19.4328 25.7892C19.0661 27.2559 18.8217 28.8448 18.9439 30.3115C19.0661 33.367 19.555 36.4226 19.9217 39.4781C20.4106 43.267 20.5328 46.8115 20.4106 50.6003C20.2883 50.7226 21.2661 52.4337 24.6883 50.7226Z" stroke="#979797" stroke-miterlimit="10" stroke-linecap="round" stroke-linejoin="round"/>
<path d="M35.9336 8.18896C35.8114 6.84452 35.6892 5.50007 35.0781 4.27785C34.3448 2.93341 32.5114 3.05563 31.167 3.05563C31.167 3.05563 29.9448 4.40007 28.1114 4.88896L28.6003 9.04452H27.6225L26.8892 5.01118C25.9114 5.01118 24.8114 4.76674 23.7114 3.91118C23.467 3.78896 21.6337 4.64452 21.3892 4.76674C20.5337 5.1334 19.8003 5.74452 19.4337 6.60007C18.9448 8.31118 18.9448 10.5112 18.9448 12.2223C18.9448 12.8334 20.2892 13.0778 21.1448 13.2001C21.3892 13.3223 21.3892 11.7334 21.6337 11.7334C22.0003 11.7334 22.1225 15.0334 21.8781 15.6445C21.7559 16.3778 21.8781 16.2556 20.9003 17.4778C19.9225 18.7001 18.4559 20.289 18.9448 20.7778C19.3114 21.2667 19.4337 22.9778 22.0003 24.3223C24.567 25.6667 29.0892 25.6667 30.3114 25.5445C30.5559 25.5445 31.5337 25.4223 32.3892 25.3001C32.8781 25.1778 33.2448 25.0556 33.2448 24.8112L32.8781 21.1445V17.1112L33.0003 12.3445C33.0003 12.3445 33.0003 10.7556 33.2448 10.7556C33.367 10.7556 33.367 12.3445 33.6114 12.3445C34.2225 12.3445 35.4448 12.2223 35.8114 12.1001C36.5448 11.9778 35.9336 8.67785 35.9336 8.18896Z" stroke="#979797" stroke-miterlimit="10"/>
</g>
<defs>
<clipPath id="clip0">
<rect width="55" height="55" fill="white"/>
</clipPath>
</defs>
</svg>
