<svg width="55" height="55" viewBox="0 0 55 55" fill="none" xmlns="http://www.w3.org/2000/svg">
<g clip-path="url(#clip0)">
<path d="M12.7119 10.8777C12.7119 11.2444 12.5897 11.4888 12.5897 11.8555C12.4675 12.8333 12.4675 13.6888 12.5897 14.6666H12.7119C12.7119 14.6666 15.523 14.0555 16.9897 14.0555C18.4564 14.0555 21.6342 14.6666 21.6342 14.6666C21.7564 14.6666 21.7564 14.6666 21.7564 14.5444C22.0008 13.3222 22.3675 12.0999 22.6119 10.9999C22.6119 10.9999 22.6119 10.9999 22.6119 10.8777C22.6119 10.9999 20.1675 10.2666 17.6008 10.2666C15.0342 10.2666 12.7119 10.8777 12.7119 10.8777Z" stroke="#979797" stroke-miterlimit="10"/>
<path d="M21.5119 16.622C21.5119 16.622 18.3341 15.8887 16.7452 15.8887C15.4008 15.8887 12.5897 16.622 12.5897 16.622C12.5897 16.8665 12.5897 17.1109 12.7119 17.4776C12.8341 18.3331 12.9564 19.0664 13.0786 19.922C13.2008 20.7776 13.323 21.6331 13.4452 22.4887C13.5675 23.5887 13.8119 24.5664 13.9341 25.6664C14.0564 26.3998 14.1786 27.1331 14.3008 27.8664C14.423 28.4776 14.5452 28.9664 14.6675 29.4553C14.9119 30.922 14.6675 32.2664 13.8119 33.6109C13.4452 34.0998 13.0786 34.4664 12.7119 34.8331C12.4675 34.9553 12.3452 35.1998 12.223 35.4442C11.7341 36.422 11.8564 37.2776 12.5897 38.1331C13.2008 38.8665 14.0564 39.3553 14.9119 39.8442C15.1564 39.9664 15.4008 39.9665 15.6452 39.9665C17.1119 40.3331 18.4564 41.0664 19.4341 42.1664C19.923 42.7776 20.5341 43.2664 21.1452 43.7553C21.7564 44.2442 22.4897 44.6109 23.3452 44.7331C23.8341 44.8553 24.323 44.8553 24.6897 44.8553C25.6675 44.8553 26.4008 44.4887 27.1341 43.8776C27.3786 43.6331 27.623 43.2664 27.5008 42.7776C27.5008 42.5331 27.3786 42.2887 27.1341 42.1664C27.0119 42.0442 26.7675 41.922 26.523 41.7998C26.1564 41.5553 25.9119 41.3109 25.6675 40.9442C24.8119 40.0887 24.0786 39.2331 23.223 38.2553L23.1008 38.1331C22.2452 35.8109 21.3897 33.6109 20.7786 31.2887C20.5341 30.4331 20.4119 29.5776 20.4119 28.722C20.2897 27.2553 20.2897 25.7887 20.2897 24.1998C20.2897 23.3442 20.2897 22.6109 20.4119 21.7553C20.4119 20.7776 20.6564 19.7998 20.9008 18.9442C21.1452 18.0887 21.2675 17.3553 21.5119 16.622Z" stroke="#979797" stroke-miterlimit="10"/>
<path d="M29.7012 25.9108C29.8234 26.5219 29.9456 28.8441 30.0679 29.333C30.3123 30.7997 30.0679 32.1441 29.2123 33.4885C28.8456 33.9774 28.479 34.3441 28.1123 34.7108C27.8679 34.833 27.7456 35.0774 27.6234 35.3219C27.1345 36.2997 27.2567 37.1552 27.9901 38.0108C28.6012 38.7441 29.4567 39.233 30.3123 39.7219C30.5567 39.8441 30.8012 39.8441 31.0456 39.8441C32.5123 40.2108 33.8567 40.9441 34.8345 42.0441C35.3234 42.6552 35.9345 43.1441 36.6679 43.633C37.279 44.1219 38.0123 44.4885 38.8679 44.6108C39.3567 44.733 39.8456 44.733 40.3345 44.733C41.3123 44.733 42.0456 44.3663 42.779 43.7552C43.0234 43.5108 43.2679 43.1441 43.1456 42.6552C43.1456 42.4108 42.9012 42.1663 42.779 42.0441C42.5345 41.9219 42.4123 41.7997 42.1679 41.6774C41.8012 41.433 41.5567 41.1885 41.3123 40.8219C40.4567 39.9663 39.7234 39.1108 38.8679 38.133L38.7456 38.0108C37.8901 35.6885 37.0345 33.4885 36.4234 31.1663C36.179 30.3108 36.0567 27.6219 36.0567 26.7663C36.0567 26.7663 36.179 25.4219 33.8567 25.4219C32.5123 25.5441 30.9234 25.2997 29.7012 25.9108Z" stroke="#979797" stroke-miterlimit="10"/>
<path d="M29.7012 32.7559C29.7012 32.7559 32.0234 35.2003 32.2678 36.3003C33.0012 37.8892 32.3901 39.8448 32.2678 39.967" stroke="#979797" stroke-miterlimit="10"/>
</g>
<defs>
<clipPath id="clip0">
<rect width="55" height="55" fill="white"/>
</clipPath>
</defs>
</svg>
