<svg width="55" height="55" viewBox="0 0 55 55" fill="none" xmlns="http://www.w3.org/2000/svg">
<path d="M15.0684 33.1693V30.5023C15.0684 23.7014 20.6691 18.1006 27.4701 18.1006C34.271 18.1006 39.8718 23.7014 39.8718 30.5023V33.1693" stroke="#979797" stroke-miterlimit="10" stroke-linecap="round" stroke-linejoin="round"/>
<path d="M39.3369 39.9703H15.6002C14.6668 39.9703 14 39.1702 14 38.3701V34.903C14 33.9695 14.8001 33.3027 15.6002 33.3027H39.2035C40.137 33.3027 40.8037 34.1028 40.8037 34.903V38.3701C40.9371 39.1702 40.137 39.9703 39.3369 39.9703Z" stroke="#979797" stroke-miterlimit="10" stroke-linecap="round" stroke-linejoin="round"/>
<line x1="16.5" y1="37" x2="16.5" y2="40" stroke="#979797"/>
<line x1="18.5" y1="37" x2="18.5" y2="40" stroke="#979797"/>
<line x1="20.5" y1="37" x2="20.5" y2="40" stroke="#979797"/>
<line x1="22.5" y1="37" x2="22.5" y2="40" stroke="#979797"/>
<line x1="24.5" y1="37" x2="24.5" y2="40" stroke="#979797"/>
<line x1="26.5" y1="37" x2="26.5" y2="40" stroke="#979797"/>
<line x1="28.5" y1="37" x2="28.5" y2="40" stroke="#979797"/>
<line x1="30.5" y1="37" x2="30.5" y2="40" stroke="#979797"/>
<line x1="32.5" y1="37" x2="32.5" y2="40" stroke="#979797"/>
<line x1="34.5" y1="37" x2="34.5" y2="40" stroke="#979797"/>
<line x1="36.5" y1="37" x2="36.5" y2="40" stroke="#979797"/>
<line x1="38.5" y1="37" x2="38.5" y2="40" stroke="#979797"/>
<path d="M15 31L17.0833 29L19.1667 31L21.25 29L23.3333 31L25.4167 29L27.5 31L29.5833 29L31.6667 31L33.75 29L35.8333 31L37.9167 29L40 31" stroke="#979797"/>
<path d="M29.25 18C29.5588 17.8095 29.7647 17.619 29.7647 17.3333C30.0735 17.2381 30.2794 17.1429 30.4853 16.8571C30.6912 16.5714 30.6912 16.2857 30.5882 16C30.7941 15.8095 31 15.5238 31 15.2381C31 14.9524 30.8971 14.6667 30.5882 14.4762C30.6912 14.1905 30.6912 13.9048 30.4853 13.619C30.2794 13.3333 30.0735 13.2381 29.7647 13.1429C29.6618 12.8571 29.5588 12.6667 29.25 12.4762C28.9412 12.2857 28.6324 12.2857 28.3235 12.381C28.1176 12.1905 27.8088 12 27.5 12C27.1912 12 26.8824 12.1905 26.6765 12.381C26.3676 12.2857 26.0588 12.2857 25.75 12.4762C25.4412 12.6667 25.2353 12.8571 25.2353 13.1429C24.9265 13.2381 24.7206 13.3333 24.5147 13.619C24.3088 13.9048 24.3088 14.1905 24.4118 14.4762C24.2059 14.6667 24 14.9524 24 15.2381C24 15.5238 24.1029 15.8095 24.4118 16C24.3088 16.2857 24.3088 16.5714 24.5147 16.8571C24.7206 17.1429 24.9265 17.3333 25.2353 17.3333C25.3382 17.619 25.4412 17.8095 25.75 18" stroke="#979797" stroke-miterlimit="10" stroke-linecap="round" stroke-linejoin="round"/>
</svg>
