<svg width="55" height="55" viewBox="0 0 55 55" fill="none" xmlns="http://www.w3.org/2000/svg">
<g clip-path="url(#clip0)">
<path d="M27.4999 13.6885C31.7777 13.6885 34.4666 12.0996 34.4666 12.0996L38.3777 14.2996L43.1444 18.3329L41.1888 24.1996L38.8666 24.3218C38.8666 24.3218 36.0555 24.5663 36.0555 27.1329V36.7885L32.0221 43.0218H27.4999H27.3777H22.8555L18.8221 36.7885V27.1329C18.8221 24.5663 16.011 24.3218 16.011 24.3218L13.6888 24.1996L11.8555 18.3329L16.6221 14.2996L20.5332 12.0996C20.411 12.0996 23.0999 13.6885 27.4999 13.6885Z" stroke="#979797" stroke-miterlimit="10" stroke-linejoin="round"/>
<path d="M22.9785 43.0224C22.9785 43.0224 24.6896 39.1113 26.0341 39.1113H27.5007H27.623H29.0896C30.4341 39.1113 32.1452 43.0224 32.1452 43.0224" stroke="#979797" stroke-miterlimit="10"/>
<path d="M18.8223 36.789C18.8223 36.789 21.1445 36.5446 23.5889 38.989" stroke="#979797" stroke-miterlimit="10"/>
<path d="M20.5332 11.9775C20.5332 11.9775 21.1443 15.8886 27.3776 16.7442H27.4999C33.7332 15.8886 34.3443 11.9775 34.3443 11.9775" stroke="#979797" stroke-miterlimit="10"/>
<path d="M16.623 14.2998C16.623 14.2998 19.8008 19.0665 18.2119 25.2998" stroke="#979797" stroke-miterlimit="10"/>
<path d="M27.5007 24.9331C27.5007 24.9331 28.3563 22.9775 29.7007 22.9775C29.7007 22.9775 31.9007 22.9775 31.4118 25.2998C31.4118 25.2998 30.8007 28.1109 27.5007 29.822H27.3785C24.2007 28.1109 23.4674 25.2998 23.4674 25.2998C22.9785 22.9775 25.1785 22.9775 25.1785 22.9775C26.6452 22.9775 27.5007 24.9331 27.5007 24.9331Z" stroke="#979797" stroke-miterlimit="10"/>
<path d="M36.1768 36.789C36.1768 36.789 33.8546 36.5446 31.4102 38.989" stroke="#979797" stroke-miterlimit="10"/>
<path d="M38.3775 14.2998C38.3775 14.2998 35.1997 19.0665 36.7886 25.2998" stroke="#979797" stroke-miterlimit="10"/>
</g>
<defs>
<clipPath id="clip0">
<rect width="55" height="55" fill="white"/>
</clipPath>
</defs>
</svg>
