<svg width="55" height="55" viewBox="0 0 55 55" fill="none" xmlns="http://www.w3.org/2000/svg">
<g clip-path="url(#clip0)">
<path d="M20.4113 32.3887C19.4336 32.3887 18.7002 33.122 18.7002 34.0998V41.0665C18.7002 43.022 17.1113 44.6109 15.1558 44.6109C13.2002 44.6109 11.6113 43.022 11.6113 41.0665V26.1554C11.6113 26.1554 11.6113 24.8109 12.7113 23.7109H25" stroke="#979797" stroke-miterlimit="10"/>
<path d="M12.7109 23.7106C12.7109 23.7106 12.7109 21.1439 13.1998 20.0439H25" stroke="#979797" stroke-miterlimit="10"/>
<path d="M20.4121 32.3887C21.3899 32.3887 22.1232 33.122 22.1232 34.0998V41.0664C22.1232 43.022 23.7121 44.6109 25.6677 44.6109C27.6232 44.6109 29.2121 43.022 29.2121 41.0664V33.6109" stroke="#979797" stroke-miterlimit="10"/>
<path d="M25.179 20.2886C25.179 20.2886 26.4013 14.9108 23.3457 12.833" stroke="#979797" stroke-miterlimit="10"/>
<path d="M33.1239 14.422C33.1239 14.422 29.2128 14.7887 27.7461 10.3887" stroke="#979797" stroke-miterlimit="10"/>
<path d="M33.1232 11.4887C33.1232 11.4887 36.0566 11.6109 38.501 10.3887L42.6566 12.4664L45.8343 17.722L41.0677 20.2887L41.5566 33.2442H34.4677H31.6566H24.5677L25.1788 20.2887L20.4121 17.722L23.5899 12.4664L27.7454 10.3887C30.0677 11.6109 33.1232 11.4887 33.1232 11.4887Z" stroke="#979797" stroke-miterlimit="10"/>
<path d="M40.9446 20.2886C40.9446 20.2886 39.7223 14.9108 42.7779 12.833" stroke="#979797" stroke-miterlimit="10"/>
<path d="M33.123 14.422C33.123 14.422 37.0342 14.7887 38.5008 10.3887" stroke="#979797" stroke-miterlimit="10"/>
</g>
<defs>
<clipPath id="clip0">
<rect width="55" height="55" fill="white"/>
</clipPath>
</defs>
</svg>
