<svg width="55" height="55" viewBox="0 0 55 55" fill="none" xmlns="http://www.w3.org/2000/svg">
<g clip-path="url(#clip0)">
<path d="M21.0603 13.6152C21.0603 13.6152 21.5065 12.8344 22.0642 12.6113H22.1757C22.1757 12.6113 23.8488 15.1767 27.6411 17.6306L31.9911 21.1998C31.9911 21.1998 35.0026 22.8729 34.2218 27.4459C34.2218 27.4459 33.4411 33.6921 33.5526 36.5921C33.5526 36.5921 34.1103 41.4998 29.8718 41.6113H17.0449V40.3844" stroke="#979797" stroke-miterlimit="10"/>
<path d="M32.8842 13.6152C32.8842 13.6152 32.438 12.8344 31.8803 12.6113H31.7688C31.7688 12.6113 30.3188 14.8421 26.9727 17.1844" stroke="#979797" stroke-miterlimit="10"/>
<path d="M22.2871 12.6113C22.2871 12.6113 24.0717 13.8383 26.9717 13.8383" stroke="#979797" stroke-miterlimit="10"/>
<path d="M31.6573 12.6113C31.6573 12.6113 29.8727 13.8383 26.9727 13.8383" stroke="#979797" stroke-miterlimit="10"/>
<path d="M21.0599 13.6152C21.0599 13.6152 15.5946 15.5114 13.2523 16.1806L11.0215 16.8499C11.0215 16.8499 11.2446 19.0806 11.9138 20.8652C12.583 22.6498 12.583 23.096 13.3638 24.4345L16.5984 24.6575C16.5984 24.6575 17.9369 24.7691 17.8253 25.7729C17.8253 25.7729 17.1561 34.3614 17.0446 40.2729" stroke="#979797" stroke-miterlimit="10"/>
<path d="M32.8828 13.6152C32.8828 13.6152 38.3482 15.5114 40.6905 16.1806L42.9213 16.8499C42.9213 16.8499 42.6982 19.0806 42.029 20.8652C41.3597 22.6499 41.3597 23.096 40.579 24.4345L37.3444 24.6575C37.3444 24.6575 36.0059 24.7691 36.1174 25.7729C36.1174 25.7729 36.7867 34.5845 36.8982 40.496" stroke="#979797" stroke-miterlimit="10"/>
<path d="M36.8992 40.4961V41.6115H28.1992" stroke="#979797" stroke-miterlimit="10"/>
</g>
<defs>
<clipPath id="clip0">
<rect width="55" height="55" fill="white"/>
</clipPath>
</defs>
</svg>
