<svg width="55" height="55" viewBox="0 0 55 55" fill="none" xmlns="http://www.w3.org/2000/svg">
<g clip-path="url(#clip0)">
<path d="M44.4146 35.7382C45.6491 35.4326 46.7369 34.9682 47.5435 34.2593C47.8369 34.0026 48.2769 33.5748 48.2769 33.5748C48.2769 33.5748 48.1302 30.5804 46.138 30.3237C44.1458 30.0671 43.2535 31.3015 43.2535 31.3015C43.2535 31.3015 42.8624 32.6948 42.6913 33.0126C42.5202 33.3304 42.3124 34.4671 39.5991 34.4793C37.3624 34.4915 34.9913 34.6993 32.8402 33.9782C31.5691 33.5504 27.9758 31.4971 27.8658 29.8715C27.8291 29.3582 28.0613 29.0282 27.6335 29.2971C27.2058 29.5537 26.5702 30.6904 26.5702 31.1671C26.5702 31.656 26.5091 31.9493 26.3135 32.3282C26.118 32.7071 25.8124 32.8415 26.1669 33.1593C28.0246 34.7971 31.5691 35.0415 33.9646 35.5426C36.6169 36.0926 41.0413 36.5571 44.4146 35.7382Z" stroke="#979797" stroke-miterlimit="10"/>
<path d="M44.0967 29.3576C44.0967 29.3576 42.3855 29.5165 42.0555 30.1643C41.7255 30.812 41.5422 32.0343 41.4567 32.2176C41.3711 32.4009 41.1878 32.8898 39.9044 33.0732C38.6211 33.2565 35.3822 33.0609 34.7467 33.0854C34.1111 33.122 31.96 32.2054 31.0433 31.4476C30.1267 30.6898 28.5378 29.3454 28.4644 28.282C28.4033 27.2187 29.1611 26.9987 29.2833 26.3509C30.0655 22.2198 30.8722 23.1365 34.2455 24.1998C35.7 24.6643 36.9222 23.8454 38.2667 24.212C38.5844 24.2976 39.3667 24.6643 39.4522 24.7865C39.4522 24.7865 39.5378 25.3365 39.5989 25.5809C39.66 25.8254 39.7578 26.0087 39.8189 26.5587C39.88 27.1087 40.3689 26.7054 39.88 27.1087C39.3911 27.512 39.4033 27.512 39.1344 27.5732C38.8655 27.6343 38.4867 27.5732 38.4011 27.6954C38.3155 27.8176 38.0711 27.6587 38.2667 27.952C38.4744 28.2454 38.4255 28.172 38.8167 28.4043C39.2078 28.6365 39.88 28.4043 40.1244 28.4043C40.3689 28.392 41.0655 28.1476 41.0655 28.1476C41.0655 28.1476 41.31 27.9643 41.4567 28.172C41.6155 28.3798 41.6033 28.0865 42.0067 28.392C42.4222 28.6854 43.8767 29.2232 44.0967 29.3576Z" stroke="#979797" stroke-miterlimit="10"/>
<path d="M21.474 9.47233C21.474 9.47233 20.9118 8.14011 18.9195 8.49455C16.9273 8.84899 16.8051 8.62899 14.984 8.80011C13.1629 8.95899 12.6618 8.71455 11.4518 8.80011C10.254 8.88566 9.39843 8.95899 8.6651 9.22788C7.93177 9.49677 7.7851 8.70233 7.38177 9.81455C6.97843 10.9268 6.97843 11.0612 7.03954 11.6723C7.10066 12.2834 6.75843 11.6357 6.99065 13.0534C7.22288 14.4712 7.28399 15.9134 7.3451 16.6346C7.40621 17.3557 7.65066 19.739 7.83399 20.9246C8.0051 22.1101 7.73621 22.5257 8.20066 23.3323C8.6651 24.1512 8.65288 23.8334 8.45732 24.6523C8.26177 25.4712 8.23732 26.2412 8.35954 27.2557C8.46954 28.2701 8.61621 28.6979 8.32288 29.2845C8.02954 29.8834 7.51621 29.1745 7.79732 30.2134C8.09066 31.2523 7.32066 31.0812 7.16177 31.5579C6.99066 32.0346 6.78288 32.1079 6.86843 32.7068C6.95399 33.3179 6.94177 33.929 6.84399 34.9312C6.74621 35.9212 6.63621 35.8968 6.86843 36.899C7.08843 37.889 7.21066 37.9623 7.1251 38.6223C7.02732 39.2823 6.55066 39.0379 7.43066 39.8079C8.31066 40.5779 8.59177 40.8346 9.72843 41.3357C10.8651 41.8368 10.9384 42.1546 11.7451 42.0201C12.5518 41.8857 12.9429 41.6901 13.5051 41.9712C14.0673 42.2646 14.4829 42.1301 14.6907 42.5823C14.8984 43.0346 14.7273 42.6434 15.2162 43.4623C15.7051 44.2934 16.1329 44.5257 16.5118 44.6479C16.9029 44.7701 16.744 43.9268 17.1351 44.6479C17.5262 45.369 17.9418 45.5279 18.1129 45.589C18.284 45.6501 18.394 45.1734 18.8462 45.589C19.2984 46.0046 18.7484 45.9679 19.6284 46.1146C20.5084 46.2612 20.7529 46.0168 21.0095 46.1146C21.2662 46.2123 20.9851 45.7968 21.6329 46.1268C22.2807 46.4568 21.4129 46.4934 22.2807 46.4568C23.1484 46.4201 23.4051 46.6279 23.7595 46.469C24.114 46.3101 23.5762 46.139 24.4684 46.3101C25.3484 46.4812 25.434 46.6279 25.7884 46.5301C26.1429 46.4323 29.4918 46.8846 30.8607 45.5646C32.2295 44.2446 32.6451 44.4034 32.6207 43.5601C32.584 42.7168 32.5595 42.3501 32.6207 41.9346C32.6818 41.519 32.8651 41.1279 32.6818 40.8468C32.4984 40.5657 32.7429 39.8812 32.1195 39.6368C31.4962 39.4046 28.8562 37.4246 28.8562 37.4246C28.8562 37.4246 28.514 37.5101 28.0618 37.3268C27.6095 37.1557 26.9984 36.7034 26.8884 36.4957C26.7784 36.2879 26.3873 36.1168 25.3484 35.2123C24.3095 34.3079 24.334 34.0268 23.7595 33.6479C23.1851 33.2812 22.5129 31.9979 22.2195 31.2768C21.914 30.5557 21.2784 29.7001 21.2784 29.7001C21.2784 29.7001 22.7329 29.2601 22.8551 28.4046C22.9895 27.549 22.3662 25.9723 22.2684 25.3123C22.1095 24.9946 21.1929 24.9334 21.1929 24.9334C21.1929 24.9334 20.7162 24.8234 20.9851 23.9679C21.254 23.1123 20.814 21.3523 20.9851 21.1079C21.1562 20.8757 21.4984 18.1257 21.4618 17.649C21.4251 17.1723 21.4862 16.6346 21.6207 15.4979C21.7429 14.349 21.9629 13.8723 21.7307 13.029C21.5107 12.1857 21.474 9.47233 21.474 9.47233Z" stroke="#979797" stroke-miterlimit="10"/>
<path d="M32.6692 40.8349C32.6692 40.8349 31.2881 41.4704 30.7137 41.8127C30.1392 42.1549 30.0781 42.7416 28.7826 42.7904C27.487 42.8516 26.9126 42.9616 26.1548 42.7904C25.4092 42.6193 25.9226 42.5704 24.2481 42.876C22.5737 43.1938 21.7059 43.2427 20.3859 43.1938C19.0537 43.1327 18.7726 43.536 17.4404 42.4971C16.1081 41.4582 16.1692 41.1649 15.1915 40.8227C14.2137 40.4804 14.4459 40.5904 13.7492 40.4804C13.0526 40.3704 12.0748 40.4804 11.3781 38.9282C10.6815 37.376 10.6326 36.276 9.70369 35.066C8.7748 33.856 9.27591 33.636 8.09036 33.3304C6.89258 33.0371 6.89258 33.0371 6.89258 33.0371" stroke="#979797" stroke-miterlimit="10"/>
<path d="M21.817 14.1774C21.817 14.1774 21.4626 13.823 19.7392 13.8841C18.0159 13.9452 17.7348 13.7619 16.1703 13.8719C14.6181 13.9941 15.2414 13.9452 13.3959 14.0063C11.5503 14.0552 11.5503 13.8963 10.3403 14.1774C9.13033 14.4585 8.51922 14.2752 7.85922 14.4585C7.19922 14.6419 7.19922 14.6419 7.19922 14.6419" stroke="#979797" stroke-miterlimit="10"/>
<path d="M21.2773 29.7002C21.2773 29.7002 16.8285 30.788 14.5062 30.9102C12.184 31.0202 20.0307 31.0813 20.7885 30.9102" stroke="#979797" stroke-miterlimit="10"/>
</g>
<defs>
<clipPath id="clip0">
<rect width="55" height="55" fill="white"/>
</clipPath>
</defs>
</svg>
