<svg width="55" height="55" viewBox="0 0 55 55" fill="none" xmlns="http://www.w3.org/2000/svg">
<g clip-path="url(#clip0)">
<path d="M25.2997 9.77767C23.2219 9.53322 22.8552 11.4888 23.833 13.1999C25.5441 16.2554 21.7552 17.111 21.633 17.111C20.4108 17.3554 19.1885 17.7221 18.0885 18.211C17.233 18.4554 16.7441 18.9443 16.4997 19.6777C16.0108 21.0221 15.7663 22.3666 15.5219 23.711C15.3997 24.6888 15.2774 25.7888 15.1552 26.7666C15.033 27.7443 14.9108 28.5999 14.9108 29.5777C14.7885 30.5554 14.6663 31.6554 14.6663 32.6332C14.5441 33.8554 14.5441 35.0777 14.5441 36.2999C14.4219 38.8666 14.4219 41.4332 14.4219 44.1221C14.4219 44.4888 14.5441 44.611 14.9108 44.7332C15.6441 44.9777 16.4997 44.9777 17.233 44.611C17.3552 44.611 17.3552 44.4888 17.3552 44.3666C17.3552 43.6332 17.3552 43.0221 17.4774 42.2888C17.5997 41.1888 17.5997 40.211 17.7219 39.111C17.7219 38.3777 17.8441 37.5221 17.9663 36.7888C18.0885 35.9332 18.2108 34.9554 18.2108 34.0999C18.333 33.1221 18.4552 32.1443 18.5774 31.1666C18.6997 30.1888 18.8219 29.211 19.0663 28.2332C19.1885 27.2554 19.433 26.1554 19.5552 25.1777C19.5552 25.0554 19.5552 24.9332 19.6774 24.811C19.6774 24.9332 19.7997 24.9332 19.7997 25.0554C19.9219 25.911 20.1663 26.6443 20.2885 27.4999C20.4108 28.7221 20.533 29.9443 20.6552 31.1666C20.7774 32.3888 20.7774 33.7332 20.6552 34.9554C20.533 36.2999 20.4108 37.6443 20.1663 38.9888C19.9219 40.3332 19.6774 41.7999 19.433 43.1443C19.433 43.3888 19.433 43.7554 19.3108 43.9999C20.7774 45.4666 32.3885 45.711 35.5663 43.9999C35.5663 43.7554 35.5663 43.3888 35.4441 43.1443C35.1997 41.7999 34.9552 40.3332 34.7108 38.9888C34.4663 37.6443 34.3441 36.2999 34.2219 34.9554C34.0997 33.7332 34.0997 32.3888 34.2219 31.1666C34.3441 29.9443 34.4663 28.7221 34.5885 27.4999C34.7108 26.6443 34.833 25.911 35.0774 25.0554C35.0774 24.9332 35.0774 24.9332 35.1997 24.811C35.1997 24.9332 35.3219 25.0554 35.3219 25.1777C35.4441 26.1554 35.6885 27.2554 35.8108 28.2332C35.933 29.211 36.1774 30.1888 36.2997 31.1666C36.4219 32.1443 36.5441 33.1221 36.6663 34.0999C36.7885 34.9554 36.9108 35.811 36.9108 36.7888C37.033 37.5221 37.033 38.3777 37.1552 39.111C37.2774 40.211 37.2774 41.1888 37.3997 42.2888C37.3997 43.0221 37.5219 43.6332 37.5219 44.3666C37.5219 44.4888 37.5219 44.4888 37.6441 44.611C38.3774 44.9777 39.233 44.9777 39.9663 44.7332C40.333 44.611 40.4552 44.4888 40.4552 44.1221C40.5774 41.5554 40.4552 38.9888 40.333 36.2999C40.333 35.0777 40.2108 33.8554 40.2108 32.6332C40.0885 31.5332 40.0885 30.5554 39.9663 29.4554C39.8441 28.4777 39.7219 27.6221 39.7219 26.6443C39.5997 25.6666 39.4774 24.5666 39.3552 23.5888C39.1108 22.2443 38.8663 20.7777 38.3774 19.5554C38.133 18.8221 37.6441 18.3332 36.7885 18.0888C35.5663 17.7221 34.4663 17.3554 33.2441 16.9888C33.1219 16.9888 29.333 16.1332 31.0441 13.0777C32.1441 11.4888 31.7774 9.53322 29.6997 9.77767H25.2997Z" stroke="#979797" stroke-miterlimit="10"/>
</g>
<defs>
<clipPath id="clip0">
<rect width="55" height="55" fill="white"/>
</clipPath>
</defs>
</svg>
