<svg width="55" height="55" viewBox="0 0 55 55" fill="none" xmlns="http://www.w3.org/2000/svg">
<path d="M30.3112 13.6527C30.7233 13.378 30.998 13.1033 30.998 12.6913C31.41 12.554 31.6847 12.4166 31.9594 12.0046C32.2341 11.5925 32.2341 11.1805 32.0967 10.7685C32.3714 10.4938 32.6461 10.0818 32.6461 9.66972C32.6461 9.25769 32.5087 8.84565 32.0967 8.57096C32.2341 8.15893 32.2341 7.74689 31.9594 7.33486C31.6847 6.92283 31.41 6.78548 30.998 6.64814C30.8606 6.2361 30.7233 5.96141 30.3112 5.68672C29.8992 5.41203 29.4872 5.41203 29.0751 5.54938C28.8004 5.27469 28.3884 5 27.9764 5C27.5643 5 27.1523 5.27469 26.8776 5.54938C26.4656 5.41203 26.0535 5.41203 25.6415 5.68672C25.2295 5.96141 24.9548 6.2361 24.9548 6.64814C24.5427 6.78548 24.2681 6.92283 23.9934 7.33486C23.7187 7.74689 23.7187 8.15893 23.856 8.57096C23.5813 8.84565 23.3066 9.25769 23.3066 9.66972C23.3066 10.0818 23.444 10.4938 23.856 10.7685C23.7187 11.1805 23.7187 11.5925 23.9934 12.0046C24.2681 12.4166 24.5427 12.6913 24.9548 12.6913C25.0921 13.1033 25.2295 13.378 25.6415 13.6527" stroke="#979797" stroke-miterlimit="10" stroke-linecap="round" stroke-linejoin="round"/>
<path d="M24.541 26.5601C24.541 26.5601 23.4423 38.0971 20.558 37.8224C18.0858 37.5477 17.8111 29.719 18.0858 27.1095C18.0858 27.1095 18.3605 24.6373 18.4978 23.5385C18.7725 21.753 19.0472 13.787 27.8373 13.375" stroke="#979797" stroke-miterlimit="10" stroke-linecap="round" stroke-linejoin="round"/>
<path d="M31.4076 26.5601C31.4076 26.5601 32.5064 38.0971 35.3906 37.8224C37.8628 37.5477 38.1375 29.719 37.8628 27.1095C37.8628 27.1095 37.5881 24.6373 37.4508 23.5385C37.1761 21.753 36.9014 13.787 28.1113 13.375" stroke="#979797" stroke-miterlimit="10" stroke-linecap="round" stroke-linejoin="round"/>
<path d="M20.1458 37.6861C20.1458 37.6861 19.047 31.5056 21.2445 27.5226C21.2445 27.5226 21.3819 26.5612 27.9744 26.4238" stroke="#979797" stroke-miterlimit="10" stroke-linecap="round" stroke-linejoin="round"/>
<path d="M35.8013 37.6861C35.8013 37.6861 36.9001 31.5056 34.7025 27.5226C34.7025 27.5226 34.5652 26.5612 27.9727 26.4238" stroke="#979797" stroke-miterlimit="10" stroke-linecap="round" stroke-linejoin="round"/>
<path d="M20.0611 38C20.0611 38 19.6418 39 21 40" stroke="#979797" stroke-miterlimit="10" stroke-linecap="round" stroke-linejoin="round"/>
<path d="M24.2594 42.7127C24.2594 42.438 24.1221 42.1633 23.9847 42.026C24.1221 41.7513 23.9847 41.4766 23.8474 41.3393C23.71 41.2019 23.4353 40.9272 23.298 40.9272C23.298 40.6525 23.1607 40.5152 22.886 40.3779C22.6113 40.2405 22.3366 40.2405 22.1992 40.2405C22.0619 40.1032 21.7872 39.9658 21.5125 39.9658C21.2378 39.9658 20.9631 40.1032 20.8258 40.2405C20.5511 40.1032 20.2764 40.2405 20.1391 40.3779C19.8644 40.5152 19.727 40.7899 19.727 40.9272C19.4523 40.9272 19.315 41.0646 19.1777 41.3393C19.0403 41.614 19.0403 41.8886 19.0403 42.026C18.903 42.1633 18.7656 42.438 18.7656 42.7127C18.7656 42.9874 18.903 43.2621 19.0403 43.3994C18.903 43.6741 19.0403 43.9488 19.1777 44.0862C19.315 44.3609 19.5897 44.4982 19.727 44.4982C19.727 44.7729 19.8644 44.9102 20.1391 45.0476C20.4138 45.1849 20.6884 45.1849 20.8258 45.1849C20.9631 45.3223 21.2378 45.4596 21.5125 45.4596C21.7872 45.4596 22.0619 45.3223 22.1992 45.1849C22.4739 45.3223 22.7486 45.1849 22.886 45.0476C23.1607 44.9102 23.298 44.6355 23.298 44.4982C23.5727 44.4982 23.71 44.3609 23.8474 44.0862C23.9847 43.8115 23.9847 43.5368 23.9847 43.3994C24.1221 43.2621 24.2594 42.9874 24.2594 42.7127Z" stroke="#979797" stroke-miterlimit="10" stroke-linecap="round" stroke-linejoin="round"/>
<path d="M35.9389 38C35.9389 38 36.3582 39 35 40" stroke="#979797" stroke-miterlimit="10" stroke-linecap="round" stroke-linejoin="round"/>
<path d="M32.0004 42.7127C32.0004 42.438 32.1377 42.1633 32.275 42.026C32.1377 41.7513 32.275 41.4766 32.4124 41.3393C32.5497 41.2019 32.8244 40.9272 32.9618 40.9272C32.9618 40.6525 33.0991 40.5152 33.3738 40.3779C33.6485 40.2405 33.9232 40.2405 34.0605 40.2405C34.1979 40.1032 34.4726 39.9658 34.7472 39.9658C35.0219 39.9658 35.2966 40.1032 35.434 40.2405C35.7087 40.1032 35.9834 40.2405 36.1207 40.3779C36.3954 40.5152 36.5327 40.7899 36.5327 40.9272C36.8074 40.9272 36.9448 41.0646 37.0821 41.3393C37.2195 41.614 37.2195 41.8886 37.2195 42.026C37.3568 42.1633 37.4941 42.438 37.4941 42.7127C37.4941 42.9874 37.3568 43.2621 37.2195 43.3994C37.3568 43.6741 37.2195 43.9488 37.0821 44.0862C36.9448 44.3609 36.6701 44.4982 36.5327 44.4982C36.5327 44.7729 36.3954 44.9102 36.1207 45.0476C35.846 45.1849 35.5713 45.1849 35.434 45.1849C35.2966 45.3223 35.0219 45.4596 34.7472 45.4596C34.4726 45.4596 34.1979 45.3223 34.0605 45.1849C33.7858 45.3223 33.5111 45.1849 33.3738 45.0476C33.0991 44.9102 32.9618 44.6355 32.9618 44.4982C32.6871 44.4982 32.5497 44.3609 32.4124 44.0862C32.275 43.8115 32.275 43.5368 32.275 43.3994C32.1377 43.2621 32.0004 42.9874 32.0004 42.7127Z" stroke="#979797" stroke-miterlimit="10" stroke-linecap="round" stroke-linejoin="round"/>
<path d="M27.9727 16.3994V18.5969" stroke="#979797" stroke-miterlimit="10" stroke-linecap="round" stroke-linejoin="round"/>
<path d="M29.8984 16.6729L30.0358 18.8704" stroke="#979797" stroke-miterlimit="10" stroke-linecap="round" stroke-linejoin="round"/>
<path d="M31.6816 16.6729L32.231 19.0077" stroke="#979797" stroke-miterlimit="10" stroke-linecap="round" stroke-linejoin="round"/>
<path d="M33.6074 16.9473L34.2941 18.7327" stroke="#979797" stroke-miterlimit="10" stroke-linecap="round" stroke-linejoin="round"/>
<path d="M26.0514 16.6729L25.9141 18.8704" stroke="#979797" stroke-miterlimit="10" stroke-linecap="round" stroke-linejoin="round"/>
<path d="M24.2642 16.6729L23.7148 19.0077" stroke="#979797" stroke-miterlimit="10" stroke-linecap="round" stroke-linejoin="round"/>
<path d="M22.343 16.9473L21.6562 18.7327" stroke="#979797" stroke-miterlimit="10" stroke-linecap="round" stroke-linejoin="round"/>
<path d="M27.9727 21.3447V23.6796" stroke="#979797" stroke-miterlimit="10" stroke-linecap="round" stroke-linejoin="round"/>
<path d="M29.8945 21.6182L30.0319 23.953" stroke="#979797" stroke-miterlimit="10" stroke-linecap="round" stroke-linejoin="round"/>
<path d="M31.6816 21.7549L32.231 23.9524" stroke="#979797" stroke-miterlimit="10" stroke-linecap="round" stroke-linejoin="round"/>
<path d="M33.5996 21.8926L34.2863 23.6781" stroke="#979797" stroke-miterlimit="10" stroke-linecap="round" stroke-linejoin="round"/>
<path d="M35.6641 22.3076L36.2134 23.6811" stroke="#979797" stroke-miterlimit="10" stroke-linecap="round" stroke-linejoin="round"/>
<path d="M26.0514 21.6182L25.9141 23.953" stroke="#979797" stroke-miterlimit="10" stroke-linecap="round" stroke-linejoin="round"/>
<path d="M24.2642 21.7549L23.7148 23.9524" stroke="#979797" stroke-miterlimit="10" stroke-linecap="round" stroke-linejoin="round"/>
<path d="M22.343 21.8926L21.6562 23.6781" stroke="#979797" stroke-miterlimit="10" stroke-linecap="round" stroke-linejoin="round"/>
<path d="M20.2798 22.3076L19.7305 23.6811" stroke="#979797" stroke-miterlimit="10" stroke-linecap="round" stroke-linejoin="round"/>
</svg>
