<svg width="39" height="33" viewBox="0 0 39 33" fill="none" xmlns="http://www.w3.org/2000/svg">
<path d="M14.2441 3.17871C14.2441 5.74538 16.6886 7.70093 19.6219 7.70093C22.5553 7.70093 24.9997 5.62315 24.9997 3.17871" stroke="#979797" stroke-miterlimit="10"/>
<path d="M7.27798 23.3449C6.91131 28.2338 7.03354 31.1671 7.03354 31.1671C8.62243 31.2893 21.578 31.9004 21.578 31.9004L21.0891 8.18932L20.478 7.82266L16.6891 1.22266L14.3669 3.05599L14.1224 2.93377H13.878L11.5558 3.91154L8.25576 4.88932C8.25576 4.88932 7.76687 4.88932 7.15576 6.60043C7.15576 6.60043 4.1002 12.8338 1.16687 16.3782C1.16687 16.3782 0.800203 16.7449 1.16687 17.6004C1.16687 17.6004 3.48909 21.5115 4.1002 24.3227C4.1002 24.3227 6.3002 23.1004 10.4558 22.7338C10.4558 22.7338 10.2113 19.8004 10.3335 19.0671C10.3335 19.0671 10.4558 18.9449 10.4558 18.7004L8.13354 6.72266C8.13354 6.72266 7.88909 5.37821 8.37798 4.88932" stroke="#979797" stroke-miterlimit="10" stroke-linejoin="round"/>
<path d="M19.5 6.11155L22.4333 1.22266L24.7556 3.05599L24.8778 2.93377H25.1222L27.3222 3.91155L30.6222 4.88932C30.6222 4.88932 31.1111 4.88932 31.7222 6.60043C31.7222 6.60043 34.7778 12.8338 37.7111 16.3782C37.7111 16.3782 38.0778 16.7449 37.7111 17.6004C37.7111 17.6004 35.3889 21.5115 34.7778 24.3227C34.7778 24.3227 32.5778 23.1004 28.4222 22.7338C28.4222 22.7338 28.6667 19.8004 28.5444 19.0671C28.5444 19.0671 28.4222 18.9449 28.4222 18.7004L30.7444 6.72266C30.7444 6.72266 30.9889 5.37821 30.5 4.88932" stroke="#979797" stroke-miterlimit="10" stroke-linejoin="round"/>
<path d="M16.6895 1.22266C16.6895 1.22266 19.3783 3.30043 22.4339 1.22266" stroke="#979797" stroke-miterlimit="10"/>
<path d="M2.63281 20.4118C2.63281 20.4118 3.48837 19.8007 10.3328 19.0674" stroke="#979797" stroke-miterlimit="10"/>
<path d="M36.366 20.4118C36.366 20.4118 35.5105 19.8007 28.666 19.0674" stroke="#979797" stroke-miterlimit="10"/>
<path d="M21.5781 31.5336C21.5781 31.5336 30.3781 31.4114 32.2115 31.0447C32.2115 31.0447 32.2115 26.8892 31.8448 23.3447" stroke="#979797" stroke-miterlimit="10"/>
<path d="M18.5332 10.5342C18.8093 10.5342 19.0332 10.3103 19.0332 10.0342C19.0332 9.75804 18.8093 9.53418 18.5332 9.53418C18.2571 9.53418 18.0332 9.75804 18.0332 10.0342C18.0332 10.3103 18.2571 10.5342 18.5332 10.5342Z" fill="#979797"/>
<path d="M18.7773 18.3564C19.0535 18.3564 19.2773 18.1326 19.2773 17.8564C19.2773 17.5803 19.0535 17.3564 18.7773 17.3564C18.5012 17.3564 18.2773 17.5803 18.2773 17.8564C18.2773 18.1326 18.5012 18.3564 18.7773 18.3564Z" fill="#979797"/>
<path d="M18.9004 27.1562C19.1765 27.1562 19.4004 26.9324 19.4004 26.6562C19.4004 26.3801 19.1765 26.1562 18.9004 26.1562C18.6242 26.1562 18.4004 26.3801 18.4004 26.6562C18.4004 26.9324 18.6242 27.1562 18.9004 27.1562Z" fill="#979797"/>
</svg>
