<svg width="34" height="34" viewBox="0 0 34 34" fill="none" xmlns="http://www.w3.org/2000/svg">
<path d="M17.3888 10.76C17.6413 10.76 17.8459 10.5553 17.8459 10.3028C17.8459 10.0504 17.6413 9.8457 17.3888 9.8457C17.1363 9.8457 16.9316 10.0504 16.9316 10.3028C16.9316 10.5553 17.1363 10.76 17.3888 10.76Z" fill="#979797"/>
<path d="M17.3888 14.303C17.6413 14.303 17.8459 14.0983 17.8459 13.8458C17.8459 13.5933 17.6413 13.3887 17.3888 13.3887C17.1363 13.3887 16.9316 13.5933 16.9316 13.8458C16.9316 14.0983 17.1363 14.303 17.3888 14.303Z" fill="#979797"/>
<path d="M17.3888 17.8459C17.6413 17.8459 17.8459 17.6413 17.8459 17.3888C17.8459 17.1363 17.6413 16.9316 17.3888 16.9316C17.1363 16.9316 16.9316 17.1363 16.9316 17.3888C16.9316 17.6413 17.1363 17.8459 17.3888 17.8459Z" fill="#979797"/>
<path d="M17.3888 21.3889C17.6413 21.3889 17.8459 21.1842 17.8459 20.9318C17.8459 20.6793 17.6413 20.4746 17.3888 20.4746C17.1363 20.4746 16.9316 20.6793 16.9316 20.9318C16.9316 21.1842 17.1363 21.3889 17.3888 21.3889Z" fill="#979797"/>
<path d="M17.3888 24.8166C17.6413 24.8166 17.8459 24.612 17.8459 24.3595C17.8459 24.107 17.6413 23.9023 17.3888 23.9023C17.1363 23.9023 16.9316 24.107 16.9316 24.3595C16.9316 24.612 17.1363 24.8166 17.3888 24.8166Z" fill="#979797"/>
<path d="M17.3888 28.3606C17.6413 28.3606 17.8459 28.1559 17.8459 27.9034C17.8459 27.651 17.6413 27.4463 17.3888 27.4463C17.1363 27.4463 16.9316 27.651 16.9316 27.9034C16.9316 28.1559 17.1363 28.3606 17.3888 28.3606Z" fill="#979797"/>
<path d="M8.47439 13.1601L4.93153 15.3315L1.38867 8.93153L12.2458 1.38867C13.6172 2.53153 16.9315 2.53153 16.9315 2.53153H17.8458C17.8458 2.53153 21.1601 2.53153 22.5315 1.38867L33.3887 8.93153L29.8458 15.3315L26.303 13.1601" stroke="#979797" stroke-miterlimit="10" stroke-linejoin="round"/>
<path d="M8.47439 6.30276C8.47439 6.30276 9.38867 9.15991 8.24582 15.217L5.38867 31.5599C5.38867 31.5599 9.84581 33.3885 17.1601 33.3885H17.6172C24.9315 33.3885 29.3887 31.5599 29.3887 31.5599L26.5315 15.1028C25.3887 9.04562 26.303 6.18848 26.303 6.18848" stroke="#979797" stroke-miterlimit="10" stroke-linejoin="round"/>
<path d="M9.73047 3.1029C9.73047 3.1029 10.3019 8.24576 13.8448 8.93147C17.3876 9.61719 17.3876 5.96004 17.3876 5.96004C12.9305 5.73147 12.0162 1.61719 12.0162 1.61719" stroke="#979797" stroke-miterlimit="10" stroke-linejoin="round"/>
<path d="M25.0458 3.1029C25.0458 3.1029 24.4744 8.24576 20.9315 8.93147C17.3887 9.61719 17.3887 5.96004 17.3887 5.96004C21.8458 5.73147 22.7601 1.61719 22.7601 1.61719" stroke="#979797" stroke-miterlimit="10" stroke-linejoin="round"/>
<path d="M15.5605 10.3027V33.3885" stroke="#979797" stroke-miterlimit="10" stroke-linejoin="round"/>
<path d="M19.2168 10.3027V33.3885" stroke="#979797" stroke-miterlimit="10" stroke-linejoin="round"/>
</svg>
