<svg width="34" height="31" viewBox="0 0 34 31" fill="none" xmlns="http://www.w3.org/2000/svg">
<path d="M11.0603 1.61517C11.0603 1.61517 11.5065 0.834405 12.0642 0.611328H12.1757C12.1757 0.611328 13.8488 3.17671 17.6411 5.63056L21.9911 9.19979C21.9911 9.19979 25.0026 10.8729 24.2218 15.4459C24.2218 15.4459 23.4411 21.6921 23.5526 24.5921C23.5526 24.5921 24.1103 29.4998 19.8718 29.6113H7.04492V28.3844" stroke="#979797" stroke-miterlimit="10"/>
<path d="M22.8842 1.61517C22.8842 1.61517 22.438 0.834405 21.8803 0.611328H21.7688C21.7688 0.611328 20.3188 2.8421 16.9727 5.1844" stroke="#979797" stroke-miterlimit="10"/>
<path d="M12.2871 0.611328C12.2871 0.611328 14.0717 1.83825 16.9717 1.83825" stroke="#979797" stroke-miterlimit="10"/>
<path d="M21.6573 0.611328C21.6573 0.611328 19.8727 1.83825 16.9727 1.83825" stroke="#979797" stroke-miterlimit="10"/>
<path d="M11.0599 1.61523C11.0599 1.61523 5.59456 3.51139 3.25225 4.18062L1.02148 4.84985C1.02148 4.84985 1.24456 7.08062 1.91379 8.86523C2.58302 10.6498 2.58302 11.096 3.36379 12.4345L6.59841 12.6575C6.59841 12.6575 7.93687 12.7691 7.82533 13.7729C7.82533 13.7729 7.1561 22.3614 7.04456 28.2729" stroke="#979797" stroke-miterlimit="10"/>
<path d="M22.8828 1.61523C22.8828 1.61523 28.3482 3.51139 30.6905 4.18062L32.9213 4.84985C32.9213 4.84985 32.6982 7.08062 32.029 8.86524C31.3597 10.6499 31.3597 11.096 30.579 12.4345L27.3444 12.6575C27.3444 12.6575 26.0059 12.7691 26.1174 13.7729C26.1174 13.7729 26.7867 22.5845 26.8982 28.496" stroke="#979797" stroke-miterlimit="10"/>
<path d="M26.8992 28.4961V29.6115H18.1992" stroke="#979797" stroke-miterlimit="10"/>
</svg>
