<svg width="29" height="25" viewBox="0 0 29 25" fill="none" xmlns="http://www.w3.org/2000/svg">
<path d="M13.0049 6.86523L11.6249 23.195C11.6249 23.195 11.3949 24 14.4999 24" stroke="#979797" stroke-miterlimit="10"/>
<path d="M3.80465 21.6995C1.50468 21.6995 0.929688 20.7796 0.929688 20.7796C1.50468 19.9746 2.65467 16.2946 2.65467 16.2946L5.29963 6.05974C5.64463 4.90975 6.44962 3.75977 6.44962 3.75977H14.4995" stroke="#979797" stroke-miterlimit="10"/>
<path d="M7.4844 6.86523L3.68945 21.93C3.68945 21.93 4.95444 24.345 8.40439 22.85L10.8194 6.86523" stroke="#979797" stroke-miterlimit="10"/>
<path d="M6.44922 3.87497V1H14.4991" stroke="#979797" stroke-miterlimit="10"/>
<path d="M15.995 6.86523L17.375 23.195C17.375 23.195 17.605 24 14.5 24" stroke="#979797" stroke-miterlimit="10"/>
<path d="M25.1949 21.6995C27.4948 21.6995 28.0698 20.7796 28.0698 20.7796C27.4948 19.9746 26.3449 16.2946 26.3449 16.2946L23.6999 6.05974C23.3549 4.90975 22.5499 3.75977 22.5499 3.75977H14.5" stroke="#979797" stroke-miterlimit="10"/>
<path d="M21.5166 6.86523L25.3115 21.93C25.3115 21.93 24.0466 24.345 20.5966 22.85L18.1816 6.86523" stroke="#979797" stroke-miterlimit="10"/>
<path d="M22.5499 3.87497V1H14.5" stroke="#979797" stroke-miterlimit="10"/>
<path d="M8.51953 22.8496C8.51953 22.8496 9.89952 23.5396 11.7395 23.1946" stroke="#979797" stroke-miterlimit="10"/>
<path d="M17.375 23.1946C17.375 23.1946 18.87 23.6546 20.595 22.8496" stroke="#979797" stroke-miterlimit="10"/>
</svg>
