<svg width="55" height="55" viewBox="0 0 55 55" fill="none" xmlns="http://www.w3.org/2000/svg">
<path d="M19.4 28.1002L20 22.1002C17.7 21.2002 16.6 20.0002 16.5 16.8002L20.3 14.1002L21.6 13.2002C26.2 16.4002 29.1 16.3002 34.1 13.2002L35.3 14.1002L39.1 16.8002C39 20.0002 37.9 21.2002 35.6 22.1002L36.3 28.1002" stroke="#979797" stroke-miterlimit="10"/>
<path d="M20.3008 14.2998C20.3008 14.2998 23.2008 17.3998 27.5008 17.3998C31.8008 17.3998 35.6008 14.2998 35.6008 14.2998" stroke="#979797" stroke-miterlimit="10"/>
<path d="M14.1992 36.8996L19.3992 28.0996C25.3992 29.2996 29.6992 29.4996 36.3992 28.0996L40.7992 36.8996C33.1992 42.5996 25.6992 43.0996 18.3992 39.3996C16.9992 38.7996 15.5992 37.8996 14.1992 36.8996Z" stroke="#979797" stroke-miterlimit="10"/>
<path d="M20.8984 33.2998L18.3984 39.6998" stroke="#979797" stroke-miterlimit="10"/>
<path d="M36.3 39.6998L34 33.2998" stroke="#979797" stroke-miterlimit="10"/>
<path d="M27.5 41.7994V37.8994" stroke="#979797" stroke-miterlimit="10"/>
</svg>
