<?xml version="1.0" encoding="utf-8"?>
<!-- Generator: Adobe Illustrator 25.3.1, SVG Export Plug-In . SVG Version: 6.00 Build 0)  -->
<svg version="1.1" id="Слой_1" xmlns="http://www.w3.org/2000/svg" xmlns:xlink="http://www.w3.org/1999/xlink" x="0px" y="0px"
	 viewBox="0 0 55 55" style="enable-background:new 0 0 55 55;" xml:space="preserve">
<style type="text/css">
	.st0{fill:none;stroke:#979797;stroke-miterlimit:10;}
	.st1{fill:#FFFFFF;stroke:#979797;stroke-miterlimit:10;}
</style>
<path class="st0" d="M38.3,38.3l-2-12.3c-0.1-0.2,0.1-0.3,0.3-0.2l4.2,3l4.2-5.6l-10.3-9.4c-4.7,5-9.3,4.9-13.8,0l-10.3,9.4l4.2,5.6
	l4.1-2.9c0.2-0.1,0.4,0,0.3,0.2l-2,12.1c-0.1,0.4,0.1,0.8,0.5,0.9c6.8,1.4,13.6,1.5,20.2,0C38.2,39,38.4,38.6,38.3,38.3z"/>
<path class="st0" d="M19,15.5c5.6,5.3,11.4,5.6,17.4,0"/>
<line class="st1" x1="27.8" y1="19.6" x2="27.5" y2="40.2"/>
</svg>
