<svg width="55" height="55" viewBox="0 0 55 55" fill="none" xmlns="http://www.w3.org/2000/svg">
<g clip-path="url(#clip0)">
<path d="M16.3105 20.2478C22.0818 14.4765 31.7376 14.5875 37.7308 20.5807C43.724 26.5739 43.946 36.2297 38.0638 42.001" stroke="#979797" stroke-miterlimit="10" stroke-linecap="round" stroke-linejoin="round"/>
<path d="M22.1934 26.2408C27.9646 20.4695 34.9567 17.9168 37.6204 20.5805C40.284 23.2442 37.8424 30.2363 31.9601 36.0075" stroke="#979797" stroke-miterlimit="10" stroke-linecap="round" stroke-linejoin="round"/>
<path d="M38.731 19.4717L37.6211 20.5815" stroke="#979797" stroke-miterlimit="10" stroke-linecap="round" stroke-linejoin="round"/>
<path d="M17.3086 19.249C17.3086 19.249 20.9711 21.3578 23.3018 25.0203" stroke="#979797" stroke-miterlimit="10" stroke-linecap="round" stroke-linejoin="round"/>
<path d="M33.0684 34.8975C33.0684 34.8975 36.6199 37.1172 38.9506 40.7797" stroke="#979797" stroke-miterlimit="10" stroke-linecap="round" stroke-linejoin="round"/>
<path d="M23.3027 25.1318C23.3027 25.1318 28.741 29.2383 32.9585 35.0096" stroke="#979797" stroke-miterlimit="10" stroke-linecap="round" stroke-linejoin="round"/>
<path d="M14.9784 34.3421C13.8686 35.4519 13.9795 37.3387 15.2004 38.5595C16.4212 39.7804 18.308 39.8914 19.4179 38.7815L28.5187 29.6807" stroke="#979797" stroke-miterlimit="10" stroke-linecap="round" stroke-linejoin="round"/>
</g>
<defs>
<clipPath id="clip0">
<rect width="55" height="55" fill="white"/>
</clipPath>
</defs>
</svg>
