<svg width="55" height="55" viewBox="0 0 55 55" fill="none" xmlns="http://www.w3.org/2000/svg">
<g clip-path="url(#clip0)">
<path d="M28.2068 19.746C29.8722 19.746 31.2223 18.9745 31.2223 18.0229C31.2223 17.0713 29.8722 16.2998 28.2068 16.2998C26.5415 16.2998 25.1914 17.0713 25.1914 18.0229C25.1914 18.9745 26.5415 19.746 28.2068 19.746Z" stroke="#979797" stroke-miterlimit="10" stroke-linejoin="round"/>
<path d="M25.084 18.0225V19.9609C25.084 20.9302 26.484 21.6841 28.0994 21.6841C29.7148 21.6841 31.1148 20.9302 31.1148 19.9609V18.0225" stroke="#979797" stroke-miterlimit="10" stroke-linejoin="round"/>
<path d="M28.2088 27.6073C29.8742 27.6073 31.2242 26.8359 31.2242 25.8842C31.2242 24.9326 29.8742 24.1611 28.2088 24.1611C26.5434 24.1611 25.1934 24.9326 25.1934 25.8842C25.1934 26.8359 26.5434 27.6073 28.2088 27.6073Z" stroke="#979797" stroke-miterlimit="10" stroke-linejoin="round"/>
<path d="M25.0859 25.8838V27.8223C25.0859 28.7915 26.486 29.5454 28.1014 29.5454C29.8245 29.5454 31.1168 28.7915 31.1168 27.8223V25.8838" stroke="#979797" stroke-miterlimit="10" stroke-linejoin="round"/>
<path d="M20.4529 23.5146C22.1183 23.5146 23.4684 22.7431 23.4684 21.7915C23.4684 20.8398 22.1183 20.0684 20.4529 20.0684C18.7876 20.0684 17.4375 20.8398 17.4375 21.7915C17.4375 22.7431 18.7876 23.5146 20.4529 23.5146Z" stroke="#979797" stroke-miterlimit="10" stroke-linejoin="round"/>
<path d="M17.4375 21.791V23.7295C17.4375 24.6987 18.8375 25.4526 20.4529 25.4526C22.0683 25.4526 23.4684 24.6987 23.4684 23.7295V21.791" stroke="#979797" stroke-miterlimit="10" stroke-linejoin="round"/>
<path d="M35.9607 23.5146C37.6261 23.5146 38.9762 22.7431 38.9762 21.7915C38.9762 20.8398 37.6261 20.0684 35.9607 20.0684C34.2954 20.0684 32.9453 20.8398 32.9453 21.7915C32.9453 22.7431 34.2954 23.5146 35.9607 23.5146Z" stroke="#979797" stroke-miterlimit="10" stroke-linejoin="round"/>
<path d="M32.9453 21.791V23.7295C32.9453 24.6987 34.3453 25.4526 35.9607 25.4526C37.5761 25.4526 38.9762 24.6987 38.9762 23.7295V21.791" stroke="#979797" stroke-miterlimit="10" stroke-linejoin="round"/>
<path d="M17.9766 22.7607L14.0996 24.9146L28.2075 32.9917L42.2077 24.9146L38.4384 22.7607" stroke="#979797" stroke-miterlimit="10" stroke-linejoin="round"/>
<path d="M14.0996 24.915V36.2229L28.2075 44.2999L42.2077 36.2229V24.915" stroke="#979797" stroke-miterlimit="10" stroke-linejoin="round"/>
<path d="M25.3011 18.4531L22.0703 20.2839" stroke="#979797" stroke-miterlimit="10" stroke-linejoin="round"/>
<path d="M34.4535 20.2842L31.2227 18.3457" stroke="#979797" stroke-miterlimit="10" stroke-linejoin="round"/>
<path d="M28.207 33.208V43.762" stroke="#979797" stroke-miterlimit="10" stroke-linejoin="round"/>
</g>
<defs>
<clipPath id="clip0">
<rect width="55" height="55" fill="white"/>
</clipPath>
</defs>
</svg>
