<svg width="55" height="55" viewBox="0 0 55 55" fill="none" xmlns="http://www.w3.org/2000/svg">
<g clip-path="url(#clip0)">
<path d="M26.5984 17.0658L20.1777 19.2798V13.8555L26.7091 16.2909" stroke="#979797" stroke-miterlimit="10"/>
<path d="M28.9232 17.1765L35.3438 19.6119V13.8555L28.8125 16.2909" stroke="#979797" stroke-miterlimit="10"/>
<path d="M27.8154 17.951C28.4879 17.951 29.0331 17.4059 29.0331 16.7333C29.0331 16.0608 28.4879 15.5156 27.8154 15.5156C27.1428 15.5156 26.5977 16.0608 26.5977 16.7333C26.5977 17.4059 27.1428 17.951 27.8154 17.951Z" stroke="#979797" stroke-miterlimit="10"/>
<path d="M33.24 21.7148C33.24 21.7148 33.6828 23.7075 33.9042 28.5783C34.1256 33.4491 27.8156 33.5598 27.8156 33.5598C21.5057 33.2277 22.0592 28.4676 22.0592 28.4676L22.6127 21.7148" stroke="#979797" stroke-miterlimit="10"/>
<path d="M22.3926 23.3762H28.5918L29.5881 22.3799L30.5844 23.3762H33.5734" stroke="#979797" stroke-miterlimit="10"/>
<path d="M16.9668 30.7928C17.631 22.2688 20.1771 19.3906 20.1771 19.3906" stroke="#979797" stroke-miterlimit="10"/>
<path d="M35.3438 19.2803C35.3438 19.2803 37.8899 22.1585 38.5541 30.6825" stroke="#979797" stroke-miterlimit="10"/>
<path d="M29.4753 30.1279C27.8148 31.1242 26.1543 30.1279 26.1543 30.1279" stroke="#979797" stroke-miterlimit="10"/>
<path d="M24.4941 27.3615C24.4941 26.808 24.9369 26.3652 25.4904 26.3652C26.044 26.3652 26.4868 26.808 26.4868 27.3615" stroke="#979797" stroke-miterlimit="10"/>
<path d="M29.3672 27.3615C29.3672 26.808 29.81 26.3652 30.3635 26.3652C30.917 26.3652 31.3598 26.808 31.3598 27.3615" stroke="#979797" stroke-miterlimit="10"/>
<path d="M16.9664 43.7446L18.5162 37.324L12.2062 32.6746C10.9885 31.4569 12.0955 30.0177 12.0955 30.0177C12.0955 30.0177 13.0918 28.6893 14.8631 29.5749C16.5236 30.4605 25.1582 35.2207 25.1582 35.2207C25.1582 35.2207 26.4866 35.7742 27.8151 35.7742C29.1435 35.7742 29.9184 35.4421 29.9184 35.4421L40.8778 29.5749C40.8778 29.5749 42.7597 28.8 43.5346 30.0177C43.5346 30.0177 44.6416 31.3461 43.0918 32.6746L37.2246 37.5454L38.8851 43.8553" stroke="#979797" stroke-miterlimit="10"/>
<path d="M24.7168 32.8965V35.1105" stroke="#979797" stroke-miterlimit="10"/>
<path d="M31.0273 32.8965V35.1105" stroke="#979797" stroke-miterlimit="10"/>
<path d="M17.8535 36.8814L20.1782 32.6748" stroke="#979797" stroke-miterlimit="10"/>
<path d="M35.4551 32.6748L37.7798 36.8814" stroke="#979797" stroke-miterlimit="10"/>
</g>
<defs>
<clipPath id="clip0">
<rect width="55" height="55" fill="white"/>
</clipPath>
</defs>
</svg>
