<svg width="55" height="55" viewBox="0 0 55 55" fill="none" xmlns="http://www.w3.org/2000/svg">
<g clip-path="url(#clip0)">
<path d="M36.951 43.7771H17.0204C15.8481 43.7771 14.9102 42.8392 14.9102 41.6668V21.7363C14.9102 20.5639 15.8481 19.626 17.0204 19.626H36.951C38.1233 19.626 39.0613 20.5639 39.0613 21.7363V41.784C39.0613 42.8392 38.1233 43.7771 36.951 43.7771Z" stroke="#979797" stroke-miterlimit="10"/>
<path d="M21.0074 29.9425C22.9499 29.9425 24.5245 28.3678 24.5245 26.4254C24.5245 24.4829 22.9499 22.9082 21.0074 22.9082C19.0649 22.9082 17.4902 24.4829 17.4902 26.4254C17.4902 28.3678 19.0649 29.9425 21.0074 29.9425Z" stroke="#979797" stroke-miterlimit="10"/>
<path d="M32.7319 16.3427C34.5449 16.3427 36.0146 14.873 36.0146 13.06C36.0146 11.247 34.5449 9.77734 32.7319 9.77734C30.9189 9.77734 29.4492 11.247 29.4492 13.06C29.4492 14.873 30.9189 16.3427 32.7319 16.3427Z" stroke="#979797" stroke-miterlimit="10" stroke-linejoin="round"/>
<path d="M36.4835 22.9082H29.4492V29.9425H36.4835V22.9082Z" stroke="#979797" stroke-miterlimit="10"/>
<path d="M36.3656 40.3774H29.4485L26.5176 34.8672H33.5519L36.3656 40.3774Z" stroke="#979797" stroke-miterlimit="10"/>
<path d="M17.7246 40.0252L21.0073 33.8115L24.0555 40.0252H17.7246Z" stroke="#979797" stroke-miterlimit="10"/>
<path d="M17.7246 16.3435L21.0073 10.2471L24.0555 16.3435H17.7246Z" stroke="#979797" stroke-miterlimit="10" stroke-linejoin="round"/>
</g>
<defs>
<clipPath id="clip0">
<rect width="55" height="55" fill="white"/>
</clipPath>
</defs>
</svg>
