<svg width="55" height="55" viewBox="0 0 55 55" fill="none" xmlns="http://www.w3.org/2000/svg">
<g clip-path="url(#clip0)">
<path d="M14.2531 25.0136C12.849 24.1495 11.877 22.5294 11.877 20.8013C11.877 17.9931 14.1451 15.833 16.8453 15.833C18.8974 15.833 20.6255 17.0211 21.3816 18.7492" stroke="#979797" stroke-miterlimit="10"/>
<path d="M26.4581 39.7026C30.753 39.7026 34.2346 37.1398 34.2346 33.9783C34.2346 30.8168 30.753 28.2539 26.4581 28.2539C22.1633 28.2539 18.6816 30.8168 18.6816 33.9783C18.6816 37.1398 22.1633 39.7026 26.4581 39.7026Z" stroke="#979797" stroke-miterlimit="10"/>
<path d="M26.4584 33.5465C27.5917 33.5465 28.5105 32.9178 28.5105 32.1424C28.5105 31.3669 27.5917 30.7383 26.4584 30.7383C25.325 30.7383 24.4062 31.3669 24.4062 32.1424C24.4062 32.9178 25.325 33.5465 26.4584 33.5465Z" stroke="#979797" stroke-miterlimit="10"/>
<path d="M31.103 34.4102C31.103 35.9223 29.0509 37.1103 26.4587 37.1103C23.8666 37.1103 21.8145 35.9223 21.8145 34.4102" stroke="#979797" stroke-miterlimit="10"/>
<path d="M26.4595 39.7031C33.6772 39.7031 39.5283 34.8191 39.5283 28.7944C39.5283 22.7697 33.6772 17.8857 26.4595 17.8857C19.2417 17.8857 13.3906 22.7697 13.3906 28.7944C13.3906 34.8191 19.2417 39.7031 26.4595 39.7031Z" stroke="#979797" stroke-miterlimit="10"/>
<path d="M15.6582 22.7455C15.0102 22.3134 14.5781 21.6654 14.5781 20.8013C14.5781 19.5053 15.5502 18.5332 16.8463 18.5332C17.8183 18.5332 18.5744 19.0732 18.8984 19.8293" stroke="#979797" stroke-miterlimit="10"/>
<path d="M39.2027 25.0136C40.6068 24.1495 41.5788 22.5294 41.5788 20.8013C41.5788 17.9931 39.3107 15.833 36.6105 15.833C34.5584 15.833 32.8303 17.0211 32.0742 18.7492" stroke="#979797" stroke-miterlimit="10"/>
<path d="M37.6914 22.7455C38.3394 22.3134 38.7715 21.6654 38.7715 20.8013C38.7715 19.5053 37.7994 18.5332 36.5033 18.5332C35.5312 18.5332 34.7752 19.0732 34.4512 19.8293" stroke="#979797" stroke-miterlimit="10"/>
<path d="M26.457 33.6543V37.1105" stroke="#979797" stroke-miterlimit="10"/>
<path d="M21.5977 26.957L22.4617 29.1172" stroke="#979797" stroke-miterlimit="10"/>
<path d="M31.4279 26.957L30.6719 29.2252" stroke="#979797" stroke-miterlimit="10"/>
<path d="M25.1627 42.0789L22.5705 43.591C21.0584 44.455 20.7344 42.7269 20.7344 42.7269V38.5146" stroke="#979797" stroke-miterlimit="10"/>
<path d="M32.2916 38.5146V42.7269C32.2916 42.7269 31.9675 44.455 30.4554 43.591L27.8633 42.0789" stroke="#979797" stroke-miterlimit="10"/>
<path d="M26.5654 42.8359C27.4602 42.8359 28.1855 42.1106 28.1855 41.2158C28.1855 40.321 27.4602 39.5957 26.5654 39.5957C25.6707 39.5957 24.9453 40.321 24.9453 41.2158C24.9453 42.1106 25.6707 42.8359 26.5654 42.8359Z" stroke="#979797" stroke-miterlimit="10"/>
<path d="M19.3301 24.0424C19.3301 24.0424 20.9502 23.0703 22.6783 23.0703" stroke="#979797" stroke-miterlimit="10"/>
<path d="M33.4791 24.0424C33.4791 24.0424 31.859 23.0703 30.1309 23.0703" stroke="#979797" stroke-miterlimit="10"/>
</g>
<defs>
<clipPath id="clip0">
<rect width="55" height="55" fill="white"/>
</clipPath>
</defs>
</svg>
