<svg width="55" height="55" viewBox="0 0 55 55" fill="none" xmlns="http://www.w3.org/2000/svg">
<g clip-path="url(#clip0)">
<path d="M38.5239 20.163V31.3078C38.5239 37.5975 33.4481 42.6734 27.1584 42.6734C20.8688 42.6734 15.7929 37.5975 15.7929 31.3078V20.163H21.6412V31.3078C21.6412 34.3975 24.0688 36.8251 27.1584 36.8251C30.2481 36.8251 32.6757 34.3975 32.6757 31.3078V20.163H38.5239ZM39.6274 19.0596H31.5722V31.3078C31.5722 33.7354 29.586 35.7216 27.1584 35.7216C24.7308 35.7216 22.7446 33.7354 22.7446 31.3078V19.0596H14.6895V31.3078C14.6895 38.1492 20.317 43.7768 27.1584 43.7768C33.9998 43.7768 39.6274 38.1492 39.6274 31.3078V19.0596Z" fill="#979797"/>
<path d="M15.0215 27.0049H22.4146" stroke="#979797" stroke-miterlimit="10"/>
<path d="M31.793 27.0049H39.2964" stroke="#979797" stroke-miterlimit="10"/>
<path d="M18.7714 13.1015C19.1371 13.1015 19.4335 12.8051 19.4335 12.4394C19.4335 12.0738 19.1371 11.7773 18.7714 11.7773C18.4058 11.7773 18.1094 12.0738 18.1094 12.4394C18.1094 12.8051 18.4058 13.1015 18.7714 13.1015Z" fill="#979797"/>
<path d="M20.9785 16.7431C21.3441 16.7431 21.6405 16.4467 21.6405 16.081C21.6405 15.7154 21.3441 15.4189 20.9785 15.4189C20.6128 15.4189 20.3164 15.7154 20.3164 16.081C20.3164 16.4467 20.6128 16.7431 20.9785 16.7431Z" fill="#979797"/>
<path d="M16.5644 16.7431C16.9301 16.7431 17.2265 16.4467 17.2265 16.081C17.2265 15.7154 16.9301 15.4189 16.5644 15.4189C16.1988 15.4189 15.9023 15.7154 15.9023 16.081C15.9023 16.4467 16.1988 16.7431 16.5644 16.7431Z" fill="#979797"/>
<path d="M35.5429 13.1015C35.9086 13.1015 36.205 12.8051 36.205 12.4394C36.205 12.0738 35.9086 11.7773 35.5429 11.7773C35.1773 11.7773 34.8809 12.0738 34.8809 12.4394C34.8809 12.8051 35.1773 13.1015 35.5429 13.1015Z" fill="#979797"/>
<path d="M37.75 16.7431C38.1156 16.7431 38.412 16.4467 38.412 16.081C38.412 15.7154 38.1156 15.4189 37.75 15.4189C37.3843 15.4189 37.0879 15.7154 37.0879 16.081C37.0879 16.4467 37.3843 16.7431 37.75 16.7431Z" fill="#979797"/>
<path d="M33.3359 16.7431C33.7016 16.7431 33.998 16.4467 33.998 16.081C33.998 15.7154 33.7016 15.4189 33.3359 15.4189C32.9702 15.4189 32.6738 15.7154 32.6738 16.081C32.6738 16.4467 32.9702 16.7431 33.3359 16.7431Z" fill="#979797"/>
</g>
<defs>
<clipPath id="clip0">
<rect width="55" height="55" fill="white"/>
</clipPath>
</defs>
</svg>
