<svg width="55" height="55" viewBox="0 0 55 55" fill="none" xmlns="http://www.w3.org/2000/svg">
<g clip-path="url(#clip0)">
<path d="M38.3618 15.1968C38.3618 15.1968 29.8647 6.69975 20.2641 16.4107C20.2641 16.4107 13.0913 22.3697 17.2846 31.1978C17.2846 31.1978 17.6157 32.0806 17.0639 32.8531L10.2221 39.2535C10.2221 39.2535 9.44967 39.9156 10.0014 40.357L11.6567 42.0122" stroke="#979797" stroke-miterlimit="10" stroke-linejoin="round"/>
<path d="M38.3623 15.1973C38.3623 15.1973 45.5946 22.4296 39.0889 31.0883M11.5469 41.9023L13.2021 43.5576C13.6436 44.1094 14.3057 43.3369 14.3057 43.3369L20.7061 36.4951C21.4785 35.9434 22.3613 36.2744 22.3613 36.2744C27.0325 38.4932 30.9004 37.5298 33.5073 36.1305" stroke="#979797" stroke-miterlimit="10" stroke-linejoin="round"/>
<path d="M27.6572 37.5986L15.8496 25.9014" stroke="#979797" stroke-miterlimit="10" stroke-linejoin="round"/>
<path d="M37.1484 38.4805C39.3425 38.4805 41.1211 36.7019 41.1211 34.5078C41.1211 32.3138 39.3425 30.5352 37.1484 30.5352C34.9544 30.5352 33.1758 32.3138 33.1758 34.5078C33.1758 36.7019 34.9544 38.4805 37.1484 38.4805Z" stroke="#979797" stroke-miterlimit="10" stroke-linejoin="round"/>
</g>
<defs>
<clipPath id="clip0">
<rect width="55" height="55" fill="white"/>
</clipPath>
</defs>
</svg>
