<svg width="55" height="55" viewBox="0 0 55 55" fill="none" xmlns="http://www.w3.org/2000/svg">
<g clip-path="url(#clip0)">
<path d="M20.6857 27.338L18.7415 29.3903C18.7415 29.3903 14.7451 34.2508 18.4175 38.6793C22.0899 43.1078 29.2187 42.9998 29.2187 42.9998C29.2187 42.9998 37.9676 42.9998 40.776 36.7351C43.5843 30.4704 40.4519 24.2057 40.4519 24.2057C40.4519 24.2057 34.0792 29.2823 28.7866 27.9861C28.7866 27.9861 34.9433 22.3695 29.9748 17.617C25.0062 12.8645 19.3896 20.1012 19.3896 20.1012C19.3896 20.1012 19.1736 20.7493 19.4976 21.2894L20.7938 23.2336C20.7938 23.2336 21.4418 24.3137 20.3617 24.5297C20.3617 24.5297 17.1214 25.5018 15.0691 21.3974C15.0691 21.3974 14.6371 20.4253 15.9332 20.5333C15.9332 20.5333 17.1214 20.7493 19.0656 20.1012" stroke="#979797" stroke-miterlimit="10" stroke-linejoin="round"/>
<path d="M30.3008 37.492C30.3008 37.492 35.4854 37.492 37.1055 33.0635" stroke="#979797" stroke-miterlimit="10" stroke-linejoin="round"/>
<path d="M26.5176 36.5195C28.4618 37.4916 30.406 37.3836 30.406 37.3836" stroke="#979797" stroke-miterlimit="10" stroke-linejoin="round"/>
<path d="M24.2481 21.9376C24.8446 21.9376 25.3282 21.454 25.3282 20.8575C25.3282 20.2609 24.8446 19.7773 24.2481 19.7773C23.6516 19.7773 23.168 20.2609 23.168 20.8575C23.168 21.454 23.6516 21.9376 24.2481 21.9376Z" fill="#979797"/>
</g>
<defs>
<clipPath id="clip0">
<rect width="55" height="55" fill="white"/>
</clipPath>
</defs>
</svg>
