<svg width="55" height="55" viewBox="0 0 55 55" fill="none" xmlns="http://www.w3.org/2000/svg">
<g clip-path="url(#clip0)">
<path d="M22.6116 25.667L19.9227 14.3003C19.9227 14.3003 19.0672 9.90033 22.1227 9.16699C22.1227 9.16699 24.5672 9.16699 25.3005 12.3448C25.3005 12.3448 25.7894 15.6448 25.3005 23.5892H29.5783C29.0894 15.767 29.5783 12.3448 29.5783 12.3448C30.5561 9.16699 33.0005 9.16699 33.0005 9.16699C36.1783 9.7781 35.2005 14.3003 35.2005 14.3003L32.6339 25.667" stroke="#979797" stroke-miterlimit="10"/>
<path d="M35.322 22.9785C38.9886 23.7118 41.4331 24.8118 41.4331 26.1563C41.4331 28.2341 35.1997 29.9452 27.4997 29.9452C19.7997 29.9452 13.5664 28.2341 13.5664 26.1563C13.5664 24.8118 16.1331 23.7118 19.922 22.9785" stroke="#979797" stroke-miterlimit="10"/>
<path d="M33.6103 32.2672C31.777 32.5117 29.6992 32.6339 27.4992 32.6339C24.1992 32.6339 21.0214 32.2672 18.6992 31.7783" stroke="#979797" stroke-miterlimit="10"/>
<path d="M34.7101 25.0558C36.0546 25.3003 36.9101 25.6669 36.9101 26.0336C36.9101 26.8891 32.6323 27.6225 27.499 27.6225C22.3657 27.6225 18.0879 26.8891 18.0879 26.0336C18.0879 25.5447 19.1879 25.178 20.899 24.9336" stroke="#979797" stroke-miterlimit="10"/>
<path d="M18.9437 29.2111C18.9437 29.2111 17.966 38.5 17.8438 43.1444C17.8438 43.1444 18.5771 45.8333 27.4993 45.8333C36.4215 45.8333 37.2771 43.2666 37.2771 43.2666C37.2771 43.2666 37.6437 38.6222 36.2993 29.0889" stroke="#979797" stroke-miterlimit="10"/>
</g>
<defs>
<clipPath id="clip0">
<rect width="55" height="55" fill="white"/>
</clipPath>
</defs>
</svg>
