<svg width="55" height="55" viewBox="0 0 55 55" fill="none" xmlns="http://www.w3.org/2000/svg">
<path d="M37.7675 20.289C37.7675 20.289 39.112 19.6779 38.3786 17.9668C38.3786 17.9668 37.7675 16.7446 36.5453 16.8668C36.5453 16.8668 33.8564 16.7446 33.8564 20.0446C33.8564 20.0446 33.9786 23.7112 37.7675 23.2223C37.7675 23.2223 41.5564 22.6112 41.5564 18.7001C41.5564 18.7001 41.312 14.1779 36.5453 14.0557H18.4564C13.6898 14.1779 13.4453 18.7001 13.4453 18.7001C13.4453 22.489 17.2342 23.2223 17.2342 23.2223C21.0231 23.589 21.1453 20.0446 21.1453 20.0446C21.1453 16.7446 18.4564 16.8668 18.4564 16.8668C17.2342 16.7446 16.6231 17.9668 16.6231 17.9668C15.8898 19.6779 17.2342 20.289 17.2342 20.289" stroke="#979797" stroke-miterlimit="10" stroke-linejoin="round"/>
<path d="M20.168 22.1221H34.8346" stroke="#979797" stroke-miterlimit="10" stroke-linejoin="round"/>
<path d="M16.9902 23.1006V25.7895H38.0125V23.2228" stroke="#979797" stroke-miterlimit="10" stroke-linejoin="round"/>
<path d="M27.5 25.7891V40.9446" stroke="#979797" stroke-miterlimit="10" stroke-linejoin="round"/>
<path d="M18.457 25.7891V40.9446" stroke="#979797" stroke-miterlimit="10" stroke-linejoin="round"/>
<path d="M36.5449 25.7891V40.9446" stroke="#979797" stroke-miterlimit="10" stroke-linejoin="round"/>
<path d="M22.9785 25.7891V40.9446" stroke="#979797" stroke-miterlimit="10" stroke-linejoin="round"/>
<path d="M32.0234 25.7891V40.9446" stroke="#979797" stroke-miterlimit="10" stroke-linejoin="round"/>
</svg>
