<svg width="55" height="55" viewBox="0 0 55 55" fill="none" xmlns="http://www.w3.org/2000/svg">
<path d="M29.5781 16.5V40.0889" stroke="#979797" stroke-miterlimit="10"/>
<path d="M13.5664 16.5V40.0889" stroke="#979797" stroke-miterlimit="10"/>
<path d="M14.4219 40.5771C14.4219 40.5771 15.7663 41.4327 17.233 40.5771" stroke="#979797" stroke-miterlimit="10"/>
<path d="M20.1666 40.5775C20.1666 40.5775 18.8221 39.722 17.3555 40.5775" stroke="#979797" stroke-miterlimit="10"/>
<path d="M20.166 40.5771C20.166 40.5771 21.5105 41.4327 22.9771 40.5771" stroke="#979797" stroke-miterlimit="10"/>
<path d="M25.9107 40.5775C25.9107 40.5775 24.5663 39.722 23.0996 40.5775" stroke="#979797" stroke-miterlimit="10"/>
<path d="M25.9102 40.5771C25.9102 40.5771 27.2546 41.4327 28.7213 40.5771" stroke="#979797" stroke-miterlimit="10"/>
<path d="M30.1893 40.2109C29.8227 40.2109 29.3338 40.3332 28.7227 40.5776" stroke="#979797" stroke-miterlimit="10"/>
<path d="M14.4217 40.5776C14.4217 40.5776 13.8106 40.2109 12.9551 40.2109" stroke="#979797" stroke-miterlimit="10"/>
<path d="M16.377 18.3333V14.1777" stroke="#979797" stroke-miterlimit="10"/>
<path d="M26.8887 18.3333V14.1777" stroke="#979797" stroke-miterlimit="10"/>
<path d="M21.6328 18.3333V14.1777" stroke="#979797" stroke-miterlimit="10"/>
<path d="M19.0664 26.2783V29.5783" stroke="#979797" stroke-miterlimit="10"/>
<path d="M24.4434 26.2783V29.5783" stroke="#979797" stroke-miterlimit="10"/>
<path d="M29.4551 29.0889H40.2106C40.6995 29.0889 41.0662 29.4555 41.0662 29.9444C41.0662 30.4333 40.6995 30.8 40.2106 30.8H29.4551" stroke="#979797" stroke-miterlimit="10"/>
<path d="M40.2103 30.9219C40.2103 30.9219 40.8214 40.4552 29.6992 40.2108" stroke="#979797" stroke-miterlimit="10"/>
<path d="M35.5662 20.6554H32.3885C32.0218 20.6554 31.7773 20.411 31.7773 20.0443V19.5554C31.7773 19.1888 32.0218 18.9443 32.3885 18.9443H35.5662C35.9329 18.9443 36.1773 19.1888 36.1773 19.5554V19.9221C36.2996 20.411 35.9329 20.6554 35.5662 20.6554Z" stroke="#979797" stroke-miterlimit="10"/>
<path d="M33.9766 19.189C33.9766 17.7224 35.1988 16.3779 36.7877 16.3779C38.2543 16.3779 39.5988 17.6002 39.5988 19.189V28.9668" stroke="#979797" stroke-miterlimit="10"/>
<path d="M13.5664 14.0557H41.4331" stroke="#979797" stroke-miterlimit="10"/>
<path d="M14.4219 16.9883C14.4219 16.9883 15.7663 17.8438 17.233 16.9883" stroke="#979797" stroke-miterlimit="10"/>
<path d="M20.1666 16.9886C20.1666 16.9886 18.8221 16.1331 17.3555 16.9886" stroke="#979797" stroke-miterlimit="10"/>
<path d="M20.166 16.9883C20.166 16.9883 21.5105 17.8438 22.9771 16.9883" stroke="#979797" stroke-miterlimit="10"/>
<path d="M25.9107 16.9886C25.9107 16.9886 24.5663 16.1331 23.0996 16.9886" stroke="#979797" stroke-miterlimit="10"/>
<path d="M25.9102 16.9883C25.9102 16.9883 27.2546 17.8438 28.7213 16.9883" stroke="#979797" stroke-miterlimit="10"/>
<path d="M28.7227 16.9887C29.2115 16.7443 29.7004 16.6221 30.1893 16.6221" stroke="#979797" stroke-miterlimit="10"/>
<path d="M14.4217 16.9887C14.4217 16.9887 13.8106 16.6221 12.9551 16.6221" stroke="#979797" stroke-miterlimit="10"/>
</svg>
