<svg width="55" height="55" viewBox="0 0 55 55" fill="none" xmlns="http://www.w3.org/2000/svg">
<path d="M19.0674 22.7332H37.1563C37.1563 22.7332 39.3563 22.122 40.3341 21.2665C40.3341 21.2665 42.9008 19.6776 44.2452 21.1443C44.2452 21.1443 46.2008 22.8554 45.8341 26.0332C45.8341 26.0332 45.7119 32.9998 37.523 34.5887C36.5452 36.1776 35.2008 37.3998 33.6119 38.2554V38.6221V40.9443H22.4897V38.6221V38.2554C21.3897 37.6443 20.4119 36.9109 19.6786 35.9332C17.9674 36.0554 16.2563 34.9554 16.2563 34.9554C11.3674 31.8998 9.28967 23.5887 9.28967 23.5887L8.80078 22.6109H11.6119C11.6119 22.6109 13.4452 26.2776 16.9897 27.2554C17.8452 22.122 22.4897 18.2109 27.9897 18.2109C31.6563 18.2109 34.9563 19.922 37.0341 22.6109" stroke="#979797" stroke-miterlimit="10"/>
<path d="M38.5 25.0553L40.3333 23.9553C40.3333 23.9553 43.0222 22.4886 43.3889 25.0553C43.7556 27.6219 42.2889 29.5775 39.1111 30.9219C39.2333 30.3108 39.2333 29.6997 39.2333 29.0886C39.3556 27.6219 38.9889 26.2775 38.5 25.0553Z" stroke="#979797" stroke-miterlimit="10"/>
<path d="M28.1126 17.7223C29.1252 17.7223 29.946 16.9015 29.946 15.889C29.946 14.8765 29.1252 14.0557 28.1126 14.0557C27.1001 14.0557 26.2793 14.8765 26.2793 15.889C26.2793 16.9015 27.1001 17.7223 28.1126 17.7223Z" stroke="#979797" stroke-miterlimit="10"/>
</svg>
