<svg width="55" height="55" viewBox="0 0 55 55" fill="none" xmlns="http://www.w3.org/2000/svg">
<path d="M27.3777 27.1338C25.2999 27.1338 24.3221 28.356 24.3221 28.356L18.8221 35.0782C18.8221 35.0782 17.4777 37.0338 18.8221 38.9893C20.1666 40.9449 23.2221 40.9449 23.2221 40.9449C23.2221 40.9449 24.4444 40.9449 24.9333 40.8227C25.5444 40.7005 26.0333 40.5782 27.2555 40.5782" stroke="#979797" stroke-miterlimit="10"/>
<path d="M27.3789 27.1338C29.4567 27.1338 30.4345 28.356 30.4345 28.356L35.9345 35.0782C35.9345 35.0782 37.2789 37.0338 35.9345 38.9893C34.59 40.9449 31.5345 40.9449 31.5345 40.9449C31.5345 40.9449 30.3122 40.9449 29.8234 40.8227C29.2122 40.7005 28.7234 40.5782 27.5011 40.5782" stroke="#979797" stroke-miterlimit="10"/>
<path d="M22.8385 24.0728C24.8615 23.9817 26.4005 21.6666 26.276 18.9018C26.1515 16.137 24.4106 13.9695 22.3876 14.0606C20.3646 14.1517 18.8255 16.4669 18.95 19.2317C19.0745 21.9965 20.8154 24.1639 22.8385 24.0728Z" stroke="#979797" stroke-miterlimit="10"/>
<path d="M17.9881 31.4231C19.695 31.0151 20.6335 28.8215 20.0842 26.5237C19.5349 24.2259 17.7059 22.6939 15.9989 23.102C14.292 23.51 13.3535 25.7036 13.9028 28.0014C14.4521 30.2992 16.2811 31.8312 17.9881 31.4231Z" stroke="#979797" stroke-miterlimit="10"/>
<path d="M36.0729 19.23C36.1974 16.4652 34.6584 14.1501 32.6353 14.059C30.6123 13.9679 28.8714 16.1354 28.7469 18.9001C28.6224 21.6649 30.1615 23.9801 32.1845 24.0712C34.2075 24.1623 35.9484 21.9948 36.0729 19.23Z" stroke="#979797" stroke-miterlimit="10"/>
<path d="M41.0959 27.9538C41.6452 25.656 40.7067 23.4625 38.9998 23.0544C37.2928 22.6464 35.4638 24.1783 34.9145 26.4762C34.3652 28.774 35.3037 30.9675 37.0106 31.3756C38.7176 31.7836 40.5466 30.2516 41.0959 27.9538Z" stroke="#979797" stroke-miterlimit="10"/>
</svg>
