<svg width="55" height="55" viewBox="0 0 55 55" fill="none" xmlns="http://www.w3.org/2000/svg">
<path d="M40.457 19.4336H43.6348" stroke="#979797" stroke-miterlimit="10"/>
<path d="M40.457 22.1221H43.6348" stroke="#979797" stroke-miterlimit="10"/>
<path d="M40.457 24.8115H43.6348" stroke="#979797" stroke-miterlimit="10"/>
<path d="M40.457 27.5H43.6348" stroke="#979797" stroke-miterlimit="10"/>
<path d="M40.457 30.3115H43.6348" stroke="#979797" stroke-miterlimit="10"/>
<path d="M40.457 33H43.6348" stroke="#979797" stroke-miterlimit="10"/>
<path d="M43.6339 14.0557H22.9783C22.1227 14.0557 21.3894 14.789 21.3894 15.6446V35.3223C21.3894 36.1779 22.1227 36.9112 22.9783 36.9112H27.9894C28.845 36.9112 29.5783 37.6446 29.5783 38.5001V39.6001C29.5783 40.4557 28.845 41.189 27.9894 41.189H11.3672" stroke="#979797" stroke-miterlimit="10"/>
<path d="M21.3887 20.2891C21.3887 19.4335 22.122 18.7002 22.9776 18.7002H40.4553" stroke="#979797" stroke-miterlimit="10"/>
<path d="M21.3887 25.0557C21.3887 24.2001 22.122 23.4668 22.9776 23.4668H40.4553" stroke="#979797" stroke-miterlimit="10"/>
<path d="M21.3887 29.8223C21.3887 28.9667 22.122 28.2334 22.9776 28.2334H40.4553" stroke="#979797" stroke-miterlimit="10"/>
<path d="M21.3887 34.4668C21.3887 33.6113 22.122 32.8779 22.9776 32.8779H43.6331" stroke="#979797" stroke-miterlimit="10"/>
<path d="M24.8125 14.0557V33.0001" stroke="#979797" stroke-miterlimit="10"/>
<path d="M30.0664 14.0557V33.0001" stroke="#979797" stroke-miterlimit="10"/>
<path d="M35.2012 14.0557V33.0001" stroke="#979797" stroke-miterlimit="10"/>
<path d="M40.457 14.0557V33.0001" stroke="#979797" stroke-miterlimit="10"/>
<path d="M40.457 16.7441H43.6348" stroke="#979797" stroke-miterlimit="10"/>
<path d="M40.457 14.0557H43.6348" stroke="#979797" stroke-miterlimit="10"/>
<path d="M29.457 38.8668V34.4668" stroke="#979797" stroke-miterlimit="10"/>
<path d="M19.6783 22H11.3672" stroke="#979797" stroke-miterlimit="10"/>
<path d="M19.678 26.7666H14.7891" stroke="#979797" stroke-miterlimit="10"/>
<path d="M19.678 31.5332H14.7891" stroke="#979797" stroke-miterlimit="10"/>
<path d="M19.678 36.1777H14.7891" stroke="#979797" stroke-miterlimit="10"/>
<path d="M11.3672 24.6895H14.7894" stroke="#979797" stroke-miterlimit="10"/>
<path d="M11.3672 27.3779H14.7894" stroke="#979797" stroke-miterlimit="10"/>
<path d="M11.3672 30.1895H14.7894" stroke="#979797" stroke-miterlimit="10"/>
<path d="M11.3672 32.8779H14.7894" stroke="#979797" stroke-miterlimit="10"/>
<path d="M11.3672 35.5664H14.7894" stroke="#979797" stroke-miterlimit="10"/>
<path d="M11.3672 38.2559H14.7894" stroke="#979797" stroke-miterlimit="10"/>
<path d="M14.7891 40.9444V22" stroke="#979797" stroke-miterlimit="10"/>
<path d="M20.168 40.9447V38.2559" stroke="#979797" stroke-miterlimit="10"/>
<path d="M25.0566 40.9447V38.2559" stroke="#979797" stroke-miterlimit="10"/>
</svg>
