<svg width="55" height="55" viewBox="0 0 55 55" fill="none" xmlns="http://www.w3.org/2000/svg">
<path d="M16.8663 37.5223C16.8663 37.5223 16.8663 36.3001 18.2108 36.3001H27.9885C27.9885 36.3001 39.5997 35.9334 40.5774 16.5001C40.5774 15.1557 39.4774 14.0557 38.133 14.0557H16.8663C15.5219 14.0557 14.4219 15.1557 14.4219 16.5001V38.5001C14.4219 39.8446 15.5219 40.9446 16.8663 40.9446H38.2552C39.5997 40.9446 40.6997 39.8446 40.6997 38.5001V27.5001" stroke="#979797" stroke-miterlimit="10"/>
<path d="M28.1117 36.3002C28.1117 36.3002 31.9006 34.8335 31.0451 31.4113C30.1895 27.9891 27.0117 27.5002 27.0117 27.5002C27.0117 27.5002 39.3562 25.4224 40.4562 18.7002" stroke="#979797" stroke-miterlimit="10"/>
</svg>
