<svg width="55" height="55" viewBox="0 0 55 55" fill="none" xmlns="http://www.w3.org/2000/svg">
<path d="M19.9218 18.0889H14.0552C12.9552 18.0889 12.0996 18.9444 12.0996 20.0444C12.0996 21.1444 12.9552 22 14.0552 22H19.9218" stroke="#979797" stroke-miterlimit="10"/>
<path d="M37.7656 18.0889H41.0656C42.1656 18.0889 43.0212 18.9444 43.0212 20.0444C43.0212 21.1444 42.1656 22 41.0656 22H37.7656" stroke="#979797" stroke-miterlimit="10"/>
<path d="M18.6987 16.2557C19.3098 16.2557 19.9209 16.7446 19.9209 17.4779V40.9446H37.7653V17.4779C37.7653 15.6446 36.1764 14.0557 34.3431 14.0557H19.432C17.5987 14.0557 16.0098 15.6446 16.0098 17.4779V18.089" stroke="#979797" stroke-miterlimit="10"/>
<path d="M19.9219 37.1553H37.7663" stroke="#979797" stroke-miterlimit="10"/>
<path d="M16.0098 22.1221V31.7776H19.9209" stroke="#979797" stroke-miterlimit="10"/>
<path d="M16.0098 27.8672H19.9209" stroke="#979797" stroke-miterlimit="10"/>
</svg>
