<svg width="55" height="55" viewBox="0 0 55 55" fill="none" xmlns="http://www.w3.org/2000/svg">
<path d="M37.5232 27.2557C37.5232 27.8668 37.401 27.8668 37.7676 28.4779C38.1343 29.089 37.5232 29.5779 37.5232 29.5779C37.2787 29.9446 36.9121 29.5779 36.9121 29.5779C36.1787 29.3335 35.9343 29.3335 35.9343 29.3335H22.2454C22.2454 29.3335 22.001 29.3335 21.2676 29.7002C21.2676 29.7002 20.901 30.0668 20.6565 29.7002C20.6565 29.7002 20.0454 29.089 20.4121 28.6002C20.7787 27.8668 20.6565 27.8668 20.6565 27.3779V20.1668C20.6565 19.5557 20.7787 19.5557 20.4121 18.9446C20.0454 18.3335 20.6565 17.8446 20.6565 17.8446C20.901 17.4779 21.2676 17.8446 21.2676 17.8446C22.001 18.2113 22.2454 18.2113 22.2454 18.2113H35.9343C35.9343 18.2113 36.1787 18.2113 36.9121 17.8446C36.9121 17.8446 37.2787 17.4779 37.5232 17.8446C37.5232 17.8446 38.1343 18.4557 37.7676 18.9446C37.401 19.6779 37.5232 19.6779 37.5232 20.1668V27.2557Z" stroke="#979797" stroke-miterlimit="10"/>
<path d="M20.6566 25.9116H19.0677C19.0677 25.9116 18.8232 25.9116 18.0899 26.2783C18.0899 26.2783 17.7232 26.6449 17.4788 26.2783C17.4788 26.2783 16.8677 25.6672 17.2343 25.1783C17.601 24.4449 17.4788 24.4449 17.4788 23.9561V16.745C17.4788 16.1338 17.601 16.1338 17.2343 15.5227C16.8677 14.9116 17.4788 14.4227 17.4788 14.4227C17.7232 14.0561 18.0899 14.4227 18.0899 14.4227C18.8232 14.7894 19.0677 14.7894 19.0677 14.7894H32.7566C32.7566 14.7894 33.001 14.7894 33.7343 14.4227C33.7343 14.4227 34.101 14.0561 34.3455 14.4227C34.3455 14.4227 34.9566 15.0338 34.5899 15.5227C34.2232 16.2561 34.3455 16.2561 34.3455 16.745V18.0894" stroke="#979797" stroke-miterlimit="10"/>
<path d="M13.2012 36.5448L15.0345 25.5448C15.2789 24.6892 16.0123 24.0781 16.8678 24.0781H17.4789" stroke="#979797" stroke-miterlimit="10"/>
<path d="M41.8012 34.7116L39.9679 25.4227C39.7234 24.5672 38.9901 23.9561 38.1345 23.9561H37.5234" stroke="#979797" stroke-miterlimit="10"/>
<path d="M39.967 37.0342C41.067 37.0342 41.9226 36.1786 41.9226 35.0786C41.9226 33.9786 41.067 33.123 39.967 33.123H16.9892C14.7892 33.123 13.0781 34.8342 13.0781 37.0342C13.0781 39.2342 14.7892 40.9453 16.9892 40.9453H39.8448C40.9448 40.9453 41.8003 40.0897 41.8003 38.9897C41.9226 37.8897 41.067 37.0342 39.967 37.0342ZM39.967 37.0342H18.3337" stroke="#979797" stroke-miterlimit="10"/>
</svg>
