<svg width="55" height="55" viewBox="0 0 55 55" fill="none" xmlns="http://www.w3.org/2000/svg">
<path d="M13.9336 18.5779C13.9336 18.5779 15.0336 14.4223 20.6558 14.0557H34.1003C39.8447 14.4223 40.8225 18.5779 40.8225 18.5779" stroke="#979797" stroke-miterlimit="10"/>
<path d="M13.9336 18.5781C13.9336 18.5781 15.0336 22.7337 20.6558 23.1003H34.1003C39.8447 22.7337 40.8225 18.5781 40.8225 18.5781" stroke="#979797" stroke-miterlimit="10"/>
<path d="M13.0781 18.5781H41.9226" stroke="#979797" stroke-miterlimit="10"/>
<path d="M17.4785 19.9219L21.3896 16.0107" stroke="#979797" stroke-miterlimit="10"/>
<path d="M21.6328 21.7553L27.4995 15.8887" stroke="#979797" stroke-miterlimit="10"/>
<path d="M27.8672 21.6333L33.7339 15.7666" stroke="#979797" stroke-miterlimit="10"/>
<path d="M34.0996 21.6339L38.0107 17.6006" stroke="#979797" stroke-miterlimit="10"/>
<path d="M13.9336 27.4998C13.9336 27.4998 15.0336 23.3442 20.6558 22.9775H34.1003C39.8447 23.3442 40.8225 27.4998 40.8225 27.4998" stroke="#979797" stroke-miterlimit="10"/>
<path d="M13.9336 27.5C13.9336 27.5 15.0336 31.6556 20.6558 32.0222H34.1003C39.8447 31.6556 40.8225 27.5 40.8225 27.5" stroke="#979797" stroke-miterlimit="10"/>
<path d="M38.2559 27.5H41.9225" stroke="#979797" stroke-miterlimit="10"/>
<path d="M32.0234 27.5H35.6901" stroke="#979797" stroke-miterlimit="10"/>
<path d="M25.7891 27.5H29.578" stroke="#979797" stroke-miterlimit="10"/>
<path d="M19.6777 27.5H23.3444" stroke="#979797" stroke-miterlimit="10"/>
<path d="M13.0781 27.5H17.4781" stroke="#979797" stroke-miterlimit="10"/>
<path d="M13.9336 36.4226C13.9336 36.4226 15.0336 32.2671 20.6558 31.9004H34.1003C39.8447 32.2671 40.8225 36.4226 40.8225 36.4226" stroke="#979797" stroke-miterlimit="10"/>
<path d="M13.9336 36.4219C13.9336 36.4219 15.0336 40.5774 20.6558 40.9441H34.1003C39.8447 40.5774 40.8225 36.4219 40.8225 36.4219" stroke="#979797" stroke-miterlimit="10"/>
<path d="M25.7891 36.4219H41.9224" stroke="#979797" stroke-miterlimit="10"/>
<path d="M13.0781 36.4219H18.8226" stroke="#979797" stroke-miterlimit="10"/>
</svg>
