<svg width="55" height="55" viewBox="0 0 55 55" fill="none" xmlns="http://www.w3.org/2000/svg">
<path d="M27.5007 21.0225C24.2007 21.2669 24.6896 24.6891 24.6896 24.6891C24.6896 24.6891 24.8118 26.5225 27.5007 26.6447" stroke="#979797" stroke-miterlimit="10"/>
<path d="M26.4002 21.267C26.4002 21.267 23.4669 18.3336 15.0336 17.1114C15.0336 17.1114 13.5669 16.867 13.078 17.7225C12.5891 18.5781 11.0002 23.467 11.3669 25.5448C11.7336 27.6225 12.7114 30.067 13.4447 30.6781C14.3002 31.2892 16.0114 30.9225 16.0114 30.9225C16.0114 30.9225 20.6558 30.067 25.5447 26.0336" stroke="#979797" stroke-miterlimit="10"/>
<path d="M12.8342 29.8222C12.8342 29.8222 12.7119 29.3333 13.5675 28.4777C13.5675 28.4777 14.7897 26.6444 24.9342 25.1777" stroke="#979797" stroke-miterlimit="10"/>
<path d="M17.8444 30.4336L16.5 32.6336C16.5 32.6336 17.6 37.8891 22 40.4558C22 40.4558 21.8778 33.978 25.4222 28.1113" stroke="#979797" stroke-miterlimit="10"/>
<path d="M14.4219 19.1895C14.4219 19.1895 19.3108 19.5561 24.8108 22.7339" stroke="#979797" stroke-miterlimit="10"/>
<path d="M27.5 21.0225C30.8 21.2669 30.3111 24.6891 30.3111 24.6891C30.3111 24.6891 30.1889 26.5225 27.5 26.6447" stroke="#979797" stroke-miterlimit="10"/>
<path d="M28.5996 21.267C28.5996 21.267 31.5329 18.3336 39.9663 17.1114C39.9663 17.1114 41.4329 16.867 41.9218 17.7225C42.4107 18.5781 43.8774 23.3448 43.5107 25.4225C43.1441 27.5003 42.1663 29.9448 41.4329 30.5559C40.6996 31.167 38.8663 30.8003 38.8663 30.8003C38.8663 30.8003 34.2218 29.9448 29.3329 25.9114" stroke="#979797" stroke-miterlimit="10"/>
<path d="M42.1664 29.8222C42.1664 29.8222 42.2886 29.3333 41.4331 28.4777C41.4331 28.4777 40.2109 26.6444 30.0664 25.1777" stroke="#979797" stroke-miterlimit="10"/>
<path d="M37.1559 30.4336L38.5003 32.6336C38.5003 32.6336 37.4003 37.8891 33.0003 40.4558C33.0003 40.4558 33.1226 33.978 29.5781 28.1113" stroke="#979797" stroke-miterlimit="10"/>
<path d="M40.5783 19.1895C40.5783 19.1895 35.6895 19.5561 30.1895 22.7339" stroke="#979797" stroke-miterlimit="10"/>
</svg>
