<svg width="55" height="55" viewBox="0 0 55 55" fill="none" xmlns="http://www.w3.org/2000/svg">
<path d="M33.0014 40.8227C34.5903 40.8227 35.9347 39.4782 35.9347 37.8894V37.5227V18.3338H35.2014C34.1014 18.3338 33.2458 17.4783 33.2458 16.3783V14.9116V9.04492H31.0458V16.3783C31.0458 17.4783 30.1903 18.3338 29.0903 18.3338H26.1569C25.0569 18.3338 24.2014 17.4783 24.2014 16.3783V9.04492H22.0014V14.9116V16.3783C22.0014 17.4783 21.1458 18.3338 20.0458 18.3338H19.3125V37.5227V37.8894C19.3125 39.4782 20.6569 40.8227 22.2458 40.8227H33.0014Z" stroke="#979797" stroke-miterlimit="10"/>
<path d="M28.9679 28.6004H30.1901C30.9235 28.6004 31.5346 27.9893 31.5346 27.2559V22.4893H30.5568H24.4457H23.3457V27.2559C23.3457 27.9893 23.9568 28.6004 24.6901 28.6004H25.9124H28.9679Z" stroke="#979797" stroke-miterlimit="10"/>
<path d="M13.4453 34.223C13.4453 34.223 16.3786 33.6119 16.3786 30.1897V26.0342C16.3786 26.0342 16.2564 22.9786 19.0675 22.123" stroke="#979797" stroke-miterlimit="10"/>
<path d="M41.5558 34.223C41.5558 34.223 38.6225 33.6119 38.6225 30.1897V26.0342C38.6225 26.0342 38.7447 22.9786 35.9336 22.123" stroke="#979797" stroke-miterlimit="10"/>
<path d="M23.3457 24.5674H31.6568" stroke="#979797" stroke-miterlimit="10"/>
</svg>
