<svg width="55" height="55" viewBox="0 0 55 55" fill="none" xmlns="http://www.w3.org/2000/svg">
<path d="M26.9805 26.3997C26.9805 26.3997 27.4511 12.833 35.9216 8.92188C35.9216 8.92188 31.6864 14.0552 31.4511 26.3997" stroke="#979797" stroke-miterlimit="10"/>
<path d="M31.5625 23.5883C31.5625 23.5883 33.6801 19.7994 37.6802 18.5771C37.6802 18.5771 34.9743 20.8994 35.6801 26.3994" stroke="#979797" stroke-miterlimit="10"/>
<path d="M19.2078 26.3992C19.2078 26.3992 19.9137 21.6326 16.502 16.6215C16.502 16.6215 23.2078 18.9437 23.5608 26.3992C23.5608 26.3992 23.7961 16.4992 19.4431 11.6104C19.4431 11.6104 23.3255 12.4659 26.3843 17.1104" stroke="#979797" stroke-miterlimit="10"/>
<path d="M28.8567 29.8218H16.8567C16.3861 29.8218 16.0332 29.5773 16.0332 29.0885V27.0107C16.0332 26.644 16.3861 26.2773 16.8567 26.2773H39.2097C39.6803 26.2773 40.0332 26.5218 40.0332 27.0107V29.0885C40.0332 29.4551 39.6803 29.8218 39.2097 29.8218H34.0332" stroke="#979797" stroke-miterlimit="10"/>
<path d="M39.2084 29.8223L36.8555 39.6C36.8555 39.6 36.5025 40.7 35.2084 40.7H20.8555C19.5614 40.7 19.2084 39.6 19.2084 39.6L16.8555 29.8223" stroke="#979797" stroke-miterlimit="10"/>
</svg>
