<svg width="55" height="55" viewBox="0 0 55 55" fill="none" xmlns="http://www.w3.org/2000/svg">
<path d="M14.9753 44.6255C14.4786 44.426 13.934 44.2986 13.4941 44.0123C12.4781 43.3494 12.0066 42.3523 12.0039 41.143C11.9991 38.7875 11.9991 36.4321 12.0039 34.0767C12.0039 31.8345 12.0039 29.5919 12.0039 27.3491C11.9964 27.2259 12.0074 27.1023 12.0365 26.9824C12.0641 26.8711 12.1321 26.7739 12.2271 26.7097C12.3222 26.6455 12.4376 26.6188 12.5513 26.6347C12.6657 26.6372 12.7752 26.6815 12.8592 26.7592C12.9432 26.8369 12.9959 26.9426 13.0073 27.0565C13.0215 27.1797 13.0249 27.3039 13.0173 27.4276V40.984C13.0173 42.6314 13.9963 43.6113 15.6428 43.6113H38.5351C40.1607 43.6113 41.1434 42.626 41.1434 41.0003C41.1434 34.4976 41.1434 27.9948 41.1434 21.4921V21.0965H40.7451C38.7045 21.0965 36.6643 21.0965 34.6244 21.0965C32.5074 21.0965 31.0669 19.6515 31.0641 17.5263C31.0641 15.4979 31.0641 13.4694 31.0641 11.4409V11.02H15.5759C14.0198 11.0209 13.0182 12.0216 13.0173 13.5787C13.0173 17.2075 13.0173 20.8361 13.0173 24.4644C13.0218 24.577 13.02 24.6898 13.0119 24.8022C12.9793 25.0912 12.8032 25.2601 12.5233 25.2673C12.2433 25.2745 12.0626 25.1047 12.0121 24.8239C12 24.7232 11.997 24.6216 12.003 24.5204C12.003 20.8801 12.003 17.24 12.003 13.6003C12.0039 11.4608 13.4517 10.0076 15.5822 10.0067C20.8344 10.0067 26.0869 10.0049 31.3396 10.0013C31.4787 9.9941 31.6176 10.0177 31.7465 10.0703C31.8755 10.1229 31.9912 10.2032 32.0856 10.3056C32.6329 10.8737 33.201 11.4219 33.7546 11.9837C34.0211 12.2546 34.0382 12.5355 33.8206 12.7586C33.6029 12.9817 33.3166 12.969 33.0728 12.7261C32.7639 12.4199 32.4722 12.0939 32.1696 11.7778L32.091 11.8256C32.0856 11.9159 32.0748 12.0162 32.0748 12.111C32.0748 13.9252 32.0748 15.7393 32.0748 17.5534C32.0748 19.0888 33.0746 20.0823 34.6208 20.0823H40.3938C40.2709 19.9486 40.1942 19.8583 40.1111 19.7752C38.3987 18.061 36.6857 16.3474 34.9721 14.6344C34.8876 14.5597 34.8093 14.4782 34.7382 14.3906C34.5819 14.172 34.5801 13.939 34.7626 13.7421C34.9586 13.5299 35.1988 13.5236 35.4345 13.6807C35.5152 13.7422 35.5896 13.8115 35.6567 13.8875C37.7213 15.9509 39.7865 18.0138 41.8523 20.076C41.9541 20.1711 42.0342 20.2871 42.0872 20.416C42.1402 20.5449 42.1648 20.6836 42.1594 20.8229C42.1534 27.5622 42.1516 34.3013 42.154 41.04C42.154 42.9068 41.1127 44.1812 39.272 44.5795C39.2401 44.5907 39.2098 44.6059 39.1817 44.6246L14.9753 44.6255Z" fill="#979797"/>
<path d="M37.278 25.9422C37.9517 25.2657 38.5523 24.6561 39.1629 24.0573C39.2703 23.9525 39.4284 23.8153 39.5503 23.827C39.7416 23.8489 39.9186 23.939 40.0489 24.0808C40.2132 24.2777 40.1292 24.5116 39.9585 24.6886C39.4835 25.1703 39.0054 25.6484 38.5243 26.1228C38.3717 26.2727 38.2046 26.4064 38.0158 26.5744L39.6533 28.2091C39.749 28.3049 39.8474 28.3979 39.9387 28.4972C40.1771 28.7564 40.1915 29.0328 39.9802 29.2468C39.7689 29.4609 39.4826 29.4582 39.2306 29.2152C38.8576 28.854 38.4927 28.4873 38.1305 28.117C37.8713 27.8524 37.6212 27.5751 37.38 27.3231L32.9672 31.7405L34.2641 33.0311C34.3545 33.1214 34.4448 33.2036 34.5233 33.2966C34.7184 33.5233 34.7211 33.8033 34.5369 33.9993C34.4911 34.0492 34.4355 34.0892 34.3736 34.1168C34.3117 34.1444 34.2448 34.1589 34.177 34.1595C34.1092 34.1601 34.0421 34.1467 33.9797 34.1202C33.9173 34.0938 33.861 34.0547 33.8144 34.0056C33.407 33.6163 33.0124 33.2135 32.6168 32.8125C32.4985 32.6924 32.3946 32.5587 32.3106 32.4621L27.8969 36.8776L29.1893 38.1655C29.9118 38.888 30.6365 39.6136 31.3632 40.3421C31.664 40.6447 31.691 40.9382 31.4535 41.164C31.216 41.3898 30.9468 41.3518 30.6551 41.061C29.5713 39.9772 28.4876 38.8935 27.4038 37.8097C27.306 37.6966 27.2155 37.5774 27.1328 37.4529C26.8393 37.7708 26.6117 38.0336 26.3678 38.2802C25.4864 39.1677 24.6019 40.0522 23.7144 40.9337C23.4154 41.2317 23.1183 41.2588 22.8925 41.0186C22.6667 40.7783 22.7119 40.5092 22.9973 40.222C24.0407 39.1773 25.0854 38.1339 26.1312 37.0917C26.222 37.0157 26.3197 36.9483 26.4229 36.8903L22.03 32.5054L17.6686 36.8695C18.7443 37.9424 19.8534 39.0479 20.9615 40.1543C21.0687 40.254 21.1703 40.3595 21.2659 40.4704C21.4465 40.6971 21.4411 40.9364 21.2424 41.1414C21.0437 41.3464 20.8035 41.3573 20.5714 41.1848C20.4844 41.1133 20.4026 41.0357 20.3266 40.9526L16.8784 37.5089C16.6074 37.797 16.3419 38.0833 16.0655 38.3597C15.6862 38.7462 15.306 39.131 14.9158 39.5049C14.6675 39.7424 14.3739 39.7361 14.1662 39.5139C13.9585 39.2917 13.9756 39.0262 14.2096 38.7914C14.8598 38.1366 15.5191 37.4899 16.201 36.8135C15.5462 36.165 14.9104 35.5427 14.2863 34.9087C14.1743 34.7949 14.0361 34.6206 14.0506 34.4897C14.0815 34.2996 14.1823 34.1279 14.3333 34.0083C14.541 33.8529 14.7614 33.9622 14.9357 34.1365L16.6824 35.8805C16.7456 35.9437 16.8124 36.0034 16.8513 36.0395L21.1702 31.7215L16.8233 27.3863L15.1515 29.068C15.0721 29.1475 14.9962 29.2315 14.9113 29.3055C14.6656 29.5205 14.3902 29.5223 14.1888 29.3173C13.9874 29.1123 13.9802 28.8287 14.2032 28.5948C14.5058 28.2759 14.821 27.9689 15.1335 27.6609C15.4776 27.3204 15.8253 26.9835 16.2173 26.5997C15.875 26.2682 15.5525 25.9603 15.2346 25.6487C14.9167 25.3371 14.5771 24.9966 14.2529 24.666C13.982 24.3951 13.9621 24.1178 14.177 23.892C14.392 23.6662 14.6936 23.6807 14.9745 23.9589C15.614 24.5911 16.248 25.2323 16.8712 25.8555L21.2063 21.5203L16.8432 17.159C16.2543 17.7497 15.6338 18.3882 14.9917 19.0032C14.8598 19.1306 14.6395 19.2453 14.4715 19.2299C14.3829 19.2094 14.3009 19.1672 14.2326 19.1071C14.1644 19.0471 14.1121 18.971 14.0804 18.8858C14.0678 18.7908 14.0755 18.6942 14.1028 18.6024C14.1302 18.5106 14.1768 18.4255 14.2394 18.353C14.7813 17.7759 15.3448 17.2276 15.9057 16.6722C15.996 16.5819 16.0981 16.516 16.22 16.4175C15.595 15.797 15.0143 15.2181 14.4344 14.641C14.3541 14.5615 14.2701 14.4857 14.196 14.4008C13.9829 14.1587 13.9811 13.8796 14.1861 13.6782C14.3911 13.4768 14.6792 13.4696 14.9086 13.6945C15.4098 14.1804 15.9021 14.6771 16.3934 15.1739C16.5514 15.3337 16.6968 15.5062 16.8703 15.6968C16.9913 15.5812 17.0798 15.5017 17.1638 15.4177C18.209 14.3713 19.2531 13.3251 20.2959 12.2792C20.4937 12.0806 20.7023 11.9514 20.985 12.0986C21.3029 12.2657 21.3544 12.6405 21.0753 12.9232C20.6545 13.3621 20.2183 13.7875 19.7874 14.2165L17.6569 16.3453L21.9921 20.6732L26.3696 16.2838C26.2128 16.1644 26.0621 16.0372 25.9181 15.9027C24.9499 14.9427 23.9826 13.9817 23.028 13.0072C22.8988 12.8744 22.776 12.6595 22.785 12.4906C22.7931 12.3425 22.9738 12.1149 23.1111 12.0869C23.2113 12.0733 23.3132 12.0809 23.4103 12.1092C23.5074 12.1376 23.5974 12.1859 23.6746 12.2512C24.5778 13.1183 25.4548 14.0088 26.3371 14.8957C26.59 15.1504 26.8321 15.4177 27.0976 15.6986L29.4503 13.3432C29.546 13.2474 29.6373 13.1472 29.7393 13.0587C29.9678 12.8609 30.2406 12.8591 30.4402 13.0469C30.4912 13.092 30.5323 13.1473 30.5606 13.2092C30.589 13.2711 30.604 13.3383 30.6048 13.4064C30.6055 13.4745 30.592 13.542 30.565 13.6045C30.5381 13.6671 30.4983 13.7232 30.4483 13.7695C30.1087 14.1307 29.752 14.4748 29.4006 14.8252L27.8264 16.3913L29.9507 18.5101C30.0301 18.5896 30.1141 18.6664 30.1864 18.7522C30.3797 18.9807 30.377 19.2561 30.1864 19.4521C30.1423 19.5001 30.089 19.5387 30.0297 19.5657C29.9704 19.5927 29.9063 19.6074 29.8411 19.6091C29.776 19.6108 29.7112 19.5994 29.6506 19.5755C29.59 19.5516 29.5348 19.5158 29.4882 19.4702C29.3347 19.3392 29.1974 19.1884 29.0538 19.0448C28.4162 18.4081 27.7804 17.7704 27.1572 17.1482L22.8139 21.505L27.1491 25.8447C27.2123 25.7841 27.3008 25.7029 27.3857 25.618C28.5965 24.4071 29.8062 23.1957 31.0146 21.9837C31.0787 21.9195 31.1392 21.8518 31.2079 21.794C31.4409 21.5962 31.7064 21.5944 31.9087 21.7859C32.111 21.9773 32.1264 22.2682 31.915 22.5084C31.8048 22.6357 31.6793 22.7504 31.5592 22.8697L27.8707 26.5482L32.1977 30.8653L36.5825 26.4814C36.4796 26.4255 36.3833 26.3582 36.2953 26.2809C35.1766 25.17 34.0603 24.0561 32.9464 22.9392C32.8541 22.8567 32.7724 22.763 32.7035 22.6601C32.6411 22.5637 32.617 22.4475 32.6359 22.3342C32.6547 22.2209 32.7153 22.1188 32.8055 22.0478C32.8804 21.9684 32.9815 21.9189 33.09 21.9082C33.1986 21.8976 33.3074 21.9266 33.3962 21.99C33.4968 22.0618 33.5895 22.1441 33.6726 22.2356C34.7979 23.3592 35.9223 24.4845 37.0459 25.6116C37.1327 25.7149 37.2103 25.8255 37.278 25.9422ZM21.9957 30.9348L26.3037 26.6304C24.8659 25.1926 23.4136 23.7403 21.9785 22.3052L17.675 26.6042L21.9957 30.9348ZM27.094 36.0458L31.4219 31.7107L27.1391 27.4324L22.8094 31.7513L27.094 36.0458Z" fill="#979797"/>
<path d="M37.3134 36.1074C37.96 35.4617 38.5633 34.843 39.1919 34.246C39.3345 34.1112 39.5241 34.0373 39.7203 34.0401C40.1393 34.088 40.2513 34.591 39.9289 34.9216C39.4024 35.4635 38.8659 35.9927 38.3294 36.5229C38.2264 36.6134 38.1178 36.6972 38.0043 36.774L39.5993 38.3662C39.7112 38.4782 39.825 38.5866 39.9325 38.7022C40.1728 38.9614 40.189 39.2351 39.9804 39.4509C39.7718 39.6668 39.4728 39.6659 39.2073 39.4049C38.6696 38.8756 38.1364 38.3419 37.6078 37.8036C37.5177 37.6975 37.4347 37.5856 37.3594 37.4685C36.9801 37.8578 36.6631 38.191 36.3389 38.5162C35.48 39.3769 34.6274 40.2439 33.7504 41.0856C33.6732 41.15 33.5832 41.1975 33.4864 41.2249C33.3897 41.2523 33.2882 41.259 33.1887 41.2446C33.0505 41.2148 32.8698 40.9899 32.8617 40.8445C32.8536 40.6747 32.9764 40.4616 33.1065 40.3288C34.1704 39.245 35.2497 38.1739 36.3253 37.1C36.4156 37.0097 36.5132 36.9392 36.6541 36.82C36.2738 36.4515 35.9261 36.121 35.5847 35.7832C35.2822 35.4834 35.2542 35.1925 35.4944 34.9631C35.7346 34.7337 36.0065 34.7753 36.291 35.0598C36.6306 35.4003 36.9629 35.748 37.3134 36.1074Z" fill="#979797"/>
</svg>
