<?xml version="1.0" encoding="utf-8"?>
<!-- Generator: Adobe Illustrator 25.3.1, SVG Export Plug-In . SVG Version: 6.00 Build 0)  -->
<svg version="1.1" id="Слой_1" xmlns="http://www.w3.org/2000/svg" xmlns:xlink="http://www.w3.org/1999/xlink" x="0px" y="0px"
	 viewBox="0 0 55 55" style="enable-background:new 0 0 55 55;" xml:space="preserve">
<style type="text/css">
	.st0{fill:none;stroke:#979797;stroke-miterlimit:10;}
	.st1{fill:none;stroke:#979797;stroke-linecap:round;stroke-miterlimit:10;}
</style>
<path class="st0" d="M25.6,35.7c4.7-0.2,5.9,1.8,5.9,4.1v1.3c0,2.3-1.8,4.1-4.1,4.1H15.2c-2.3,0-4.1-1.8-4.1-4.1v-1.3
	c0-2.3,0.3-4.4,7.7-4.1"/>
<circle class="st0" cx="14.1" cy="14.4" r="2.2"/>
<circle class="st0" cx="15.2" cy="26.1" r="3.2"/>
<circle class="st0" cx="24" cy="22.9" r="2.1"/>
<circle class="st0" cx="22.2" cy="34.7" r="3.5"/>
<line class="st0" x1="23.1" y1="24.8" x2="21.7" y2="31.2"/>
<path class="st0" d="M30,44.3h9.9c1.4,0,2.6-1.2,2.6-2.6V29.2c0-0.4-0.1-0.7-0.3-1.1l-8-15c-0.2-0.4-0.7-0.7-1.2-0.7H27
	c-0.6,0-1.2,0.4-1.3,1.1L24,20.9"/>
<path class="st0" d="M33.4,17.6L38.8,28c0.4,0.9,0.1,1.9-0.7,2.4v0c-0.9,0.4-1.9,0.1-2.4-0.7l-5.4-10.4c-0.4-0.9-0.1-1.9,0.7-2.4
	l0,0C31.9,16.4,32.9,16.7,33.4,17.6z"/>
<path class="st0" d="M27.7,12.4V9.7c0-0.3,0.3-0.6,0.6-0.6h3.9c0.3,0,0.6,0.3,0.6,0.6v2.8"/>
<path class="st0" d="M18.9,35.7"/>
<path class="st0" d="M25.6,35.7"/>
<path class="st1" d="M22.5,32.7c1.2,0.4,1.9,1.2,1.6,2.8"/>
<path class="st0" d="M11.2,40.4c0,0,4.8-0.3,10.5,0.8c4.2,0.8,9.8-1.1,9.8-1.1"/>
</svg>
