<?xml version="1.0" encoding="utf-8"?>
<!-- Generator: Adobe Illustrator 25.3.1, SVG Export Plug-In . SVG Version: 6.00 Build 0)  -->
<svg version="1.1" id="Слой_1" xmlns="http://www.w3.org/2000/svg" xmlns:xlink="http://www.w3.org/1999/xlink" x="0px" y="0px"
	 viewBox="0 0 55 55" style="enable-background:new 0 0 55 55;" xml:space="preserve">
<style type="text/css">
	.st0{fill:none;stroke:#979797;stroke-miterlimit:10;}
</style>
<g>
	<path class="st0" d="M36.6,41.5L16.1,23.7l1-1.1c1.4-1.6,3.9-1.8,5.6-0.4l14.5,12.6c1.6,1.4,1.8,3.9,0.4,5.6L36.6,41.5z"/>
	<path class="st0" d="M25.2,24.5l1.7-1.9c0.5-0.6,1.4-0.6,2-0.1l7,6.1c0.6,0.5,0.6,1.4,0.1,2l-1.7,1.9"/>
	<path class="st0" d="M22.8,22.4l3.1-3.5c0.9-1,2-0.9,2.9-0.1l10.8,9.4c0.9,0.8,1.2,1.9,0.4,2.9l-3.1,3.5"/>
	<polyline class="st0" points="17.2,24.7 11.3,28.3 32.8,47 35.5,40.6 	"/>
	<line class="st0" x1="33.1" y1="38.5" x2="30.2" y2="44.7"/>
	<line class="st0" x1="27.3" y1="42.1" x2="31" y2="36.7"/>
	<line class="st0" x1="24.7" y1="39.9" x2="28.9" y2="34.9"/>
	<line class="st0" x1="21.9" y1="37.5" x2="26.2" y2="32.5"/>
	<line class="st0" x1="23.6" y1="30.2" x2="19.1" y2="35.1"/>
	<line class="st0" x1="21.2" y1="28.1" x2="16.2" y2="32.6"/>
	<line class="st0" x1="19.3" y1="26.5" x2="13.5" y2="30.2"/>
</g>
<circle class="st0" cx="13.6" cy="17.1" r="2.8"/>
<circle class="st0" cx="24.9" cy="10.7" r="1.7"/>
<circle class="st0" cx="18.4" cy="9.5" r="1.2"/>
<circle class="st0" cx="43.8" cy="36.8" r="1.7"/>
</svg>
