<?xml version="1.0" encoding="utf-8"?>
<!-- Generator: Adobe Illustrator 25.3.1, SVG Export Plug-In . SVG Version: 6.00 Build 0)  -->
<svg version="1.1" id="Слой_1" xmlns="http://www.w3.org/2000/svg" xmlns:xlink="http://www.w3.org/1999/xlink" x="0px" y="0px"
	 viewBox="0 0 55 55" style="enable-background:new 0 0 55 55;" xml:space="preserve">
<style type="text/css">
	.st0{fill:none;stroke:#979797;stroke-miterlimit:10;}
</style>
<path class="st0" d="M37.4,27.7v12.9c0,1.3-1,2.3-2.3,2.3H15.6c-1.3,0-2.3-1-2.3-2.3V14.2c0-1.3,1-2.3,2.3-2.3h19.6
	c1.3,0,2.3,1,2.3,2.3v4.4"/>
<line class="st0" x1="16.8" y1="11.9" x2="16.8" y2="42.9"/>
<path class="st0" d="M31.4,24.6h-8.6c-0.7,0-1.3-0.6-1.3-1.3v-4.6c0-0.7,0.6-1.3,1.3-1.3h9.4c0.7,0,1.3,0.6,1.3,1.3v3.8"/>
<g>
	<polygon class="st0" points="40.3,15.7 37.2,18.8 23.9,32.1 20.9,39.6 27.9,37.1 44.9,20.2 	"/>
	<line class="st0" x1="41.7" y1="23.3" x2="37.2" y2="18.8"/>
	<polyline class="st0" points="23.7,32.6 25.9,34.8 28.1,37 	"/>
	<line class="st0" x1="39.4" y1="21.1" x2="25.9" y2="34.8"/>
</g>
<line class="st0" x1="33.5" y1="22.5" x2="31.4" y2="24.6"/>
</svg>
