<?xml version="1.0" encoding="utf-8"?>
<!-- Generator: Adobe Illustrator 25.3.1, SVG Export Plug-In . SVG Version: 6.00 Build 0)  -->
<svg version="1.1" id="Слой_1" xmlns="http://www.w3.org/2000/svg" xmlns:xlink="http://www.w3.org/1999/xlink" x="0px" y="0px"
	 viewBox="0 0 55 55" style="enable-background:new 0 0 55 55;" xml:space="preserve">
<style type="text/css">
	.st0{fill:none;stroke:#979797;stroke-miterlimit:10;}
	.st1{fill:#FFFFFF;stroke:#979797;stroke-miterlimit:10;}
</style>
<path class="st0" d="M13.1,31.7c0.3-3.2,1.3-13,3.9-14.2c2.9-1.3,14.9-1.7,16.6,0.2c1.4,1.7,3,22,2.8,28.3c0,0.9-0.8,1.6-1.7,1.6
	l-20.5-0.9c-0.8,0-1.4-0.6-1.6-1.4c-0.2-1.4-0.2-3.6-0.1-5.8"/>
<path class="st0" d="M35.8,47.2c0,0,5-1.6,5.5-3.2s0.4-25.3-3.2-28.7c-3.5-3.4-16.8-2.9-18.8-1.2s-3.2,4.2-3.2,4.2"/>
<line class="st0" x1="36.3" y1="40.5" x2="41.5" y2="37.6"/>
<path class="st0" d="M35.8,32.3c0,0-1.6,0.1-1.9,2c-0.2,1.9,1.4,5.3,0.4,5.9c-1,0.5-22.2-0.3-23.1-1c-1-0.6,0.1-6.7,1.3-7.4
	C13.8,31.2,35.8,32.3,35.8,32.3z"/>
<path class="st0" d="M38.7,39.2c0,0-0.4-19.8-2.6-22.3c-1.5-1.7-7-2.3-10.2-2.3c-2.6,0-8.1,1.1-8.1,1.1"/>
<path class="st0" d="M32.5,13.1c0,0-0.3-3.9-4.5-3.9c-3.4,0-4.5,3.8-4.5,3.8"/>
<path class="st0" d="M34.2,13.5c0,0-0.5-6.4-6.3-6.4c-4.7,0-6.4,6.1-6.4,6.1"/>
<circle class="st0" cx="30.5" cy="37.2" r="1.5"/>
<circle class="st0" cx="14.7" cy="36.7" r="1.5"/>
<path class="st0" d="M24.3,22.5c-0.2-0.8-0.2-3.3-1.6-3.8s-2.9,0.8-3,1.9s2.6,2.6,2.9,2.7"/>
<circle class="st1" cx="23.9" cy="23.9" r="1.4"/>
<path class="st0" d="M22.6,23.4c-0.8,0.1-4-0.1-4.5,1.3s0.6,2.9,1.7,3.1s2.9-2.6,3.1-2.9"/>
<path class="st0" d="M24.9,24.9c0.6,0.6,2.2,3.4,3.6,2.8s1.8-2.7,1.2-3.5c-0.7-0.9-4-0.4-4.4-0.3"/>
<path class="st0" d="M25.3,23.9c0.8-0.4,3.6-1,3.6-2.5c0.1-1.5-1.5-2.6-2.6-2.4s-2,3.2-2.1,3.5"/>
<path class="st0" d="M23,24.9c-0.3,0.8-1.5,3.1-0.5,4.3s2.9,0.9,3.6,0s-1-3.9-1.2-4.2"/>
</svg>
