<?xml version="1.0" encoding="utf-8"?>
<!-- Generator: Adobe Illustrator 25.3.1, SVG Export Plug-In . SVG Version: 6.00 Build 0)  -->
<svg version="1.1" id="Слой_1" xmlns="http://www.w3.org/2000/svg" xmlns:xlink="http://www.w3.org/1999/xlink" x="0px" y="0px"
	 viewBox="0 0 55 55" style="enable-background:new 0 0 55 55;" xml:space="preserve">
<style type="text/css">
	.st0{fill:none;stroke:#979797;stroke-miterlimit:10;}
	.st1{fill:none;stroke:#979797;stroke-linecap:round;stroke-miterlimit:10;}
</style>
<path class="st0" d="M32.4,20.5c3.9-2.3,7.1-4.2,7.7-4.4c1.7-0.7,2.4,0,2.4,0c0.6,0.4,1.8,2.9-0.7,5.9c-0.6,0.8-1.6,1.8-2.6,3"/>
<path class="st0" d="M36.9,27.5c-2.6,2.8-5.4,5.5-6.7,5.8c-2.2,0.4-7.6-3.6-11.3-3.2c-3.7,0.3-3.4,0.6-3.4,0.6S23.1,26,29.8,22"/>
<path class="st0" d="M15.6,30.6c0,0-7.2,5.6-7.6,6.8c-0.3,1.2-0.8,4.7,0.9,5.3s13.8,1.6,17.3,0.2c3.6-1.3,8.1-4.1,9.4-5.3
	c1.2-1.2,3-3.5,3.8-3.7c0.7-0.1,1.2,0.4,1.2,0.4c0.3-0.1,4.1-3,4.6-3.8S45,17.4,43.1,16.9"/>
<path class="st0" d="M13.2,32.4c0,0,5.8,0.9,8.6,4.3s2.6,6.7,2.6,6.7"/>
<path class="st0" d="M23.7,25.6c0,0,0.8-4.6,2.7-6c2.6-1.9,14.7,5.6,16.1,9c0,0-1.2,2.4-1.6,2.7s-6.2-6.7-9.7-8.7
	c-2.2-1.3-3.5-1.5-4.1-0.8c-1.1,1.4-1.5,2.7-1.5,2.7"/>
<path class="st1" d="M7.7,40.9c0,0,7.9,1.2,11.8,0.9c2.3-0.2,4.6-0.6,4.6-0.6"/>
</svg>
