<?xml version="1.0" encoding="utf-8"?>
<!-- Generator: Adobe Illustrator 25.3.1, SVG Export Plug-In . SVG Version: 6.00 Build 0)  -->
<svg version="1.1" id="Слой_1" xmlns="http://www.w3.org/2000/svg" xmlns:xlink="http://www.w3.org/1999/xlink" x="0px" y="0px"
	 viewBox="0 0 55 55" style="enable-background:new 0 0 55 55;" xml:space="preserve">
<style type="text/css">
	.st0{fill:none;stroke:#979797;stroke-miterlimit:10;}
	.st1{fill:none;stroke:#979797;stroke-linecap:round;stroke-miterlimit:10;}
</style>
<path class="st0" d="M36.4,30c0,0-0.2-2-0.1-3.9c0.3-5.1-1.9-11.4-1.9-11.2c0.1,1.1,0,8.8,0,8.8s-3.1,0.8-7.9,1
	c-4.8,0.2-7.2-1-7.2-1l0.2-8.7c0,0-1.2,5.8-1.3,8.4c-0.1,2.5,0,6,0,6"/>
<path class="st0" d="M34.4,23.7l7.3,23.1c0,0-5,1.8-6.7,0.5c-1.7-1.3-2-0.8-4.8,0.3c-2.9,1.2-5.4,0.5-6.1-0.4
	c-0.7-0.8-3.7-0.2-5.7,0.4s-3.8-0.1-3.8-0.1l4.7-23.9"/>
<path class="st0" d="M32.9,9.1c0,0,4.4,1.8,5.7,3.7s2.5,16.9,2.6,17.2c0.3,2.6,0.9,3.6,0.5,3.5c-0.1,0-4.1,0.2-4.1,0.2"/>
<path class="st0" d="M21.4,9.2c0,0-4.7,1.8-5.9,3.6C14.2,14.6,13,29.6,12.9,30c-0.3,2.6-0.6,3.6-0.2,3.5c0.1,0,4.7-0.2,4.7-0.2"/>
<path class="st0" d="M26.5,10.1c0,0-3.2,2.3-3.6,2.1c-0.4-0.1-1.7-3.8-1.7-3.8s1.4-1.7,1.8-2C23.7,6,25.9,7.1,26.9,7
	c1-0.1,3.9-1.3,4.2-0.6c0.2,0.5,1.7,2.1,2,2.2c0.1,0-1.9,3.1-2.3,3.4c-0.8,0.6-3.4-1.7-3.6-1.8C27,10.1,26.5,10.1,26.5,10.1z"/>
<path class="st1" d="M25.4,16.5c0.4,0.4,1.8,0.8,2.1-0.1c0.2-0.6-0.2-6.1-0.2-6.1"/>
<line class="st1" x1="33.3" y1="46.6" x2="31.5" y2="32.6"/>
<line class="st1" x1="23.6" y1="47" x2="24.1" y2="34.1"/>
<path class="st1" d="M31.2,6.7c0,0-2.4,3.2-4.1,3.3c-1.7,0.1-4.4-3.3-4.4-3.3"/>
</svg>
