<?xml version="1.0" encoding="utf-8"?>
<!-- Generator: Adobe Illustrator 25.3.1, SVG Export Plug-In . SVG Version: 6.00 Build 0)  -->
<svg version="1.1" id="Слой_1" xmlns="http://www.w3.org/2000/svg" xmlns:xlink="http://www.w3.org/1999/xlink" x="0px" y="0px"
	 viewBox="0 0 55 55" style="enable-background:new 0 0 55 55;" xml:space="preserve">
<style type="text/css">
	.st0{fill:none;stroke:#979797;stroke-miterlimit:10;}
</style>
<polygon class="st0" points="21.6,11.9 18.6,13.9 26.2,24.1 33.7,14 31.1,12.1 26.2,21.8 "/>
<path class="st0" d="M21,12.4l0-1.7c0,0,0.4-1.4,2.1-1.6C24.8,9,30,9,30.9,9.4c0.6,0.3,1.5,0.9,1.4,1.2c0,0.2-0.7,1.9-0.7,1.9"/>
<path class="st0" d="M32.3,10.4c0,0,2.2,1,1.9,1.5c-0.3,0.5-1,1.5-1,1.5"/>
<path class="st0" d="M21.1,10.3c0,0-1.6,1.1-1.9,1.3c-0.3,0.2,0.7,1.4,0.7,1.4"/>
<path class="st0" d="M25.7,23.2c0,0-0.2,18.2-0.2,18.5c0,0.2,0.2,1.9,2,2c1.8,0.1,8.5-0.9,8.5-0.9s-1.2-8-1.1-10.8S35,22.2,36,20.5"
	/>
<path class="st0" d="M16.6,20.1c0,0,1.8,8.7,1.6,11.1C17.9,33.6,17.1,43,17.1,43c0.3,0.1,3.6,1,4.5,1s2.6,0.4,4.8-0.7"/>
<path class="st0" d="M33.7,11.3c0,0,5.1,1.5,5.8,3s2.6,18.4,2.6,18.7c0,0.3-1.1,11.4-1.2,11.8c-0.1,0.3-3.9,0-4.2,0
	c-0.3,0,0.2-11.5,0.1-12.6s-1.5-7.6-1.5-7.6"/>
<path class="st0" d="M19.9,11.2c0,0-5.6,2.4-6.1,3.6s-2.3,14.8-2.4,15.5c-0.1,0.7,0.7,14.5,1,15.1c0.2,0.4,2.4,0.2,3.5,0
	c0.4-0.1,0.8-0.5,0.8-0.9c0-2.6,0.1-11.1,0-11.9c-0.1-0.9,0.4-6.9,1-7.6"/>
<circle class="st0" cx="27.2" cy="30.5" r="0.2"/>
<circle class="st0" cx="27.2" cy="36.6" r="0.2"/>
<path class="st0" d="M21,11.6c0,0,3.9-1.2,5.4-1.2c2.6,0,4.7,1.2,5.4,1.5"/>
</svg>
