<?xml version="1.0" encoding="utf-8"?>
<!-- Generator: Adobe Illustrator 25.3.1, SVG Export Plug-In . SVG Version: 6.00 Build 0)  -->
<svg version="1.1" id="Слой_1" xmlns="http://www.w3.org/2000/svg" xmlns:xlink="http://www.w3.org/1999/xlink" x="0px" y="0px"
	 viewBox="0 0 55 55" style="enable-background:new 0 0 55 55;" xml:space="preserve">
<style type="text/css">
	.st0{fill:none;stroke:#979797;stroke-miterlimit:10;}
	.st1{fill:none;stroke:#979797;stroke-linejoin:round;stroke-miterlimit:10;}
</style>
<path class="st0" d="M7.8,35.8c0.9,0.8,7,3.3,9.6,3.1s8.9,0.1,12.4-1.8c3.6-1.9,8.4-6.1,10.7-6.2c2.3-0.2,5.8-2.1,6.1-2.8
	s1.2,2.6,1.6,3.6c0.3,1-2,3.3-3.8,3.4c-1.8,0.2-6.4,1.6-7.7,1.9c-1.3,0.3-3.8,2.5-5.3,3.2s-4.9,1.6-7.8,1.8
	c-2.8,0.2-7.5,0.7-10.5-0.6S7.9,39.1,7,38.2C6.2,37.5,7.8,35.8,7.8,35.8z"/>
<path class="st0" d="M7.8,35.8c0,0-0.6-2.1,2-3.3s5.4-1.7,6.9-3.2c1-1.1,3.4-2.8,4.7-3.6"/>
<path class="st0" d="M24.6,30.5c0,0,3.8,1.4,3.3,2.5c-0.7,1.8-3.3,1.6-4.2,1.2c-0.9-0.4-2.3-0.5-3.3,0s-2.5,0.7-4.6,0.9
	c-2.8,0.2-6.7-1.9-6.2-2.5"/>
<path class="st0" d="M46.7,28c0.4-1.5,0-5-1.2-7.3c-0.7-1.5-0.6-2.6-1.2-3.1c-0.2-0.2-0.6-0.3-1.3-0.2c-2.3,0.3-2.8,0.7-4.9,1.6
	s-2.8,1.2-2.8,1.2"/>
<path class="st0" d="M29.8,20.3c0.9-0.3,1.5-0.4,2.4-0.4"/>
<path class="st0" d="M24.4,23.5c0.6-0.4,1.1-0.8,1.8-1.4"/>
<path class="st0" d="M24.6,27.4c-0.3,0.3-0.5,0.5-0.6,0.6c-0.6,0.5-3.4,1-3.6,0.1c-0.1-0.5,0.4-1.4,1.2-2.3"/>
<path class="st0" d="M28.9,23c-0.5,0.5-1.4,1.4-1.9,2"/>
<path class="st0" d="M44.3,17.6c-0.2,2.7-2.8,5.6-6.2,3.8c-3.1-1.7-5.3-1.8-5.8-1.6c-0.4,0.2-1.1,0.6-1.5,0.9"/>
<path class="st0" d="M34.6,22.4c1-1,1.6-1.7,1.5-1.9"/>
<path class="st0" d="M29.8,26.7c0.8-0.7,1.7-1.4,2.4-2.1"/>
<path class="st0" d="M17.1,29.1c0,0,2.4,1.6,3.9,1.7s2.1,0.3,4.2-0.6c0.2-0.1,0.9-0.6,1.9-1.3"/>
<path class="st0" d="M19.8,26.8c0,0-1.2-1.4-0.4-1.7c1.2-0.5,10,5.1,10.4,5.8c0.4,0.7,3.6-0.6,2.8-1.8c-0.8-1.3-9.7-6.8-10.5-6.5
	c-0.5,0.2-3,2.7-3,2.7"/>
<path class="st1" d="M24.6,23.2c0,0,1.5-3.8,1.9-3.9c1.1-0.2,11.4,4.4,11.5,4.8s-0.6,2.4-1.4,2.7s-1.3-0.2-2.4-1.2
	c-1-0.9-7.6-3.8-8-3.6C25.9,22.3,24.6,23.2,24.6,23.2z"/>
</svg>
